M48
; DRILL file {KiCad (6.0.5-0)} date Tuesday, May 24, 2022 at 09:59:05 PM
; FORMAT={-:-/ absolute / inch / decimal}
; #@! TF.CreationDate,2022-05-24T21:59:05-05:00
; #@! TF.GenerationSoftware,Kicad,Pcbnew,(6.0.5-0)
; #@! TF.FileFunction,NonPlated,1,2,NPTH
FMAT,2
INCH
; #@! TA.AperFunction,NonPlated,NPTH,ComponentDrill
T1C0.0591
; #@! TA.AperFunction,NonPlated,NPTH,ComponentDrill
T2C0.0670
; #@! TA.AperFunction,NonPlated,NPTH,ComponentDrill
T3C0.1181
; #@! TA.AperFunction,NonPlated,NPTH,ComponentDrill
T4C0.1570
%
G90
G05
T1
X8.21Y-3.49
X8.21Y-3.49
X8.4856Y-3.49
X8.4856Y-3.49
T2
X3.4009Y-2.6262
X3.4009Y-3.3762
X3.4009Y-4.1262
X3.4009Y-4.8762
X3.5009Y-5.6262
X3.8009Y-2.6262
X3.8009Y-3.3762
X3.8009Y-4.1262
X3.8009Y-4.8762
X3.9009Y-5.6262
X4.2509Y-2.6262
X4.2509Y-3.3762
X4.2509Y-4.1262
X4.2509Y-4.8762
X4.2509Y-5.6262
X4.6509Y-2.6262
X4.6509Y-3.3762
X4.6509Y-4.1262
X4.6509Y-4.8762
X4.6509Y-5.6262
X5.0009Y-2.4512
X5.0009Y-3.2012
X5.0009Y-3.9512
X5.0009Y-4.7012
X5.0009Y-5.4512
X5.4009Y-2.4512
X5.4009Y-3.2012
X5.4009Y-3.9512
X5.4009Y-4.7012
X5.4009Y-5.4512
X5.7509Y-2.3512
X5.7509Y-3.1012
X5.7509Y-3.8512
X5.7509Y-4.6012
X5.7509Y-5.3512
X6.1509Y-2.3512
X6.1509Y-3.1012
X6.1509Y-3.8512
X6.1509Y-4.6012
X6.1509Y-5.3512
X6.5009Y-2.4512
X6.5009Y-3.2012
X6.5009Y-3.9512
X6.5009Y-4.7012
X6.7577Y-5.5244
X6.9009Y-2.4512
X6.9009Y-3.2012
X6.9009Y-3.9512
X6.9009Y-4.7012
X7.1441Y-5.628
X7.2509Y-3.2762
X7.2509Y-4.0262
X7.2509Y-4.7762
X7.4509Y-2.3262
X7.4509Y-2.7262
X7.6509Y-3.2762
X7.6509Y-4.0262
X7.6509Y-4.7762
X7.7027Y-5.7512
X8.0009Y-2.9012
X8.0009Y-3.8512
X8.0491Y-5.9512
X8.1777Y-4.9262
X8.3527Y-6.1262
X8.4009Y-2.9012
X8.4009Y-3.8512
X8.5241Y-5.1262
X8.6991Y-6.3262
X8.8277Y-5.3012
X9.1741Y-5.5012
T3
X3.4509Y-2.7262
X3.4509Y-3.4762
X3.4509Y-4.2262
X3.4509Y-4.9762
X3.5009Y-2.8262
X3.5009Y-3.5762
X3.5009Y-4.3262
X3.5009Y-5.0762
X3.5509Y-5.7262
X3.6009Y-5.8262
X3.7009Y-2.8262
X3.7009Y-3.5762
X3.7009Y-4.3262
X3.7009Y-5.0762
X3.7509Y-2.7262
X3.7509Y-3.4762
X3.7509Y-4.2262
X3.7509Y-4.9762
X3.8009Y-5.8262
X3.8509Y-5.7262
X4.3009Y-2.7262
X4.3009Y-3.4762
X4.3009Y-4.2262
X4.3009Y-4.9762
X4.3009Y-5.7262
X4.3509Y-2.8262
X4.3509Y-3.5762
X4.3509Y-4.3262
X4.3509Y-5.0762
X4.3509Y-5.8262
X4.5509Y-2.8262
X4.5509Y-3.5762
X4.5509Y-4.3262
X4.5509Y-5.0762
X4.5509Y-5.8262
X4.6009Y-2.7262
X4.6009Y-3.4762
X4.6009Y-4.2262
X4.6009Y-4.9762
X4.6009Y-5.7262
X5.0509Y-2.5512
X5.0509Y-3.3012
X5.0509Y-4.0512
X5.0509Y-4.8012
X5.0509Y-5.5512
X5.1009Y-2.6512
X5.1009Y-3.4012
X5.1009Y-4.1512
X5.1009Y-4.9012
X5.1009Y-5.6512
X5.3009Y-2.6512
X5.3009Y-3.4012
X5.3009Y-4.1512
X5.3009Y-4.9012
X5.3009Y-5.6512
X5.3509Y-2.5512
X5.3509Y-3.3012
X5.3509Y-4.0512
X5.3509Y-4.8012
X5.3509Y-5.5512
X5.8009Y-2.4512
X5.8009Y-3.2012
X5.8009Y-3.9512
X5.8009Y-4.7012
X5.8009Y-5.4512
X5.8509Y-2.5512
X5.8509Y-3.3012
X5.8509Y-4.0512
X5.8509Y-4.8012
X5.8509Y-5.5512
X6.0509Y-2.5512
X6.0509Y-3.3012
X6.0509Y-4.0512
X6.0509Y-4.8012
X6.0509Y-5.5512
X6.1009Y-2.4512
X6.1009Y-3.2012
X6.1009Y-3.9512
X6.1009Y-4.7012
X6.1009Y-5.4512
X6.5509Y-2.5512
X6.5509Y-3.3012
X6.5509Y-4.0512
X6.5509Y-4.8012
X6.6009Y-2.6512
X6.6009Y-3.4012
X6.6009Y-4.1512
X6.6009Y-4.9012
X6.7801Y-5.634
X6.8009Y-2.6512
X6.8009Y-3.4012
X6.8009Y-4.1512
X6.8009Y-4.9012
X6.8025Y-5.7435
X6.8509Y-2.5512
X6.8509Y-3.3012
X6.8509Y-4.0512
X6.8509Y-4.8012
X6.9957Y-5.7953
X7.0699Y-5.7116
X7.2509Y-2.4262
X7.2509Y-2.6262
X7.3009Y-3.3762
X7.3009Y-4.1262
X7.3009Y-4.8762
X7.3509Y-2.3762
X7.3509Y-2.6762
X7.3509Y-3.4762
X7.3509Y-4.2262
X7.3509Y-4.9762
X7.5509Y-3.4762
X7.5509Y-4.2262
X7.5509Y-4.9762
X7.6009Y-3.3762
X7.6009Y-4.1262
X7.6009Y-4.8762
X7.6893Y-5.9744
X7.696Y-5.8628
X7.8625Y-6.0744
X7.9558Y-6.0128
X8.0509Y-3.0012
X8.0509Y-3.9512
X8.1009Y-3.1012
X8.1009Y-4.0512
X8.1643Y-5.1494
X8.171Y-5.0378
X8.3009Y-3.1012
X8.3009Y-4.0512
X8.3375Y-5.2494
X8.3393Y-6.3494
X8.346Y-6.2378
X8.3509Y-3.0012
X8.3509Y-3.9512
X8.4308Y-5.1878
X8.5125Y-6.4494
X8.6058Y-6.3878
X8.8143Y-5.5244
X8.821Y-5.4128
X8.9875Y-5.6244
X9.0808Y-5.5628
T4
X3.6009Y-2.6262
X3.6009Y-3.3762
X3.6009Y-4.1262
X3.6009Y-4.8762
X3.7009Y-5.6262
X4.4509Y-2.6262
X4.4509Y-3.3762
X4.4509Y-4.1262
X4.4509Y-4.8762
X4.4509Y-5.6262
X5.2009Y-2.4512
X5.2009Y-3.2012
X5.2009Y-3.9512
X5.2009Y-4.7012
X5.2009Y-5.4512
X5.9509Y-2.3512
X5.9509Y-3.1012
X5.9509Y-3.8512
X5.9509Y-4.6012
X5.9509Y-5.3512
X6.7009Y-2.4512
X6.7009Y-3.2012
X6.7009Y-3.9512
X6.7009Y-4.7012
X6.9509Y-5.5762
X7.4509Y-2.5262
X7.4509Y-3.2762
X7.4509Y-4.0262
X7.4509Y-4.7762
X7.8759Y-5.8512
X8.2009Y-2.9012
X8.2009Y-3.8512
X8.3509Y-5.0262
X8.5259Y-6.2262
X9.0009Y-5.4012
T0
M30
