G04 #@! TF.GenerationSoftware,KiCad,Pcbnew,(6.0.5-0)*
G04 #@! TF.CreationDate,2022-05-24T21:59:09-05:00*
G04 #@! TF.ProjectId,redox_rev2_recovery,7265646f-785f-4726-9576-325f7265636f,1.0*
G04 #@! TF.SameCoordinates,Original*
G04 #@! TF.FileFunction,Legend,Bot*
G04 #@! TF.FilePolarity,Positive*
%FSLAX46Y46*%
G04 Gerber Fmt 4.6, Leading zero omitted, Abs format (unit mm)*
G04 Created by KiCad (PCBNEW (6.0.5-0)) date 2022-05-24 21:59:09*
%MOMM*%
%LPD*%
G01*
G04 APERTURE LIST*
%ADD10C,0.300000*%
%ADD11C,0.150000*%
%ADD12C,0.120000*%
%ADD13C,0.100000*%
%ADD14C,0.010000*%
G04 APERTURE END LIST*
D10*
X108254285Y-77448571D02*
X108254285Y-76448571D01*
X108254285Y-76734285D02*
X108182857Y-76591428D01*
X108111428Y-76520000D01*
X107968571Y-76448571D01*
X107825714Y-76448571D01*
X106754285Y-77377142D02*
X106897142Y-77448571D01*
X107182857Y-77448571D01*
X107325714Y-77377142D01*
X107397142Y-77234285D01*
X107397142Y-76662857D01*
X107325714Y-76520000D01*
X107182857Y-76448571D01*
X106897142Y-76448571D01*
X106754285Y-76520000D01*
X106682857Y-76662857D01*
X106682857Y-76805714D01*
X107397142Y-76948571D01*
X106182857Y-76448571D02*
X105825714Y-77448571D01*
X105468571Y-76448571D01*
X103825714Y-76091428D02*
X103754285Y-76020000D01*
X103611428Y-75948571D01*
X103254285Y-75948571D01*
X103111428Y-76020000D01*
X103040000Y-76091428D01*
X102968571Y-76234285D01*
X102968571Y-76377142D01*
X103040000Y-76591428D01*
X103897142Y-77448571D01*
X102968571Y-77448571D01*
X102325714Y-77305714D02*
X102254285Y-77377142D01*
X102325714Y-77448571D01*
X102397142Y-77377142D01*
X102325714Y-77305714D01*
X102325714Y-77448571D01*
X101325714Y-75948571D02*
X101182857Y-75948571D01*
X101040000Y-76020000D01*
X100968571Y-76091428D01*
X100897142Y-76234285D01*
X100825714Y-76520000D01*
X100825714Y-76877142D01*
X100897142Y-77162857D01*
X100968571Y-77305714D01*
X101040000Y-77377142D01*
X101182857Y-77448571D01*
X101325714Y-77448571D01*
X101468571Y-77377142D01*
X101540000Y-77305714D01*
X101611428Y-77162857D01*
X101682857Y-76877142D01*
X101682857Y-76520000D01*
X101611428Y-76234285D01*
X101540000Y-76091428D01*
X101468571Y-76020000D01*
X101325714Y-75948571D01*
X100325714Y-75948571D02*
X99968571Y-77448571D01*
X99682857Y-76377142D01*
X99397142Y-77448571D01*
X99040000Y-75948571D01*
X98468571Y-77448571D02*
X98468571Y-75948571D01*
X98468571Y-76662857D02*
X97611428Y-76662857D01*
X97611428Y-77448571D02*
X97611428Y-75948571D01*
X96968571Y-77377142D02*
X96754285Y-77448571D01*
X96397142Y-77448571D01*
X96254285Y-77377142D01*
X96182857Y-77305714D01*
X96111428Y-77162857D01*
X96111428Y-77020000D01*
X96182857Y-76877142D01*
X96254285Y-76805714D01*
X96397142Y-76734285D01*
X96682857Y-76662857D01*
X96825714Y-76591428D01*
X96897142Y-76520000D01*
X96968571Y-76377142D01*
X96968571Y-76234285D01*
X96897142Y-76091428D01*
X96825714Y-76020000D01*
X96682857Y-75948571D01*
X96325714Y-75948571D01*
X96111428Y-76020000D01*
X95468571Y-76877142D02*
X94325714Y-76877142D01*
X92754285Y-77448571D02*
X93254285Y-76734285D01*
X93611428Y-77448571D02*
X93611428Y-75948571D01*
X93040000Y-75948571D01*
X92897142Y-76020000D01*
X92825714Y-76091428D01*
X92754285Y-76234285D01*
X92754285Y-76448571D01*
X92825714Y-76591428D01*
X92897142Y-76662857D01*
X93040000Y-76734285D01*
X93611428Y-76734285D01*
X82593571Y-61773714D02*
X81093571Y-61773714D01*
X82522142Y-61773714D02*
X82593571Y-61630857D01*
X82593571Y-61345142D01*
X82522142Y-61202285D01*
X82450714Y-61130857D01*
X82307857Y-61059428D01*
X81879285Y-61059428D01*
X81736428Y-61130857D01*
X81665000Y-61202285D01*
X81593571Y-61345142D01*
X81593571Y-61630857D01*
X81665000Y-61773714D01*
X82522142Y-63059428D02*
X82593571Y-62916571D01*
X82593571Y-62630857D01*
X82522142Y-62488000D01*
X82379285Y-62416571D01*
X81807857Y-62416571D01*
X81665000Y-62488000D01*
X81593571Y-62630857D01*
X81593571Y-62916571D01*
X81665000Y-63059428D01*
X81807857Y-63130857D01*
X81950714Y-63130857D01*
X82093571Y-62416571D01*
X82522142Y-63702285D02*
X82593571Y-63845142D01*
X82593571Y-64130857D01*
X82522142Y-64273714D01*
X82379285Y-64345142D01*
X82307857Y-64345142D01*
X82165000Y-64273714D01*
X82093571Y-64130857D01*
X82093571Y-63916571D01*
X82022142Y-63773714D01*
X81879285Y-63702285D01*
X81807857Y-63702285D01*
X81665000Y-63773714D01*
X81593571Y-63916571D01*
X81593571Y-64130857D01*
X81665000Y-64273714D01*
X82593571Y-64988000D02*
X81593571Y-64988000D01*
X81093571Y-64988000D02*
X81165000Y-64916571D01*
X81236428Y-64988000D01*
X81165000Y-65059428D01*
X81093571Y-64988000D01*
X81236428Y-64988000D01*
X81593571Y-66345142D02*
X82807857Y-66345142D01*
X82950714Y-66273714D01*
X83022142Y-66202285D01*
X83093571Y-66059428D01*
X83093571Y-65845142D01*
X83022142Y-65702285D01*
X82522142Y-66345142D02*
X82593571Y-66202285D01*
X82593571Y-65916571D01*
X82522142Y-65773714D01*
X82450714Y-65702285D01*
X82307857Y-65630857D01*
X81879285Y-65630857D01*
X81736428Y-65702285D01*
X81665000Y-65773714D01*
X81593571Y-65916571D01*
X81593571Y-66202285D01*
X81665000Y-66345142D01*
X81593571Y-67059428D02*
X82593571Y-67059428D01*
X81736428Y-67059428D02*
X81665000Y-67130857D01*
X81593571Y-67273714D01*
X81593571Y-67488000D01*
X81665000Y-67630857D01*
X81807857Y-67702285D01*
X82593571Y-67702285D01*
X82522142Y-68988000D02*
X82593571Y-68845142D01*
X82593571Y-68559428D01*
X82522142Y-68416571D01*
X82379285Y-68345142D01*
X81807857Y-68345142D01*
X81665000Y-68416571D01*
X81593571Y-68559428D01*
X81593571Y-68845142D01*
X81665000Y-68988000D01*
X81807857Y-69059428D01*
X81950714Y-69059428D01*
X82093571Y-68345142D01*
X82593571Y-70345142D02*
X81093571Y-70345142D01*
X82522142Y-70345142D02*
X82593571Y-70202285D01*
X82593571Y-69916571D01*
X82522142Y-69773714D01*
X82450714Y-69702285D01*
X82307857Y-69630857D01*
X81879285Y-69630857D01*
X81736428Y-69702285D01*
X81665000Y-69773714D01*
X81593571Y-69916571D01*
X81593571Y-70202285D01*
X81665000Y-70345142D01*
X82593571Y-72202285D02*
X81093571Y-72202285D01*
X81665000Y-72202285D02*
X81593571Y-72345142D01*
X81593571Y-72630857D01*
X81665000Y-72773714D01*
X81736428Y-72845142D01*
X81879285Y-72916571D01*
X82307857Y-72916571D01*
X82450714Y-72845142D01*
X82522142Y-72773714D01*
X82593571Y-72630857D01*
X82593571Y-72345142D01*
X82522142Y-72202285D01*
X81593571Y-73416571D02*
X82593571Y-73773714D01*
X81593571Y-74130857D02*
X82593571Y-73773714D01*
X82950714Y-73630857D01*
X83022142Y-73559428D01*
X83093571Y-73416571D01*
X82593571Y-75845142D02*
X81093571Y-75845142D01*
X82165000Y-76345142D01*
X81093571Y-76845142D01*
X82593571Y-76845142D01*
X82593571Y-78202285D02*
X81807857Y-78202285D01*
X81665000Y-78130857D01*
X81593571Y-77988000D01*
X81593571Y-77702285D01*
X81665000Y-77559428D01*
X82522142Y-78202285D02*
X82593571Y-78059428D01*
X82593571Y-77702285D01*
X82522142Y-77559428D01*
X82379285Y-77488000D01*
X82236428Y-77488000D01*
X82093571Y-77559428D01*
X82022142Y-77702285D01*
X82022142Y-78059428D01*
X81950714Y-78202285D01*
X81593571Y-78702285D02*
X81593571Y-79273714D01*
X81093571Y-78916571D02*
X82379285Y-78916571D01*
X82522142Y-78988000D01*
X82593571Y-79130857D01*
X82593571Y-79273714D01*
X81593571Y-79559428D02*
X81593571Y-80130857D01*
X81093571Y-79773714D02*
X82379285Y-79773714D01*
X82522142Y-79845142D01*
X82593571Y-79988000D01*
X82593571Y-80130857D01*
X82593571Y-80630857D02*
X81593571Y-80630857D01*
X81093571Y-80630857D02*
X81165000Y-80559428D01*
X81236428Y-80630857D01*
X81165000Y-80702285D01*
X81093571Y-80630857D01*
X81236428Y-80630857D01*
X82593571Y-81988000D02*
X81807857Y-81988000D01*
X81665000Y-81916571D01*
X81593571Y-81773714D01*
X81593571Y-81488000D01*
X81665000Y-81345142D01*
X82522142Y-81988000D02*
X82593571Y-81845142D01*
X82593571Y-81488000D01*
X82522142Y-81345142D01*
X82379285Y-81273714D01*
X82236428Y-81273714D01*
X82093571Y-81345142D01*
X82022142Y-81488000D01*
X82022142Y-81845142D01*
X81950714Y-81988000D01*
X82593571Y-83845142D02*
X81093571Y-83845142D01*
X81093571Y-84202285D01*
X81165000Y-84416571D01*
X81307857Y-84559428D01*
X81450714Y-84630857D01*
X81736428Y-84702285D01*
X81950714Y-84702285D01*
X82236428Y-84630857D01*
X82379285Y-84559428D01*
X82522142Y-84416571D01*
X82593571Y-84202285D01*
X82593571Y-83845142D01*
X82593571Y-85988000D02*
X81807857Y-85988000D01*
X81665000Y-85916571D01*
X81593571Y-85773714D01*
X81593571Y-85488000D01*
X81665000Y-85345142D01*
X82522142Y-85988000D02*
X82593571Y-85845142D01*
X82593571Y-85488000D01*
X82522142Y-85345142D01*
X82379285Y-85273714D01*
X82236428Y-85273714D01*
X82093571Y-85345142D01*
X82022142Y-85488000D01*
X82022142Y-85845142D01*
X81950714Y-85988000D01*
X82593571Y-86916571D02*
X82522142Y-86773714D01*
X82379285Y-86702285D01*
X81093571Y-86702285D01*
X81807857Y-89130857D02*
X81879285Y-89345142D01*
X81950714Y-89416571D01*
X82093571Y-89488000D01*
X82307857Y-89488000D01*
X82450714Y-89416571D01*
X82522142Y-89345142D01*
X82593571Y-89202285D01*
X82593571Y-88630857D01*
X81093571Y-88630857D01*
X81093571Y-89130857D01*
X81165000Y-89273714D01*
X81236428Y-89345142D01*
X81379285Y-89416571D01*
X81522142Y-89416571D01*
X81665000Y-89345142D01*
X81736428Y-89273714D01*
X81807857Y-89130857D01*
X81807857Y-88630857D01*
X82522142Y-90702285D02*
X82593571Y-90559428D01*
X82593571Y-90273714D01*
X82522142Y-90130857D01*
X82379285Y-90059428D01*
X81807857Y-90059428D01*
X81665000Y-90130857D01*
X81593571Y-90273714D01*
X81593571Y-90559428D01*
X81665000Y-90702285D01*
X81807857Y-90773714D01*
X81950714Y-90773714D01*
X82093571Y-90059428D01*
X81593571Y-91416571D02*
X82593571Y-91416571D01*
X81736428Y-91416571D02*
X81665000Y-91488000D01*
X81593571Y-91630857D01*
X81593571Y-91845142D01*
X81665000Y-91988000D01*
X81807857Y-92059428D01*
X82593571Y-92059428D01*
X83165000Y-94345142D02*
X83093571Y-94273714D01*
X82879285Y-94130857D01*
X82736428Y-94059428D01*
X82522142Y-93988000D01*
X82165000Y-93916571D01*
X81879285Y-93916571D01*
X81522142Y-93988000D01*
X81307857Y-94059428D01*
X81165000Y-94130857D01*
X80950714Y-94273714D01*
X80879285Y-94345142D01*
X82593571Y-94916571D02*
X81093571Y-94916571D01*
X82593571Y-95559428D02*
X81807857Y-95559428D01*
X81665000Y-95488000D01*
X81593571Y-95345142D01*
X81593571Y-95130857D01*
X81665000Y-94988000D01*
X81736428Y-94916571D01*
X81593571Y-96059428D02*
X81593571Y-96630857D01*
X81093571Y-96273714D02*
X82379285Y-96273714D01*
X82522142Y-96345142D01*
X82593571Y-96488000D01*
X82593571Y-96630857D01*
X81593571Y-96916571D02*
X81593571Y-97488000D01*
X81093571Y-97130857D02*
X82379285Y-97130857D01*
X82522142Y-97202285D01*
X82593571Y-97345142D01*
X82593571Y-97488000D01*
X81593571Y-97988000D02*
X83093571Y-97988000D01*
X81665000Y-97988000D02*
X81593571Y-98130857D01*
X81593571Y-98416571D01*
X81665000Y-98559428D01*
X81736428Y-98630857D01*
X81879285Y-98702285D01*
X82307857Y-98702285D01*
X82450714Y-98630857D01*
X82522142Y-98559428D01*
X82593571Y-98416571D01*
X82593571Y-98130857D01*
X82522142Y-97988000D01*
X82522142Y-99273714D02*
X82593571Y-99416571D01*
X82593571Y-99702285D01*
X82522142Y-99845142D01*
X82379285Y-99916571D01*
X82307857Y-99916571D01*
X82165000Y-99845142D01*
X82093571Y-99702285D01*
X82093571Y-99488000D01*
X82022142Y-99345142D01*
X81879285Y-99273714D01*
X81807857Y-99273714D01*
X81665000Y-99345142D01*
X81593571Y-99488000D01*
X81593571Y-99702285D01*
X81665000Y-99845142D01*
X82450714Y-100559428D02*
X82522142Y-100630857D01*
X82593571Y-100559428D01*
X82522142Y-100488000D01*
X82450714Y-100559428D01*
X82593571Y-100559428D01*
X81665000Y-100559428D02*
X81736428Y-100630857D01*
X81807857Y-100559428D01*
X81736428Y-100488000D01*
X81665000Y-100559428D01*
X81807857Y-100559428D01*
X81022142Y-102345142D02*
X82950714Y-101059428D01*
X81022142Y-103916571D02*
X82950714Y-102630857D01*
X81593571Y-105059428D02*
X82807857Y-105059428D01*
X82950714Y-104988000D01*
X83022142Y-104916571D01*
X83093571Y-104773714D01*
X83093571Y-104559428D01*
X83022142Y-104416571D01*
X82522142Y-105059428D02*
X82593571Y-104916571D01*
X82593571Y-104630857D01*
X82522142Y-104488000D01*
X82450714Y-104416571D01*
X82307857Y-104345142D01*
X81879285Y-104345142D01*
X81736428Y-104416571D01*
X81665000Y-104488000D01*
X81593571Y-104630857D01*
X81593571Y-104916571D01*
X81665000Y-105059428D01*
X82593571Y-105773714D02*
X81593571Y-105773714D01*
X81093571Y-105773714D02*
X81165000Y-105702285D01*
X81236428Y-105773714D01*
X81165000Y-105845142D01*
X81093571Y-105773714D01*
X81236428Y-105773714D01*
X81593571Y-106273714D02*
X81593571Y-106845142D01*
X81093571Y-106488000D02*
X82379285Y-106488000D01*
X82522142Y-106559428D01*
X82593571Y-106702285D01*
X82593571Y-106845142D01*
X82593571Y-107345142D02*
X81093571Y-107345142D01*
X82593571Y-107988000D02*
X81807857Y-107988000D01*
X81665000Y-107916571D01*
X81593571Y-107773714D01*
X81593571Y-107559428D01*
X81665000Y-107416571D01*
X81736428Y-107345142D01*
X81593571Y-109345142D02*
X82593571Y-109345142D01*
X81593571Y-108702285D02*
X82379285Y-108702285D01*
X82522142Y-108773714D01*
X82593571Y-108916571D01*
X82593571Y-109130857D01*
X82522142Y-109273714D01*
X82450714Y-109345142D01*
X82593571Y-110059428D02*
X81093571Y-110059428D01*
X81665000Y-110059428D02*
X81593571Y-110202285D01*
X81593571Y-110488000D01*
X81665000Y-110630857D01*
X81736428Y-110702285D01*
X81879285Y-110773714D01*
X82307857Y-110773714D01*
X82450714Y-110702285D01*
X82522142Y-110630857D01*
X82593571Y-110488000D01*
X82593571Y-110202285D01*
X82522142Y-110059428D01*
X82450714Y-111416571D02*
X82522142Y-111488000D01*
X82593571Y-111416571D01*
X82522142Y-111345142D01*
X82450714Y-111416571D01*
X82593571Y-111416571D01*
X82522142Y-112773714D02*
X82593571Y-112630857D01*
X82593571Y-112345142D01*
X82522142Y-112202285D01*
X82450714Y-112130857D01*
X82307857Y-112059428D01*
X81879285Y-112059428D01*
X81736428Y-112130857D01*
X81665000Y-112202285D01*
X81593571Y-112345142D01*
X81593571Y-112630857D01*
X81665000Y-112773714D01*
X82593571Y-113630857D02*
X82522142Y-113488000D01*
X82450714Y-113416571D01*
X82307857Y-113345142D01*
X81879285Y-113345142D01*
X81736428Y-113416571D01*
X81665000Y-113488000D01*
X81593571Y-113630857D01*
X81593571Y-113845142D01*
X81665000Y-113988000D01*
X81736428Y-114059428D01*
X81879285Y-114130857D01*
X82307857Y-114130857D01*
X82450714Y-114059428D01*
X82522142Y-113988000D01*
X82593571Y-113845142D01*
X82593571Y-113630857D01*
X82593571Y-114773714D02*
X81593571Y-114773714D01*
X81736428Y-114773714D02*
X81665000Y-114845142D01*
X81593571Y-114988000D01*
X81593571Y-115202285D01*
X81665000Y-115345142D01*
X81807857Y-115416571D01*
X82593571Y-115416571D01*
X81807857Y-115416571D02*
X81665000Y-115488000D01*
X81593571Y-115630857D01*
X81593571Y-115845142D01*
X81665000Y-115988000D01*
X81807857Y-116059428D01*
X82593571Y-116059428D01*
X81022142Y-117845142D02*
X82950714Y-116559428D01*
X82593571Y-118345142D02*
X81593571Y-118345142D01*
X81736428Y-118345142D02*
X81665000Y-118416571D01*
X81593571Y-118559428D01*
X81593571Y-118773714D01*
X81665000Y-118916571D01*
X81807857Y-118988000D01*
X82593571Y-118988000D01*
X81807857Y-118988000D02*
X81665000Y-119059428D01*
X81593571Y-119202285D01*
X81593571Y-119416571D01*
X81665000Y-119559428D01*
X81807857Y-119630857D01*
X82593571Y-119630857D01*
X82593571Y-120988000D02*
X81807857Y-120988000D01*
X81665000Y-120916571D01*
X81593571Y-120773714D01*
X81593571Y-120488000D01*
X81665000Y-120345142D01*
X82522142Y-120988000D02*
X82593571Y-120845142D01*
X82593571Y-120488000D01*
X82522142Y-120345142D01*
X82379285Y-120273714D01*
X82236428Y-120273714D01*
X82093571Y-120345142D01*
X82022142Y-120488000D01*
X82022142Y-120845142D01*
X81950714Y-120988000D01*
X81593571Y-121488000D02*
X81593571Y-122059428D01*
X81093571Y-121702285D02*
X82379285Y-121702285D01*
X82522142Y-121773714D01*
X82593571Y-121916571D01*
X82593571Y-122059428D01*
X81593571Y-122345142D02*
X81593571Y-122916571D01*
X81093571Y-122559428D02*
X82379285Y-122559428D01*
X82522142Y-122630857D01*
X82593571Y-122773714D01*
X82593571Y-122916571D01*
X82593571Y-124059428D02*
X81093571Y-124059428D01*
X82522142Y-124059428D02*
X82593571Y-123916571D01*
X82593571Y-123630857D01*
X82522142Y-123488000D01*
X82450714Y-123416571D01*
X82307857Y-123345142D01*
X81879285Y-123345142D01*
X81736428Y-123416571D01*
X81665000Y-123488000D01*
X81593571Y-123630857D01*
X81593571Y-123916571D01*
X81665000Y-124059428D01*
X82593571Y-124773714D02*
X81593571Y-124773714D01*
X81093571Y-124773714D02*
X81165000Y-124702285D01*
X81236428Y-124773714D01*
X81165000Y-124845142D01*
X81093571Y-124773714D01*
X81236428Y-124773714D01*
X82593571Y-125488000D02*
X81093571Y-125488000D01*
X81665000Y-125488000D02*
X81593571Y-125630857D01*
X81593571Y-125916571D01*
X81665000Y-126059428D01*
X81736428Y-126130857D01*
X81879285Y-126202285D01*
X82307857Y-126202285D01*
X82450714Y-126130857D01*
X82522142Y-126059428D01*
X82593571Y-125916571D01*
X82593571Y-125630857D01*
X82522142Y-125488000D01*
X82593571Y-126845142D02*
X81593571Y-126845142D01*
X81093571Y-126845142D02*
X81165000Y-126773714D01*
X81236428Y-126845142D01*
X81165000Y-126916571D01*
X81093571Y-126845142D01*
X81236428Y-126845142D01*
X83165000Y-127416571D02*
X83093571Y-127488000D01*
X82879285Y-127630857D01*
X82736428Y-127702285D01*
X82522142Y-127773714D01*
X82165000Y-127845142D01*
X81879285Y-127845142D01*
X81522142Y-127773714D01*
X81307857Y-127702285D01*
X81165000Y-127630857D01*
X80950714Y-127488000D01*
X80879285Y-127416571D01*
D11*
X213162380Y-82748380D02*
X213162380Y-83462666D01*
X213210000Y-83605523D01*
X213305238Y-83700761D01*
X213448095Y-83748380D01*
X213543333Y-83748380D01*
X212924285Y-83843619D02*
X212162380Y-83843619D01*
X211924285Y-83748380D02*
X211924285Y-83081714D01*
X211924285Y-83272190D02*
X211876666Y-83176952D01*
X211829047Y-83129333D01*
X211733809Y-83081714D01*
X211638571Y-83081714D01*
X211305238Y-83748380D02*
X211305238Y-83081714D01*
X211305238Y-82748380D02*
X211352857Y-82796000D01*
X211305238Y-82843619D01*
X211257619Y-82796000D01*
X211305238Y-82748380D01*
X211305238Y-82843619D01*
X210400476Y-83081714D02*
X210400476Y-83891238D01*
X210448095Y-83986476D01*
X210495714Y-84034095D01*
X210590952Y-84081714D01*
X210733809Y-84081714D01*
X210829047Y-84034095D01*
X210400476Y-83700761D02*
X210495714Y-83748380D01*
X210686190Y-83748380D01*
X210781428Y-83700761D01*
X210829047Y-83653142D01*
X210876666Y-83557904D01*
X210876666Y-83272190D01*
X210829047Y-83176952D01*
X210781428Y-83129333D01*
X210686190Y-83081714D01*
X210495714Y-83081714D01*
X210400476Y-83129333D01*
X209924285Y-83748380D02*
X209924285Y-82748380D01*
X209495714Y-83748380D02*
X209495714Y-83224571D01*
X209543333Y-83129333D01*
X209638571Y-83081714D01*
X209781428Y-83081714D01*
X209876666Y-83129333D01*
X209924285Y-83176952D01*
X209162380Y-83081714D02*
X208781428Y-83081714D01*
X209019523Y-82748380D02*
X209019523Y-83605523D01*
X208971904Y-83700761D01*
X208876666Y-83748380D01*
X208781428Y-83748380D01*
X208495714Y-82843619D02*
X208448095Y-82796000D01*
X208352857Y-82748380D01*
X208114761Y-82748380D01*
X208019523Y-82796000D01*
X207971904Y-82843619D01*
X207924285Y-82938857D01*
X207924285Y-83034095D01*
X207971904Y-83176952D01*
X208543333Y-83748380D01*
X207924285Y-83748380D01*
X85850955Y-64617860D02*
X85850955Y-63617860D01*
X85279526Y-64617860D02*
X85708098Y-64046432D01*
X85279526Y-63617860D02*
X85850955Y-64189289D01*
X84660479Y-63617860D02*
X84565240Y-63617860D01*
X84470002Y-63665480D01*
X84422383Y-63713099D01*
X84374764Y-63808337D01*
X84327145Y-63998813D01*
X84327145Y-64236908D01*
X84374764Y-64427384D01*
X84422383Y-64522622D01*
X84470002Y-64570241D01*
X84565240Y-64617860D01*
X84660479Y-64617860D01*
X84755717Y-64570241D01*
X84803336Y-64522622D01*
X84850955Y-64427384D01*
X84898574Y-64236908D01*
X84898574Y-63998813D01*
X84850955Y-63808337D01*
X84803336Y-63713099D01*
X84755717Y-63665480D01*
X84660479Y-63617860D01*
X107440955Y-64617860D02*
X107440955Y-63617860D01*
X106869526Y-64617860D02*
X107298098Y-64046432D01*
X106869526Y-63617860D02*
X107440955Y-64189289D01*
X105917145Y-64617860D02*
X106488574Y-64617860D01*
X106202860Y-64617860D02*
X106202860Y-63617860D01*
X106298098Y-63760718D01*
X106393336Y-63855956D01*
X106488574Y-63903575D01*
X126490955Y-60172860D02*
X126490955Y-59172860D01*
X125919526Y-60172860D02*
X126348098Y-59601432D01*
X125919526Y-59172860D02*
X126490955Y-59744289D01*
X125538574Y-59268099D02*
X125490955Y-59220480D01*
X125395717Y-59172860D01*
X125157621Y-59172860D01*
X125062383Y-59220480D01*
X125014764Y-59268099D01*
X124967145Y-59363337D01*
X124967145Y-59458575D01*
X125014764Y-59601432D01*
X125586193Y-60172860D01*
X124967145Y-60172860D01*
X145540955Y-57632860D02*
X145540955Y-56632860D01*
X144969526Y-57632860D02*
X145398098Y-57061432D01*
X144969526Y-56632860D02*
X145540955Y-57204289D01*
X144636193Y-56632860D02*
X144017145Y-56632860D01*
X144350479Y-57013813D01*
X144207621Y-57013813D01*
X144112383Y-57061432D01*
X144064764Y-57109051D01*
X144017145Y-57204289D01*
X144017145Y-57442384D01*
X144064764Y-57537622D01*
X144112383Y-57585241D01*
X144207621Y-57632860D01*
X144493336Y-57632860D01*
X144588574Y-57585241D01*
X144636193Y-57537622D01*
X164590955Y-60172860D02*
X164590955Y-59172860D01*
X164019526Y-60172860D02*
X164448098Y-59601432D01*
X164019526Y-59172860D02*
X164590955Y-59744289D01*
X163162383Y-59506194D02*
X163162383Y-60172860D01*
X163400479Y-59125241D02*
X163638574Y-59839527D01*
X163019526Y-59839527D01*
X192245240Y-57077384D02*
X191245240Y-57077384D01*
X192245240Y-57648813D02*
X191673812Y-57220241D01*
X191245240Y-57648813D02*
X191816669Y-57077384D01*
X191245240Y-58553575D02*
X191245240Y-58077384D01*
X191721431Y-58029765D01*
X191673812Y-58077384D01*
X191626193Y-58172622D01*
X191626193Y-58410718D01*
X191673812Y-58505956D01*
X191721431Y-58553575D01*
X191816669Y-58601194D01*
X192054764Y-58601194D01*
X192150002Y-58553575D01*
X192197621Y-58505956D01*
X192245240Y-58410718D01*
X192245240Y-58172622D01*
X192197621Y-58077384D01*
X192150002Y-58029765D01*
X202690955Y-71602860D02*
X202690955Y-70602860D01*
X202119526Y-71602860D02*
X202548098Y-71031432D01*
X202119526Y-70602860D02*
X202690955Y-71174289D01*
X201262383Y-70602860D02*
X201452860Y-70602860D01*
X201548098Y-70650480D01*
X201595717Y-70698099D01*
X201690955Y-70840956D01*
X201738574Y-71031432D01*
X201738574Y-71412384D01*
X201690955Y-71507622D01*
X201643336Y-71555241D01*
X201548098Y-71602860D01*
X201357621Y-71602860D01*
X201262383Y-71555241D01*
X201214764Y-71507622D01*
X201167145Y-71412384D01*
X201167145Y-71174289D01*
X201214764Y-71079051D01*
X201262383Y-71031432D01*
X201357621Y-70983813D01*
X201548098Y-70983813D01*
X201643336Y-71031432D01*
X201690955Y-71079051D01*
X201738574Y-71174289D01*
X126967145Y-79222860D02*
X126967145Y-78222860D01*
X126395717Y-79222860D02*
X126824288Y-78651432D01*
X126395717Y-78222860D02*
X126967145Y-78794289D01*
X125443336Y-79222860D02*
X126014764Y-79222860D01*
X125729050Y-79222860D02*
X125729050Y-78222860D01*
X125824288Y-78365718D01*
X125919526Y-78460956D01*
X126014764Y-78508575D01*
X125062383Y-78318099D02*
X125014764Y-78270480D01*
X124919526Y-78222860D01*
X124681431Y-78222860D01*
X124586193Y-78270480D01*
X124538574Y-78318099D01*
X124490955Y-78413337D01*
X124490955Y-78508575D01*
X124538574Y-78651432D01*
X125110002Y-79222860D01*
X124490955Y-79222860D01*
X146017145Y-76682860D02*
X146017145Y-75682860D01*
X145445717Y-76682860D02*
X145874288Y-76111432D01*
X145445717Y-75682860D02*
X146017145Y-76254289D01*
X144493336Y-76682860D02*
X145064764Y-76682860D01*
X144779050Y-76682860D02*
X144779050Y-75682860D01*
X144874288Y-75825718D01*
X144969526Y-75920956D01*
X145064764Y-75968575D01*
X144160002Y-75682860D02*
X143540955Y-75682860D01*
X143874288Y-76063813D01*
X143731431Y-76063813D01*
X143636193Y-76111432D01*
X143588574Y-76159051D01*
X143540955Y-76254289D01*
X143540955Y-76492384D01*
X143588574Y-76587622D01*
X143636193Y-76635241D01*
X143731431Y-76682860D01*
X144017145Y-76682860D01*
X144112383Y-76635241D01*
X144160002Y-76587622D01*
X165067145Y-79222860D02*
X165067145Y-78222860D01*
X164495717Y-79222860D02*
X164924288Y-78651432D01*
X164495717Y-78222860D02*
X165067145Y-78794289D01*
X163543336Y-79222860D02*
X164114764Y-79222860D01*
X163829050Y-79222860D02*
X163829050Y-78222860D01*
X163924288Y-78365718D01*
X164019526Y-78460956D01*
X164114764Y-78508575D01*
X162686193Y-78556194D02*
X162686193Y-79222860D01*
X162924288Y-78175241D02*
X163162383Y-78889527D01*
X162543336Y-78889527D01*
X184117145Y-81127860D02*
X184117145Y-80127860D01*
X183545717Y-81127860D02*
X183974288Y-80556432D01*
X183545717Y-80127860D02*
X184117145Y-80699289D01*
X182593336Y-81127860D02*
X183164764Y-81127860D01*
X182879050Y-81127860D02*
X182879050Y-80127860D01*
X182974288Y-80270718D01*
X183069526Y-80365956D01*
X183164764Y-80413575D01*
X181688574Y-80127860D02*
X182164764Y-80127860D01*
X182212383Y-80604051D01*
X182164764Y-80556432D01*
X182069526Y-80508813D01*
X181831431Y-80508813D01*
X181736193Y-80556432D01*
X181688574Y-80604051D01*
X181640955Y-80699289D01*
X181640955Y-80937384D01*
X181688574Y-81032622D01*
X181736193Y-81080241D01*
X181831431Y-81127860D01*
X182069526Y-81127860D01*
X182164764Y-81080241D01*
X182212383Y-81032622D01*
X203167145Y-95732860D02*
X203167145Y-94732860D01*
X202595717Y-95732860D02*
X203024288Y-95161432D01*
X202595717Y-94732860D02*
X203167145Y-95304289D01*
X201643336Y-95732860D02*
X202214764Y-95732860D01*
X201929050Y-95732860D02*
X201929050Y-94732860D01*
X202024288Y-94875718D01*
X202119526Y-94970956D01*
X202214764Y-95018575D01*
X200786193Y-94732860D02*
X200976669Y-94732860D01*
X201071907Y-94780480D01*
X201119526Y-94828099D01*
X201214764Y-94970956D01*
X201262383Y-95161432D01*
X201262383Y-95542384D01*
X201214764Y-95637622D01*
X201167145Y-95685241D01*
X201071907Y-95732860D01*
X200881431Y-95732860D01*
X200786193Y-95685241D01*
X200738574Y-95637622D01*
X200690955Y-95542384D01*
X200690955Y-95304289D01*
X200738574Y-95209051D01*
X200786193Y-95161432D01*
X200881431Y-95113813D01*
X201071907Y-95113813D01*
X201167145Y-95161432D01*
X201214764Y-95209051D01*
X201262383Y-95304289D01*
X86327145Y-102717860D02*
X86327145Y-101717860D01*
X85755717Y-102717860D02*
X86184288Y-102146432D01*
X85755717Y-101717860D02*
X86327145Y-102289289D01*
X85374764Y-101813099D02*
X85327145Y-101765480D01*
X85231907Y-101717860D01*
X84993812Y-101717860D01*
X84898574Y-101765480D01*
X84850955Y-101813099D01*
X84803336Y-101908337D01*
X84803336Y-102003575D01*
X84850955Y-102146432D01*
X85422383Y-102717860D01*
X84803336Y-102717860D01*
X84184288Y-101717860D02*
X84089050Y-101717860D01*
X83993812Y-101765480D01*
X83946193Y-101813099D01*
X83898574Y-101908337D01*
X83850955Y-102098813D01*
X83850955Y-102336908D01*
X83898574Y-102527384D01*
X83946193Y-102622622D01*
X83993812Y-102670241D01*
X84089050Y-102717860D01*
X84184288Y-102717860D01*
X84279526Y-102670241D01*
X84327145Y-102622622D01*
X84374764Y-102527384D01*
X84422383Y-102336908D01*
X84422383Y-102098813D01*
X84374764Y-101908337D01*
X84327145Y-101813099D01*
X84279526Y-101765480D01*
X84184288Y-101717860D01*
X107917145Y-102717860D02*
X107917145Y-101717860D01*
X107345717Y-102717860D02*
X107774288Y-102146432D01*
X107345717Y-101717860D02*
X107917145Y-102289289D01*
X106964764Y-101813099D02*
X106917145Y-101765480D01*
X106821907Y-101717860D01*
X106583812Y-101717860D01*
X106488574Y-101765480D01*
X106440955Y-101813099D01*
X106393336Y-101908337D01*
X106393336Y-102003575D01*
X106440955Y-102146432D01*
X107012383Y-102717860D01*
X106393336Y-102717860D01*
X105440955Y-102717860D02*
X106012383Y-102717860D01*
X105726669Y-102717860D02*
X105726669Y-101717860D01*
X105821907Y-101860718D01*
X105917145Y-101955956D01*
X106012383Y-102003575D01*
X126967145Y-98272860D02*
X126967145Y-97272860D01*
X126395717Y-98272860D02*
X126824288Y-97701432D01*
X126395717Y-97272860D02*
X126967145Y-97844289D01*
X126014764Y-97368099D02*
X125967145Y-97320480D01*
X125871907Y-97272860D01*
X125633812Y-97272860D01*
X125538574Y-97320480D01*
X125490955Y-97368099D01*
X125443336Y-97463337D01*
X125443336Y-97558575D01*
X125490955Y-97701432D01*
X126062383Y-98272860D01*
X125443336Y-98272860D01*
X125062383Y-97368099D02*
X125014764Y-97320480D01*
X124919526Y-97272860D01*
X124681431Y-97272860D01*
X124586193Y-97320480D01*
X124538574Y-97368099D01*
X124490955Y-97463337D01*
X124490955Y-97558575D01*
X124538574Y-97701432D01*
X125110002Y-98272860D01*
X124490955Y-98272860D01*
X146017145Y-95732860D02*
X146017145Y-94732860D01*
X145445717Y-95732860D02*
X145874288Y-95161432D01*
X145445717Y-94732860D02*
X146017145Y-95304289D01*
X145064764Y-94828099D02*
X145017145Y-94780480D01*
X144921907Y-94732860D01*
X144683812Y-94732860D01*
X144588574Y-94780480D01*
X144540955Y-94828099D01*
X144493336Y-94923337D01*
X144493336Y-95018575D01*
X144540955Y-95161432D01*
X145112383Y-95732860D01*
X144493336Y-95732860D01*
X144160002Y-94732860D02*
X143540955Y-94732860D01*
X143874288Y-95113813D01*
X143731431Y-95113813D01*
X143636193Y-95161432D01*
X143588574Y-95209051D01*
X143540955Y-95304289D01*
X143540955Y-95542384D01*
X143588574Y-95637622D01*
X143636193Y-95685241D01*
X143731431Y-95732860D01*
X144017145Y-95732860D01*
X144112383Y-95685241D01*
X144160002Y-95637622D01*
X165067145Y-98272860D02*
X165067145Y-97272860D01*
X164495717Y-98272860D02*
X164924288Y-97701432D01*
X164495717Y-97272860D02*
X165067145Y-97844289D01*
X164114764Y-97368099D02*
X164067145Y-97320480D01*
X163971907Y-97272860D01*
X163733812Y-97272860D01*
X163638574Y-97320480D01*
X163590955Y-97368099D01*
X163543336Y-97463337D01*
X163543336Y-97558575D01*
X163590955Y-97701432D01*
X164162383Y-98272860D01*
X163543336Y-98272860D01*
X162686193Y-97606194D02*
X162686193Y-98272860D01*
X162924288Y-97225241D02*
X163162383Y-97939527D01*
X162543336Y-97939527D01*
X184117145Y-100177860D02*
X184117145Y-99177860D01*
X183545717Y-100177860D02*
X183974288Y-99606432D01*
X183545717Y-99177860D02*
X184117145Y-99749289D01*
X183164764Y-99273099D02*
X183117145Y-99225480D01*
X183021907Y-99177860D01*
X182783812Y-99177860D01*
X182688574Y-99225480D01*
X182640955Y-99273099D01*
X182593336Y-99368337D01*
X182593336Y-99463575D01*
X182640955Y-99606432D01*
X183212383Y-100177860D01*
X182593336Y-100177860D01*
X181688574Y-99177860D02*
X182164764Y-99177860D01*
X182212383Y-99654051D01*
X182164764Y-99606432D01*
X182069526Y-99558813D01*
X181831431Y-99558813D01*
X181736193Y-99606432D01*
X181688574Y-99654051D01*
X181640955Y-99749289D01*
X181640955Y-99987384D01*
X181688574Y-100082622D01*
X181736193Y-100130241D01*
X181831431Y-100177860D01*
X182069526Y-100177860D01*
X182164764Y-100130241D01*
X182212383Y-100082622D01*
X207058187Y-121291858D02*
X206558187Y-122157884D01*
X207553058Y-121577573D02*
X206896190Y-121858158D01*
X207053058Y-122443598D02*
X206843901Y-121663012D01*
X207430592Y-122551596D02*
X207448022Y-122616644D01*
X207506691Y-122705503D01*
X207712887Y-122824550D01*
X207819175Y-122830930D01*
X207884224Y-122813500D01*
X207973083Y-122754831D01*
X208020702Y-122672353D01*
X208050891Y-122524825D01*
X207841733Y-121744239D01*
X208377844Y-122053763D01*
X208620152Y-123348360D02*
X208455195Y-123253122D01*
X208396526Y-123164263D01*
X208379096Y-123099215D01*
X208368046Y-122927878D01*
X208422045Y-122739111D01*
X208612521Y-122409196D01*
X208701379Y-122350527D01*
X208766428Y-122333098D01*
X208872716Y-122339477D01*
X209037673Y-122434715D01*
X209096342Y-122523574D01*
X209113772Y-122588623D01*
X209107392Y-122694911D01*
X208988345Y-122901107D01*
X208899486Y-122959776D01*
X208834438Y-122977206D01*
X208728150Y-122970826D01*
X208563192Y-122875588D01*
X208504523Y-122786730D01*
X208487093Y-122721681D01*
X208493473Y-122615393D01*
X86327145Y-121767860D02*
X86327145Y-120767860D01*
X85755717Y-121767860D02*
X86184288Y-121196432D01*
X85755717Y-120767860D02*
X86327145Y-121339289D01*
X85422383Y-120767860D02*
X84803336Y-120767860D01*
X85136669Y-121148813D01*
X84993812Y-121148813D01*
X84898574Y-121196432D01*
X84850955Y-121244051D01*
X84803336Y-121339289D01*
X84803336Y-121577384D01*
X84850955Y-121672622D01*
X84898574Y-121720241D01*
X84993812Y-121767860D01*
X85279526Y-121767860D01*
X85374764Y-121720241D01*
X85422383Y-121672622D01*
X84184288Y-120767860D02*
X84089050Y-120767860D01*
X83993812Y-120815480D01*
X83946193Y-120863099D01*
X83898574Y-120958337D01*
X83850955Y-121148813D01*
X83850955Y-121386908D01*
X83898574Y-121577384D01*
X83946193Y-121672622D01*
X83993812Y-121720241D01*
X84089050Y-121767860D01*
X84184288Y-121767860D01*
X84279526Y-121720241D01*
X84327145Y-121672622D01*
X84374764Y-121577384D01*
X84422383Y-121386908D01*
X84422383Y-121148813D01*
X84374764Y-120958337D01*
X84327145Y-120863099D01*
X84279526Y-120815480D01*
X84184288Y-120767860D01*
X109594285Y-121692380D02*
X109594285Y-120692380D01*
X109022857Y-121692380D02*
X109451428Y-121120952D01*
X109022857Y-120692380D02*
X109594285Y-121263809D01*
X108689523Y-120692380D02*
X108070476Y-120692380D01*
X108403809Y-121073333D01*
X108260952Y-121073333D01*
X108165714Y-121120952D01*
X108118095Y-121168571D01*
X108070476Y-121263809D01*
X108070476Y-121501904D01*
X108118095Y-121597142D01*
X108165714Y-121644761D01*
X108260952Y-121692380D01*
X108546666Y-121692380D01*
X108641904Y-121644761D01*
X108689523Y-121597142D01*
X107118095Y-121692380D02*
X107689523Y-121692380D01*
X107403809Y-121692380D02*
X107403809Y-120692380D01*
X107499047Y-120835238D01*
X107594285Y-120930476D01*
X107689523Y-120978095D01*
X126967145Y-117322860D02*
X126967145Y-116322860D01*
X126395717Y-117322860D02*
X126824288Y-116751432D01*
X126395717Y-116322860D02*
X126967145Y-116894289D01*
X126062383Y-116322860D02*
X125443336Y-116322860D01*
X125776669Y-116703813D01*
X125633812Y-116703813D01*
X125538574Y-116751432D01*
X125490955Y-116799051D01*
X125443336Y-116894289D01*
X125443336Y-117132384D01*
X125490955Y-117227622D01*
X125538574Y-117275241D01*
X125633812Y-117322860D01*
X125919526Y-117322860D01*
X126014764Y-117275241D01*
X126062383Y-117227622D01*
X125062383Y-116418099D02*
X125014764Y-116370480D01*
X124919526Y-116322860D01*
X124681431Y-116322860D01*
X124586193Y-116370480D01*
X124538574Y-116418099D01*
X124490955Y-116513337D01*
X124490955Y-116608575D01*
X124538574Y-116751432D01*
X125110002Y-117322860D01*
X124490955Y-117322860D01*
X146017145Y-114782860D02*
X146017145Y-113782860D01*
X145445717Y-114782860D02*
X145874288Y-114211432D01*
X145445717Y-113782860D02*
X146017145Y-114354289D01*
X145112383Y-113782860D02*
X144493336Y-113782860D01*
X144826669Y-114163813D01*
X144683812Y-114163813D01*
X144588574Y-114211432D01*
X144540955Y-114259051D01*
X144493336Y-114354289D01*
X144493336Y-114592384D01*
X144540955Y-114687622D01*
X144588574Y-114735241D01*
X144683812Y-114782860D01*
X144969526Y-114782860D01*
X145064764Y-114735241D01*
X145112383Y-114687622D01*
X144160002Y-113782860D02*
X143540955Y-113782860D01*
X143874288Y-114163813D01*
X143731431Y-114163813D01*
X143636193Y-114211432D01*
X143588574Y-114259051D01*
X143540955Y-114354289D01*
X143540955Y-114592384D01*
X143588574Y-114687622D01*
X143636193Y-114735241D01*
X143731431Y-114782860D01*
X144017145Y-114782860D01*
X144112383Y-114735241D01*
X144160002Y-114687622D01*
X165067145Y-117322860D02*
X165067145Y-116322860D01*
X164495717Y-117322860D02*
X164924288Y-116751432D01*
X164495717Y-116322860D02*
X165067145Y-116894289D01*
X164162383Y-116322860D02*
X163543336Y-116322860D01*
X163876669Y-116703813D01*
X163733812Y-116703813D01*
X163638574Y-116751432D01*
X163590955Y-116799051D01*
X163543336Y-116894289D01*
X163543336Y-117132384D01*
X163590955Y-117227622D01*
X163638574Y-117275241D01*
X163733812Y-117322860D01*
X164019526Y-117322860D01*
X164114764Y-117275241D01*
X164162383Y-117227622D01*
X162686193Y-116656194D02*
X162686193Y-117322860D01*
X162924288Y-116275241D02*
X163162383Y-116989527D01*
X162543336Y-116989527D01*
X184117145Y-119227860D02*
X184117145Y-118227860D01*
X183545717Y-119227860D02*
X183974288Y-118656432D01*
X183545717Y-118227860D02*
X184117145Y-118799289D01*
X183212383Y-118227860D02*
X182593336Y-118227860D01*
X182926669Y-118608813D01*
X182783812Y-118608813D01*
X182688574Y-118656432D01*
X182640955Y-118704051D01*
X182593336Y-118799289D01*
X182593336Y-119037384D01*
X182640955Y-119132622D01*
X182688574Y-119180241D01*
X182783812Y-119227860D01*
X183069526Y-119227860D01*
X183164764Y-119180241D01*
X183212383Y-119132622D01*
X181688574Y-118227860D02*
X182164764Y-118227860D01*
X182212383Y-118704051D01*
X182164764Y-118656432D01*
X182069526Y-118608813D01*
X181831431Y-118608813D01*
X181736193Y-118656432D01*
X181688574Y-118704051D01*
X181640955Y-118799289D01*
X181640955Y-119037384D01*
X181688574Y-119132622D01*
X181736193Y-119180241D01*
X181831431Y-119227860D01*
X182069526Y-119227860D01*
X182164764Y-119180241D01*
X182212383Y-119132622D01*
X223568187Y-130816858D02*
X223068187Y-131682884D01*
X224063058Y-131102573D02*
X223406190Y-131383158D01*
X223563058Y-131968598D02*
X223353901Y-131188012D01*
X223851733Y-132135265D02*
X224387844Y-132444788D01*
X224289646Y-131948207D01*
X224413363Y-132019636D01*
X224519652Y-132026016D01*
X224584700Y-132008586D01*
X224673559Y-131949917D01*
X224792606Y-131743720D01*
X224798986Y-131637432D01*
X224781556Y-131572383D01*
X224722887Y-131483525D01*
X224475451Y-131340668D01*
X224369163Y-131334288D01*
X224304114Y-131351718D01*
X225130152Y-132873360D02*
X224965195Y-132778122D01*
X224906526Y-132689263D01*
X224889096Y-132624215D01*
X224878046Y-132452878D01*
X224932045Y-132264111D01*
X225122521Y-131934196D01*
X225211379Y-131875527D01*
X225276428Y-131858098D01*
X225382716Y-131864477D01*
X225547673Y-131959715D01*
X225606342Y-132048574D01*
X225623772Y-132113623D01*
X225617392Y-132219911D01*
X225498345Y-132426107D01*
X225409486Y-132484776D01*
X225344438Y-132502206D01*
X225238150Y-132495826D01*
X225073192Y-132400588D01*
X225014523Y-132311730D01*
X224997093Y-132246681D01*
X225003473Y-132140393D01*
X88867145Y-140817860D02*
X88867145Y-139817860D01*
X88295717Y-140817860D02*
X88724288Y-140246432D01*
X88295717Y-139817860D02*
X88867145Y-140389289D01*
X87438574Y-140151194D02*
X87438574Y-140817860D01*
X87676669Y-139770241D02*
X87914764Y-140484527D01*
X87295717Y-140484527D01*
X86724288Y-139817860D02*
X86629050Y-139817860D01*
X86533812Y-139865480D01*
X86486193Y-139913099D01*
X86438574Y-140008337D01*
X86390955Y-140198813D01*
X86390955Y-140436908D01*
X86438574Y-140627384D01*
X86486193Y-140722622D01*
X86533812Y-140770241D01*
X86629050Y-140817860D01*
X86724288Y-140817860D01*
X86819526Y-140770241D01*
X86867145Y-140722622D01*
X86914764Y-140627384D01*
X86962383Y-140436908D01*
X86962383Y-140198813D01*
X86914764Y-140008337D01*
X86867145Y-139913099D01*
X86819526Y-139865480D01*
X86724288Y-139817860D01*
X107917145Y-140817860D02*
X107917145Y-139817860D01*
X107345717Y-140817860D02*
X107774288Y-140246432D01*
X107345717Y-139817860D02*
X107917145Y-140389289D01*
X106488574Y-140151194D02*
X106488574Y-140817860D01*
X106726669Y-139770241D02*
X106964764Y-140484527D01*
X106345717Y-140484527D01*
X105440955Y-140817860D02*
X106012383Y-140817860D01*
X105726669Y-140817860D02*
X105726669Y-139817860D01*
X105821907Y-139960718D01*
X105917145Y-140055956D01*
X106012383Y-140103575D01*
X126967145Y-136372860D02*
X126967145Y-135372860D01*
X126395717Y-136372860D02*
X126824288Y-135801432D01*
X126395717Y-135372860D02*
X126967145Y-135944289D01*
X125538574Y-135706194D02*
X125538574Y-136372860D01*
X125776669Y-135325241D02*
X126014764Y-136039527D01*
X125395717Y-136039527D01*
X125062383Y-135468099D02*
X125014764Y-135420480D01*
X124919526Y-135372860D01*
X124681431Y-135372860D01*
X124586193Y-135420480D01*
X124538574Y-135468099D01*
X124490955Y-135563337D01*
X124490955Y-135658575D01*
X124538574Y-135801432D01*
X125110002Y-136372860D01*
X124490955Y-136372860D01*
X146017145Y-133832860D02*
X146017145Y-132832860D01*
X145445717Y-133832860D02*
X145874288Y-133261432D01*
X145445717Y-132832860D02*
X146017145Y-133404289D01*
X144588574Y-133166194D02*
X144588574Y-133832860D01*
X144826669Y-132785241D02*
X145064764Y-133499527D01*
X144445717Y-133499527D01*
X144160002Y-132832860D02*
X143540955Y-132832860D01*
X143874288Y-133213813D01*
X143731431Y-133213813D01*
X143636193Y-133261432D01*
X143588574Y-133309051D01*
X143540955Y-133404289D01*
X143540955Y-133642384D01*
X143588574Y-133737622D01*
X143636193Y-133785241D01*
X143731431Y-133832860D01*
X144017145Y-133832860D01*
X144112383Y-133785241D01*
X144160002Y-133737622D01*
X170020805Y-136787280D02*
X169761986Y-137753206D01*
X170572763Y-136935176D02*
X170010898Y-137376212D01*
X170313944Y-137901102D02*
X169909883Y-137201248D01*
X171228153Y-137800972D02*
X171400699Y-137157021D01*
X170899573Y-138107320D02*
X170854462Y-137355749D01*
X171452416Y-137515971D01*
X172148083Y-138047466D02*
X172320629Y-137403516D01*
X171819503Y-138353814D02*
X171774391Y-137602244D01*
X172372345Y-137762465D01*
X194993187Y-142246858D02*
X194493187Y-143112884D01*
X195488058Y-142532573D02*
X194831190Y-142813158D01*
X194988058Y-143398598D02*
X194778901Y-142618012D01*
X195897033Y-143538494D02*
X196230366Y-142961144D01*
X195500360Y-143749361D02*
X195651306Y-143011724D01*
X196187417Y-143321248D01*
X196596391Y-144327169D02*
X196183998Y-144089074D01*
X196380854Y-143652872D01*
X196398284Y-143717920D01*
X196456953Y-143806779D01*
X196663150Y-143925826D01*
X196769438Y-143932206D01*
X196834486Y-143914776D01*
X196923345Y-143856107D01*
X197042392Y-143649911D01*
X197048772Y-143543623D01*
X197031342Y-143478574D01*
X196972673Y-143389715D01*
X196766477Y-143270668D01*
X196660189Y-143264288D01*
X196595140Y-143281718D01*
X211503187Y-151771858D02*
X211003187Y-152637884D01*
X211998058Y-152057573D02*
X211341190Y-152338158D01*
X211498058Y-152923598D02*
X211288901Y-152143012D01*
X212407033Y-153063494D02*
X212740366Y-152486144D01*
X212010360Y-153274361D02*
X212161306Y-152536724D01*
X212697417Y-152846248D01*
X213065152Y-153828360D02*
X212900195Y-153733122D01*
X212841526Y-153644263D01*
X212824096Y-153579215D01*
X212813046Y-153407878D01*
X212867045Y-153219111D01*
X213057521Y-152889196D01*
X213146379Y-152830527D01*
X213211428Y-152813098D01*
X213317716Y-152819477D01*
X213482673Y-152914715D01*
X213541342Y-153003574D01*
X213558772Y-153068623D01*
X213552392Y-153174911D01*
X213433345Y-153381107D01*
X213344486Y-153439776D01*
X213279438Y-153457206D01*
X213173150Y-153450826D01*
X213008192Y-153355588D01*
X212949523Y-153266730D01*
X212932093Y-153201681D01*
X212938473Y-153095393D01*
X86327145Y-83667860D02*
X86327145Y-82667860D01*
X85755717Y-83667860D02*
X86184288Y-83096432D01*
X85755717Y-82667860D02*
X86327145Y-83239289D01*
X84803336Y-83667860D02*
X85374764Y-83667860D01*
X85089050Y-83667860D02*
X85089050Y-82667860D01*
X85184288Y-82810718D01*
X85279526Y-82905956D01*
X85374764Y-82953575D01*
X84184288Y-82667860D02*
X84089050Y-82667860D01*
X83993812Y-82715480D01*
X83946193Y-82763099D01*
X83898574Y-82858337D01*
X83850955Y-83048813D01*
X83850955Y-83286908D01*
X83898574Y-83477384D01*
X83946193Y-83572622D01*
X83993812Y-83620241D01*
X84089050Y-83667860D01*
X84184288Y-83667860D01*
X84279526Y-83620241D01*
X84327145Y-83572622D01*
X84374764Y-83477384D01*
X84422383Y-83286908D01*
X84422383Y-83048813D01*
X84374764Y-82858337D01*
X84327145Y-82763099D01*
X84279526Y-82715480D01*
X84184288Y-82667860D01*
X109434285Y-83582380D02*
X109434285Y-82582380D01*
X108862857Y-83582380D02*
X109291428Y-83010952D01*
X108862857Y-82582380D02*
X109434285Y-83153809D01*
X107910476Y-83582380D02*
X108481904Y-83582380D01*
X108196190Y-83582380D02*
X108196190Y-82582380D01*
X108291428Y-82725238D01*
X108386666Y-82820476D01*
X108481904Y-82868095D01*
X106958095Y-83582380D02*
X107529523Y-83582380D01*
X107243809Y-83582380D02*
X107243809Y-82582380D01*
X107339047Y-82725238D01*
X107434285Y-82820476D01*
X107529523Y-82868095D01*
X205029669Y-137090866D02*
X204629669Y-137783687D01*
X204794626Y-137878925D01*
X204912648Y-137903076D01*
X205016726Y-137875189D01*
X205087813Y-137828253D01*
X205196995Y-137715335D01*
X205254138Y-137616361D01*
X205297337Y-137465348D01*
X205302441Y-137380317D01*
X205274553Y-137276239D01*
X205194626Y-137186105D01*
X205029669Y-137090866D01*
X205752746Y-138124175D02*
X206019412Y-137662295D01*
X205435408Y-138292869D02*
X205556165Y-137702759D01*
X205985053Y-137950378D01*
X206312233Y-138755115D02*
X205982318Y-138564639D01*
X206139803Y-138215677D01*
X206153747Y-138267716D01*
X206200682Y-138338803D01*
X206365639Y-138434041D01*
X206450670Y-138439145D01*
X206502709Y-138425201D01*
X206573796Y-138378266D01*
X206669034Y-138213308D01*
X206674137Y-138128278D01*
X206660194Y-138076239D01*
X206613258Y-138005152D01*
X206448301Y-137909914D01*
X206363271Y-137904810D01*
X206311232Y-137918754D01*
X178894649Y-131402007D02*
X178687594Y-132174748D01*
X178871580Y-132224047D01*
X178991831Y-132216829D01*
X179085145Y-132162954D01*
X179141662Y-132099219D01*
X179217898Y-131961890D01*
X179247478Y-131851499D01*
X179250119Y-131694451D01*
X179233042Y-131610996D01*
X179179167Y-131517682D01*
X179078635Y-131451306D01*
X178894649Y-131402007D01*
X179860528Y-132212961D02*
X179998565Y-131697800D01*
X179597664Y-132458039D02*
X179561574Y-131856783D01*
X180039938Y-131984960D01*
X180596471Y-132410156D02*
X180734508Y-131894996D01*
X180333607Y-132655235D02*
X180297518Y-132053978D01*
X180775881Y-132182155D01*
X152071428Y-129421904D02*
X152071428Y-128621904D01*
X151880952Y-128621904D01*
X151766666Y-128660000D01*
X151690476Y-128736190D01*
X151652380Y-128812380D01*
X151614285Y-128964761D01*
X151614285Y-129079047D01*
X151652380Y-129231428D01*
X151690476Y-129307619D01*
X151766666Y-129383809D01*
X151880952Y-129421904D01*
X152071428Y-129421904D01*
X150928571Y-128888571D02*
X150928571Y-129421904D01*
X151119047Y-128583809D02*
X151309523Y-129155238D01*
X150814285Y-129155238D01*
X150585714Y-128621904D02*
X150090476Y-128621904D01*
X150357142Y-128926666D01*
X150242857Y-128926666D01*
X150166666Y-128964761D01*
X150128571Y-129002857D01*
X150090476Y-129079047D01*
X150090476Y-129269523D01*
X150128571Y-129345714D01*
X150166666Y-129383809D01*
X150242857Y-129421904D01*
X150471428Y-129421904D01*
X150547619Y-129383809D01*
X150585714Y-129345714D01*
X133061428Y-132011904D02*
X133061428Y-131211904D01*
X132870952Y-131211904D01*
X132756666Y-131250000D01*
X132680476Y-131326190D01*
X132642380Y-131402380D01*
X132604285Y-131554761D01*
X132604285Y-131669047D01*
X132642380Y-131821428D01*
X132680476Y-131897619D01*
X132756666Y-131973809D01*
X132870952Y-132011904D01*
X133061428Y-132011904D01*
X131918571Y-131478571D02*
X131918571Y-132011904D01*
X132109047Y-131173809D02*
X132299523Y-131745238D01*
X131804285Y-131745238D01*
X131537619Y-131288095D02*
X131499523Y-131250000D01*
X131423333Y-131211904D01*
X131232857Y-131211904D01*
X131156666Y-131250000D01*
X131118571Y-131288095D01*
X131080476Y-131364285D01*
X131080476Y-131440476D01*
X131118571Y-131554761D01*
X131575714Y-132011904D01*
X131080476Y-132011904D01*
X114041428Y-136241904D02*
X114041428Y-135441904D01*
X113850952Y-135441904D01*
X113736666Y-135480000D01*
X113660476Y-135556190D01*
X113622380Y-135632380D01*
X113584285Y-135784761D01*
X113584285Y-135899047D01*
X113622380Y-136051428D01*
X113660476Y-136127619D01*
X113736666Y-136203809D01*
X113850952Y-136241904D01*
X114041428Y-136241904D01*
X112898571Y-135708571D02*
X112898571Y-136241904D01*
X113089047Y-135403809D02*
X113279523Y-135975238D01*
X112784285Y-135975238D01*
X112060476Y-136241904D02*
X112517619Y-136241904D01*
X112289047Y-136241904D02*
X112289047Y-135441904D01*
X112365238Y-135556190D01*
X112441428Y-135632380D01*
X112517619Y-135670476D01*
X171201428Y-107546904D02*
X171201428Y-106746904D01*
X171010952Y-106746904D01*
X170896666Y-106785000D01*
X170820476Y-106861190D01*
X170782380Y-106937380D01*
X170744285Y-107089761D01*
X170744285Y-107204047D01*
X170782380Y-107356428D01*
X170820476Y-107432619D01*
X170896666Y-107508809D01*
X171010952Y-107546904D01*
X171201428Y-107546904D01*
X170439523Y-106823095D02*
X170401428Y-106785000D01*
X170325238Y-106746904D01*
X170134761Y-106746904D01*
X170058571Y-106785000D01*
X170020476Y-106823095D01*
X169982380Y-106899285D01*
X169982380Y-106975476D01*
X170020476Y-107089761D01*
X170477619Y-107546904D01*
X169982380Y-107546904D01*
X169296666Y-107013571D02*
X169296666Y-107546904D01*
X169487142Y-106708809D02*
X169677619Y-107280238D01*
X169182380Y-107280238D01*
X92080476Y-73891904D02*
X92080476Y-73091904D01*
X91890000Y-73091904D01*
X91775714Y-73130000D01*
X91699523Y-73206190D01*
X91661428Y-73282380D01*
X91623333Y-73434761D01*
X91623333Y-73549047D01*
X91661428Y-73701428D01*
X91699523Y-73777619D01*
X91775714Y-73853809D01*
X91890000Y-73891904D01*
X92080476Y-73891904D01*
X91128095Y-73091904D02*
X91051904Y-73091904D01*
X90975714Y-73130000D01*
X90937619Y-73168095D01*
X90899523Y-73244285D01*
X90861428Y-73396666D01*
X90861428Y-73587142D01*
X90899523Y-73739523D01*
X90937619Y-73815714D01*
X90975714Y-73853809D01*
X91051904Y-73891904D01*
X91128095Y-73891904D01*
X91204285Y-73853809D01*
X91242380Y-73815714D01*
X91280476Y-73739523D01*
X91318571Y-73587142D01*
X91318571Y-73396666D01*
X91280476Y-73244285D01*
X91242380Y-73168095D01*
X91204285Y-73130000D01*
X91128095Y-73091904D01*
X170820476Y-69446904D02*
X170820476Y-68646904D01*
X170630000Y-68646904D01*
X170515714Y-68685000D01*
X170439523Y-68761190D01*
X170401428Y-68837380D01*
X170363333Y-68989761D01*
X170363333Y-69104047D01*
X170401428Y-69256428D01*
X170439523Y-69332619D01*
X170515714Y-69408809D01*
X170630000Y-69446904D01*
X170820476Y-69446904D01*
X169677619Y-68913571D02*
X169677619Y-69446904D01*
X169868095Y-68608809D02*
X170058571Y-69180238D01*
X169563333Y-69180238D01*
X114051428Y-92941904D02*
X114051428Y-92141904D01*
X113860952Y-92141904D01*
X113746666Y-92180000D01*
X113670476Y-92256190D01*
X113632380Y-92332380D01*
X113594285Y-92484761D01*
X113594285Y-92599047D01*
X113632380Y-92751428D01*
X113670476Y-92827619D01*
X113746666Y-92903809D01*
X113860952Y-92941904D01*
X114051428Y-92941904D01*
X112832380Y-92941904D02*
X113289523Y-92941904D01*
X113060952Y-92941904D02*
X113060952Y-92141904D01*
X113137142Y-92256190D01*
X113213333Y-92332380D01*
X113289523Y-92370476D01*
X112070476Y-92941904D02*
X112527619Y-92941904D01*
X112299047Y-92941904D02*
X112299047Y-92141904D01*
X112375238Y-92256190D01*
X112451428Y-92332380D01*
X112527619Y-92370476D01*
X132720476Y-69446904D02*
X132720476Y-68646904D01*
X132530000Y-68646904D01*
X132415714Y-68685000D01*
X132339523Y-68761190D01*
X132301428Y-68837380D01*
X132263333Y-68989761D01*
X132263333Y-69104047D01*
X132301428Y-69256428D01*
X132339523Y-69332619D01*
X132415714Y-69408809D01*
X132530000Y-69446904D01*
X132720476Y-69446904D01*
X131958571Y-68723095D02*
X131920476Y-68685000D01*
X131844285Y-68646904D01*
X131653809Y-68646904D01*
X131577619Y-68685000D01*
X131539523Y-68723095D01*
X131501428Y-68799285D01*
X131501428Y-68875476D01*
X131539523Y-68989761D01*
X131996666Y-69446904D01*
X131501428Y-69446904D01*
X209301428Y-105641904D02*
X209301428Y-104841904D01*
X209110952Y-104841904D01*
X208996666Y-104880000D01*
X208920476Y-104956190D01*
X208882380Y-105032380D01*
X208844285Y-105184761D01*
X208844285Y-105299047D01*
X208882380Y-105451428D01*
X208920476Y-105527619D01*
X208996666Y-105603809D01*
X209110952Y-105641904D01*
X209301428Y-105641904D01*
X208082380Y-105641904D02*
X208539523Y-105641904D01*
X208310952Y-105641904D02*
X208310952Y-104841904D01*
X208387142Y-104956190D01*
X208463333Y-105032380D01*
X208539523Y-105070476D01*
X207396666Y-104841904D02*
X207549047Y-104841904D01*
X207625238Y-104880000D01*
X207663333Y-104918095D01*
X207739523Y-105032380D01*
X207777619Y-105184761D01*
X207777619Y-105489523D01*
X207739523Y-105565714D01*
X207701428Y-105603809D01*
X207625238Y-105641904D01*
X207472857Y-105641904D01*
X207396666Y-105603809D01*
X207358571Y-105565714D01*
X207320476Y-105489523D01*
X207320476Y-105299047D01*
X207358571Y-105222857D01*
X207396666Y-105184761D01*
X207472857Y-105146666D01*
X207625238Y-105146666D01*
X207701428Y-105184761D01*
X207739523Y-105222857D01*
X207777619Y-105299047D01*
X171201428Y-88496904D02*
X171201428Y-87696904D01*
X171010952Y-87696904D01*
X170896666Y-87735000D01*
X170820476Y-87811190D01*
X170782380Y-87887380D01*
X170744285Y-88039761D01*
X170744285Y-88154047D01*
X170782380Y-88306428D01*
X170820476Y-88382619D01*
X170896666Y-88458809D01*
X171010952Y-88496904D01*
X171201428Y-88496904D01*
X169982380Y-88496904D02*
X170439523Y-88496904D01*
X170210952Y-88496904D02*
X170210952Y-87696904D01*
X170287142Y-87811190D01*
X170363333Y-87887380D01*
X170439523Y-87925476D01*
X169296666Y-87963571D02*
X169296666Y-88496904D01*
X169487142Y-87658809D02*
X169677619Y-88230238D01*
X169182380Y-88230238D01*
X92461428Y-111991904D02*
X92461428Y-111191904D01*
X92270952Y-111191904D01*
X92156666Y-111230000D01*
X92080476Y-111306190D01*
X92042380Y-111382380D01*
X92004285Y-111534761D01*
X92004285Y-111649047D01*
X92042380Y-111801428D01*
X92080476Y-111877619D01*
X92156666Y-111953809D01*
X92270952Y-111991904D01*
X92461428Y-111991904D01*
X91699523Y-111268095D02*
X91661428Y-111230000D01*
X91585238Y-111191904D01*
X91394761Y-111191904D01*
X91318571Y-111230000D01*
X91280476Y-111268095D01*
X91242380Y-111344285D01*
X91242380Y-111420476D01*
X91280476Y-111534761D01*
X91737619Y-111991904D01*
X91242380Y-111991904D01*
X90747142Y-111191904D02*
X90670952Y-111191904D01*
X90594761Y-111230000D01*
X90556666Y-111268095D01*
X90518571Y-111344285D01*
X90480476Y-111496666D01*
X90480476Y-111687142D01*
X90518571Y-111839523D01*
X90556666Y-111915714D01*
X90594761Y-111953809D01*
X90670952Y-111991904D01*
X90747142Y-111991904D01*
X90823333Y-111953809D01*
X90861428Y-111915714D01*
X90899523Y-111839523D01*
X90937619Y-111687142D01*
X90937619Y-111496666D01*
X90899523Y-111344285D01*
X90861428Y-111268095D01*
X90823333Y-111230000D01*
X90747142Y-111191904D01*
X113670476Y-73891904D02*
X113670476Y-73091904D01*
X113480000Y-73091904D01*
X113365714Y-73130000D01*
X113289523Y-73206190D01*
X113251428Y-73282380D01*
X113213333Y-73434761D01*
X113213333Y-73549047D01*
X113251428Y-73701428D01*
X113289523Y-73777619D01*
X113365714Y-73853809D01*
X113480000Y-73891904D01*
X113670476Y-73891904D01*
X112451428Y-73891904D02*
X112908571Y-73891904D01*
X112680000Y-73891904D02*
X112680000Y-73091904D01*
X112756190Y-73206190D01*
X112832380Y-73282380D01*
X112908571Y-73320476D01*
X152151428Y-85956904D02*
X152151428Y-85156904D01*
X151960952Y-85156904D01*
X151846666Y-85195000D01*
X151770476Y-85271190D01*
X151732380Y-85347380D01*
X151694285Y-85499761D01*
X151694285Y-85614047D01*
X151732380Y-85766428D01*
X151770476Y-85842619D01*
X151846666Y-85918809D01*
X151960952Y-85956904D01*
X152151428Y-85956904D01*
X150932380Y-85956904D02*
X151389523Y-85956904D01*
X151160952Y-85956904D02*
X151160952Y-85156904D01*
X151237142Y-85271190D01*
X151313333Y-85347380D01*
X151389523Y-85385476D01*
X150665714Y-85156904D02*
X150170476Y-85156904D01*
X150437142Y-85461666D01*
X150322857Y-85461666D01*
X150246666Y-85499761D01*
X150208571Y-85537857D01*
X150170476Y-85614047D01*
X150170476Y-85804523D01*
X150208571Y-85880714D01*
X150246666Y-85918809D01*
X150322857Y-85956904D01*
X150551428Y-85956904D01*
X150627619Y-85918809D01*
X150665714Y-85880714D01*
X179761904Y-61619523D02*
X178961904Y-61619523D01*
X178961904Y-61810000D01*
X179000000Y-61924285D01*
X179076190Y-62000476D01*
X179152380Y-62038571D01*
X179304761Y-62076666D01*
X179419047Y-62076666D01*
X179571428Y-62038571D01*
X179647619Y-62000476D01*
X179723809Y-61924285D01*
X179761904Y-61810000D01*
X179761904Y-61619523D01*
X178961904Y-62800476D02*
X178961904Y-62419523D01*
X179342857Y-62381428D01*
X179304761Y-62419523D01*
X179266666Y-62495714D01*
X179266666Y-62686190D01*
X179304761Y-62762380D01*
X179342857Y-62800476D01*
X179419047Y-62838571D01*
X179609523Y-62838571D01*
X179685714Y-62800476D01*
X179723809Y-62762380D01*
X179761904Y-62686190D01*
X179761904Y-62495714D01*
X179723809Y-62419523D01*
X179685714Y-62381428D01*
X152151428Y-105006904D02*
X152151428Y-104206904D01*
X151960952Y-104206904D01*
X151846666Y-104245000D01*
X151770476Y-104321190D01*
X151732380Y-104397380D01*
X151694285Y-104549761D01*
X151694285Y-104664047D01*
X151732380Y-104816428D01*
X151770476Y-104892619D01*
X151846666Y-104968809D01*
X151960952Y-105006904D01*
X152151428Y-105006904D01*
X151389523Y-104283095D02*
X151351428Y-104245000D01*
X151275238Y-104206904D01*
X151084761Y-104206904D01*
X151008571Y-104245000D01*
X150970476Y-104283095D01*
X150932380Y-104359285D01*
X150932380Y-104435476D01*
X150970476Y-104549761D01*
X151427619Y-105006904D01*
X150932380Y-105006904D01*
X150665714Y-104206904D02*
X150170476Y-104206904D01*
X150437142Y-104511666D01*
X150322857Y-104511666D01*
X150246666Y-104549761D01*
X150208571Y-104587857D01*
X150170476Y-104664047D01*
X150170476Y-104854523D01*
X150208571Y-104930714D01*
X150246666Y-104968809D01*
X150322857Y-105006904D01*
X150551428Y-105006904D01*
X150627619Y-104968809D01*
X150665714Y-104930714D01*
X152151428Y-124056904D02*
X152151428Y-123256904D01*
X151960952Y-123256904D01*
X151846666Y-123295000D01*
X151770476Y-123371190D01*
X151732380Y-123447380D01*
X151694285Y-123599761D01*
X151694285Y-123714047D01*
X151732380Y-123866428D01*
X151770476Y-123942619D01*
X151846666Y-124018809D01*
X151960952Y-124056904D01*
X152151428Y-124056904D01*
X151427619Y-123256904D02*
X150932380Y-123256904D01*
X151199047Y-123561666D01*
X151084761Y-123561666D01*
X151008571Y-123599761D01*
X150970476Y-123637857D01*
X150932380Y-123714047D01*
X150932380Y-123904523D01*
X150970476Y-123980714D01*
X151008571Y-124018809D01*
X151084761Y-124056904D01*
X151313333Y-124056904D01*
X151389523Y-124018809D01*
X151427619Y-123980714D01*
X150665714Y-123256904D02*
X150170476Y-123256904D01*
X150437142Y-123561666D01*
X150322857Y-123561666D01*
X150246666Y-123599761D01*
X150208571Y-123637857D01*
X150170476Y-123714047D01*
X150170476Y-123904523D01*
X150208571Y-123980714D01*
X150246666Y-124018809D01*
X150322857Y-124056904D01*
X150551428Y-124056904D01*
X150627619Y-124018809D01*
X150665714Y-123980714D01*
X190251428Y-109451904D02*
X190251428Y-108651904D01*
X190060952Y-108651904D01*
X189946666Y-108690000D01*
X189870476Y-108766190D01*
X189832380Y-108842380D01*
X189794285Y-108994761D01*
X189794285Y-109109047D01*
X189832380Y-109261428D01*
X189870476Y-109337619D01*
X189946666Y-109413809D01*
X190060952Y-109451904D01*
X190251428Y-109451904D01*
X189489523Y-108728095D02*
X189451428Y-108690000D01*
X189375238Y-108651904D01*
X189184761Y-108651904D01*
X189108571Y-108690000D01*
X189070476Y-108728095D01*
X189032380Y-108804285D01*
X189032380Y-108880476D01*
X189070476Y-108994761D01*
X189527619Y-109451904D01*
X189032380Y-109451904D01*
X188308571Y-108651904D02*
X188689523Y-108651904D01*
X188727619Y-109032857D01*
X188689523Y-108994761D01*
X188613333Y-108956666D01*
X188422857Y-108956666D01*
X188346666Y-108994761D01*
X188308571Y-109032857D01*
X188270476Y-109109047D01*
X188270476Y-109299523D01*
X188308571Y-109375714D01*
X188346666Y-109413809D01*
X188422857Y-109451904D01*
X188613333Y-109451904D01*
X188689523Y-109413809D01*
X188727619Y-109375714D01*
X92461428Y-131041904D02*
X92461428Y-130241904D01*
X92270952Y-130241904D01*
X92156666Y-130280000D01*
X92080476Y-130356190D01*
X92042380Y-130432380D01*
X92004285Y-130584761D01*
X92004285Y-130699047D01*
X92042380Y-130851428D01*
X92080476Y-130927619D01*
X92156666Y-131003809D01*
X92270952Y-131041904D01*
X92461428Y-131041904D01*
X91737619Y-130241904D02*
X91242380Y-130241904D01*
X91509047Y-130546666D01*
X91394761Y-130546666D01*
X91318571Y-130584761D01*
X91280476Y-130622857D01*
X91242380Y-130699047D01*
X91242380Y-130889523D01*
X91280476Y-130965714D01*
X91318571Y-131003809D01*
X91394761Y-131041904D01*
X91623333Y-131041904D01*
X91699523Y-131003809D01*
X91737619Y-130965714D01*
X90747142Y-130241904D02*
X90670952Y-130241904D01*
X90594761Y-130280000D01*
X90556666Y-130318095D01*
X90518571Y-130394285D01*
X90480476Y-130546666D01*
X90480476Y-130737142D01*
X90518571Y-130889523D01*
X90556666Y-130965714D01*
X90594761Y-131003809D01*
X90670952Y-131041904D01*
X90747142Y-131041904D01*
X90823333Y-131003809D01*
X90861428Y-130965714D01*
X90899523Y-130889523D01*
X90937619Y-130737142D01*
X90937619Y-130546666D01*
X90899523Y-130394285D01*
X90861428Y-130318095D01*
X90823333Y-130280000D01*
X90747142Y-130241904D01*
X151770476Y-66906904D02*
X151770476Y-66106904D01*
X151580000Y-66106904D01*
X151465714Y-66145000D01*
X151389523Y-66221190D01*
X151351428Y-66297380D01*
X151313333Y-66449761D01*
X151313333Y-66564047D01*
X151351428Y-66716428D01*
X151389523Y-66792619D01*
X151465714Y-66868809D01*
X151580000Y-66906904D01*
X151770476Y-66906904D01*
X151046666Y-66106904D02*
X150551428Y-66106904D01*
X150818095Y-66411666D01*
X150703809Y-66411666D01*
X150627619Y-66449761D01*
X150589523Y-66487857D01*
X150551428Y-66564047D01*
X150551428Y-66754523D01*
X150589523Y-66830714D01*
X150627619Y-66868809D01*
X150703809Y-66906904D01*
X150932380Y-66906904D01*
X151008571Y-66868809D01*
X151046666Y-66830714D01*
X207727971Y-132633430D02*
X207327971Y-133326251D01*
X207492928Y-133421489D01*
X207610950Y-133445640D01*
X207715028Y-133417753D01*
X207786115Y-133370817D01*
X207895297Y-133257899D01*
X207952440Y-133158925D01*
X207995639Y-133007912D01*
X208000743Y-132922881D01*
X207972855Y-132818803D01*
X207892928Y-132728669D01*
X207727971Y-132633430D01*
X208025895Y-133641220D02*
X208039839Y-133693259D01*
X208086774Y-133764346D01*
X208251731Y-133859584D01*
X208336762Y-133864688D01*
X208388801Y-133850744D01*
X208459888Y-133803809D01*
X208497983Y-133737826D01*
X208522134Y-133619804D01*
X208354808Y-132995335D01*
X208783697Y-133242954D01*
X208977543Y-134278632D02*
X208845577Y-134202441D01*
X208798642Y-134131355D01*
X208784698Y-134079316D01*
X208775858Y-133942246D01*
X208819057Y-133791233D01*
X208971438Y-133527301D01*
X209042525Y-133480366D01*
X209094564Y-133466422D01*
X209179595Y-133471526D01*
X209311560Y-133547716D01*
X209358496Y-133618803D01*
X209372439Y-133670842D01*
X209367336Y-133755872D01*
X209272098Y-133920830D01*
X209201011Y-133967765D01*
X209148972Y-133981709D01*
X209063941Y-133976605D01*
X208931976Y-133900415D01*
X208885040Y-133829328D01*
X208871096Y-133777289D01*
X208876200Y-133692258D01*
X133101428Y-88496904D02*
X133101428Y-87696904D01*
X132910952Y-87696904D01*
X132796666Y-87735000D01*
X132720476Y-87811190D01*
X132682380Y-87887380D01*
X132644285Y-88039761D01*
X132644285Y-88154047D01*
X132682380Y-88306428D01*
X132720476Y-88382619D01*
X132796666Y-88458809D01*
X132910952Y-88496904D01*
X133101428Y-88496904D01*
X131882380Y-88496904D02*
X132339523Y-88496904D01*
X132110952Y-88496904D02*
X132110952Y-87696904D01*
X132187142Y-87811190D01*
X132263333Y-87887380D01*
X132339523Y-87925476D01*
X131577619Y-87773095D02*
X131539523Y-87735000D01*
X131463333Y-87696904D01*
X131272857Y-87696904D01*
X131196666Y-87735000D01*
X131158571Y-87773095D01*
X131120476Y-87849285D01*
X131120476Y-87925476D01*
X131158571Y-88039761D01*
X131615714Y-88496904D01*
X131120476Y-88496904D01*
X171201428Y-126596904D02*
X171201428Y-125796904D01*
X171010952Y-125796904D01*
X170896666Y-125835000D01*
X170820476Y-125911190D01*
X170782380Y-125987380D01*
X170744285Y-126139761D01*
X170744285Y-126254047D01*
X170782380Y-126406428D01*
X170820476Y-126482619D01*
X170896666Y-126558809D01*
X171010952Y-126596904D01*
X171201428Y-126596904D01*
X170477619Y-125796904D02*
X169982380Y-125796904D01*
X170249047Y-126101666D01*
X170134761Y-126101666D01*
X170058571Y-126139761D01*
X170020476Y-126177857D01*
X169982380Y-126254047D01*
X169982380Y-126444523D01*
X170020476Y-126520714D01*
X170058571Y-126558809D01*
X170134761Y-126596904D01*
X170363333Y-126596904D01*
X170439523Y-126558809D01*
X170477619Y-126520714D01*
X169296666Y-126063571D02*
X169296666Y-126596904D01*
X169487142Y-125758809D02*
X169677619Y-126330238D01*
X169182380Y-126330238D01*
X92461428Y-92941904D02*
X92461428Y-92141904D01*
X92270952Y-92141904D01*
X92156666Y-92180000D01*
X92080476Y-92256190D01*
X92042380Y-92332380D01*
X92004285Y-92484761D01*
X92004285Y-92599047D01*
X92042380Y-92751428D01*
X92080476Y-92827619D01*
X92156666Y-92903809D01*
X92270952Y-92941904D01*
X92461428Y-92941904D01*
X91242380Y-92941904D02*
X91699523Y-92941904D01*
X91470952Y-92941904D02*
X91470952Y-92141904D01*
X91547142Y-92256190D01*
X91623333Y-92332380D01*
X91699523Y-92370476D01*
X90747142Y-92141904D02*
X90670952Y-92141904D01*
X90594761Y-92180000D01*
X90556666Y-92218095D01*
X90518571Y-92294285D01*
X90480476Y-92446666D01*
X90480476Y-92637142D01*
X90518571Y-92789523D01*
X90556666Y-92865714D01*
X90594761Y-92903809D01*
X90670952Y-92941904D01*
X90747142Y-92941904D01*
X90823333Y-92903809D01*
X90861428Y-92865714D01*
X90899523Y-92789523D01*
X90937619Y-92637142D01*
X90937619Y-92446666D01*
X90899523Y-92294285D01*
X90861428Y-92218095D01*
X90823333Y-92180000D01*
X90747142Y-92141904D01*
X208920476Y-80876904D02*
X208920476Y-80076904D01*
X208730000Y-80076904D01*
X208615714Y-80115000D01*
X208539523Y-80191190D01*
X208501428Y-80267380D01*
X208463333Y-80419761D01*
X208463333Y-80534047D01*
X208501428Y-80686428D01*
X208539523Y-80762619D01*
X208615714Y-80838809D01*
X208730000Y-80876904D01*
X208920476Y-80876904D01*
X207777619Y-80076904D02*
X207930000Y-80076904D01*
X208006190Y-80115000D01*
X208044285Y-80153095D01*
X208120476Y-80267380D01*
X208158571Y-80419761D01*
X208158571Y-80724523D01*
X208120476Y-80800714D01*
X208082380Y-80838809D01*
X208006190Y-80876904D01*
X207853809Y-80876904D01*
X207777619Y-80838809D01*
X207739523Y-80800714D01*
X207701428Y-80724523D01*
X207701428Y-80534047D01*
X207739523Y-80457857D01*
X207777619Y-80419761D01*
X207853809Y-80381666D01*
X208006190Y-80381666D01*
X208082380Y-80419761D01*
X208120476Y-80457857D01*
X208158571Y-80534047D01*
X190251428Y-90401904D02*
X190251428Y-89601904D01*
X190060952Y-89601904D01*
X189946666Y-89640000D01*
X189870476Y-89716190D01*
X189832380Y-89792380D01*
X189794285Y-89944761D01*
X189794285Y-90059047D01*
X189832380Y-90211428D01*
X189870476Y-90287619D01*
X189946666Y-90363809D01*
X190060952Y-90401904D01*
X190251428Y-90401904D01*
X189032380Y-90401904D02*
X189489523Y-90401904D01*
X189260952Y-90401904D02*
X189260952Y-89601904D01*
X189337142Y-89716190D01*
X189413333Y-89792380D01*
X189489523Y-89830476D01*
X188308571Y-89601904D02*
X188689523Y-89601904D01*
X188727619Y-89982857D01*
X188689523Y-89944761D01*
X188613333Y-89906666D01*
X188422857Y-89906666D01*
X188346666Y-89944761D01*
X188308571Y-89982857D01*
X188270476Y-90059047D01*
X188270476Y-90249523D01*
X188308571Y-90325714D01*
X188346666Y-90363809D01*
X188422857Y-90401904D01*
X188613333Y-90401904D01*
X188689523Y-90363809D01*
X188727619Y-90325714D01*
X114051428Y-111991904D02*
X114051428Y-111191904D01*
X113860952Y-111191904D01*
X113746666Y-111230000D01*
X113670476Y-111306190D01*
X113632380Y-111382380D01*
X113594285Y-111534761D01*
X113594285Y-111649047D01*
X113632380Y-111801428D01*
X113670476Y-111877619D01*
X113746666Y-111953809D01*
X113860952Y-111991904D01*
X114051428Y-111991904D01*
X113289523Y-111268095D02*
X113251428Y-111230000D01*
X113175238Y-111191904D01*
X112984761Y-111191904D01*
X112908571Y-111230000D01*
X112870476Y-111268095D01*
X112832380Y-111344285D01*
X112832380Y-111420476D01*
X112870476Y-111534761D01*
X113327619Y-111991904D01*
X112832380Y-111991904D01*
X112070476Y-111991904D02*
X112527619Y-111991904D01*
X112299047Y-111991904D02*
X112299047Y-111191904D01*
X112375238Y-111306190D01*
X112451428Y-111382380D01*
X112527619Y-111420476D01*
X114051428Y-131041904D02*
X114051428Y-130241904D01*
X113860952Y-130241904D01*
X113746666Y-130280000D01*
X113670476Y-130356190D01*
X113632380Y-130432380D01*
X113594285Y-130584761D01*
X113594285Y-130699047D01*
X113632380Y-130851428D01*
X113670476Y-130927619D01*
X113746666Y-131003809D01*
X113860952Y-131041904D01*
X114051428Y-131041904D01*
X113327619Y-130241904D02*
X112832380Y-130241904D01*
X113099047Y-130546666D01*
X112984761Y-130546666D01*
X112908571Y-130584761D01*
X112870476Y-130622857D01*
X112832380Y-130699047D01*
X112832380Y-130889523D01*
X112870476Y-130965714D01*
X112908571Y-131003809D01*
X112984761Y-131041904D01*
X113213333Y-131041904D01*
X113289523Y-131003809D01*
X113327619Y-130965714D01*
X112070476Y-131041904D02*
X112527619Y-131041904D01*
X112299047Y-131041904D02*
X112299047Y-130241904D01*
X112375238Y-130356190D01*
X112451428Y-130432380D01*
X112527619Y-130470476D01*
X133101428Y-107546904D02*
X133101428Y-106746904D01*
X132910952Y-106746904D01*
X132796666Y-106785000D01*
X132720476Y-106861190D01*
X132682380Y-106937380D01*
X132644285Y-107089761D01*
X132644285Y-107204047D01*
X132682380Y-107356428D01*
X132720476Y-107432619D01*
X132796666Y-107508809D01*
X132910952Y-107546904D01*
X133101428Y-107546904D01*
X132339523Y-106823095D02*
X132301428Y-106785000D01*
X132225238Y-106746904D01*
X132034761Y-106746904D01*
X131958571Y-106785000D01*
X131920476Y-106823095D01*
X131882380Y-106899285D01*
X131882380Y-106975476D01*
X131920476Y-107089761D01*
X132377619Y-107546904D01*
X131882380Y-107546904D01*
X131577619Y-106823095D02*
X131539523Y-106785000D01*
X131463333Y-106746904D01*
X131272857Y-106746904D01*
X131196666Y-106785000D01*
X131158571Y-106823095D01*
X131120476Y-106899285D01*
X131120476Y-106975476D01*
X131158571Y-107089761D01*
X131615714Y-107546904D01*
X131120476Y-107546904D01*
X221629670Y-146640866D02*
X221229670Y-147333687D01*
X221394627Y-147428925D01*
X221512649Y-147453076D01*
X221616727Y-147425189D01*
X221687814Y-147378253D01*
X221796996Y-147265335D01*
X221854139Y-147166361D01*
X221897338Y-147015348D01*
X221902442Y-146930317D01*
X221874554Y-146826239D01*
X221794627Y-146736105D01*
X221629670Y-146640866D01*
X222352747Y-147674175D02*
X222619413Y-147212295D01*
X222035409Y-147842869D02*
X222156166Y-147252759D01*
X222585054Y-147500378D01*
X222879242Y-148286068D02*
X222747276Y-148209877D01*
X222700341Y-148138791D01*
X222686397Y-148086752D01*
X222677557Y-147949682D01*
X222720756Y-147798669D01*
X222873137Y-147534737D01*
X222944224Y-147487802D01*
X222996263Y-147473858D01*
X223081294Y-147478962D01*
X223213259Y-147555152D01*
X223260195Y-147626239D01*
X223274138Y-147678278D01*
X223269035Y-147763308D01*
X223173797Y-147928266D01*
X223102710Y-147975201D01*
X223050671Y-147989145D01*
X222965640Y-147984041D01*
X222833675Y-147907851D01*
X222786739Y-147836764D01*
X222772795Y-147784725D01*
X222777899Y-147699694D01*
X133101428Y-126596904D02*
X133101428Y-125796904D01*
X132910952Y-125796904D01*
X132796666Y-125835000D01*
X132720476Y-125911190D01*
X132682380Y-125987380D01*
X132644285Y-126139761D01*
X132644285Y-126254047D01*
X132682380Y-126406428D01*
X132720476Y-126482619D01*
X132796666Y-126558809D01*
X132910952Y-126596904D01*
X133101428Y-126596904D01*
X132377619Y-125796904D02*
X131882380Y-125796904D01*
X132149047Y-126101666D01*
X132034761Y-126101666D01*
X131958571Y-126139761D01*
X131920476Y-126177857D01*
X131882380Y-126254047D01*
X131882380Y-126444523D01*
X131920476Y-126520714D01*
X131958571Y-126558809D01*
X132034761Y-126596904D01*
X132263333Y-126596904D01*
X132339523Y-126558809D01*
X132377619Y-126520714D01*
X131577619Y-125873095D02*
X131539523Y-125835000D01*
X131463333Y-125796904D01*
X131272857Y-125796904D01*
X131196666Y-125835000D01*
X131158571Y-125873095D01*
X131120476Y-125949285D01*
X131120476Y-126025476D01*
X131158571Y-126139761D01*
X131615714Y-126596904D01*
X131120476Y-126596904D01*
X224237971Y-142158430D02*
X223837971Y-142851251D01*
X224002928Y-142946489D01*
X224120950Y-142970640D01*
X224225028Y-142942753D01*
X224296115Y-142895817D01*
X224405297Y-142782899D01*
X224462440Y-142683925D01*
X224505639Y-142532912D01*
X224510743Y-142447881D01*
X224482855Y-142343803D01*
X224402928Y-142253669D01*
X224237971Y-142158430D01*
X224464808Y-143213156D02*
X224893697Y-143460775D01*
X224815138Y-143063510D01*
X224914112Y-143120653D01*
X224999143Y-143125756D01*
X225051182Y-143111813D01*
X225122269Y-143064877D01*
X225217507Y-142899920D01*
X225222611Y-142814890D01*
X225208667Y-142762851D01*
X225161731Y-142691764D01*
X224963783Y-142577478D01*
X224878752Y-142572374D01*
X224826713Y-142586318D01*
X225487543Y-143803632D02*
X225355577Y-143727441D01*
X225308642Y-143656355D01*
X225294698Y-143604316D01*
X225285858Y-143467246D01*
X225329057Y-143316233D01*
X225481438Y-143052301D01*
X225552525Y-143005366D01*
X225604564Y-142991422D01*
X225689595Y-142996526D01*
X225821560Y-143072716D01*
X225868496Y-143143803D01*
X225882439Y-143195842D01*
X225877336Y-143280872D01*
X225782098Y-143445830D01*
X225711011Y-143492765D01*
X225658972Y-143506709D01*
X225573941Y-143501605D01*
X225441976Y-143425415D01*
X225395040Y-143354328D01*
X225381096Y-143302289D01*
X225386200Y-143217258D01*
X190251428Y-128501904D02*
X190251428Y-127701904D01*
X190060952Y-127701904D01*
X189946666Y-127740000D01*
X189870476Y-127816190D01*
X189832380Y-127892380D01*
X189794285Y-128044761D01*
X189794285Y-128159047D01*
X189832380Y-128311428D01*
X189870476Y-128387619D01*
X189946666Y-128463809D01*
X190060952Y-128501904D01*
X190251428Y-128501904D01*
X189527619Y-127701904D02*
X189032380Y-127701904D01*
X189299047Y-128006666D01*
X189184761Y-128006666D01*
X189108571Y-128044761D01*
X189070476Y-128082857D01*
X189032380Y-128159047D01*
X189032380Y-128349523D01*
X189070476Y-128425714D01*
X189108571Y-128463809D01*
X189184761Y-128501904D01*
X189413333Y-128501904D01*
X189489523Y-128463809D01*
X189527619Y-128425714D01*
X188308571Y-127701904D02*
X188689523Y-127701904D01*
X188727619Y-128082857D01*
X188689523Y-128044761D01*
X188613333Y-128006666D01*
X188422857Y-128006666D01*
X188346666Y-128044761D01*
X188308571Y-128082857D01*
X188270476Y-128159047D01*
X188270476Y-128349523D01*
X188308571Y-128425714D01*
X188346666Y-128463809D01*
X188422857Y-128501904D01*
X188613333Y-128501904D01*
X188689523Y-128463809D01*
X188727619Y-128425714D01*
X95011428Y-136201904D02*
X95011428Y-135401904D01*
X94820952Y-135401904D01*
X94706666Y-135440000D01*
X94630476Y-135516190D01*
X94592380Y-135592380D01*
X94554285Y-135744761D01*
X94554285Y-135859047D01*
X94592380Y-136011428D01*
X94630476Y-136087619D01*
X94706666Y-136163809D01*
X94820952Y-136201904D01*
X95011428Y-136201904D01*
X93868571Y-135668571D02*
X93868571Y-136201904D01*
X94059047Y-135363809D02*
X94249523Y-135935238D01*
X93754285Y-135935238D01*
X93297142Y-135401904D02*
X93220952Y-135401904D01*
X93144761Y-135440000D01*
X93106666Y-135478095D01*
X93068571Y-135554285D01*
X93030476Y-135706666D01*
X93030476Y-135897142D01*
X93068571Y-136049523D01*
X93106666Y-136125714D01*
X93144761Y-136163809D01*
X93220952Y-136201904D01*
X93297142Y-136201904D01*
X93373333Y-136163809D01*
X93411428Y-136125714D01*
X93449523Y-136049523D01*
X93487619Y-135897142D01*
X93487619Y-135706666D01*
X93449523Y-135554285D01*
X93411428Y-135478095D01*
X93373333Y-135440000D01*
X93297142Y-135401904D01*
X202161904Y-89275666D02*
X201780952Y-89009000D01*
X202161904Y-88818523D02*
X201361904Y-88818523D01*
X201361904Y-89123285D01*
X201400000Y-89199476D01*
X201438095Y-89237571D01*
X201514285Y-89275666D01*
X201628571Y-89275666D01*
X201704761Y-89237571D01*
X201742857Y-89199476D01*
X201780952Y-89123285D01*
X201780952Y-88818523D01*
X201438095Y-89580428D02*
X201400000Y-89618523D01*
X201361904Y-89694714D01*
X201361904Y-89885190D01*
X201400000Y-89961380D01*
X201438095Y-89999476D01*
X201514285Y-90037571D01*
X201590476Y-90037571D01*
X201704761Y-89999476D01*
X202161904Y-89542333D01*
X202161904Y-90037571D01*
X199875904Y-89224666D02*
X199494952Y-88958000D01*
X199875904Y-88767523D02*
X199075904Y-88767523D01*
X199075904Y-89072285D01*
X199114000Y-89148476D01*
X199152095Y-89186571D01*
X199228285Y-89224666D01*
X199342571Y-89224666D01*
X199418761Y-89186571D01*
X199456857Y-89148476D01*
X199494952Y-89072285D01*
X199494952Y-88767523D01*
X199875904Y-89986571D02*
X199875904Y-89529428D01*
X199875904Y-89758000D02*
X199075904Y-89758000D01*
X199190190Y-89681809D01*
X199266380Y-89605619D01*
X199304476Y-89529428D01*
X153915714Y-77612380D02*
X153915714Y-76612380D01*
X153677619Y-76612380D01*
X153534761Y-76660000D01*
X153439523Y-76755238D01*
X153391904Y-76850476D01*
X153344285Y-77040952D01*
X153344285Y-77183809D01*
X153391904Y-77374285D01*
X153439523Y-77469523D01*
X153534761Y-77564761D01*
X153677619Y-77612380D01*
X153915714Y-77612380D01*
X153153809Y-77707619D02*
X152391904Y-77707619D01*
X151677619Y-77612380D02*
X152153809Y-77612380D01*
X152153809Y-76612380D01*
X151344285Y-77088571D02*
X151010952Y-77088571D01*
X150868095Y-77612380D02*
X151344285Y-77612380D01*
X151344285Y-76612380D01*
X150868095Y-76612380D01*
X150106190Y-77088571D02*
X150439523Y-77088571D01*
X150439523Y-77612380D02*
X150439523Y-76612380D01*
X149963333Y-76612380D01*
X149725238Y-76612380D02*
X149153809Y-76612380D01*
X149439523Y-77612380D02*
X149439523Y-76612380D01*
X148868095Y-76707619D02*
X148820476Y-76660000D01*
X148725238Y-76612380D01*
X148487142Y-76612380D01*
X148391904Y-76660000D01*
X148344285Y-76707619D01*
X148296666Y-76802857D01*
X148296666Y-76898095D01*
X148344285Y-77040952D01*
X148915714Y-77612380D01*
X148296666Y-77612380D01*
X146694285Y-75712380D02*
X147265714Y-75712380D01*
X146980000Y-75712380D02*
X146980000Y-74712380D01*
X147075238Y-74855238D01*
X147170476Y-74950476D01*
X147265714Y-74998095D01*
X105043574Y-77708380D02*
X105043574Y-76708380D01*
X104805479Y-76708380D01*
X104662621Y-76756000D01*
X104567383Y-76851238D01*
X104519764Y-76946476D01*
X104472145Y-77136952D01*
X104472145Y-77279809D01*
X104519764Y-77470285D01*
X104567383Y-77565523D01*
X104662621Y-77660761D01*
X104805479Y-77708380D01*
X105043574Y-77708380D01*
X104281669Y-77803619D02*
X103519764Y-77803619D01*
X102805479Y-77708380D02*
X103281669Y-77708380D01*
X103281669Y-76708380D01*
X102472145Y-77184571D02*
X102138812Y-77184571D01*
X101995955Y-77708380D02*
X102472145Y-77708380D01*
X102472145Y-76708380D01*
X101995955Y-76708380D01*
X101234050Y-77184571D02*
X101567383Y-77184571D01*
X101567383Y-77708380D02*
X101567383Y-76708380D01*
X101091193Y-76708380D01*
X100853098Y-76708380D02*
X100281669Y-76708380D01*
X100567383Y-77708380D02*
X100567383Y-76708380D01*
X100043574Y-76708380D02*
X99424526Y-76708380D01*
X99757860Y-77089333D01*
X99615002Y-77089333D01*
X99519764Y-77136952D01*
X99472145Y-77184571D01*
X99424526Y-77279809D01*
X99424526Y-77517904D01*
X99472145Y-77613142D01*
X99519764Y-77660761D01*
X99615002Y-77708380D01*
X99900717Y-77708380D01*
X99995955Y-77660761D01*
X100043574Y-77613142D01*
X106122145Y-79608380D02*
X106693574Y-79608380D01*
X106407860Y-79608380D02*
X106407860Y-78608380D01*
X106503098Y-78751238D01*
X106598336Y-78846476D01*
X106693574Y-78894095D01*
X182513574Y-80914380D02*
X182513574Y-79914380D01*
X182275479Y-79914380D01*
X182132621Y-79962000D01*
X182037383Y-80057238D01*
X181989764Y-80152476D01*
X181942145Y-80342952D01*
X181942145Y-80485809D01*
X181989764Y-80676285D01*
X182037383Y-80771523D01*
X182132621Y-80866761D01*
X182275479Y-80914380D01*
X182513574Y-80914380D01*
X181751669Y-81009619D02*
X180989764Y-81009619D01*
X180275479Y-80914380D02*
X180751669Y-80914380D01*
X180751669Y-79914380D01*
X179942145Y-80390571D02*
X179608812Y-80390571D01*
X179465955Y-80914380D02*
X179942145Y-80914380D01*
X179942145Y-79914380D01*
X179465955Y-79914380D01*
X178704050Y-80390571D02*
X179037383Y-80390571D01*
X179037383Y-80914380D02*
X179037383Y-79914380D01*
X178561193Y-79914380D01*
X178323098Y-79914380D02*
X177751669Y-79914380D01*
X178037383Y-80914380D02*
X178037383Y-79914380D01*
X176894526Y-80914380D02*
X177465955Y-80914380D01*
X177180240Y-80914380D02*
X177180240Y-79914380D01*
X177275479Y-80057238D01*
X177370717Y-80152476D01*
X177465955Y-80200095D01*
X175292145Y-79014380D02*
X175863574Y-79014380D01*
X175577860Y-79014380D02*
X175577860Y-78014380D01*
X175673098Y-78157238D01*
X175768336Y-78252476D01*
X175863574Y-78300095D01*
X153915714Y-128016380D02*
X153915714Y-127016380D01*
X153677619Y-127016380D01*
X153534761Y-127064000D01*
X153439523Y-127159238D01*
X153391904Y-127254476D01*
X153344285Y-127444952D01*
X153344285Y-127587809D01*
X153391904Y-127778285D01*
X153439523Y-127873523D01*
X153534761Y-127968761D01*
X153677619Y-128016380D01*
X153915714Y-128016380D01*
X153153809Y-128111619D02*
X152391904Y-128111619D01*
X151677619Y-128016380D02*
X152153809Y-128016380D01*
X152153809Y-127016380D01*
X151344285Y-127492571D02*
X151010952Y-127492571D01*
X150868095Y-128016380D02*
X151344285Y-128016380D01*
X151344285Y-127016380D01*
X150868095Y-127016380D01*
X150106190Y-127492571D02*
X150439523Y-127492571D01*
X150439523Y-128016380D02*
X150439523Y-127016380D01*
X149963333Y-127016380D01*
X149725238Y-127016380D02*
X149153809Y-127016380D01*
X149439523Y-128016380D02*
X149439523Y-127016380D01*
X148344285Y-127016380D02*
X148820476Y-127016380D01*
X148868095Y-127492571D01*
X148820476Y-127444952D01*
X148725238Y-127397333D01*
X148487142Y-127397333D01*
X148391904Y-127444952D01*
X148344285Y-127492571D01*
X148296666Y-127587809D01*
X148296666Y-127825904D01*
X148344285Y-127921142D01*
X148391904Y-127968761D01*
X148487142Y-128016380D01*
X148725238Y-128016380D01*
X148820476Y-127968761D01*
X148868095Y-127921142D01*
X154994285Y-129916380D02*
X155565714Y-129916380D01*
X155280000Y-129916380D02*
X155280000Y-128916380D01*
X155375238Y-129059238D01*
X155470476Y-129154476D01*
X155565714Y-129202095D01*
X105043574Y-135890380D02*
X105043574Y-134890380D01*
X104805479Y-134890380D01*
X104662621Y-134938000D01*
X104567383Y-135033238D01*
X104519764Y-135128476D01*
X104472145Y-135318952D01*
X104472145Y-135461809D01*
X104519764Y-135652285D01*
X104567383Y-135747523D01*
X104662621Y-135842761D01*
X104805479Y-135890380D01*
X105043574Y-135890380D01*
X104281669Y-135985619D02*
X103519764Y-135985619D01*
X102805479Y-135890380D02*
X103281669Y-135890380D01*
X103281669Y-134890380D01*
X102472145Y-135366571D02*
X102138812Y-135366571D01*
X101995955Y-135890380D02*
X102472145Y-135890380D01*
X102472145Y-134890380D01*
X101995955Y-134890380D01*
X101234050Y-135366571D02*
X101567383Y-135366571D01*
X101567383Y-135890380D02*
X101567383Y-134890380D01*
X101091193Y-134890380D01*
X100853098Y-134890380D02*
X100281669Y-134890380D01*
X100567383Y-135890380D02*
X100567383Y-134890380D01*
X99519764Y-135223714D02*
X99519764Y-135890380D01*
X99757860Y-134842761D02*
X99995955Y-135557047D01*
X99376907Y-135557047D01*
X106122145Y-137790380D02*
X106693574Y-137790380D01*
X106407860Y-137790380D02*
X106407860Y-136790380D01*
X106503098Y-136933238D01*
X106598336Y-137028476D01*
X106693574Y-137076095D01*
X205152285Y-59642380D02*
X205485619Y-59166190D01*
X205723714Y-59642380D02*
X205723714Y-58642380D01*
X205342761Y-58642380D01*
X205247523Y-58690000D01*
X205199904Y-58737619D01*
X205152285Y-58832857D01*
X205152285Y-58975714D01*
X205199904Y-59070952D01*
X205247523Y-59118571D01*
X205342761Y-59166190D01*
X205723714Y-59166190D01*
X204723714Y-59642380D02*
X204723714Y-58642380D01*
X204342761Y-58642380D01*
X204247523Y-58690000D01*
X204199904Y-58737619D01*
X204152285Y-58832857D01*
X204152285Y-58975714D01*
X204199904Y-59070952D01*
X204247523Y-59118571D01*
X204342761Y-59166190D01*
X204723714Y-59166190D01*
X203961809Y-59737619D02*
X203199904Y-59737619D01*
X202485619Y-59642380D02*
X202961809Y-59642380D01*
X202961809Y-58642380D01*
X202152285Y-59118571D02*
X201818952Y-59118571D01*
X201676095Y-59642380D02*
X202152285Y-59642380D01*
X202152285Y-58642380D01*
X201676095Y-58642380D01*
X200914190Y-59118571D02*
X201247523Y-59118571D01*
X201247523Y-59642380D02*
X201247523Y-58642380D01*
X200771333Y-58642380D01*
X200533238Y-58642380D02*
X199961809Y-58642380D01*
X200247523Y-59642380D02*
X200247523Y-58642380D01*
X199104666Y-59642380D02*
X199676095Y-59642380D01*
X199390380Y-59642380D02*
X199390380Y-58642380D01*
X199485619Y-58785238D01*
X199580857Y-58880476D01*
X199676095Y-58928095D01*
X189737904Y-75430380D02*
X189737904Y-76239904D01*
X189690285Y-76335142D01*
X189642666Y-76382761D01*
X189547428Y-76430380D01*
X189356952Y-76430380D01*
X189261714Y-76382761D01*
X189214095Y-76335142D01*
X189166476Y-76239904D01*
X189166476Y-75430380D01*
X188166476Y-76430380D02*
X188737904Y-76430380D01*
X188452190Y-76430380D02*
X188452190Y-75430380D01*
X188547428Y-75573238D01*
X188642666Y-75668476D01*
X188737904Y-75716095D01*
X189047691Y-134122280D02*
X188547691Y-134988305D01*
X188753887Y-135107353D01*
X188901415Y-135137542D01*
X189031512Y-135102683D01*
X189120371Y-135044014D01*
X189256848Y-134902866D01*
X189328277Y-134779148D01*
X189382275Y-134590381D01*
X189388655Y-134484093D01*
X189353796Y-134353995D01*
X189253887Y-134241328D01*
X189047691Y-134122280D01*
X189755139Y-134420754D02*
X190414967Y-134801706D01*
X190985938Y-135241328D02*
X190573545Y-135003232D01*
X190073545Y-135869258D01*
X191012708Y-135861627D02*
X191301383Y-136028293D01*
X191687006Y-135646089D02*
X191274613Y-135407994D01*
X190774613Y-136274020D01*
X191187006Y-136512115D01*
X192084930Y-136480674D02*
X191796255Y-136314008D01*
X192058160Y-135860375D02*
X191558160Y-136726401D01*
X191970553Y-136964496D01*
X192176749Y-137083543D02*
X192671621Y-137369258D01*
X192924185Y-136360375D02*
X192424185Y-137226401D01*
X193331450Y-137750210D02*
X193166493Y-137654972D01*
X193107824Y-137566114D01*
X193090394Y-137501065D01*
X193079344Y-137329728D01*
X193133343Y-137140961D01*
X193323819Y-136811047D01*
X193412677Y-136752378D01*
X193477726Y-136734948D01*
X193584014Y-136741328D01*
X193748971Y-136836566D01*
X193807640Y-136925424D01*
X193825070Y-136990473D01*
X193818691Y-137096761D01*
X193699643Y-137302958D01*
X193610785Y-137361627D01*
X193545736Y-137379056D01*
X193439448Y-137372677D01*
X193274490Y-137277439D01*
X193215821Y-137188580D01*
X193198392Y-137123531D01*
X193204771Y-137017243D01*
X194351631Y-139378442D02*
X193856759Y-139092728D01*
X194104195Y-139235585D02*
X193604195Y-140101611D01*
X193593145Y-139930274D01*
X193558285Y-139800176D01*
X193499616Y-139711318D01*
D12*
X217135000Y-91146000D02*
X219135000Y-91146000D01*
X206160000Y-85546000D02*
X206160000Y-84146000D01*
X217135000Y-86146000D02*
X219135000Y-86146000D01*
X207710000Y-85546000D02*
X207710000Y-84146000D01*
X217135000Y-91146000D02*
X217135000Y-91746000D01*
X205035000Y-91746000D02*
X205035000Y-85546000D01*
X219135000Y-86146000D02*
X219135000Y-91146000D01*
X206610000Y-91746000D02*
X217135000Y-91746000D01*
X213110000Y-85546000D02*
X211760000Y-85546000D01*
X210110000Y-85546000D02*
X207710000Y-85546000D01*
X217135000Y-85546000D02*
X217135000Y-86146000D01*
X217135000Y-85546000D02*
X214760000Y-85546000D01*
X206160000Y-85546000D02*
X205035000Y-85546000D01*
D11*
X99262860Y-74505480D02*
X96562860Y-74505480D01*
X83662860Y-61605480D02*
X83662860Y-58905480D01*
X96562860Y-58905480D02*
X99262860Y-58905480D01*
X99262860Y-58905480D02*
X99262860Y-61605480D01*
X83662860Y-74505480D02*
X83662860Y-71805480D01*
X86362860Y-74505480D02*
X83662860Y-74505480D01*
X99262860Y-71805480D02*
X99262860Y-74505480D01*
X83662860Y-58905480D02*
X86362860Y-58905480D01*
X120852860Y-74505480D02*
X118152860Y-74505480D01*
X105252860Y-61605480D02*
X105252860Y-58905480D01*
X120852860Y-71805480D02*
X120852860Y-74505480D01*
X105252860Y-58905480D02*
X107952860Y-58905480D01*
X105252860Y-74505480D02*
X105252860Y-71805480D01*
X120852860Y-58905480D02*
X120852860Y-61605480D01*
X118152860Y-58905480D02*
X120852860Y-58905480D01*
X107952860Y-74505480D02*
X105252860Y-74505480D01*
X124302860Y-57160480D02*
X124302860Y-54460480D01*
X139902860Y-54460480D02*
X139902860Y-57160480D01*
X137202860Y-54460480D02*
X139902860Y-54460480D01*
X139902860Y-70060480D02*
X137202860Y-70060480D01*
X124302860Y-54460480D02*
X127002860Y-54460480D01*
X124302860Y-70060480D02*
X124302860Y-67360480D01*
X139902860Y-67360480D02*
X139902860Y-70060480D01*
X127002860Y-70060480D02*
X124302860Y-70060480D01*
X158952860Y-64820480D02*
X158952860Y-67520480D01*
X143352860Y-54620480D02*
X143352860Y-51920480D01*
X158952860Y-67520480D02*
X156252860Y-67520480D01*
X156252860Y-51920480D02*
X158952860Y-51920480D01*
X143352860Y-67520480D02*
X143352860Y-64820480D01*
X158952860Y-51920480D02*
X158952860Y-54620480D01*
X143352860Y-51920480D02*
X146052860Y-51920480D01*
X146052860Y-67520480D02*
X143352860Y-67520480D01*
X178002860Y-70060480D02*
X175302860Y-70060480D01*
X165102860Y-70060480D02*
X162402860Y-70060480D01*
X162402860Y-54460480D02*
X165102860Y-54460480D01*
X175302860Y-54460480D02*
X178002860Y-54460480D01*
X178002860Y-54460480D02*
X178002860Y-57160480D01*
X178002860Y-67360480D02*
X178002860Y-70060480D01*
X162402860Y-57160480D02*
X162402860Y-54460480D01*
X162402860Y-70060480D02*
X162402860Y-67360480D01*
X194352860Y-56365480D02*
X197052860Y-56365480D01*
X184152860Y-71965480D02*
X181452860Y-71965480D01*
X181452860Y-56365480D02*
X184152860Y-56365480D01*
X197052860Y-69265480D02*
X197052860Y-71965480D01*
X181452860Y-59065480D02*
X181452860Y-56365480D01*
X197052860Y-56365480D02*
X197052860Y-59065480D01*
X181452860Y-71965480D02*
X181452860Y-69265480D01*
X197052860Y-71965480D02*
X194352860Y-71965480D01*
X216102860Y-78790480D02*
X216102860Y-81490480D01*
X213402860Y-65890480D02*
X216102860Y-65890480D01*
X216102860Y-81490480D02*
X213402860Y-81490480D01*
X200502860Y-81490480D02*
X200502860Y-78790480D01*
X200502860Y-68590480D02*
X200502860Y-65890480D01*
X216102860Y-65890480D02*
X216102860Y-68590480D01*
X203202860Y-81490480D02*
X200502860Y-81490480D01*
X200502860Y-65890480D02*
X203202860Y-65890480D01*
X124302860Y-89110480D02*
X124302860Y-86410480D01*
X139902860Y-89110480D02*
X137202860Y-89110480D01*
X124302860Y-76210480D02*
X124302860Y-73510480D01*
X127002860Y-89110480D02*
X124302860Y-89110480D01*
X139902860Y-86410480D02*
X139902860Y-89110480D01*
X139902860Y-73510480D02*
X139902860Y-76210480D01*
X137202860Y-73510480D02*
X139902860Y-73510480D01*
X124302860Y-73510480D02*
X127002860Y-73510480D01*
X143352860Y-70970480D02*
X146052860Y-70970480D01*
X156252860Y-70970480D02*
X158952860Y-70970480D01*
X146052860Y-86570480D02*
X143352860Y-86570480D01*
X158952860Y-86570480D02*
X156252860Y-86570480D01*
X143352860Y-86570480D02*
X143352860Y-83870480D01*
X143352860Y-73670480D02*
X143352860Y-70970480D01*
X158952860Y-70970480D02*
X158952860Y-73670480D01*
X158952860Y-83870480D02*
X158952860Y-86570480D01*
X165102860Y-89110480D02*
X162402860Y-89110480D01*
X178002860Y-73510480D02*
X178002860Y-76210480D01*
X178002860Y-86410480D02*
X178002860Y-89110480D01*
X162402860Y-73510480D02*
X165102860Y-73510480D01*
X178002860Y-89110480D02*
X175302860Y-89110480D01*
X162402860Y-89110480D02*
X162402860Y-86410480D01*
X175302860Y-73510480D02*
X178002860Y-73510480D01*
X162402860Y-76210480D02*
X162402860Y-73510480D01*
X197052860Y-91015480D02*
X194352860Y-91015480D01*
X197052860Y-75415480D02*
X197052860Y-78115480D01*
X181452860Y-91015480D02*
X181452860Y-88315480D01*
X194352860Y-75415480D02*
X197052860Y-75415480D01*
X184152860Y-91015480D02*
X181452860Y-91015480D01*
X181452860Y-78115480D02*
X181452860Y-75415480D01*
X181452860Y-75415480D02*
X184152860Y-75415480D01*
X197052860Y-88315480D02*
X197052860Y-91015480D01*
X200502860Y-90020480D02*
X203202860Y-90020480D01*
X213402860Y-90020480D02*
X216102860Y-90020480D01*
X216102860Y-105620480D02*
X213402860Y-105620480D01*
X216102860Y-102920480D02*
X216102860Y-105620480D01*
X200502860Y-92720480D02*
X200502860Y-90020480D01*
X203202860Y-105620480D02*
X200502860Y-105620480D01*
X200502860Y-105620480D02*
X200502860Y-102920480D01*
X216102860Y-90020480D02*
X216102860Y-92720480D01*
X99262860Y-97005480D02*
X99262860Y-99705480D01*
X86362860Y-112605480D02*
X83662860Y-112605480D01*
X96562860Y-97005480D02*
X99262860Y-97005480D01*
X99262860Y-109905480D02*
X99262860Y-112605480D01*
X83662860Y-112605480D02*
X83662860Y-109905480D01*
X99262860Y-112605480D02*
X96562860Y-112605480D01*
X83662860Y-99705480D02*
X83662860Y-97005480D01*
X83662860Y-97005480D02*
X86362860Y-97005480D01*
X118152860Y-97005480D02*
X120852860Y-97005480D01*
X120852860Y-112605480D02*
X118152860Y-112605480D01*
X120852860Y-109905480D02*
X120852860Y-112605480D01*
X120852860Y-97005480D02*
X120852860Y-99705480D01*
X105252860Y-112605480D02*
X105252860Y-109905480D01*
X107952860Y-112605480D02*
X105252860Y-112605480D01*
X105252860Y-99705480D02*
X105252860Y-97005480D01*
X105252860Y-97005480D02*
X107952860Y-97005480D01*
X124302860Y-95260480D02*
X124302860Y-92560480D01*
X139902860Y-105460480D02*
X139902860Y-108160480D01*
X137202860Y-92560480D02*
X139902860Y-92560480D01*
X127002860Y-108160480D02*
X124302860Y-108160480D01*
X139902860Y-108160480D02*
X137202860Y-108160480D01*
X124302860Y-92560480D02*
X127002860Y-92560480D01*
X139902860Y-92560480D02*
X139902860Y-95260480D01*
X124302860Y-108160480D02*
X124302860Y-105460480D01*
X158952860Y-90020480D02*
X158952860Y-92720480D01*
X143352860Y-90020480D02*
X146052860Y-90020480D01*
X158952860Y-102920480D02*
X158952860Y-105620480D01*
X156252860Y-90020480D02*
X158952860Y-90020480D01*
X143352860Y-92720480D02*
X143352860Y-90020480D01*
X143352860Y-105620480D02*
X143352860Y-102920480D01*
X158952860Y-105620480D02*
X156252860Y-105620480D01*
X146052860Y-105620480D02*
X143352860Y-105620480D01*
X162402860Y-95260480D02*
X162402860Y-92560480D01*
X162402860Y-108160480D02*
X162402860Y-105460480D01*
X178002860Y-92560480D02*
X178002860Y-95260480D01*
X165102860Y-108160480D02*
X162402860Y-108160480D01*
X178002860Y-105460480D02*
X178002860Y-108160480D01*
X175302860Y-92560480D02*
X178002860Y-92560480D01*
X162402860Y-92560480D02*
X165102860Y-92560480D01*
X178002860Y-108160480D02*
X175302860Y-108160480D01*
X194352860Y-94465480D02*
X197052860Y-94465480D01*
X197052860Y-94465480D02*
X197052860Y-97165480D01*
X184152860Y-110065480D02*
X181452860Y-110065480D01*
X197052860Y-110065480D02*
X194352860Y-110065480D01*
X181452860Y-94465480D02*
X184152860Y-94465480D01*
X197052860Y-107365480D02*
X197052860Y-110065480D01*
X181452860Y-97165480D02*
X181452860Y-94465480D01*
X181452860Y-110065480D02*
X181452860Y-107365480D01*
X203796130Y-131870478D02*
X201457862Y-130520478D01*
X201457862Y-130520478D02*
X202807862Y-128182210D01*
X214967858Y-138320478D02*
X212629590Y-136970478D01*
X216317858Y-135982210D02*
X214967858Y-138320478D01*
X207907862Y-119348750D02*
X209257862Y-117010482D01*
X222767858Y-124810482D02*
X221417858Y-127148750D01*
X220429590Y-123460482D02*
X222767858Y-124810482D01*
X209257862Y-117010482D02*
X211596130Y-118360482D01*
X86362860Y-131655480D02*
X83662860Y-131655480D01*
X99262860Y-128955480D02*
X99262860Y-131655480D01*
X83662860Y-131655480D02*
X83662860Y-128955480D01*
X83662860Y-118755480D02*
X83662860Y-116055480D01*
X99262860Y-131655480D02*
X96562860Y-131655480D01*
X96562860Y-116055480D02*
X99262860Y-116055480D01*
X83662860Y-116055480D02*
X86362860Y-116055480D01*
X99262860Y-116055480D02*
X99262860Y-118755480D01*
X120852860Y-116055480D02*
X120852860Y-118755480D01*
X120852860Y-128955480D02*
X120852860Y-131655480D01*
X118152860Y-116055480D02*
X120852860Y-116055480D01*
X105252860Y-131655480D02*
X105252860Y-128955480D01*
X107952860Y-131655480D02*
X105252860Y-131655480D01*
X105252860Y-116055480D02*
X107952860Y-116055480D01*
X120852860Y-131655480D02*
X118152860Y-131655480D01*
X105252860Y-118755480D02*
X105252860Y-116055480D01*
X124302860Y-111610480D02*
X127002860Y-111610480D01*
X124302860Y-114310480D02*
X124302860Y-111610480D01*
X139902860Y-111610480D02*
X139902860Y-114310480D01*
X137202860Y-111610480D02*
X139902860Y-111610480D01*
X139902860Y-124510480D02*
X139902860Y-127210480D01*
X124302860Y-127210480D02*
X124302860Y-124510480D01*
X139902860Y-127210480D02*
X137202860Y-127210480D01*
X127002860Y-127210480D02*
X124302860Y-127210480D01*
X143352860Y-124670480D02*
X143352860Y-121970480D01*
X156252860Y-109070480D02*
X158952860Y-109070480D01*
X158952860Y-124670480D02*
X156252860Y-124670480D01*
X143352860Y-111770480D02*
X143352860Y-109070480D01*
X146052860Y-124670480D02*
X143352860Y-124670480D01*
X143352860Y-109070480D02*
X146052860Y-109070480D01*
X158952860Y-109070480D02*
X158952860Y-111770480D01*
X158952860Y-121970480D02*
X158952860Y-124670480D01*
X162402860Y-114310480D02*
X162402860Y-111610480D01*
X175302860Y-111610480D02*
X178002860Y-111610480D01*
X178002860Y-124510480D02*
X178002860Y-127210480D01*
X178002860Y-127210480D02*
X175302860Y-127210480D01*
X178002860Y-111610480D02*
X178002860Y-114310480D01*
X162402860Y-111610480D02*
X165102860Y-111610480D01*
X162402860Y-127210480D02*
X162402860Y-124510480D01*
X165102860Y-127210480D02*
X162402860Y-127210480D01*
X181452860Y-116215480D02*
X181452860Y-113515480D01*
X197052860Y-126415480D02*
X197052860Y-129115480D01*
X181452860Y-113515480D02*
X184152860Y-113515480D01*
X197052860Y-129115480D02*
X194352860Y-129115480D01*
X194352860Y-113515480D02*
X197052860Y-113515480D01*
X197052860Y-113515480D02*
X197052860Y-116215480D01*
X181452860Y-129115480D02*
X181452860Y-126415480D01*
X184152860Y-129115480D02*
X181452860Y-129115480D01*
X217967862Y-140045478D02*
X219317862Y-137707210D01*
X224417862Y-128873750D02*
X225767862Y-126535482D01*
X225767862Y-126535482D02*
X228106130Y-127885482D01*
X236939590Y-132985482D02*
X239277858Y-134335482D01*
X239277858Y-134335482D02*
X237927858Y-136673750D01*
X232827858Y-145507210D02*
X231477858Y-147845478D01*
X220306130Y-141395478D02*
X217967862Y-140045478D01*
X231477858Y-147845478D02*
X229139590Y-146495478D01*
X101802860Y-150705480D02*
X99102860Y-150705480D01*
X99102860Y-135105480D02*
X101802860Y-135105480D01*
X86202860Y-137805480D02*
X86202860Y-135105480D01*
X86202860Y-135105480D02*
X88902860Y-135105480D01*
X101802860Y-148005480D02*
X101802860Y-150705480D01*
X88902860Y-150705480D02*
X86202860Y-150705480D01*
X101802860Y-135105480D02*
X101802860Y-137805480D01*
X86202860Y-150705480D02*
X86202860Y-148005480D01*
X105252860Y-137805480D02*
X105252860Y-135105480D01*
X118152860Y-135105480D02*
X120852860Y-135105480D01*
X105252860Y-135105480D02*
X107952860Y-135105480D01*
X120852860Y-135105480D02*
X120852860Y-137805480D01*
X105252860Y-150705480D02*
X105252860Y-148005480D01*
X107952860Y-150705480D02*
X105252860Y-150705480D01*
X120852860Y-148005480D02*
X120852860Y-150705480D01*
X120852860Y-150705480D02*
X118152860Y-150705480D01*
X124302860Y-130660480D02*
X127002860Y-130660480D01*
X139902860Y-143560480D02*
X139902860Y-146260480D01*
X137202860Y-130660480D02*
X139902860Y-130660480D01*
X124302860Y-133360480D02*
X124302860Y-130660480D01*
X139902860Y-146260480D02*
X137202860Y-146260480D01*
X139902860Y-130660480D02*
X139902860Y-133360480D01*
X124302860Y-146260480D02*
X124302860Y-143560480D01*
X127002860Y-146260480D02*
X124302860Y-146260480D01*
X158952860Y-141020480D02*
X158952860Y-143720480D01*
X143352860Y-143720480D02*
X143352860Y-141020480D01*
X158952860Y-128120480D02*
X158952860Y-130820480D01*
X156252860Y-128120480D02*
X158952860Y-128120480D01*
X143352860Y-128120480D02*
X146052860Y-128120480D01*
X146052860Y-143720480D02*
X143352860Y-143720480D01*
X158952860Y-143720480D02*
X156252860Y-143720480D01*
X143352860Y-130820480D02*
X143352860Y-128120480D01*
X182068293Y-151188490D02*
X179460293Y-150489679D01*
X169607850Y-147849724D02*
X166999850Y-147150913D01*
X186105870Y-136120047D02*
X185407059Y-138728047D01*
X183497870Y-135421236D02*
X186105870Y-136120047D01*
X166999850Y-147150913D02*
X167698661Y-144542913D01*
X182767104Y-148580490D02*
X182068293Y-151188490D01*
X170338616Y-134690470D02*
X171037427Y-132082470D01*
X171037427Y-132082470D02*
X173645427Y-132781281D01*
X210702858Y-145765482D02*
X209352858Y-148103750D01*
X208364590Y-144415482D02*
X210702858Y-145765482D01*
X197192862Y-137965482D02*
X199531130Y-139315482D01*
X189392862Y-151475478D02*
X190742862Y-149137210D01*
X195842862Y-140303750D02*
X197192862Y-137965482D01*
X191731130Y-152825478D02*
X189392862Y-151475478D01*
X204252858Y-156937210D02*
X202902858Y-159275478D01*
X202902858Y-159275478D02*
X200564590Y-157925478D01*
X208241130Y-162350478D02*
X205902862Y-161000478D01*
X205902862Y-161000478D02*
X207252862Y-158662210D01*
X224874590Y-153940482D02*
X227212858Y-155290482D01*
X213702862Y-147490482D02*
X216041130Y-148840482D01*
X219412858Y-168800478D02*
X217074590Y-167450478D01*
X212352862Y-149828750D02*
X213702862Y-147490482D01*
X220762858Y-166462210D02*
X219412858Y-168800478D01*
X227212858Y-155290482D02*
X225862858Y-157628750D01*
X96562860Y-77955480D02*
X99262860Y-77955480D01*
X83662860Y-93555480D02*
X83662860Y-90855480D01*
X99262860Y-90855480D02*
X99262860Y-93555480D01*
X86362860Y-93555480D02*
X83662860Y-93555480D01*
X99262860Y-77955480D02*
X99262860Y-80655480D01*
X99262860Y-93555480D02*
X96562860Y-93555480D01*
X83662860Y-80655480D02*
X83662860Y-77955480D01*
X83662860Y-77955480D02*
X86362860Y-77955480D01*
X120852860Y-77955480D02*
X120852860Y-80655480D01*
X120852860Y-93555480D02*
X118152860Y-93555480D01*
X105252860Y-80655480D02*
X105252860Y-77955480D01*
X120852860Y-90855480D02*
X120852860Y-93555480D01*
X105252860Y-93555480D02*
X105252860Y-90855480D01*
X118152860Y-77955480D02*
X120852860Y-77955480D01*
X107952860Y-93555480D02*
X105252860Y-93555480D01*
X105252860Y-77955480D02*
X107952860Y-77955480D01*
D12*
X203899315Y-136014519D02*
X204659315Y-134698160D01*
X208328365Y-138583179D02*
X203902975Y-136028179D01*
X209093365Y-137258160D02*
X208338365Y-138565859D01*
X204659315Y-134698160D02*
X209093365Y-137258160D01*
G36*
X205362135Y-135080840D02*
G01*
X204602135Y-136397199D01*
X204590640Y-136402109D01*
X204582135Y-136431840D01*
X203889315Y-136031840D01*
X204669315Y-134680840D01*
X205362135Y-135080840D01*
G37*
D13*
X205362135Y-135080840D02*
X204602135Y-136397199D01*
X204590640Y-136402109D01*
X204582135Y-136431840D01*
X203889315Y-136031840D01*
X204669315Y-134680840D01*
X205362135Y-135080840D01*
D12*
X176652123Y-133401639D02*
X177045528Y-131933432D01*
X181991069Y-133258586D02*
X181600252Y-134717134D01*
X181595075Y-134736452D02*
X176659194Y-133413887D01*
X177045528Y-131933432D02*
X181991069Y-133258586D01*
G36*
X177823445Y-132121169D02*
G01*
X177430040Y-133589376D01*
X177420208Y-133597094D01*
X177419688Y-133628013D01*
X176646947Y-133420958D01*
X177050705Y-131914114D01*
X177823445Y-132121169D01*
G37*
D13*
X177823445Y-132121169D02*
X177430040Y-133589376D01*
X177420208Y-133597094D01*
X177419688Y-133628013D01*
X176646947Y-133420958D01*
X177050705Y-131914114D01*
X177823445Y-132121169D01*
D12*
X148555000Y-126730000D02*
X153675000Y-126730000D01*
X148555000Y-128250000D02*
X148555000Y-126730000D01*
X153675000Y-128260000D02*
X148565000Y-128260000D01*
X153675000Y-126730000D02*
X153675000Y-128240000D01*
G36*
X149355000Y-128230000D02*
G01*
X149347500Y-128240000D01*
X149355000Y-128270000D01*
X148555000Y-128270000D01*
X148555000Y-126710000D01*
X149355000Y-126710000D01*
X149355000Y-128230000D01*
G37*
D13*
X149355000Y-128230000D02*
X149347500Y-128240000D01*
X149355000Y-128270000D01*
X148555000Y-128270000D01*
X148555000Y-126710000D01*
X149355000Y-126710000D01*
X149355000Y-128230000D01*
D12*
X129530000Y-130800000D02*
X129530000Y-129280000D01*
X134650000Y-130810000D02*
X129540000Y-130810000D01*
X129530000Y-129280000D02*
X134650000Y-129280000D01*
X134650000Y-129280000D02*
X134650000Y-130790000D01*
G36*
X130330000Y-130780000D02*
G01*
X130322500Y-130790000D01*
X130330000Y-130820000D01*
X129530000Y-130820000D01*
X129530000Y-129260000D01*
X130330000Y-129260000D01*
X130330000Y-130780000D01*
G37*
D13*
X130330000Y-130780000D02*
X130322500Y-130790000D01*
X130330000Y-130820000D01*
X129530000Y-130820000D01*
X129530000Y-129260000D01*
X130330000Y-129260000D01*
X130330000Y-130780000D01*
D12*
X110480000Y-135150000D02*
X110480000Y-133630000D01*
X115600000Y-135160000D02*
X110490000Y-135160000D01*
X115600000Y-133630000D02*
X115600000Y-135140000D01*
X110480000Y-133630000D02*
X115600000Y-133630000D01*
G36*
X111280000Y-135130000D02*
G01*
X111272500Y-135140000D01*
X111280000Y-135170000D01*
X110480000Y-135170000D01*
X110480000Y-133610000D01*
X111280000Y-133610000D01*
X111280000Y-135130000D01*
G37*
D13*
X111280000Y-135130000D02*
X111272500Y-135140000D01*
X111280000Y-135170000D01*
X110480000Y-135170000D01*
X110480000Y-133610000D01*
X111280000Y-133610000D01*
X111280000Y-135130000D01*
D12*
X172730000Y-107815000D02*
X172730000Y-109325000D01*
X167610000Y-107815000D02*
X172730000Y-107815000D01*
X167610000Y-109335000D02*
X167610000Y-107815000D01*
X172730000Y-109345000D02*
X167620000Y-109345000D01*
G36*
X168410000Y-109315000D02*
G01*
X168402500Y-109325000D01*
X168410000Y-109355000D01*
X167610000Y-109355000D01*
X167610000Y-107795000D01*
X168410000Y-107795000D01*
X168410000Y-109315000D01*
G37*
D13*
X168410000Y-109315000D02*
X168402500Y-109325000D01*
X168410000Y-109355000D01*
X167610000Y-109355000D01*
X167610000Y-107795000D01*
X168410000Y-107795000D01*
X168410000Y-109315000D01*
D12*
X93990000Y-75690000D02*
X88880000Y-75690000D01*
X93990000Y-74160000D02*
X93990000Y-75670000D01*
X88870000Y-74160000D02*
X93990000Y-74160000D01*
X88870000Y-75680000D02*
X88870000Y-74160000D01*
G36*
X89670000Y-75660000D02*
G01*
X89662500Y-75670000D01*
X89670000Y-75700000D01*
X88870000Y-75700000D01*
X88870000Y-74140000D01*
X89670000Y-74140000D01*
X89670000Y-75660000D01*
G37*
D13*
X89670000Y-75660000D02*
X89662500Y-75670000D01*
X89670000Y-75700000D01*
X88870000Y-75700000D01*
X88870000Y-74140000D01*
X89670000Y-74140000D01*
X89670000Y-75660000D01*
D12*
X172730000Y-69715000D02*
X172730000Y-71225000D01*
X167610000Y-69715000D02*
X172730000Y-69715000D01*
X172730000Y-71245000D02*
X167620000Y-71245000D01*
X167610000Y-71235000D02*
X167610000Y-69715000D01*
G36*
X168410000Y-71215000D02*
G01*
X168402500Y-71225000D01*
X168410000Y-71255000D01*
X167610000Y-71255000D01*
X167610000Y-69695000D01*
X168410000Y-69695000D01*
X168410000Y-71215000D01*
G37*
D13*
X168410000Y-71215000D02*
X168402500Y-71225000D01*
X168410000Y-71255000D01*
X167610000Y-71255000D01*
X167610000Y-69695000D01*
X168410000Y-69695000D01*
X168410000Y-71215000D01*
D12*
X110460000Y-93210000D02*
X115580000Y-93210000D01*
X115580000Y-93210000D02*
X115580000Y-94720000D01*
X110460000Y-94730000D02*
X110460000Y-93210000D01*
X115580000Y-94740000D02*
X110470000Y-94740000D01*
G36*
X111260000Y-94710000D02*
G01*
X111252500Y-94720000D01*
X111260000Y-94750000D01*
X110460000Y-94750000D01*
X110460000Y-93190000D01*
X111260000Y-93190000D01*
X111260000Y-94710000D01*
G37*
D13*
X111260000Y-94710000D02*
X111252500Y-94720000D01*
X111260000Y-94750000D01*
X110460000Y-94750000D01*
X110460000Y-93190000D01*
X111260000Y-93190000D01*
X111260000Y-94710000D01*
D12*
X134630000Y-69715000D02*
X134630000Y-71225000D01*
X129510000Y-69715000D02*
X134630000Y-69715000D01*
X129510000Y-71235000D02*
X129510000Y-69715000D01*
X134630000Y-71245000D02*
X129520000Y-71245000D01*
G36*
X130310000Y-71215000D02*
G01*
X130302500Y-71225000D01*
X130310000Y-71255000D01*
X129510000Y-71255000D01*
X129510000Y-69695000D01*
X130310000Y-69695000D01*
X130310000Y-71215000D01*
G37*
D13*
X130310000Y-71215000D02*
X130302500Y-71225000D01*
X130310000Y-71255000D01*
X129510000Y-71255000D01*
X129510000Y-69695000D01*
X130310000Y-69695000D01*
X130310000Y-71215000D01*
D12*
X205710000Y-107430000D02*
X205710000Y-105910000D01*
X210830000Y-105910000D02*
X210830000Y-107420000D01*
X205710000Y-105910000D02*
X210830000Y-105910000D01*
X210830000Y-107440000D02*
X205720000Y-107440000D01*
G36*
X206510000Y-107410000D02*
G01*
X206502500Y-107420000D01*
X206510000Y-107450000D01*
X205710000Y-107450000D01*
X205710000Y-105890000D01*
X206510000Y-105890000D01*
X206510000Y-107410000D01*
G37*
D13*
X206510000Y-107410000D02*
X206502500Y-107420000D01*
X206510000Y-107450000D01*
X205710000Y-107450000D01*
X205710000Y-105890000D01*
X206510000Y-105890000D01*
X206510000Y-107410000D01*
D12*
X172730000Y-90295000D02*
X167620000Y-90295000D01*
X172730000Y-88765000D02*
X172730000Y-90275000D01*
X167610000Y-88765000D02*
X172730000Y-88765000D01*
X167610000Y-90285000D02*
X167610000Y-88765000D01*
G36*
X168410000Y-90265000D02*
G01*
X168402500Y-90275000D01*
X168410000Y-90305000D01*
X167610000Y-90305000D01*
X167610000Y-88745000D01*
X168410000Y-88745000D01*
X168410000Y-90265000D01*
G37*
D13*
X168410000Y-90265000D02*
X168402500Y-90275000D01*
X168410000Y-90305000D01*
X167610000Y-90305000D01*
X167610000Y-88745000D01*
X168410000Y-88745000D01*
X168410000Y-90265000D01*
D12*
X88870000Y-112260000D02*
X93990000Y-112260000D01*
X88870000Y-113780000D02*
X88870000Y-112260000D01*
X93990000Y-113790000D02*
X88880000Y-113790000D01*
X93990000Y-112260000D02*
X93990000Y-113770000D01*
G36*
X89670000Y-113760000D02*
G01*
X89662500Y-113770000D01*
X89670000Y-113800000D01*
X88870000Y-113800000D01*
X88870000Y-112240000D01*
X89670000Y-112240000D01*
X89670000Y-113760000D01*
G37*
D13*
X89670000Y-113760000D02*
X89662500Y-113770000D01*
X89670000Y-113800000D01*
X88870000Y-113800000D01*
X88870000Y-112240000D01*
X89670000Y-112240000D01*
X89670000Y-113760000D01*
D12*
X110460000Y-74160000D02*
X115580000Y-74160000D01*
X110460000Y-75680000D02*
X110460000Y-74160000D01*
X115580000Y-75690000D02*
X110470000Y-75690000D01*
X115580000Y-74160000D02*
X115580000Y-75670000D01*
G36*
X111260000Y-75660000D02*
G01*
X111252500Y-75670000D01*
X111260000Y-75700000D01*
X110460000Y-75700000D01*
X110460000Y-74140000D01*
X111260000Y-74140000D01*
X111260000Y-75660000D01*
G37*
D13*
X111260000Y-75660000D02*
X111252500Y-75670000D01*
X111260000Y-75700000D01*
X110460000Y-75700000D01*
X110460000Y-74140000D01*
X111260000Y-74140000D01*
X111260000Y-75660000D01*
D12*
X153680000Y-86225000D02*
X153680000Y-87735000D01*
X148560000Y-86225000D02*
X153680000Y-86225000D01*
X153680000Y-87755000D02*
X148570000Y-87755000D01*
X148560000Y-87745000D02*
X148560000Y-86225000D01*
G36*
X149360000Y-87725000D02*
G01*
X149352500Y-87735000D01*
X149360000Y-87765000D01*
X148560000Y-87765000D01*
X148560000Y-86205000D01*
X149360000Y-86205000D01*
X149360000Y-87725000D01*
G37*
D13*
X149360000Y-87725000D02*
X149352500Y-87735000D01*
X149360000Y-87765000D01*
X148560000Y-87765000D01*
X148560000Y-86205000D01*
X149360000Y-86205000D01*
X149360000Y-87725000D01*
D12*
X181600000Y-66595000D02*
X180080000Y-66595000D01*
X181610000Y-61475000D02*
X181610000Y-66585000D01*
X180080000Y-66595000D02*
X180080000Y-61475000D01*
X180080000Y-61475000D02*
X181590000Y-61475000D01*
G36*
X181590000Y-65802500D02*
G01*
X181620000Y-65795000D01*
X181620000Y-66595000D01*
X180060000Y-66595000D01*
X180060000Y-65795000D01*
X181580000Y-65795000D01*
X181590000Y-65802500D01*
G37*
D13*
X181590000Y-65802500D02*
X181620000Y-65795000D01*
X181620000Y-66595000D01*
X180060000Y-66595000D01*
X180060000Y-65795000D01*
X181580000Y-65795000D01*
X181590000Y-65802500D01*
D12*
X148560000Y-106795000D02*
X148560000Y-105275000D01*
X153680000Y-106805000D02*
X148570000Y-106805000D01*
X148560000Y-105275000D02*
X153680000Y-105275000D01*
X153680000Y-105275000D02*
X153680000Y-106785000D01*
G36*
X149360000Y-106775000D02*
G01*
X149352500Y-106785000D01*
X149360000Y-106815000D01*
X148560000Y-106815000D01*
X148560000Y-105255000D01*
X149360000Y-105255000D01*
X149360000Y-106775000D01*
G37*
D13*
X149360000Y-106775000D02*
X149352500Y-106785000D01*
X149360000Y-106815000D01*
X148560000Y-106815000D01*
X148560000Y-105255000D01*
X149360000Y-105255000D01*
X149360000Y-106775000D01*
D12*
X153680000Y-124325000D02*
X153680000Y-125835000D01*
X153680000Y-125855000D02*
X148570000Y-125855000D01*
X148560000Y-125845000D02*
X148560000Y-124325000D01*
X148560000Y-124325000D02*
X153680000Y-124325000D01*
G36*
X149360000Y-125825000D02*
G01*
X149352500Y-125835000D01*
X149360000Y-125865000D01*
X148560000Y-125865000D01*
X148560000Y-124305000D01*
X149360000Y-124305000D01*
X149360000Y-125825000D01*
G37*
D13*
X149360000Y-125825000D02*
X149352500Y-125835000D01*
X149360000Y-125865000D01*
X148560000Y-125865000D01*
X148560000Y-124305000D01*
X149360000Y-124305000D01*
X149360000Y-125825000D01*
D12*
X191780000Y-109720000D02*
X191780000Y-111230000D01*
X191780000Y-111250000D02*
X186670000Y-111250000D01*
X186660000Y-109720000D02*
X191780000Y-109720000D01*
X186660000Y-111240000D02*
X186660000Y-109720000D01*
G36*
X187460000Y-111220000D02*
G01*
X187452500Y-111230000D01*
X187460000Y-111260000D01*
X186660000Y-111260000D01*
X186660000Y-109700000D01*
X187460000Y-109700000D01*
X187460000Y-111220000D01*
G37*
D13*
X187460000Y-111220000D02*
X187452500Y-111230000D01*
X187460000Y-111260000D01*
X186660000Y-111260000D01*
X186660000Y-109700000D01*
X187460000Y-109700000D01*
X187460000Y-111220000D01*
D12*
X88870000Y-131310000D02*
X93990000Y-131310000D01*
X93990000Y-132840000D02*
X88880000Y-132840000D01*
X88870000Y-132830000D02*
X88870000Y-131310000D01*
X93990000Y-131310000D02*
X93990000Y-132820000D01*
G36*
X89670000Y-132810000D02*
G01*
X89662500Y-132820000D01*
X89670000Y-132850000D01*
X88870000Y-132850000D01*
X88870000Y-131290000D01*
X89670000Y-131290000D01*
X89670000Y-132810000D01*
G37*
D13*
X89670000Y-132810000D02*
X89662500Y-132820000D01*
X89670000Y-132850000D01*
X88870000Y-132850000D01*
X88870000Y-131290000D01*
X89670000Y-131290000D01*
X89670000Y-132810000D01*
D12*
X148560000Y-67175000D02*
X153680000Y-67175000D01*
X153680000Y-68705000D02*
X148570000Y-68705000D01*
X153680000Y-67175000D02*
X153680000Y-68685000D01*
X148560000Y-68695000D02*
X148560000Y-67175000D01*
G36*
X149360000Y-68675000D02*
G01*
X149352500Y-68685000D01*
X149360000Y-68715000D01*
X148560000Y-68715000D01*
X148560000Y-67155000D01*
X149360000Y-67155000D01*
X149360000Y-68675000D01*
G37*
D13*
X149360000Y-68675000D02*
X149352500Y-68685000D01*
X149360000Y-68715000D01*
X148560000Y-68715000D01*
X148560000Y-67155000D01*
X149360000Y-67155000D01*
X149360000Y-68675000D01*
D12*
X205804315Y-132668160D02*
X210238365Y-135228160D01*
X205044315Y-133984519D02*
X205804315Y-132668160D01*
X210238365Y-135228160D02*
X209483365Y-136535859D01*
X209473365Y-136553179D02*
X205047975Y-133998179D01*
G36*
X206507135Y-133050840D02*
G01*
X205747135Y-134367199D01*
X205735640Y-134372109D01*
X205727135Y-134401840D01*
X205034315Y-134001840D01*
X205814315Y-132650840D01*
X206507135Y-133050840D01*
G37*
D13*
X206507135Y-133050840D02*
X205747135Y-134367199D01*
X205735640Y-134372109D01*
X205727135Y-134401840D01*
X205034315Y-134001840D01*
X205814315Y-132650840D01*
X206507135Y-133050840D01*
D12*
X129510000Y-90285000D02*
X129510000Y-88765000D01*
X134630000Y-90295000D02*
X129520000Y-90295000D01*
X134630000Y-88765000D02*
X134630000Y-90275000D01*
X129510000Y-88765000D02*
X134630000Y-88765000D01*
G36*
X130310000Y-90265000D02*
G01*
X130302500Y-90275000D01*
X130310000Y-90305000D01*
X129510000Y-90305000D01*
X129510000Y-88745000D01*
X130310000Y-88745000D01*
X130310000Y-90265000D01*
G37*
D13*
X130310000Y-90265000D02*
X130302500Y-90275000D01*
X130310000Y-90305000D01*
X129510000Y-90305000D01*
X129510000Y-88745000D01*
X130310000Y-88745000D01*
X130310000Y-90265000D01*
D12*
X167610000Y-126865000D02*
X172730000Y-126865000D01*
X172730000Y-128395000D02*
X167620000Y-128395000D01*
X167610000Y-128385000D02*
X167610000Y-126865000D01*
X172730000Y-126865000D02*
X172730000Y-128375000D01*
G36*
X168410000Y-128365000D02*
G01*
X168402500Y-128375000D01*
X168410000Y-128405000D01*
X167610000Y-128405000D01*
X167610000Y-126845000D01*
X168410000Y-126845000D01*
X168410000Y-128365000D01*
G37*
D13*
X168410000Y-128365000D02*
X168402500Y-128375000D01*
X168410000Y-128405000D01*
X167610000Y-128405000D01*
X167610000Y-126845000D01*
X168410000Y-126845000D01*
X168410000Y-128365000D01*
D12*
X88870000Y-93210000D02*
X93990000Y-93210000D01*
X93990000Y-93210000D02*
X93990000Y-94720000D01*
X88870000Y-94730000D02*
X88870000Y-93210000D01*
X93990000Y-94740000D02*
X88880000Y-94740000D01*
G36*
X89670000Y-94710000D02*
G01*
X89662500Y-94720000D01*
X89670000Y-94750000D01*
X88870000Y-94750000D01*
X88870000Y-93190000D01*
X89670000Y-93190000D01*
X89670000Y-94710000D01*
G37*
D13*
X89670000Y-94710000D02*
X89662500Y-94720000D01*
X89670000Y-94750000D01*
X88870000Y-94750000D01*
X88870000Y-93190000D01*
X89670000Y-93190000D01*
X89670000Y-94710000D01*
D12*
X210830000Y-81145000D02*
X210830000Y-82655000D01*
X205710000Y-81145000D02*
X210830000Y-81145000D01*
X210830000Y-82675000D02*
X205720000Y-82675000D01*
X205710000Y-82665000D02*
X205710000Y-81145000D01*
G36*
X206510000Y-82645000D02*
G01*
X206502500Y-82655000D01*
X206510000Y-82685000D01*
X205710000Y-82685000D01*
X205710000Y-81125000D01*
X206510000Y-81125000D01*
X206510000Y-82645000D01*
G37*
D13*
X206510000Y-82645000D02*
X206502500Y-82655000D01*
X206510000Y-82685000D01*
X205710000Y-82685000D01*
X205710000Y-81125000D01*
X206510000Y-81125000D01*
X206510000Y-82645000D01*
D12*
X191780000Y-90670000D02*
X191780000Y-92180000D01*
X186660000Y-90670000D02*
X191780000Y-90670000D01*
X186660000Y-92190000D02*
X186660000Y-90670000D01*
X191780000Y-92200000D02*
X186670000Y-92200000D01*
G36*
X187460000Y-92170000D02*
G01*
X187452500Y-92180000D01*
X187460000Y-92210000D01*
X186660000Y-92210000D01*
X186660000Y-90650000D01*
X187460000Y-90650000D01*
X187460000Y-92170000D01*
G37*
D13*
X187460000Y-92170000D02*
X187452500Y-92180000D01*
X187460000Y-92210000D01*
X186660000Y-92210000D01*
X186660000Y-90650000D01*
X187460000Y-90650000D01*
X187460000Y-92170000D01*
D12*
X110460000Y-112260000D02*
X115580000Y-112260000D01*
X115580000Y-112260000D02*
X115580000Y-113770000D01*
X115580000Y-113790000D02*
X110470000Y-113790000D01*
X110460000Y-113780000D02*
X110460000Y-112260000D01*
G36*
X111260000Y-113760000D02*
G01*
X111252500Y-113770000D01*
X111260000Y-113800000D01*
X110460000Y-113800000D01*
X110460000Y-112240000D01*
X111260000Y-112240000D01*
X111260000Y-113760000D01*
G37*
D13*
X111260000Y-113760000D02*
X111252500Y-113770000D01*
X111260000Y-113800000D01*
X110460000Y-113800000D01*
X110460000Y-112240000D01*
X111260000Y-112240000D01*
X111260000Y-113760000D01*
D12*
X110460000Y-132830000D02*
X110460000Y-131310000D01*
X115580000Y-132840000D02*
X110470000Y-132840000D01*
X115580000Y-131310000D02*
X115580000Y-132820000D01*
X110460000Y-131310000D02*
X115580000Y-131310000D01*
G36*
X111260000Y-132810000D02*
G01*
X111252500Y-132820000D01*
X111260000Y-132850000D01*
X110460000Y-132850000D01*
X110460000Y-131290000D01*
X111260000Y-131290000D01*
X111260000Y-132810000D01*
G37*
D13*
X111260000Y-132810000D02*
X111252500Y-132820000D01*
X111260000Y-132850000D01*
X110460000Y-132850000D01*
X110460000Y-131290000D01*
X111260000Y-131290000D01*
X111260000Y-132810000D01*
D12*
X129510000Y-109335000D02*
X129510000Y-107815000D01*
X134630000Y-107815000D02*
X134630000Y-109325000D01*
X134630000Y-109345000D02*
X129520000Y-109345000D01*
X129510000Y-107815000D02*
X134630000Y-107815000D01*
G36*
X130310000Y-109315000D02*
G01*
X130302500Y-109325000D01*
X130310000Y-109355000D01*
X129510000Y-109355000D01*
X129510000Y-107795000D01*
X130310000Y-107795000D01*
X130310000Y-109315000D01*
G37*
D13*
X130310000Y-109315000D02*
X130302500Y-109325000D01*
X130310000Y-109355000D01*
X129510000Y-109355000D01*
X129510000Y-107795000D01*
X130310000Y-107795000D01*
X130310000Y-109315000D01*
D12*
X221159315Y-144148160D02*
X225593365Y-146708160D01*
X224828365Y-148033179D02*
X220402975Y-145478179D01*
X220399315Y-145464519D02*
X221159315Y-144148160D01*
X225593365Y-146708160D02*
X224838365Y-148015859D01*
G36*
X221862135Y-144530840D02*
G01*
X221102135Y-145847199D01*
X221090640Y-145852109D01*
X221082135Y-145881840D01*
X220389315Y-145481840D01*
X221169315Y-144130840D01*
X221862135Y-144530840D01*
G37*
D13*
X221862135Y-144530840D02*
X221102135Y-145847199D01*
X221090640Y-145852109D01*
X221082135Y-145881840D01*
X220389315Y-145481840D01*
X221169315Y-144130840D01*
X221862135Y-144530840D01*
D12*
X134630000Y-126865000D02*
X134630000Y-128375000D01*
X129510000Y-128385000D02*
X129510000Y-126865000D01*
X134630000Y-128395000D02*
X129520000Y-128395000D01*
X129510000Y-126865000D02*
X134630000Y-126865000D01*
G36*
X130310000Y-128365000D02*
G01*
X130302500Y-128375000D01*
X130310000Y-128405000D01*
X129510000Y-128405000D01*
X129510000Y-126845000D01*
X130310000Y-126845000D01*
X130310000Y-128365000D01*
G37*
D13*
X130310000Y-128365000D02*
X130302500Y-128375000D01*
X130310000Y-128405000D01*
X129510000Y-128405000D01*
X129510000Y-126845000D01*
X130310000Y-126845000D01*
X130310000Y-128365000D01*
D12*
X221554315Y-143509519D02*
X222314315Y-142193160D01*
X222314315Y-142193160D02*
X226748365Y-144753160D01*
X226748365Y-144753160D02*
X225993365Y-146060859D01*
X225983365Y-146078179D02*
X221557975Y-143523179D01*
G36*
X223017135Y-142575840D02*
G01*
X222257135Y-143892199D01*
X222245640Y-143897109D01*
X222237135Y-143926840D01*
X221544315Y-143526840D01*
X222324315Y-142175840D01*
X223017135Y-142575840D01*
G37*
D13*
X223017135Y-142575840D02*
X222257135Y-143892199D01*
X222245640Y-143897109D01*
X222237135Y-143926840D01*
X221544315Y-143526840D01*
X222324315Y-142175840D01*
X223017135Y-142575840D01*
D12*
X191780000Y-128770000D02*
X191780000Y-130280000D01*
X186660000Y-128770000D02*
X191780000Y-128770000D01*
X191780000Y-130300000D02*
X186670000Y-130300000D01*
X186660000Y-130290000D02*
X186660000Y-128770000D01*
G36*
X187460000Y-130270000D02*
G01*
X187452500Y-130280000D01*
X187460000Y-130310000D01*
X186660000Y-130310000D01*
X186660000Y-128750000D01*
X187460000Y-128750000D01*
X187460000Y-130270000D01*
G37*
D13*
X187460000Y-130270000D02*
X187452500Y-130280000D01*
X187460000Y-130310000D01*
X186660000Y-130310000D01*
X186660000Y-128750000D01*
X187460000Y-128750000D01*
X187460000Y-130270000D01*
D12*
X91430000Y-133596000D02*
X96550000Y-133596000D01*
X96550000Y-135126000D02*
X91440000Y-135126000D01*
X96550000Y-133596000D02*
X96550000Y-135106000D01*
X91430000Y-135116000D02*
X91430000Y-133596000D01*
G36*
X92230000Y-135096000D02*
G01*
X92222500Y-135106000D01*
X92230000Y-135136000D01*
X91430000Y-135136000D01*
X91430000Y-133576000D01*
X92230000Y-133576000D01*
X92230000Y-135096000D01*
G37*
D13*
X92230000Y-135096000D02*
X92222500Y-135106000D01*
X92230000Y-135136000D01*
X91430000Y-135136000D01*
X91430000Y-133576000D01*
X92230000Y-133576000D01*
X92230000Y-135096000D01*
G36*
X203940000Y-91236500D02*
G01*
X203970000Y-91229000D01*
X203970000Y-92029000D01*
X202410000Y-92029000D01*
X202410000Y-91229000D01*
X203930000Y-91229000D01*
X203940000Y-91236500D01*
G37*
X203940000Y-91236500D02*
X203970000Y-91229000D01*
X203970000Y-92029000D01*
X202410000Y-92029000D01*
X202410000Y-91229000D01*
X203930000Y-91229000D01*
X203940000Y-91236500D01*
D12*
X202430000Y-92029000D02*
X202430000Y-86909000D01*
X203950000Y-92029000D02*
X202430000Y-92029000D01*
X202430000Y-86909000D02*
X203940000Y-86909000D01*
X203960000Y-86909000D02*
X203960000Y-92019000D01*
X204734000Y-54602000D02*
X204734000Y-56112000D01*
X199614000Y-56122000D02*
X199614000Y-54602000D01*
X199614000Y-54602000D02*
X204734000Y-54602000D01*
X204734000Y-56132000D02*
X199624000Y-56132000D01*
G36*
X200414000Y-56102000D02*
G01*
X200406500Y-56112000D01*
X200414000Y-56142000D01*
X199614000Y-56142000D01*
X199614000Y-54582000D01*
X200414000Y-54582000D01*
X200414000Y-56102000D01*
G37*
D13*
X200414000Y-56102000D02*
X200406500Y-56112000D01*
X200414000Y-56142000D01*
X199614000Y-56142000D01*
X199614000Y-54582000D01*
X200414000Y-54582000D01*
X200414000Y-56102000D01*
G36*
X201654000Y-91185500D02*
G01*
X201684000Y-91178000D01*
X201684000Y-91978000D01*
X200124000Y-91978000D01*
X200124000Y-91178000D01*
X201644000Y-91178000D01*
X201654000Y-91185500D01*
G37*
X201654000Y-91185500D02*
X201684000Y-91178000D01*
X201684000Y-91978000D01*
X200124000Y-91978000D01*
X200124000Y-91178000D01*
X201644000Y-91178000D01*
X201654000Y-91185500D01*
D12*
X201674000Y-86858000D02*
X201674000Y-91968000D01*
X201664000Y-91978000D02*
X200144000Y-91978000D01*
X200144000Y-86858000D02*
X201654000Y-86858000D01*
X200144000Y-91978000D02*
X200144000Y-86858000D01*
G36*
X102731657Y-86431254D02*
G01*
X103453034Y-86585065D01*
X104171159Y-86870509D01*
X104383117Y-86983936D01*
X104952719Y-87384367D01*
X105457147Y-87881562D01*
X105879358Y-88453701D01*
X106202308Y-89078962D01*
X106408953Y-89735526D01*
X106418746Y-89785365D01*
X106446258Y-89987466D01*
X106468077Y-90262797D01*
X106484661Y-90623440D01*
X106496468Y-91081476D01*
X106503955Y-91648989D01*
X106507581Y-92338060D01*
X106508572Y-92779249D01*
X106508942Y-93287362D01*
X106507348Y-93686794D01*
X106502912Y-93992080D01*
X106494759Y-94217758D01*
X106482012Y-94378365D01*
X106463795Y-94488438D01*
X106439231Y-94562514D01*
X106407445Y-94615130D01*
X106367559Y-94660823D01*
X106356817Y-94671732D01*
X106161628Y-94781355D01*
X105907715Y-94821596D01*
X105647677Y-94790933D01*
X105434116Y-94687843D01*
X105276316Y-94560161D01*
X105242602Y-92197975D01*
X105235469Y-91710918D01*
X105226607Y-91174573D01*
X105217436Y-90745312D01*
X105206941Y-90408009D01*
X105194105Y-90147535D01*
X105177913Y-89948764D01*
X105157349Y-89796568D01*
X105131396Y-89675820D01*
X105099040Y-89571392D01*
X105059262Y-89468158D01*
X104886530Y-89122017D01*
X104561944Y-88672343D01*
X104162971Y-88281047D01*
X103716385Y-87973187D01*
X103248960Y-87773821D01*
X102936843Y-87682788D01*
X102903421Y-91154314D01*
X102895916Y-91916841D01*
X102888904Y-92565925D01*
X102881973Y-93103192D01*
X102874620Y-93539635D01*
X102866343Y-93886248D01*
X102856637Y-94154023D01*
X102845000Y-94353952D01*
X102830930Y-94497030D01*
X102813923Y-94594249D01*
X102793476Y-94656602D01*
X102769086Y-94695083D01*
X102740251Y-94720683D01*
X102720494Y-94733654D01*
X102529089Y-94795459D01*
X102280376Y-94811954D01*
X102033803Y-94783754D01*
X101848821Y-94711473D01*
X101700264Y-94607419D01*
X101700264Y-87672753D01*
X101516448Y-87726063D01*
X101357273Y-87778689D01*
X100865973Y-88018027D01*
X100404259Y-88351093D01*
X100006708Y-88749965D01*
X99707895Y-89186716D01*
X99635846Y-89324926D01*
X99541088Y-89525349D01*
X99465553Y-89722979D01*
X99407087Y-89934876D01*
X99363531Y-90178096D01*
X99332731Y-90469698D01*
X99312528Y-90826738D01*
X99300768Y-91266275D01*
X99295293Y-91805366D01*
X99293948Y-92461069D01*
X99292543Y-92970157D01*
X99286829Y-93533118D01*
X99276947Y-93994132D01*
X99263143Y-94345272D01*
X99245663Y-94578615D01*
X99224754Y-94686236D01*
X99208916Y-94712396D01*
X99132047Y-94776236D01*
X98993206Y-94807340D01*
X98756859Y-94815526D01*
X98723822Y-94815607D01*
X98559521Y-94816133D01*
X98426369Y-94807723D01*
X98321100Y-94777903D01*
X98240447Y-94714198D01*
X98181145Y-94604136D01*
X98139928Y-94435242D01*
X98113528Y-94195042D01*
X98098681Y-93871062D01*
X98092120Y-93450829D01*
X98090578Y-92921867D01*
X98090790Y-92271704D01*
X98092514Y-91676388D01*
X98098784Y-91062415D01*
X98109402Y-90547234D01*
X98124119Y-90139559D01*
X98142686Y-89848101D01*
X98164854Y-89681573D01*
X98190168Y-89591626D01*
X98276360Y-89348577D01*
X98396195Y-89054347D01*
X98531870Y-88753934D01*
X98574573Y-88665866D01*
X98773454Y-88302430D01*
X98988044Y-88001669D01*
X99257042Y-87707753D01*
X99385030Y-87584043D01*
X99990224Y-87102254D01*
X100636313Y-86744576D01*
X101314467Y-86512513D01*
X102015858Y-86407571D01*
X102731657Y-86431254D01*
G37*
D14*
X102731657Y-86431254D02*
X103453034Y-86585065D01*
X104171159Y-86870509D01*
X104383117Y-86983936D01*
X104952719Y-87384367D01*
X105457147Y-87881562D01*
X105879358Y-88453701D01*
X106202308Y-89078962D01*
X106408953Y-89735526D01*
X106418746Y-89785365D01*
X106446258Y-89987466D01*
X106468077Y-90262797D01*
X106484661Y-90623440D01*
X106496468Y-91081476D01*
X106503955Y-91648989D01*
X106507581Y-92338060D01*
X106508572Y-92779249D01*
X106508942Y-93287362D01*
X106507348Y-93686794D01*
X106502912Y-93992080D01*
X106494759Y-94217758D01*
X106482012Y-94378365D01*
X106463795Y-94488438D01*
X106439231Y-94562514D01*
X106407445Y-94615130D01*
X106367559Y-94660823D01*
X106356817Y-94671732D01*
X106161628Y-94781355D01*
X105907715Y-94821596D01*
X105647677Y-94790933D01*
X105434116Y-94687843D01*
X105276316Y-94560161D01*
X105242602Y-92197975D01*
X105235469Y-91710918D01*
X105226607Y-91174573D01*
X105217436Y-90745312D01*
X105206941Y-90408009D01*
X105194105Y-90147535D01*
X105177913Y-89948764D01*
X105157349Y-89796568D01*
X105131396Y-89675820D01*
X105099040Y-89571392D01*
X105059262Y-89468158D01*
X104886530Y-89122017D01*
X104561944Y-88672343D01*
X104162971Y-88281047D01*
X103716385Y-87973187D01*
X103248960Y-87773821D01*
X102936843Y-87682788D01*
X102903421Y-91154314D01*
X102895916Y-91916841D01*
X102888904Y-92565925D01*
X102881973Y-93103192D01*
X102874620Y-93539635D01*
X102866343Y-93886248D01*
X102856637Y-94154023D01*
X102845000Y-94353952D01*
X102830930Y-94497030D01*
X102813923Y-94594249D01*
X102793476Y-94656602D01*
X102769086Y-94695083D01*
X102740251Y-94720683D01*
X102720494Y-94733654D01*
X102529089Y-94795459D01*
X102280376Y-94811954D01*
X102033803Y-94783754D01*
X101848821Y-94711473D01*
X101700264Y-94607419D01*
X101700264Y-87672753D01*
X101516448Y-87726063D01*
X101357273Y-87778689D01*
X100865973Y-88018027D01*
X100404259Y-88351093D01*
X100006708Y-88749965D01*
X99707895Y-89186716D01*
X99635846Y-89324926D01*
X99541088Y-89525349D01*
X99465553Y-89722979D01*
X99407087Y-89934876D01*
X99363531Y-90178096D01*
X99332731Y-90469698D01*
X99312528Y-90826738D01*
X99300768Y-91266275D01*
X99295293Y-91805366D01*
X99293948Y-92461069D01*
X99292543Y-92970157D01*
X99286829Y-93533118D01*
X99276947Y-93994132D01*
X99263143Y-94345272D01*
X99245663Y-94578615D01*
X99224754Y-94686236D01*
X99208916Y-94712396D01*
X99132047Y-94776236D01*
X98993206Y-94807340D01*
X98756859Y-94815526D01*
X98723822Y-94815607D01*
X98559521Y-94816133D01*
X98426369Y-94807723D01*
X98321100Y-94777903D01*
X98240447Y-94714198D01*
X98181145Y-94604136D01*
X98139928Y-94435242D01*
X98113528Y-94195042D01*
X98098681Y-93871062D01*
X98092120Y-93450829D01*
X98090578Y-92921867D01*
X98090790Y-92271704D01*
X98092514Y-91676388D01*
X98098784Y-91062415D01*
X98109402Y-90547234D01*
X98124119Y-90139559D01*
X98142686Y-89848101D01*
X98164854Y-89681573D01*
X98190168Y-89591626D01*
X98276360Y-89348577D01*
X98396195Y-89054347D01*
X98531870Y-88753934D01*
X98574573Y-88665866D01*
X98773454Y-88302430D01*
X98988044Y-88001669D01*
X99257042Y-87707753D01*
X99385030Y-87584043D01*
X99990224Y-87102254D01*
X100636313Y-86744576D01*
X101314467Y-86512513D01*
X102015858Y-86407571D01*
X102731657Y-86431254D01*
G36*
X102344414Y-105538585D02*
G01*
X102661131Y-105640187D01*
X102939936Y-105833167D01*
X103150554Y-106109170D01*
X103272847Y-106444245D01*
X103286274Y-106808104D01*
X103175828Y-107148065D01*
X102944542Y-107444485D01*
X102909026Y-107474395D01*
X102658637Y-107596125D01*
X102349515Y-107642459D01*
X102026808Y-107611303D01*
X101735661Y-107500563D01*
X101708885Y-107484610D01*
X101414537Y-107237898D01*
X101231948Y-106940274D01*
X101162285Y-106614350D01*
X101206711Y-106282734D01*
X101366393Y-105968039D01*
X101642496Y-105692875D01*
X101718352Y-105642950D01*
X102020062Y-105536720D01*
X102344414Y-105538585D01*
G37*
X102344414Y-105538585D02*
X102661131Y-105640187D01*
X102939936Y-105833167D01*
X103150554Y-106109170D01*
X103272847Y-106444245D01*
X103286274Y-106808104D01*
X103175828Y-107148065D01*
X102944542Y-107444485D01*
X102909026Y-107474395D01*
X102658637Y-107596125D01*
X102349515Y-107642459D01*
X102026808Y-107611303D01*
X101735661Y-107500563D01*
X101708885Y-107484610D01*
X101414537Y-107237898D01*
X101231948Y-106940274D01*
X101162285Y-106614350D01*
X101206711Y-106282734D01*
X101366393Y-105968039D01*
X101642496Y-105692875D01*
X101718352Y-105642950D01*
X102020062Y-105536720D01*
X102344414Y-105538585D01*
G36*
X103571843Y-124025526D02*
G01*
X100363421Y-124025526D01*
X100363421Y-123490789D01*
X103571843Y-123490789D01*
X103571843Y-124025526D01*
G37*
X103571843Y-124025526D02*
X100363421Y-124025526D01*
X100363421Y-123490789D01*
X103571843Y-123490789D01*
X103571843Y-124025526D01*
G36*
X102911789Y-79176430D02*
G01*
X103593966Y-79178935D01*
X104225772Y-79182854D01*
X104795306Y-79188033D01*
X105290667Y-79194321D01*
X105699951Y-79201566D01*
X106011257Y-79209615D01*
X106212684Y-79218315D01*
X106292329Y-79227516D01*
X106359720Y-79299618D01*
X106438487Y-79443729D01*
X106505668Y-79712700D01*
X106480394Y-79991945D01*
X106348828Y-80213564D01*
X106184761Y-80377631D01*
X102903421Y-80377631D01*
X102903421Y-81353868D01*
X104390658Y-82450323D01*
X104786271Y-82742631D01*
X105172217Y-83029053D01*
X105520211Y-83288550D01*
X105812801Y-83508072D01*
X106032539Y-83674570D01*
X106161974Y-83774994D01*
X106446053Y-84003209D01*
X106446053Y-84483104D01*
X106445993Y-84509505D01*
X106431084Y-84808210D01*
X106383598Y-84996712D01*
X106294387Y-85095090D01*
X106154303Y-85123421D01*
X106143057Y-85121143D01*
X106034533Y-85064394D01*
X105837921Y-84938981D01*
X105567851Y-84755029D01*
X105238955Y-84522661D01*
X104865860Y-84252001D01*
X104463198Y-83953174D01*
X102903421Y-82782927D01*
X102903421Y-85731076D01*
X102730171Y-85904327D01*
X102695647Y-85938184D01*
X102600287Y-86013649D01*
X102492387Y-86050030D01*
X102331820Y-86055596D01*
X102078461Y-86038615D01*
X101870951Y-86017398D01*
X101113770Y-85861368D01*
X100419275Y-85591756D01*
X99795816Y-85215533D01*
X99251746Y-84739669D01*
X98795416Y-84171136D01*
X98435178Y-83516905D01*
X98179383Y-82783947D01*
X98149774Y-82633866D01*
X98115865Y-82350545D01*
X98088949Y-81994790D01*
X98069223Y-81589470D01*
X98061948Y-81334710D01*
X99293948Y-81334710D01*
X99308945Y-81888259D01*
X99369530Y-82440578D01*
X99484004Y-82906770D01*
X99660230Y-83309350D01*
X99906067Y-83670829D01*
X100229378Y-84013722D01*
X100299461Y-84075721D01*
X100540904Y-84257017D01*
X100818356Y-84431611D01*
X101096785Y-84580217D01*
X101341160Y-84683547D01*
X101516448Y-84722316D01*
X101522642Y-84722141D01*
X101553599Y-84711383D01*
X101578208Y-84674286D01*
X101597192Y-84597432D01*
X101611272Y-84467403D01*
X101621173Y-84270781D01*
X101627615Y-83994147D01*
X101631323Y-83624084D01*
X101633017Y-83147175D01*
X101633421Y-82550000D01*
X101633421Y-80377631D01*
X99293948Y-80377631D01*
X99293948Y-81334710D01*
X98061948Y-81334710D01*
X98056886Y-81157456D01*
X98052135Y-80721617D01*
X98055169Y-80304824D01*
X98066185Y-79929946D01*
X98085381Y-79619854D01*
X98112956Y-79397417D01*
X98149106Y-79285507D01*
X98151730Y-79282465D01*
X98181825Y-79259674D01*
X98234526Y-79240314D01*
X98319933Y-79224113D01*
X98448144Y-79210798D01*
X98629255Y-79200097D01*
X98873364Y-79191738D01*
X99190571Y-79185448D01*
X99293948Y-79184287D01*
X99590971Y-79180954D01*
X100084664Y-79177985D01*
X100681747Y-79176267D01*
X101392318Y-79175529D01*
X102226474Y-79175497D01*
X102911789Y-79176430D01*
G37*
X102911789Y-79176430D02*
X103593966Y-79178935D01*
X104225772Y-79182854D01*
X104795306Y-79188033D01*
X105290667Y-79194321D01*
X105699951Y-79201566D01*
X106011257Y-79209615D01*
X106212684Y-79218315D01*
X106292329Y-79227516D01*
X106359720Y-79299618D01*
X106438487Y-79443729D01*
X106505668Y-79712700D01*
X106480394Y-79991945D01*
X106348828Y-80213564D01*
X106184761Y-80377631D01*
X102903421Y-80377631D01*
X102903421Y-81353868D01*
X104390658Y-82450323D01*
X104786271Y-82742631D01*
X105172217Y-83029053D01*
X105520211Y-83288550D01*
X105812801Y-83508072D01*
X106032539Y-83674570D01*
X106161974Y-83774994D01*
X106446053Y-84003209D01*
X106446053Y-84483104D01*
X106445993Y-84509505D01*
X106431084Y-84808210D01*
X106383598Y-84996712D01*
X106294387Y-85095090D01*
X106154303Y-85123421D01*
X106143057Y-85121143D01*
X106034533Y-85064394D01*
X105837921Y-84938981D01*
X105567851Y-84755029D01*
X105238955Y-84522661D01*
X104865860Y-84252001D01*
X104463198Y-83953174D01*
X102903421Y-82782927D01*
X102903421Y-85731076D01*
X102730171Y-85904327D01*
X102695647Y-85938184D01*
X102600287Y-86013649D01*
X102492387Y-86050030D01*
X102331820Y-86055596D01*
X102078461Y-86038615D01*
X101870951Y-86017398D01*
X101113770Y-85861368D01*
X100419275Y-85591756D01*
X99795816Y-85215533D01*
X99251746Y-84739669D01*
X98795416Y-84171136D01*
X98435178Y-83516905D01*
X98179383Y-82783947D01*
X98149774Y-82633866D01*
X98115865Y-82350545D01*
X98088949Y-81994790D01*
X98069223Y-81589470D01*
X98061948Y-81334710D01*
X99293948Y-81334710D01*
X99308945Y-81888259D01*
X99369530Y-82440578D01*
X99484004Y-82906770D01*
X99660230Y-83309350D01*
X99906067Y-83670829D01*
X100229378Y-84013722D01*
X100299461Y-84075721D01*
X100540904Y-84257017D01*
X100818356Y-84431611D01*
X101096785Y-84580217D01*
X101341160Y-84683547D01*
X101516448Y-84722316D01*
X101522642Y-84722141D01*
X101553599Y-84711383D01*
X101578208Y-84674286D01*
X101597192Y-84597432D01*
X101611272Y-84467403D01*
X101621173Y-84270781D01*
X101627615Y-83994147D01*
X101631323Y-83624084D01*
X101633017Y-83147175D01*
X101633421Y-82550000D01*
X101633421Y-80377631D01*
X99293948Y-80377631D01*
X99293948Y-81334710D01*
X98061948Y-81334710D01*
X98056886Y-81157456D01*
X98052135Y-80721617D01*
X98055169Y-80304824D01*
X98066185Y-79929946D01*
X98085381Y-79619854D01*
X98112956Y-79397417D01*
X98149106Y-79285507D01*
X98151730Y-79282465D01*
X98181825Y-79259674D01*
X98234526Y-79240314D01*
X98319933Y-79224113D01*
X98448144Y-79210798D01*
X98629255Y-79200097D01*
X98873364Y-79191738D01*
X99190571Y-79185448D01*
X99293948Y-79184287D01*
X99590971Y-79180954D01*
X100084664Y-79177985D01*
X100681747Y-79176267D01*
X101392318Y-79175529D01*
X102226474Y-79175497D01*
X102911789Y-79176430D01*
G36*
X106294553Y-121518947D02*
G01*
X106052803Y-121957149D01*
X105996715Y-122057797D01*
X105859458Y-122300943D01*
X105675951Y-122623652D01*
X105458954Y-123003551D01*
X105221231Y-123418271D01*
X104975544Y-123845439D01*
X104140035Y-125295526D01*
X99847646Y-125295526D01*
X98767139Y-123419217D01*
X97690576Y-121549757D01*
X98385474Y-121549757D01*
X98385481Y-121549771D01*
X98422289Y-121615202D01*
X98516859Y-121781065D01*
X98660345Y-122031912D01*
X98843903Y-122352295D01*
X99058689Y-122726763D01*
X99295856Y-123139868D01*
X100188460Y-124693947D01*
X103805790Y-124692105D01*
X104541053Y-123411179D01*
X104613006Y-123285810D01*
X104837269Y-122894843D01*
X105045769Y-122531053D01*
X105225801Y-122216624D01*
X105364657Y-121973744D01*
X105449634Y-121824600D01*
X105622953Y-121518947D01*
X104724447Y-119963823D01*
X103825941Y-118408698D01*
X100137533Y-118444210D01*
X99252615Y-119978968D01*
X99023692Y-120378295D01*
X98812789Y-120750787D01*
X98634972Y-121069656D01*
X98498784Y-121319426D01*
X98412771Y-121484618D01*
X98385474Y-121549757D01*
X97690576Y-121549757D01*
X97686632Y-121542909D01*
X99820540Y-117842631D01*
X101983917Y-117825024D01*
X103825941Y-117810032D01*
X104147295Y-117807417D01*
X106294553Y-121518947D01*
G37*
X106294553Y-121518947D02*
X106052803Y-121957149D01*
X105996715Y-122057797D01*
X105859458Y-122300943D01*
X105675951Y-122623652D01*
X105458954Y-123003551D01*
X105221231Y-123418271D01*
X104975544Y-123845439D01*
X104140035Y-125295526D01*
X99847646Y-125295526D01*
X98767139Y-123419217D01*
X97690576Y-121549757D01*
X98385474Y-121549757D01*
X98385481Y-121549771D01*
X98422289Y-121615202D01*
X98516859Y-121781065D01*
X98660345Y-122031912D01*
X98843903Y-122352295D01*
X99058689Y-122726763D01*
X99295856Y-123139868D01*
X100188460Y-124693947D01*
X103805790Y-124692105D01*
X104541053Y-123411179D01*
X104613006Y-123285810D01*
X104837269Y-122894843D01*
X105045769Y-122531053D01*
X105225801Y-122216624D01*
X105364657Y-121973744D01*
X105449634Y-121824600D01*
X105622953Y-121518947D01*
X104724447Y-119963823D01*
X103825941Y-118408698D01*
X100137533Y-118444210D01*
X99252615Y-119978968D01*
X99023692Y-120378295D01*
X98812789Y-120750787D01*
X98634972Y-121069656D01*
X98498784Y-121319426D01*
X98412771Y-121484618D01*
X98385474Y-121549757D01*
X97690576Y-121549757D01*
X97686632Y-121542909D01*
X99820540Y-117842631D01*
X101983917Y-117825024D01*
X103825941Y-117810032D01*
X104147295Y-117807417D01*
X106294553Y-121518947D01*
G36*
X103382857Y-118997173D02*
G01*
X103395415Y-119013458D01*
X103469334Y-119128379D01*
X103594958Y-119334554D01*
X103761661Y-119614222D01*
X103958823Y-119949622D01*
X104175818Y-120322992D01*
X104265211Y-120478411D01*
X104468306Y-120837694D01*
X104641264Y-121152341D01*
X104774667Y-121404706D01*
X104859100Y-121577147D01*
X104885144Y-121652019D01*
X104882283Y-121658824D01*
X104803971Y-121739372D01*
X104662155Y-121836443D01*
X104459778Y-121954637D01*
X103681600Y-120598295D01*
X103546305Y-120361776D01*
X103339631Y-119997520D01*
X103162719Y-119682049D01*
X103024856Y-119432100D01*
X102935328Y-119264411D01*
X102903421Y-119195719D01*
X102911366Y-119171910D01*
X103001102Y-119096783D01*
X103146639Y-119027278D01*
X103292412Y-118986404D01*
X103382857Y-118997173D01*
G37*
X103382857Y-118997173D02*
X103395415Y-119013458D01*
X103469334Y-119128379D01*
X103594958Y-119334554D01*
X103761661Y-119614222D01*
X103958823Y-119949622D01*
X104175818Y-120322992D01*
X104265211Y-120478411D01*
X104468306Y-120837694D01*
X104641264Y-121152341D01*
X104774667Y-121404706D01*
X104859100Y-121577147D01*
X104885144Y-121652019D01*
X104882283Y-121658824D01*
X104803971Y-121739372D01*
X104662155Y-121836443D01*
X104459778Y-121954637D01*
X103681600Y-120598295D01*
X103546305Y-120361776D01*
X103339631Y-119997520D01*
X103162719Y-119682049D01*
X103024856Y-119432100D01*
X102935328Y-119264411D01*
X102903421Y-119195719D01*
X102911366Y-119171910D01*
X103001102Y-119096783D01*
X103146639Y-119027278D01*
X103292412Y-118986404D01*
X103382857Y-118997173D01*
G36*
X99293948Y-95167353D02*
G01*
X102244523Y-95196282D01*
X102776610Y-95202032D01*
X103480666Y-95211370D01*
X104131043Y-95221995D01*
X104716311Y-95233620D01*
X105225042Y-95245961D01*
X105645805Y-95258731D01*
X105967174Y-95271646D01*
X106177717Y-95284419D01*
X106266008Y-95296765D01*
X106349341Y-95361573D01*
X106450277Y-95505027D01*
X106454411Y-95517404D01*
X106472155Y-95654053D01*
X106484778Y-95901660D01*
X106491846Y-96241360D01*
X106492922Y-96654288D01*
X106487573Y-97121579D01*
X106483906Y-97320884D01*
X106473950Y-97767332D01*
X106461831Y-98112268D01*
X106445219Y-98379058D01*
X106421789Y-98591068D01*
X106389212Y-98771665D01*
X106345161Y-98944215D01*
X106287308Y-99132083D01*
X106127524Y-99549193D01*
X105772214Y-100188648D01*
X105313471Y-100756565D01*
X104763446Y-101241087D01*
X104134291Y-101630354D01*
X103438158Y-101912508D01*
X102948190Y-102025209D01*
X102279399Y-102075015D01*
X101603732Y-102018987D01*
X100962048Y-101858024D01*
X100279645Y-101553527D01*
X99658259Y-101137551D01*
X99120376Y-100623759D01*
X98678811Y-100022453D01*
X98487161Y-99674820D01*
X98330769Y-99309361D01*
X98211517Y-98915009D01*
X98125411Y-98471028D01*
X98068454Y-97956680D01*
X98036653Y-97351228D01*
X98036172Y-97318815D01*
X99293948Y-97318815D01*
X99293978Y-97344708D01*
X99300399Y-97715500D01*
X99316423Y-98069671D01*
X99339745Y-98368210D01*
X99368056Y-98572105D01*
X99457757Y-98890276D01*
X99705748Y-99406808D01*
X100059326Y-99875243D01*
X100501320Y-100274601D01*
X101014562Y-100583903D01*
X101114956Y-100630859D01*
X101299139Y-100708617D01*
X101465780Y-100757590D01*
X101652681Y-100784388D01*
X101897643Y-100795619D01*
X102238467Y-100797895D01*
X102493362Y-100797177D01*
X102756000Y-100790152D01*
X102950724Y-100769381D01*
X103115640Y-100727435D01*
X103288853Y-100656886D01*
X103508467Y-100550305D01*
X104051727Y-100218077D01*
X104511423Y-99793660D01*
X104864715Y-99288316D01*
X105111609Y-98702038D01*
X105143625Y-98590674D01*
X105191869Y-98364489D01*
X105222356Y-98104119D01*
X105238295Y-97776479D01*
X105242895Y-97348485D01*
X105242895Y-96419737D01*
X99293948Y-96419737D01*
X99293948Y-97318815D01*
X98036172Y-97318815D01*
X98026012Y-96633935D01*
X98025980Y-96615958D01*
X98025942Y-96201530D01*
X98029196Y-95898781D01*
X98038284Y-95686505D01*
X98055752Y-95543492D01*
X98084141Y-95448534D01*
X98125998Y-95380424D01*
X98183865Y-95317953D01*
X98343783Y-95158036D01*
X99293948Y-95167353D01*
G37*
X99293948Y-95167353D02*
X102244523Y-95196282D01*
X102776610Y-95202032D01*
X103480666Y-95211370D01*
X104131043Y-95221995D01*
X104716311Y-95233620D01*
X105225042Y-95245961D01*
X105645805Y-95258731D01*
X105967174Y-95271646D01*
X106177717Y-95284419D01*
X106266008Y-95296765D01*
X106349341Y-95361573D01*
X106450277Y-95505027D01*
X106454411Y-95517404D01*
X106472155Y-95654053D01*
X106484778Y-95901660D01*
X106491846Y-96241360D01*
X106492922Y-96654288D01*
X106487573Y-97121579D01*
X106483906Y-97320884D01*
X106473950Y-97767332D01*
X106461831Y-98112268D01*
X106445219Y-98379058D01*
X106421789Y-98591068D01*
X106389212Y-98771665D01*
X106345161Y-98944215D01*
X106287308Y-99132083D01*
X106127524Y-99549193D01*
X105772214Y-100188648D01*
X105313471Y-100756565D01*
X104763446Y-101241087D01*
X104134291Y-101630354D01*
X103438158Y-101912508D01*
X102948190Y-102025209D01*
X102279399Y-102075015D01*
X101603732Y-102018987D01*
X100962048Y-101858024D01*
X100279645Y-101553527D01*
X99658259Y-101137551D01*
X99120376Y-100623759D01*
X98678811Y-100022453D01*
X98487161Y-99674820D01*
X98330769Y-99309361D01*
X98211517Y-98915009D01*
X98125411Y-98471028D01*
X98068454Y-97956680D01*
X98036653Y-97351228D01*
X98036172Y-97318815D01*
X99293948Y-97318815D01*
X99293978Y-97344708D01*
X99300399Y-97715500D01*
X99316423Y-98069671D01*
X99339745Y-98368210D01*
X99368056Y-98572105D01*
X99457757Y-98890276D01*
X99705748Y-99406808D01*
X100059326Y-99875243D01*
X100501320Y-100274601D01*
X101014562Y-100583903D01*
X101114956Y-100630859D01*
X101299139Y-100708617D01*
X101465780Y-100757590D01*
X101652681Y-100784388D01*
X101897643Y-100795619D01*
X102238467Y-100797895D01*
X102493362Y-100797177D01*
X102756000Y-100790152D01*
X102950724Y-100769381D01*
X103115640Y-100727435D01*
X103288853Y-100656886D01*
X103508467Y-100550305D01*
X104051727Y-100218077D01*
X104511423Y-99793660D01*
X104864715Y-99288316D01*
X105111609Y-98702038D01*
X105143625Y-98590674D01*
X105191869Y-98364489D01*
X105222356Y-98104119D01*
X105238295Y-97776479D01*
X105242895Y-97348485D01*
X105242895Y-96419737D01*
X99293948Y-96419737D01*
X99293948Y-97318815D01*
X98036172Y-97318815D01*
X98026012Y-96633935D01*
X98025980Y-96615958D01*
X98025942Y-96201530D01*
X98029196Y-95898781D01*
X98038284Y-95686505D01*
X98055752Y-95543492D01*
X98084141Y-95448534D01*
X98125998Y-95380424D01*
X98183865Y-95317953D01*
X98343783Y-95158036D01*
X99293948Y-95167353D01*
G36*
X103217603Y-102562711D02*
G01*
X103874050Y-102776263D01*
X104487532Y-103084682D01*
X105032022Y-103481325D01*
X105264080Y-103703398D01*
X105693881Y-104232822D01*
X106044017Y-104832089D01*
X106297358Y-105469121D01*
X106436775Y-106111842D01*
X106467476Y-106685709D01*
X106395672Y-107404488D01*
X106206490Y-108087820D01*
X105908717Y-108723475D01*
X105511140Y-109299222D01*
X105022547Y-109802830D01*
X104451723Y-110222067D01*
X103807457Y-110544703D01*
X103098534Y-110758507D01*
X102872806Y-110801377D01*
X102410970Y-110850172D01*
X101957436Y-110833745D01*
X101449848Y-110751844D01*
X101437693Y-110749316D01*
X100723915Y-110535231D01*
X100075783Y-110212021D01*
X99502543Y-109791040D01*
X99013437Y-109283642D01*
X98617710Y-108701180D01*
X98324606Y-108055007D01*
X98143368Y-107356477D01*
X98105291Y-106888138D01*
X99309539Y-106888138D01*
X99416157Y-107493115D01*
X99640493Y-108049861D01*
X99975261Y-108545399D01*
X100413172Y-108966753D01*
X100946938Y-109300946D01*
X101107440Y-109378427D01*
X101330270Y-109471601D01*
X101535274Y-109527468D01*
X101772957Y-109558125D01*
X102093818Y-109575670D01*
X102454752Y-109575946D01*
X102986277Y-109507375D01*
X103472746Y-109343602D01*
X103953662Y-109073972D01*
X104201054Y-108892640D01*
X104477869Y-108624385D01*
X104719294Y-108294670D01*
X104954485Y-107868373D01*
X105010499Y-107753722D01*
X105109158Y-107525283D01*
X105168208Y-107319071D01*
X105200015Y-107083124D01*
X105216943Y-106765478D01*
X105219730Y-106459103D01*
X105198438Y-106105532D01*
X105151345Y-105844474D01*
X105118864Y-105739733D01*
X104863904Y-105153846D01*
X104512423Y-104639690D01*
X104077906Y-104211013D01*
X103573836Y-103881561D01*
X103013698Y-103665082D01*
X103010638Y-103664269D01*
X102436154Y-103577326D01*
X101868454Y-103613004D01*
X101322159Y-103760531D01*
X100811893Y-104009136D01*
X100352278Y-104348047D01*
X99957935Y-104766493D01*
X99643488Y-105253703D01*
X99423559Y-105798905D01*
X99312769Y-106391328D01*
X99309539Y-106888138D01*
X98105291Y-106888138D01*
X98083242Y-106616944D01*
X98125673Y-106019884D01*
X98291771Y-105300557D01*
X98580217Y-104631416D01*
X98987555Y-104020072D01*
X99510329Y-103474139D01*
X99640345Y-103367921D01*
X100016794Y-103115040D01*
X100456087Y-102875572D01*
X100909914Y-102674411D01*
X101329965Y-102536454D01*
X101879917Y-102446779D01*
X102436154Y-102450036D01*
X102544216Y-102450668D01*
X103217603Y-102562711D01*
G37*
X103217603Y-102562711D02*
X103874050Y-102776263D01*
X104487532Y-103084682D01*
X105032022Y-103481325D01*
X105264080Y-103703398D01*
X105693881Y-104232822D01*
X106044017Y-104832089D01*
X106297358Y-105469121D01*
X106436775Y-106111842D01*
X106467476Y-106685709D01*
X106395672Y-107404488D01*
X106206490Y-108087820D01*
X105908717Y-108723475D01*
X105511140Y-109299222D01*
X105022547Y-109802830D01*
X104451723Y-110222067D01*
X103807457Y-110544703D01*
X103098534Y-110758507D01*
X102872806Y-110801377D01*
X102410970Y-110850172D01*
X101957436Y-110833745D01*
X101449848Y-110751844D01*
X101437693Y-110749316D01*
X100723915Y-110535231D01*
X100075783Y-110212021D01*
X99502543Y-109791040D01*
X99013437Y-109283642D01*
X98617710Y-108701180D01*
X98324606Y-108055007D01*
X98143368Y-107356477D01*
X98105291Y-106888138D01*
X99309539Y-106888138D01*
X99416157Y-107493115D01*
X99640493Y-108049861D01*
X99975261Y-108545399D01*
X100413172Y-108966753D01*
X100946938Y-109300946D01*
X101107440Y-109378427D01*
X101330270Y-109471601D01*
X101535274Y-109527468D01*
X101772957Y-109558125D01*
X102093818Y-109575670D01*
X102454752Y-109575946D01*
X102986277Y-109507375D01*
X103472746Y-109343602D01*
X103953662Y-109073972D01*
X104201054Y-108892640D01*
X104477869Y-108624385D01*
X104719294Y-108294670D01*
X104954485Y-107868373D01*
X105010499Y-107753722D01*
X105109158Y-107525283D01*
X105168208Y-107319071D01*
X105200015Y-107083124D01*
X105216943Y-106765478D01*
X105219730Y-106459103D01*
X105198438Y-106105532D01*
X105151345Y-105844474D01*
X105118864Y-105739733D01*
X104863904Y-105153846D01*
X104512423Y-104639690D01*
X104077906Y-104211013D01*
X103573836Y-103881561D01*
X103013698Y-103665082D01*
X103010638Y-103664269D01*
X102436154Y-103577326D01*
X101868454Y-103613004D01*
X101322159Y-103760531D01*
X100811893Y-104009136D01*
X100352278Y-104348047D01*
X99957935Y-104766493D01*
X99643488Y-105253703D01*
X99423559Y-105798905D01*
X99312769Y-106391328D01*
X99309539Y-106888138D01*
X98105291Y-106888138D01*
X98083242Y-106616944D01*
X98125673Y-106019884D01*
X98291771Y-105300557D01*
X98580217Y-104631416D01*
X98987555Y-104020072D01*
X99510329Y-103474139D01*
X99640345Y-103367921D01*
X100016794Y-103115040D01*
X100456087Y-102875572D01*
X100909914Y-102674411D01*
X101329965Y-102536454D01*
X101879917Y-102446779D01*
X102436154Y-102450036D01*
X102544216Y-102450668D01*
X103217603Y-102562711D01*
G36*
X100715982Y-118971157D02*
G01*
X100869124Y-119043477D01*
X100918247Y-119071332D01*
X101042829Y-119159617D01*
X101083722Y-119220220D01*
X101070682Y-119245963D01*
X101000461Y-119373095D01*
X100878361Y-119589600D01*
X100714022Y-119878500D01*
X100517082Y-120222818D01*
X100297180Y-120605577D01*
X99529096Y-121939700D01*
X99019566Y-121679758D01*
X99147976Y-121465668D01*
X99149479Y-121463160D01*
X99224753Y-121335087D01*
X99353232Y-121114041D01*
X99522059Y-120822242D01*
X99718376Y-120481909D01*
X99929328Y-120115263D01*
X99955995Y-120068868D01*
X100155970Y-119721842D01*
X100331866Y-119418111D01*
X100473092Y-119175851D01*
X100569056Y-119013241D01*
X100609169Y-118948458D01*
X100620146Y-118944853D01*
X100715982Y-118971157D01*
G37*
X100715982Y-118971157D02*
X100869124Y-119043477D01*
X100918247Y-119071332D01*
X101042829Y-119159617D01*
X101083722Y-119220220D01*
X101070682Y-119245963D01*
X101000461Y-119373095D01*
X100878361Y-119589600D01*
X100714022Y-119878500D01*
X100517082Y-120222818D01*
X100297180Y-120605577D01*
X99529096Y-121939700D01*
X99019566Y-121679758D01*
X99147976Y-121465668D01*
X99149479Y-121463160D01*
X99224753Y-121335087D01*
X99353232Y-121114041D01*
X99522059Y-120822242D01*
X99718376Y-120481909D01*
X99929328Y-120115263D01*
X99955995Y-120068868D01*
X100155970Y-119721842D01*
X100331866Y-119418111D01*
X100473092Y-119175851D01*
X100569056Y-119013241D01*
X100609169Y-118948458D01*
X100620146Y-118944853D01*
X100715982Y-118971157D01*
G36*
X106118734Y-111238252D02*
G01*
X106176147Y-111257633D01*
X106329675Y-111362948D01*
X106437450Y-111516073D01*
X106492515Y-111729698D01*
X106504581Y-112015872D01*
X106453748Y-112273830D01*
X106347650Y-112470459D01*
X106193917Y-112572643D01*
X106111667Y-112602462D01*
X105922227Y-112692093D01*
X105665095Y-112827073D01*
X105358736Y-112996394D01*
X105021619Y-113189050D01*
X104672209Y-113394036D01*
X104328975Y-113600345D01*
X104010383Y-113796971D01*
X103734900Y-113972908D01*
X103520993Y-114117149D01*
X103387129Y-114218690D01*
X103351775Y-114266524D01*
X103405882Y-114302503D01*
X103561687Y-114400212D01*
X103802378Y-114548814D01*
X104112104Y-114738570D01*
X104475016Y-114959740D01*
X104875264Y-115202588D01*
X105222243Y-115413879D01*
X105591093Y-115641373D01*
X105908626Y-115840341D01*
X106159000Y-116000741D01*
X106326372Y-116112535D01*
X106394898Y-116165681D01*
X106415789Y-116212550D01*
X106443539Y-116383041D01*
X106448163Y-116607878D01*
X106431985Y-116840232D01*
X106397330Y-117033276D01*
X106346523Y-117140181D01*
X106312121Y-117163973D01*
X106223055Y-117191250D01*
X106102148Y-117183065D01*
X105937892Y-117134143D01*
X105718780Y-117039210D01*
X105433305Y-116892992D01*
X105069958Y-116690216D01*
X104617231Y-116425607D01*
X104063619Y-116093891D01*
X103908727Y-116000514D01*
X103481141Y-115744259D01*
X103092344Y-115513420D01*
X102757419Y-115316812D01*
X102491451Y-115163248D01*
X102309522Y-115061542D01*
X102226716Y-115020508D01*
X102211842Y-115021523D01*
X102095415Y-115069761D01*
X101883418Y-115180765D01*
X101588622Y-115347208D01*
X101223798Y-115561761D01*
X100801714Y-115817099D01*
X100335141Y-116105893D01*
X100141643Y-116226877D01*
X99682499Y-116513085D01*
X99318782Y-116737292D01*
X99037521Y-116906271D01*
X98825744Y-117026793D01*
X98670483Y-117105630D01*
X98558764Y-117149552D01*
X98477618Y-117165331D01*
X98414074Y-117159740D01*
X98355162Y-117139548D01*
X98227047Y-117053470D01*
X98094914Y-116849034D01*
X98036138Y-116581636D01*
X98062833Y-116286626D01*
X98087988Y-116205614D01*
X98129875Y-116128896D01*
X98202229Y-116046295D01*
X98318922Y-115947073D01*
X98493829Y-115820494D01*
X98740820Y-115655821D01*
X99073770Y-115442316D01*
X99506551Y-115169242D01*
X99787391Y-114992322D01*
X100146508Y-114765074D01*
X100456093Y-114567991D01*
X100700204Y-114411271D01*
X100862899Y-114305114D01*
X100928238Y-114259716D01*
X100912002Y-114238304D01*
X100801422Y-114156080D01*
X100600637Y-114022806D01*
X100324989Y-113848315D01*
X99989822Y-113642444D01*
X99610477Y-113415026D01*
X99378831Y-113276851D01*
X99008263Y-113052018D01*
X98683111Y-112850062D01*
X98420897Y-112682091D01*
X98239142Y-112559213D01*
X98155369Y-112492536D01*
X98109644Y-112412260D01*
X98061362Y-112197073D01*
X98058900Y-111942096D01*
X98100575Y-111702403D01*
X98184702Y-111533070D01*
X98300522Y-111439198D01*
X98432283Y-111392368D01*
X98448894Y-111396166D01*
X98569227Y-111450902D01*
X98783318Y-111563986D01*
X99075943Y-111726849D01*
X99431880Y-111930921D01*
X99835906Y-112167635D01*
X100272800Y-112428421D01*
X100429561Y-112522715D01*
X100851229Y-112775141D01*
X101230896Y-113000688D01*
X101554095Y-113190874D01*
X101806361Y-113337221D01*
X101973228Y-113431247D01*
X102040229Y-113464474D01*
X102079261Y-113446431D01*
X102222322Y-113368510D01*
X102456683Y-113236219D01*
X102768666Y-113057410D01*
X103144592Y-112839932D01*
X103570784Y-112591637D01*
X104033563Y-112320375D01*
X104386535Y-112113031D01*
X104844568Y-111845154D01*
X105208366Y-111635087D01*
X105490545Y-111476573D01*
X105703721Y-111363352D01*
X105860512Y-111289168D01*
X105973533Y-111247762D01*
X106055402Y-111232876D01*
X106118734Y-111238252D01*
G37*
X106118734Y-111238252D02*
X106176147Y-111257633D01*
X106329675Y-111362948D01*
X106437450Y-111516073D01*
X106492515Y-111729698D01*
X106504581Y-112015872D01*
X106453748Y-112273830D01*
X106347650Y-112470459D01*
X106193917Y-112572643D01*
X106111667Y-112602462D01*
X105922227Y-112692093D01*
X105665095Y-112827073D01*
X105358736Y-112996394D01*
X105021619Y-113189050D01*
X104672209Y-113394036D01*
X104328975Y-113600345D01*
X104010383Y-113796971D01*
X103734900Y-113972908D01*
X103520993Y-114117149D01*
X103387129Y-114218690D01*
X103351775Y-114266524D01*
X103405882Y-114302503D01*
X103561687Y-114400212D01*
X103802378Y-114548814D01*
X104112104Y-114738570D01*
X104475016Y-114959740D01*
X104875264Y-115202588D01*
X105222243Y-115413879D01*
X105591093Y-115641373D01*
X105908626Y-115840341D01*
X106159000Y-116000741D01*
X106326372Y-116112535D01*
X106394898Y-116165681D01*
X106415789Y-116212550D01*
X106443539Y-116383041D01*
X106448163Y-116607878D01*
X106431985Y-116840232D01*
X106397330Y-117033276D01*
X106346523Y-117140181D01*
X106312121Y-117163973D01*
X106223055Y-117191250D01*
X106102148Y-117183065D01*
X105937892Y-117134143D01*
X105718780Y-117039210D01*
X105433305Y-116892992D01*
X105069958Y-116690216D01*
X104617231Y-116425607D01*
X104063619Y-116093891D01*
X103908727Y-116000514D01*
X103481141Y-115744259D01*
X103092344Y-115513420D01*
X102757419Y-115316812D01*
X102491451Y-115163248D01*
X102309522Y-115061542D01*
X102226716Y-115020508D01*
X102211842Y-115021523D01*
X102095415Y-115069761D01*
X101883418Y-115180765D01*
X101588622Y-115347208D01*
X101223798Y-115561761D01*
X100801714Y-115817099D01*
X100335141Y-116105893D01*
X100141643Y-116226877D01*
X99682499Y-116513085D01*
X99318782Y-116737292D01*
X99037521Y-116906271D01*
X98825744Y-117026793D01*
X98670483Y-117105630D01*
X98558764Y-117149552D01*
X98477618Y-117165331D01*
X98414074Y-117159740D01*
X98355162Y-117139548D01*
X98227047Y-117053470D01*
X98094914Y-116849034D01*
X98036138Y-116581636D01*
X98062833Y-116286626D01*
X98087988Y-116205614D01*
X98129875Y-116128896D01*
X98202229Y-116046295D01*
X98318922Y-115947073D01*
X98493829Y-115820494D01*
X98740820Y-115655821D01*
X99073770Y-115442316D01*
X99506551Y-115169242D01*
X99787391Y-114992322D01*
X100146508Y-114765074D01*
X100456093Y-114567991D01*
X100700204Y-114411271D01*
X100862899Y-114305114D01*
X100928238Y-114259716D01*
X100912002Y-114238304D01*
X100801422Y-114156080D01*
X100600637Y-114022806D01*
X100324989Y-113848315D01*
X99989822Y-113642444D01*
X99610477Y-113415026D01*
X99378831Y-113276851D01*
X99008263Y-113052018D01*
X98683111Y-112850062D01*
X98420897Y-112682091D01*
X98239142Y-112559213D01*
X98155369Y-112492536D01*
X98109644Y-112412260D01*
X98061362Y-112197073D01*
X98058900Y-111942096D01*
X98100575Y-111702403D01*
X98184702Y-111533070D01*
X98300522Y-111439198D01*
X98432283Y-111392368D01*
X98448894Y-111396166D01*
X98569227Y-111450902D01*
X98783318Y-111563986D01*
X99075943Y-111726849D01*
X99431880Y-111930921D01*
X99835906Y-112167635D01*
X100272800Y-112428421D01*
X100429561Y-112522715D01*
X100851229Y-112775141D01*
X101230896Y-113000688D01*
X101554095Y-113190874D01*
X101806361Y-113337221D01*
X101973228Y-113431247D01*
X102040229Y-113464474D01*
X102079261Y-113446431D01*
X102222322Y-113368510D01*
X102456683Y-113236219D01*
X102768666Y-113057410D01*
X103144592Y-112839932D01*
X103570784Y-112591637D01*
X104033563Y-112320375D01*
X104386535Y-112113031D01*
X104844568Y-111845154D01*
X105208366Y-111635087D01*
X105490545Y-111476573D01*
X105703721Y-111363352D01*
X105860512Y-111289168D01*
X105973533Y-111247762D01*
X106055402Y-111232876D01*
X106118734Y-111238252D01*
D12*
X147480000Y-70910000D02*
X154780000Y-70910000D01*
X147480000Y-76410000D02*
X154780000Y-76410000D01*
X154780000Y-70910000D02*
X154780000Y-72060000D01*
X98607860Y-83506000D02*
X98607860Y-82356000D01*
X105907860Y-83506000D02*
X98607860Y-83506000D01*
X105907860Y-78006000D02*
X98607860Y-78006000D01*
X183377860Y-74212000D02*
X183377860Y-75362000D01*
X176077860Y-79712000D02*
X183377860Y-79712000D01*
X176077860Y-74212000D02*
X183377860Y-74212000D01*
X154780000Y-128314000D02*
X147480000Y-128314000D01*
X154780000Y-133814000D02*
X147480000Y-133814000D01*
X147480000Y-133814000D02*
X147480000Y-132664000D01*
X98607860Y-141688000D02*
X98607860Y-140538000D01*
X105907860Y-136188000D02*
X98607860Y-136188000D01*
X105907860Y-141688000D02*
X98607860Y-141688000D01*
X189676000Y-79138000D02*
X188276000Y-79138000D01*
X188276000Y-76818000D02*
X190176000Y-76818000D01*
X184948007Y-139494570D02*
X185523007Y-138498641D01*
X194019993Y-138381430D02*
X187698007Y-134731430D01*
X191269993Y-143144570D02*
X184948007Y-139494570D01*
M02*
