M48
; DRILL file {KiCad (6.0.5-0)} date Tuesday, May 24, 2022 at 09:59:05 PM
; FORMAT={-:-/ absolute / inch / decimal}
; #@! TF.CreationDate,2022-05-24T21:59:05-05:00
; #@! TF.GenerationSoftware,Kicad,Pcbnew,(6.0.5-0)
; #@! TF.FileFunction,Plated,1,2,PTH
FMAT,2
INCH
; #@! TA.AperFunction,Plated,PTH,ViaDrill
T1C0.0157
; #@! TA.AperFunction,Plated,PTH,ViaDrill
T2C0.0157
; #@! TA.AperFunction,Plated,PTH,ComponentDrill
T3C0.0300
; #@! TA.AperFunction,Plated,PTH,ComponentDrill
T4C0.0394
; #@! TA.AperFunction,Plated,PTH,ComponentDrill
T5C0.1260
%
G90
G05
T1
X4.03Y-3.15
X4.12Y-5.47
X4.2Y-3.24
X4.2125Y-5.4025
X4.66Y-4.64
X4.67Y-3.88
X4.77Y-3.88
X4.78Y-4.64
X4.95Y-2.22
X5.13Y-2.29
X5.6479Y-5.1929
X5.91Y-5.12
X5.9376Y-2.963
X5.99Y-2.91
X5.9933Y-5.1
X6.11Y-2.92
X6.87Y-4.54
X6.88Y-3.77
X7.01Y-3.77
X7.01Y-4.54
X7.02Y-3.1885
X7.0243Y-3.0119
X7.11Y-2.97
X7.11Y-3.13
X7.14Y-3.23
X7.15Y-4.54
X7.16Y-3.77
X7.31Y-3.23
X7.3421Y-3.1885
X7.4328Y-3.07
X7.4924Y-3.03
X7.4924Y-3.11
X7.54Y-5.53
X7.64Y-3.87
X7.76Y-3.86
X7.87Y-2.42
X7.8785Y-3.3
X7.95Y-2.24
X8.07Y-3.638
X8.151Y-3.362
X8.36Y-4.43
X8.39Y-2.06
X8.4Y-2.34
X8.5Y-4.43
T2
X3.2938Y-4.9762
X3.6024Y-4.9764
X3.76Y-5.5
X3.8599Y-2.8253
X3.8607Y-3.5762
X3.8607Y-4.3262
X3.8607Y-5.0762
X3.93Y-5.49
X3.9607Y-5.8262
X3.98Y-3.3
X3.98Y-5.41
X4.1438Y-4.9762
X4.1827Y-5.4727
X4.21Y-3.02
X4.4528Y-4.9764
X4.6043Y-5.5157
X4.7107Y-2.8262
X4.7107Y-3.5762
X4.7107Y-4.3262
X4.7107Y-5.0762
X4.7107Y-5.8262
X4.8938Y-4.8012
X5.1988Y-4.8031
X5.3543Y-5.3825
X5.4607Y-2.6512
X5.4607Y-3.4012
X5.4607Y-4.1512
X5.4607Y-4.9012
X5.4607Y-5.6512
X5.6438Y-4.7012
X5.6438Y-5.4512
X5.85Y-2.9
X5.85Y-5.18
X5.9547Y-4.7018
X6.05Y-2.9
X6.05Y-5.18
X6.0815Y-5.3521
X6.2017Y-4.0421
X6.2107Y-2.5512
X6.2107Y-3.3012
X6.2107Y-4.8012
X6.2107Y-5.5512
X6.3938Y-4.8012
X6.4254Y-2.2046
X6.437Y-4.9016
X6.4469Y-5.561
X6.52Y-2.18
X6.55Y-3.1
X6.6968Y-4.81
X6.94Y-3.01
X6.9607Y-2.6512
X6.9607Y-3.4012
X6.9607Y-4.1512
X6.9607Y-4.9012
X7.01Y-5.23
X7.04Y-4.35
X7.05Y-5.1
X7.1063Y-5.5778
X7.12Y-3.02
X7.1423Y-3.0446
X7.1501Y-5.8366
X7.19Y-3.48
X7.2215Y-3.08
X7.25Y-2.27
X7.3496Y-3.07
X7.3509Y-2.8333
X7.37Y-5.43
X7.5051Y-5.1705
X7.5487Y-5.8913
X7.56Y-5.7843
X7.56Y-3.07
X7.62Y-3.07
X7.7107Y-3.4762
X7.7107Y-4.2262
X7.7107Y-4.9762
X7.7446Y-2.87
X7.77Y-3.23
X7.79Y-3.65
X7.7953Y-3.1901
X7.85Y-3.12
X7.85Y-3.71
X7.8651Y-5.1713
X7.87Y-4.43
X7.9411Y-3.1012
X8.0009Y-6.1543
X8.035Y-4.9593
X8.1128Y-5.7928
X8.2009Y-6.2695
X8.21Y-6.1593
X8.2923Y-5.125
X8.3045Y-3.362
X8.3606Y-5.5547
X8.4226Y-3.362
X8.4449Y-5.6398
X8.4607Y-4.0512
X8.4759Y-5.3293
X8.6509Y-6.5293
X8.6759Y-5.4445
X8.685Y-5.3343
X8.9341Y-5.5197
X9.1259Y-5.7043
T3
X7.67Y-1.95
X7.67Y-2.05
X7.67Y-2.15
X7.67Y-2.25
X7.67Y-2.35
X7.67Y-2.45
X7.67Y-2.55
X7.67Y-2.65
X7.67Y-2.75
X7.77Y-2.75
X7.87Y-2.75
X7.97Y-2.75
X8.07Y-2.75
X8.17Y-2.75
X8.27Y-1.95
X8.27Y-2.05
X8.27Y-2.15
X8.27Y-2.25
X8.27Y-2.35
X8.27Y-2.45
X8.27Y-2.55
X8.27Y-2.65
X8.27Y-2.75
T4
X3.4465Y-2.95
X3.4465Y-3.7
X3.4465Y-4.45
X3.4465Y-5.2
X3.5472Y-5.29
X3.7535Y-2.95
X3.7535Y-3.7
X3.7535Y-4.45
X3.7535Y-5.2
X3.8543Y-5.29
X4.2965Y-2.95
X4.2965Y-3.7
X4.2965Y-4.45
X4.2965Y-5.2
X4.2972Y-5.2913
X4.6035Y-2.95
X4.6035Y-3.7
X4.6035Y-4.45
X4.6035Y-5.2
X4.6043Y-5.2913
X5.0465Y-2.775
X5.0465Y-3.525
X5.0465Y-4.275
X5.0465Y-5.025
X5.0472Y-5.1201
X5.3535Y-2.775
X5.3535Y-3.525
X5.3535Y-4.275
X5.3535Y-5.025
X5.3543Y-5.1201
X5.7963Y-5.0197
X5.7965Y-2.675
X5.7965Y-3.425
X5.7965Y-4.175
X5.7965Y-4.925
X6.1033Y-5.0197
X6.1035Y-2.675
X6.1035Y-3.425
X6.1035Y-4.175
X6.1035Y-4.925
X6.5465Y-2.775
X6.5465Y-3.525
X6.5465Y-4.275
X6.5465Y-5.025
X6.8535Y-2.775
X6.8535Y-3.525
X6.8535Y-4.275
X6.8535Y-5.025
X6.9119Y-5.21
X7.1201Y-2.3671
X7.1201Y-2.6742
X7.2085Y-5.2894
X7.2965Y-3.6
X7.2965Y-4.35
X7.2965Y-5.1
X7.38Y-2.01
X7.48Y-2.01
X7.6035Y-3.6
X7.6035Y-4.35
X7.6035Y-5.1
X7.8065Y-2.18
X7.91Y-3.3665
X7.91Y-3.6735
X7.9969Y-5.3031
X8.0Y-3.3685
X8.0Y-3.6756
X8.042Y-5.2232
X8.0465Y-3.225
X8.0465Y-4.2
X8.1135Y-2.18
X8.2629Y-5.4567
X8.308Y-5.3768
X8.3535Y-3.225
X8.3535Y-4.2
X8.6466Y-5.6752
X8.692Y-5.5982
X8.9125Y-5.8287
X8.958Y-5.7518
T5
X3.36Y-2.12
X4.0699Y-5.2608
X6.44Y-5.69
X8.45Y-2.19
X8.95Y-5.97
T0
M30
