G04 #@! TF.GenerationSoftware,KiCad,Pcbnew,(6.0.5-0)*
G04 #@! TF.CreationDate,2022-05-24T21:59:09-05:00*
G04 #@! TF.ProjectId,redox_rev2_recovery,7265646f-785f-4726-9576-325f7265636f,1.0*
G04 #@! TF.SameCoordinates,Original*
G04 #@! TF.FileFunction,Soldermask,Top*
G04 #@! TF.FilePolarity,Negative*
%FSLAX46Y46*%
G04 Gerber Fmt 4.6, Leading zero omitted, Abs format (unit mm)*
G04 Created by KiCad (PCBNEW (6.0.5-0)) date 2022-05-24 21:59:09*
%MOMM*%
%LPD*%
G01*
G04 APERTURE LIST*
G04 Aperture macros list*
%AMRotRect*
0 Rectangle, with rotation*
0 The origin of the aperture is its center*
0 $1 length*
0 $2 width*
0 $3 Rotation angle, in degrees counterclockwise*
0 Add horizontal line*
21,1,$1,$2,0,0,$3*%
G04 Aperture macros list end*
%ADD10C,1.500000*%
%ADD11R,1.200000X2.500000*%
%ADD12C,3.000000*%
%ADD13C,1.701800*%
%ADD14C,3.987800*%
%ADD15R,3.000000X2.500000*%
%ADD16R,2.500000X3.000000*%
%ADD17RotRect,3.000000X2.500000X150.000000*%
%ADD18RotRect,3.000000X2.500000X165.000000*%
%ADD19RotRect,1.200000X1.200000X150.000000*%
%ADD20RotRect,1.600000X1.600000X150.000000*%
%ADD21C,1.600000*%
%ADD22RotRect,1.200000X1.200000X165.000000*%
%ADD23RotRect,1.600000X1.600000X165.000000*%
%ADD24R,1.600000X1.600000*%
%ADD25R,1.200000X1.200000*%
%ADD26C,4.000000*%
%ADD27R,1.500000X1.000000*%
%ADD28R,1.500000X0.400000*%
%ADD29R,1.700000X1.700000*%
%ADD30O,1.700000X1.700000*%
%ADD31RotRect,1.500000X1.000000X150.000000*%
%ADD32C,1.524000*%
G04 APERTURE END LIST*
D10*
X208535000Y-88646000D03*
X215535000Y-88646000D03*
X208535000Y-88646000D03*
X215535000Y-88646000D03*
D11*
X210935000Y-91896000D03*
X213935000Y-91896000D03*
X205835000Y-85396000D03*
X206935000Y-91896000D03*
D12*
X94002860Y-71785480D03*
X95272860Y-69245480D03*
D13*
X96542860Y-66705480D03*
D14*
X91462860Y-66705480D03*
D12*
X88922860Y-71785480D03*
X87652860Y-69245480D03*
D13*
X86382860Y-66705480D03*
D15*
X98062860Y-71785480D03*
X83662860Y-69245480D03*
D13*
X118132860Y-66705480D03*
X107972860Y-66705480D03*
D14*
X113052860Y-66705480D03*
D12*
X115592860Y-71785480D03*
X116862860Y-69245480D03*
X109242860Y-69245480D03*
X110512860Y-71785480D03*
D15*
X119652860Y-71785480D03*
X105252860Y-69245480D03*
D14*
X132102860Y-62260480D03*
D12*
X129562860Y-67340480D03*
X134642860Y-67340480D03*
X135912860Y-64800480D03*
X128292860Y-64800480D03*
D13*
X127022860Y-62260480D03*
X137182860Y-62260480D03*
D15*
X138702860Y-67340480D03*
X124302860Y-64800480D03*
D13*
X156232860Y-59720480D03*
D12*
X153692860Y-64800480D03*
X148612860Y-64800480D03*
X147342860Y-62260480D03*
D14*
X151152860Y-59720480D03*
D12*
X154962860Y-62260480D03*
D13*
X146072860Y-59720480D03*
D15*
X157752860Y-64800480D03*
X143352860Y-62260480D03*
D14*
X170202860Y-62260480D03*
D12*
X172742860Y-67340480D03*
D13*
X165122860Y-62260480D03*
D12*
X167662860Y-67340480D03*
X166392860Y-64800480D03*
D13*
X175282860Y-62260480D03*
D12*
X174012860Y-64800480D03*
D15*
X176802860Y-67340480D03*
X162402860Y-64800480D03*
D12*
X184172860Y-66705480D03*
X186712860Y-60355480D03*
D14*
X189252860Y-64165480D03*
D13*
X189252860Y-69245480D03*
D12*
X186712860Y-67975480D03*
D13*
X189252860Y-59085480D03*
D12*
X184172860Y-61625480D03*
D16*
X184172860Y-70765480D03*
X186712860Y-56365480D03*
D12*
X204492860Y-76230480D03*
D14*
X208302860Y-73690480D03*
D13*
X203222860Y-73690480D03*
D12*
X205762860Y-78770480D03*
D13*
X213382860Y-73690480D03*
D12*
X210842860Y-78770480D03*
X212112860Y-76230480D03*
D15*
X214902860Y-78770480D03*
X200502860Y-76230480D03*
D12*
X129562860Y-86390480D03*
D14*
X132102860Y-81310480D03*
D13*
X137182860Y-81310480D03*
D12*
X134642860Y-86390480D03*
X135912860Y-83850480D03*
D13*
X127022860Y-81310480D03*
D12*
X128292860Y-83850480D03*
D15*
X138702860Y-86390480D03*
X124302860Y-83850480D03*
D12*
X148612860Y-83850480D03*
X153692860Y-83850480D03*
D13*
X156232860Y-78770480D03*
D12*
X154962860Y-81310480D03*
D13*
X146072860Y-78770480D03*
D12*
X147342860Y-81310480D03*
D14*
X151152860Y-78770480D03*
D15*
X157752860Y-83850480D03*
X143352860Y-81310480D03*
D13*
X165122860Y-81310480D03*
D12*
X174012860Y-83850480D03*
X172742860Y-86390480D03*
X167662860Y-86390480D03*
X166392860Y-83850480D03*
D13*
X175282860Y-81310480D03*
D14*
X170202860Y-81310480D03*
D15*
X176802860Y-86390480D03*
X162402860Y-83850480D03*
D12*
X193062860Y-85755480D03*
D14*
X189252860Y-83215480D03*
D12*
X186712860Y-88295480D03*
X191792860Y-88295480D03*
D13*
X184172860Y-83215480D03*
X194332860Y-83215480D03*
D12*
X185442860Y-85755480D03*
D15*
X195852860Y-88295480D03*
X181452860Y-85755480D03*
D12*
X205762860Y-102900480D03*
D14*
X208302860Y-97820480D03*
D12*
X212112860Y-100360480D03*
X204492860Y-100360480D03*
D13*
X203222860Y-97820480D03*
D12*
X210842860Y-102900480D03*
D13*
X213382860Y-97820480D03*
D15*
X214902860Y-102900480D03*
X200502860Y-100360480D03*
D12*
X87652860Y-107345480D03*
X94002860Y-109885480D03*
X88922860Y-109885480D03*
D13*
X96542860Y-104805480D03*
X86382860Y-104805480D03*
D14*
X91462860Y-104805480D03*
D12*
X95272860Y-107345480D03*
D15*
X98062860Y-109885480D03*
X83662860Y-107345480D03*
D13*
X107972860Y-104805480D03*
D12*
X116862860Y-107345480D03*
X110512860Y-109885480D03*
X109242860Y-107345480D03*
D14*
X113052860Y-104805480D03*
D13*
X118132860Y-104805480D03*
D12*
X115592860Y-109885480D03*
D15*
X119652860Y-109885480D03*
X105252860Y-107345480D03*
D12*
X128292860Y-102900480D03*
X134642860Y-105440480D03*
X135912860Y-102900480D03*
X129562860Y-105440480D03*
D13*
X127022860Y-100360480D03*
X137182860Y-100360480D03*
D14*
X132102860Y-100360480D03*
D15*
X138702860Y-105440480D03*
X124302860Y-102900480D03*
D12*
X148612860Y-102900480D03*
D14*
X151152860Y-97820480D03*
D12*
X147342860Y-100360480D03*
X153692860Y-102900480D03*
D13*
X156232860Y-97820480D03*
D12*
X154962860Y-100360480D03*
D13*
X146072860Y-97820480D03*
D15*
X157752860Y-102900480D03*
X143352860Y-100360480D03*
D12*
X172742860Y-105440480D03*
D14*
X170202860Y-100360480D03*
D12*
X166392860Y-102900480D03*
D13*
X175282860Y-100360480D03*
D12*
X174012860Y-102900480D03*
X167662860Y-105440480D03*
D13*
X165122860Y-100360480D03*
D15*
X176802860Y-105440480D03*
X162402860Y-102900480D03*
D13*
X184172860Y-102265480D03*
X194332860Y-102265480D03*
D12*
X185442860Y-104805480D03*
X191792860Y-107345480D03*
D14*
X189252860Y-102265480D03*
D12*
X193062860Y-104805480D03*
X186712860Y-107345480D03*
D15*
X195852860Y-107345480D03*
X181452860Y-104805480D03*
D12*
X207373155Y-130794889D03*
D13*
X207713451Y-125125480D03*
D12*
X214142417Y-131770185D03*
D13*
X216512269Y-130205480D03*
D12*
X211772565Y-133334889D03*
D14*
X212112860Y-127665480D03*
D12*
X207543303Y-127960185D03*
D17*
X215288628Y-135364889D03*
X204087862Y-125965185D03*
D12*
X88922860Y-128935480D03*
D13*
X86382860Y-123855480D03*
D12*
X95272860Y-126395480D03*
D13*
X96542860Y-123855480D03*
D12*
X94002860Y-128935480D03*
D14*
X91462860Y-123855480D03*
D12*
X87652860Y-126395480D03*
D15*
X98062860Y-128935480D03*
X83662860Y-126395480D03*
D14*
X113052860Y-123855480D03*
D12*
X115592860Y-128935480D03*
X110512860Y-128935480D03*
D13*
X107972860Y-123855480D03*
D12*
X109242860Y-126395480D03*
D13*
X118132860Y-123855480D03*
D12*
X116862860Y-126395480D03*
D15*
X119652860Y-128935480D03*
X105252860Y-126395480D03*
D12*
X134642860Y-124490480D03*
X135912860Y-121950480D03*
X129562860Y-124490480D03*
D13*
X137182860Y-119410480D03*
X127022860Y-119410480D03*
D14*
X132102860Y-119410480D03*
D12*
X128292860Y-121950480D03*
D15*
X138702860Y-124490480D03*
X124302860Y-121950480D03*
D14*
X151152860Y-116870480D03*
D12*
X153692860Y-121950480D03*
X154962860Y-119410480D03*
X147342860Y-119410480D03*
D13*
X156232860Y-116870480D03*
D12*
X148612860Y-121950480D03*
D13*
X146072860Y-116870480D03*
D15*
X157752860Y-121950480D03*
X143352860Y-119410480D03*
D12*
X166392860Y-121950480D03*
X167662860Y-124490480D03*
D14*
X170202860Y-119410480D03*
D12*
X172742860Y-124490480D03*
D13*
X165122860Y-119410480D03*
D12*
X174012860Y-121950480D03*
D13*
X175282860Y-119410480D03*
D15*
X176802860Y-124490480D03*
X162402860Y-121950480D03*
D12*
X191792860Y-126395480D03*
D13*
X194332860Y-121315480D03*
D14*
X189252860Y-121315480D03*
D12*
X193062860Y-123855480D03*
D13*
X184172860Y-121315480D03*
D12*
X186712860Y-126395480D03*
X185442860Y-123855480D03*
D15*
X195852860Y-126395480D03*
X181452860Y-123855480D03*
D13*
X233022269Y-139730480D03*
D14*
X228622860Y-137190480D03*
D12*
X230652417Y-141295185D03*
X223883155Y-140319889D03*
X228282565Y-142859889D03*
X224053303Y-137485185D03*
D13*
X224223451Y-134650480D03*
D17*
X231798628Y-144889889D03*
X220597862Y-135490185D03*
D13*
X88922860Y-142905480D03*
D12*
X97812860Y-145445480D03*
X91462860Y-147985480D03*
D14*
X94002860Y-142905480D03*
D12*
X90192860Y-145445480D03*
D13*
X99082860Y-142905480D03*
D12*
X96542860Y-147985480D03*
D15*
X100602860Y-147985480D03*
X86202860Y-145445480D03*
D12*
X116862860Y-145445480D03*
X115592860Y-147985480D03*
X109242860Y-145445480D03*
D13*
X118132860Y-142905480D03*
D12*
X110512860Y-147985480D03*
D14*
X113052860Y-142905480D03*
D13*
X107972860Y-142905480D03*
D15*
X119652860Y-147985480D03*
X105252860Y-145445480D03*
D14*
X132102860Y-138460480D03*
D13*
X137182860Y-138460480D03*
X127022860Y-138460480D03*
D12*
X135912860Y-141000480D03*
X134642860Y-143540480D03*
X128292860Y-141000480D03*
X129562860Y-143540480D03*
D15*
X138702860Y-143540480D03*
X124302860Y-141000480D03*
D13*
X156232860Y-135920480D03*
D14*
X151152860Y-135920480D03*
D12*
X153692860Y-141000480D03*
X148612860Y-141000480D03*
X147342860Y-138460480D03*
D13*
X146072860Y-135920480D03*
D12*
X154962860Y-138460480D03*
D15*
X157752860Y-141000480D03*
X143352860Y-138460480D03*
D13*
X171645957Y-140320679D03*
X181459763Y-142950281D03*
D12*
X172784608Y-145884983D03*
D14*
X176552860Y-141635480D03*
D12*
X172215282Y-143102831D03*
X177691511Y-147199784D03*
X179575637Y-145075032D03*
D18*
X181613170Y-148250589D03*
X168361238Y-142070143D03*
D13*
X204447269Y-151160480D03*
D12*
X202077417Y-152725185D03*
D14*
X200047860Y-148620480D03*
D12*
X195308155Y-151749889D03*
X195478303Y-148915185D03*
X199707565Y-154289889D03*
D13*
X195648451Y-146080480D03*
D17*
X203223628Y-156319889D03*
X192022862Y-146920185D03*
D12*
X218587417Y-162250185D03*
X211818155Y-161274889D03*
D14*
X216557860Y-158145480D03*
D13*
X220957269Y-160685480D03*
D12*
X211988303Y-158440185D03*
D13*
X212158451Y-155605480D03*
D12*
X216217565Y-163814889D03*
D17*
X219733628Y-165844889D03*
X208532862Y-156445185D03*
D12*
X95272860Y-88295480D03*
D13*
X96542860Y-85755480D03*
D12*
X87652860Y-88295480D03*
D13*
X86382860Y-85755480D03*
D12*
X94002860Y-90835480D03*
X88922860Y-90835480D03*
D14*
X91462860Y-85755480D03*
D15*
X98062860Y-90835480D03*
X83662860Y-88295480D03*
D13*
X118132860Y-85755480D03*
D12*
X110512860Y-90835480D03*
D13*
X107972860Y-85755480D03*
D14*
X113052860Y-85755480D03*
D12*
X115592860Y-90835480D03*
X116862860Y-88295480D03*
X109242860Y-88295480D03*
D15*
X119652860Y-90835480D03*
X105252860Y-88295480D03*
D19*
X205136010Y-135862500D03*
D20*
X203122501Y-134700000D03*
D19*
X207863990Y-137437500D03*
D21*
X209877499Y-138600000D03*
D22*
X177807334Y-132934720D03*
D23*
X175561556Y-132332966D03*
D21*
X183095778Y-134351754D03*
D22*
X180850000Y-133750000D03*
D24*
X147225000Y-127500000D03*
D25*
X149550000Y-127500000D03*
X152700000Y-127500000D03*
D21*
X155025000Y-127500000D03*
D25*
X130525000Y-130050000D03*
D24*
X128200000Y-130050000D03*
D21*
X136000000Y-130050000D03*
D25*
X133675000Y-130050000D03*
D24*
X109150000Y-134400000D03*
D25*
X111475000Y-134400000D03*
X114625000Y-134400000D03*
D21*
X116950000Y-134400000D03*
D24*
X166280000Y-108585000D03*
D25*
X168605000Y-108585000D03*
X171755000Y-108585000D03*
D21*
X174080000Y-108585000D03*
D25*
X89865000Y-74930000D03*
D24*
X87540000Y-74930000D03*
D21*
X95340000Y-74930000D03*
D25*
X93015000Y-74930000D03*
D24*
X166280000Y-70485000D03*
D25*
X168605000Y-70485000D03*
X171755000Y-70485000D03*
D21*
X174080000Y-70485000D03*
D25*
X111455000Y-93980000D03*
D24*
X109130000Y-93980000D03*
D25*
X114605000Y-93980000D03*
D21*
X116930000Y-93980000D03*
D24*
X128180000Y-70485000D03*
D25*
X130505000Y-70485000D03*
X133655000Y-70485000D03*
D21*
X135980000Y-70485000D03*
D24*
X204380000Y-106680000D03*
D25*
X206705000Y-106680000D03*
D21*
X212180000Y-106680000D03*
D25*
X209855000Y-106680000D03*
X168605000Y-89535000D03*
D24*
X166280000Y-89535000D03*
D25*
X171755000Y-89535000D03*
D21*
X174080000Y-89535000D03*
D25*
X89865000Y-113030000D03*
D24*
X87540000Y-113030000D03*
D25*
X93015000Y-113030000D03*
D21*
X95340000Y-113030000D03*
D25*
X111455000Y-74930000D03*
D24*
X109130000Y-74930000D03*
D25*
X114605000Y-74930000D03*
D21*
X116930000Y-74930000D03*
D24*
X147230000Y-86995000D03*
D25*
X149555000Y-86995000D03*
D21*
X155030000Y-86995000D03*
D25*
X152705000Y-86995000D03*
X180850000Y-65600000D03*
D24*
X180850000Y-67925000D03*
D25*
X180850000Y-62450000D03*
D21*
X180850000Y-60125000D03*
D25*
X149555000Y-106045000D03*
D24*
X147230000Y-106045000D03*
D25*
X152705000Y-106045000D03*
D21*
X155030000Y-106045000D03*
D24*
X147230000Y-125095000D03*
D25*
X149555000Y-125095000D03*
D21*
X155030000Y-125095000D03*
D25*
X152705000Y-125095000D03*
X187655000Y-110490000D03*
D24*
X185330000Y-110490000D03*
D21*
X193130000Y-110490000D03*
D25*
X190805000Y-110490000D03*
D24*
X87540000Y-132080000D03*
D25*
X89865000Y-132080000D03*
X93015000Y-132080000D03*
D21*
X95340000Y-132080000D03*
D25*
X149555000Y-67945000D03*
D24*
X147230000Y-67945000D03*
D25*
X152705000Y-67945000D03*
D21*
X155030000Y-67945000D03*
D20*
X204267501Y-132670000D03*
D19*
X206281010Y-133832500D03*
X209008990Y-135407500D03*
D21*
X211022499Y-136570000D03*
D25*
X130505000Y-89535000D03*
D24*
X128180000Y-89535000D03*
D25*
X133655000Y-89535000D03*
D21*
X135980000Y-89535000D03*
D25*
X168605000Y-127635000D03*
D24*
X166280000Y-127635000D03*
D21*
X174080000Y-127635000D03*
D25*
X171755000Y-127635000D03*
X89865000Y-93980000D03*
D24*
X87540000Y-93980000D03*
D25*
X93015000Y-93980000D03*
D21*
X95340000Y-93980000D03*
D26*
X85344000Y-53848000D03*
D24*
X204380000Y-81915000D03*
D25*
X206705000Y-81915000D03*
X209855000Y-81915000D03*
D21*
X212180000Y-81915000D03*
D24*
X185330000Y-91440000D03*
D25*
X187655000Y-91440000D03*
X190805000Y-91440000D03*
D21*
X193130000Y-91440000D03*
D24*
X109130000Y-113030000D03*
D25*
X111455000Y-113030000D03*
X114605000Y-113030000D03*
D21*
X116930000Y-113030000D03*
D25*
X111455000Y-132080000D03*
D24*
X109130000Y-132080000D03*
D25*
X114605000Y-132080000D03*
D21*
X116930000Y-132080000D03*
D24*
X128180000Y-108585000D03*
D25*
X130505000Y-108585000D03*
X133655000Y-108585000D03*
D21*
X135980000Y-108585000D03*
D26*
X103375000Y-133625000D03*
D20*
X219622501Y-144150000D03*
D19*
X221636010Y-145312500D03*
X224363990Y-146887500D03*
D21*
X226377499Y-148050000D03*
D24*
X128180000Y-127635000D03*
D25*
X130505000Y-127635000D03*
D21*
X135980000Y-127635000D03*
D25*
X133655000Y-127635000D03*
D19*
X222791010Y-143357500D03*
D20*
X220777501Y-142195000D03*
D19*
X225518990Y-144932500D03*
D21*
X227532499Y-146095000D03*
D25*
X187655000Y-129540000D03*
D24*
X185330000Y-129540000D03*
D25*
X190805000Y-129540000D03*
D21*
X193130000Y-129540000D03*
D25*
X92425000Y-134366000D03*
D24*
X90100000Y-134366000D03*
D21*
X97900000Y-134366000D03*
D25*
X95575000Y-134366000D03*
D26*
X163576000Y-144526000D03*
X227330000Y-151638000D03*
D27*
X153580000Y-132664000D03*
X153580000Y-129464000D03*
X148680000Y-129464000D03*
X148680000Y-132664000D03*
D28*
X190306000Y-78628000D03*
X190306000Y-77978000D03*
X190306000Y-77328000D03*
X187646000Y-77328000D03*
X187646000Y-78628000D03*
D26*
X214630000Y-55626000D03*
D21*
X203200000Y-85559000D03*
D25*
X203200000Y-87884000D03*
X203200000Y-91034000D03*
D24*
X203200000Y-93359000D03*
D27*
X104707860Y-140538000D03*
X104707860Y-137338000D03*
X99807860Y-137338000D03*
X99807860Y-140538000D03*
D29*
X189992000Y-51054000D03*
D30*
X187452000Y-51054000D03*
D24*
X198284000Y-55372000D03*
D25*
X200609000Y-55372000D03*
X203759000Y-55372000D03*
D21*
X206084000Y-55372000D03*
D27*
X148680000Y-72060000D03*
X148680000Y-75260000D03*
X153580000Y-75260000D03*
X153580000Y-72060000D03*
D25*
X200914000Y-87833000D03*
D21*
X200914000Y-85508000D03*
D24*
X200914000Y-93308000D03*
D25*
X200914000Y-90983000D03*
D27*
X177277860Y-75362000D03*
X177277860Y-78562000D03*
X182177860Y-78562000D03*
X182177860Y-75362000D03*
X99807860Y-79156000D03*
X99807860Y-82356000D03*
X104707860Y-82356000D03*
X104707860Y-79156000D03*
D31*
X190805762Y-141548641D03*
X192405762Y-138777359D03*
X188162238Y-136327359D03*
X186562238Y-139098641D03*
D32*
X210058000Y-54610000D03*
X210058000Y-49530000D03*
X210058000Y-52070000D03*
X194818000Y-49530000D03*
X194818000Y-52070000D03*
X194818000Y-54610000D03*
X194818000Y-57150000D03*
X194818000Y-59690000D03*
X194818000Y-62230000D03*
X194818000Y-64770000D03*
X194818000Y-67310000D03*
X194818000Y-69850000D03*
X197358000Y-69850000D03*
X199898000Y-69850000D03*
X202438000Y-69850000D03*
X204978000Y-69850000D03*
X207518000Y-69850000D03*
X210058000Y-69850000D03*
X210058000Y-67310000D03*
X210058000Y-64770000D03*
X210058000Y-62230000D03*
X210058000Y-59690000D03*
X210058000Y-57150000D03*
M02*
