G04 #@! TF.GenerationSoftware,KiCad,Pcbnew,(6.0.5-0)*
G04 #@! TF.CreationDate,2022-05-24T21:59:09-05:00*
G04 #@! TF.ProjectId,redox_rev2_recovery,7265646f-785f-4726-9576-325f7265636f,1.0*
G04 #@! TF.SameCoordinates,Original*
G04 #@! TF.FileFunction,Legend,Top*
G04 #@! TF.FilePolarity,Positive*
%FSLAX46Y46*%
G04 Gerber Fmt 4.6, Leading zero omitted, Abs format (unit mm)*
G04 Created by KiCad (PCBNEW (6.0.5-0)) date 2022-05-24 21:59:09*
%MOMM*%
%LPD*%
G01*
G04 APERTURE LIST*
G04 Aperture macros list*
%AMRotRect*
0 Rectangle, with rotation*
0 The origin of the aperture is its center*
0 $1 length*
0 $2 width*
0 $3 Rotation angle, in degrees counterclockwise*
0 Add horizontal line*
21,1,$1,$2,0,0,$3*%
G04 Aperture macros list end*
%ADD10C,0.300000*%
%ADD11C,0.150000*%
%ADD12C,0.120000*%
%ADD13C,0.010000*%
%ADD14RotRect,1.600000X1.600000X150.000000*%
%ADD15C,1.600000*%
%ADD16RotRect,1.600000X1.600000X165.000000*%
%ADD17R,1.600000X1.600000*%
%ADD18C,4.000000*%
G04 APERTURE END LIST*
D10*
X96305714Y-77498571D02*
X96305714Y-76498571D01*
X96305714Y-76784285D02*
X96377142Y-76641428D01*
X96448571Y-76570000D01*
X96591428Y-76498571D01*
X96734285Y-76498571D01*
X97805714Y-77427142D02*
X97662857Y-77498571D01*
X97377142Y-77498571D01*
X97234285Y-77427142D01*
X97162857Y-77284285D01*
X97162857Y-76712857D01*
X97234285Y-76570000D01*
X97377142Y-76498571D01*
X97662857Y-76498571D01*
X97805714Y-76570000D01*
X97877142Y-76712857D01*
X97877142Y-76855714D01*
X97162857Y-76998571D01*
X98377142Y-76498571D02*
X98734285Y-77498571D01*
X99091428Y-76498571D01*
X100734285Y-76141428D02*
X100805714Y-76070000D01*
X100948571Y-75998571D01*
X101305714Y-75998571D01*
X101448571Y-76070000D01*
X101520000Y-76141428D01*
X101591428Y-76284285D01*
X101591428Y-76427142D01*
X101520000Y-76641428D01*
X100662857Y-77498571D01*
X101591428Y-77498571D01*
X102234285Y-77355714D02*
X102305714Y-77427142D01*
X102234285Y-77498571D01*
X102162857Y-77427142D01*
X102234285Y-77355714D01*
X102234285Y-77498571D01*
X103234285Y-75998571D02*
X103377142Y-75998571D01*
X103520000Y-76070000D01*
X103591428Y-76141428D01*
X103662857Y-76284285D01*
X103734285Y-76570000D01*
X103734285Y-76927142D01*
X103662857Y-77212857D01*
X103591428Y-77355714D01*
X103520000Y-77427142D01*
X103377142Y-77498571D01*
X103234285Y-77498571D01*
X103091428Y-77427142D01*
X103020000Y-77355714D01*
X102948571Y-77212857D01*
X102877142Y-76927142D01*
X102877142Y-76570000D01*
X102948571Y-76284285D01*
X103020000Y-76141428D01*
X103091428Y-76070000D01*
X103234285Y-75998571D01*
X104234285Y-75998571D02*
X104591428Y-77498571D01*
X104877142Y-76427142D01*
X105162857Y-77498571D01*
X105520000Y-75998571D01*
X106091428Y-77498571D02*
X106091428Y-75998571D01*
X106091428Y-76712857D02*
X106948571Y-76712857D01*
X106948571Y-77498571D02*
X106948571Y-75998571D01*
X107591428Y-77427142D02*
X107805714Y-77498571D01*
X108162857Y-77498571D01*
X108305714Y-77427142D01*
X108377142Y-77355714D01*
X108448571Y-77212857D01*
X108448571Y-77070000D01*
X108377142Y-76927142D01*
X108305714Y-76855714D01*
X108162857Y-76784285D01*
X107877142Y-76712857D01*
X107734285Y-76641428D01*
X107662857Y-76570000D01*
X107591428Y-76427142D01*
X107591428Y-76284285D01*
X107662857Y-76141428D01*
X107734285Y-76070000D01*
X107877142Y-75998571D01*
X108234285Y-75998571D01*
X108448571Y-76070000D01*
X109091428Y-76927142D02*
X110234285Y-76927142D01*
X111805714Y-77498571D02*
X111305714Y-76784285D01*
X110948571Y-77498571D02*
X110948571Y-75998571D01*
X111520000Y-75998571D01*
X111662857Y-76070000D01*
X111734285Y-76141428D01*
X111805714Y-76284285D01*
X111805714Y-76498571D01*
X111734285Y-76641428D01*
X111662857Y-76712857D01*
X111520000Y-76784285D01*
X110948571Y-76784285D01*
D11*
X208257619Y-93448380D02*
X208257619Y-94162666D01*
X208210000Y-94305523D01*
X208114761Y-94400761D01*
X207971904Y-94448380D01*
X207876666Y-94448380D01*
X208495714Y-94543619D02*
X209257619Y-94543619D01*
X209495714Y-94448380D02*
X209495714Y-93781714D01*
X209495714Y-93972190D02*
X209543333Y-93876952D01*
X209590952Y-93829333D01*
X209686190Y-93781714D01*
X209781428Y-93781714D01*
X210114761Y-94448380D02*
X210114761Y-93781714D01*
X210114761Y-93448380D02*
X210067142Y-93496000D01*
X210114761Y-93543619D01*
X210162380Y-93496000D01*
X210114761Y-93448380D01*
X210114761Y-93543619D01*
X211019523Y-93781714D02*
X211019523Y-94591238D01*
X210971904Y-94686476D01*
X210924285Y-94734095D01*
X210829047Y-94781714D01*
X210686190Y-94781714D01*
X210590952Y-94734095D01*
X211019523Y-94400761D02*
X210924285Y-94448380D01*
X210733809Y-94448380D01*
X210638571Y-94400761D01*
X210590952Y-94353142D01*
X210543333Y-94257904D01*
X210543333Y-93972190D01*
X210590952Y-93876952D01*
X210638571Y-93829333D01*
X210733809Y-93781714D01*
X210924285Y-93781714D01*
X211019523Y-93829333D01*
X211495714Y-94448380D02*
X211495714Y-93448380D01*
X211924285Y-94448380D02*
X211924285Y-93924571D01*
X211876666Y-93829333D01*
X211781428Y-93781714D01*
X211638571Y-93781714D01*
X211543333Y-93829333D01*
X211495714Y-93876952D01*
X212257619Y-93781714D02*
X212638571Y-93781714D01*
X212400476Y-93448380D02*
X212400476Y-94305523D01*
X212448095Y-94400761D01*
X212543333Y-94448380D01*
X212638571Y-94448380D01*
X213495714Y-94448380D02*
X212924285Y-94448380D01*
X213210000Y-94448380D02*
X213210000Y-93448380D01*
X213114761Y-93591238D01*
X213019523Y-93686476D01*
X212924285Y-93734095D01*
X97024764Y-64557860D02*
X97024764Y-63557860D01*
X97596193Y-64557860D02*
X97167621Y-63986432D01*
X97596193Y-63557860D02*
X97024764Y-64129289D01*
X98215240Y-63557860D02*
X98310479Y-63557860D01*
X98405717Y-63605480D01*
X98453336Y-63653099D01*
X98500955Y-63748337D01*
X98548574Y-63938813D01*
X98548574Y-64176908D01*
X98500955Y-64367384D01*
X98453336Y-64462622D01*
X98405717Y-64510241D01*
X98310479Y-64557860D01*
X98215240Y-64557860D01*
X98120002Y-64510241D01*
X98072383Y-64462622D01*
X98024764Y-64367384D01*
X97977145Y-64176908D01*
X97977145Y-63938813D01*
X98024764Y-63748337D01*
X98072383Y-63653099D01*
X98120002Y-63605480D01*
X98215240Y-63557860D01*
X118614764Y-64557860D02*
X118614764Y-63557860D01*
X119186193Y-64557860D02*
X118757621Y-63986432D01*
X119186193Y-63557860D02*
X118614764Y-64129289D01*
X120138574Y-64557860D02*
X119567145Y-64557860D01*
X119852860Y-64557860D02*
X119852860Y-63557860D01*
X119757621Y-63700718D01*
X119662383Y-63795956D01*
X119567145Y-63843575D01*
X137664764Y-60112860D02*
X137664764Y-59112860D01*
X138236193Y-60112860D02*
X137807621Y-59541432D01*
X138236193Y-59112860D02*
X137664764Y-59684289D01*
X138617145Y-59208099D02*
X138664764Y-59160480D01*
X138760002Y-59112860D01*
X138998098Y-59112860D01*
X139093336Y-59160480D01*
X139140955Y-59208099D01*
X139188574Y-59303337D01*
X139188574Y-59398575D01*
X139140955Y-59541432D01*
X138569526Y-60112860D01*
X139188574Y-60112860D01*
X156714764Y-57572860D02*
X156714764Y-56572860D01*
X157286193Y-57572860D02*
X156857621Y-57001432D01*
X157286193Y-56572860D02*
X156714764Y-57144289D01*
X157619526Y-56572860D02*
X158238574Y-56572860D01*
X157905240Y-56953813D01*
X158048098Y-56953813D01*
X158143336Y-57001432D01*
X158190955Y-57049051D01*
X158238574Y-57144289D01*
X158238574Y-57382384D01*
X158190955Y-57477622D01*
X158143336Y-57525241D01*
X158048098Y-57572860D01*
X157762383Y-57572860D01*
X157667145Y-57525241D01*
X157619526Y-57477622D01*
X175764764Y-60112860D02*
X175764764Y-59112860D01*
X176336193Y-60112860D02*
X175907621Y-59541432D01*
X176336193Y-59112860D02*
X175764764Y-59684289D01*
X177193336Y-59446194D02*
X177193336Y-60112860D01*
X176955240Y-59065241D02*
X176717145Y-59779527D01*
X177336193Y-59779527D01*
X192305240Y-71203575D02*
X191305240Y-71203575D01*
X192305240Y-70632146D02*
X191733812Y-71060718D01*
X191305240Y-70632146D02*
X191876669Y-71203575D01*
X191305240Y-69727384D02*
X191305240Y-70203575D01*
X191781431Y-70251194D01*
X191733812Y-70203575D01*
X191686193Y-70108337D01*
X191686193Y-69870241D01*
X191733812Y-69775003D01*
X191781431Y-69727384D01*
X191876669Y-69679765D01*
X192114764Y-69679765D01*
X192210002Y-69727384D01*
X192257621Y-69775003D01*
X192305240Y-69870241D01*
X192305240Y-70108337D01*
X192257621Y-70203575D01*
X192210002Y-70251194D01*
X213864764Y-71542860D02*
X213864764Y-70542860D01*
X214436193Y-71542860D02*
X214007621Y-70971432D01*
X214436193Y-70542860D02*
X213864764Y-71114289D01*
X215293336Y-70542860D02*
X215102860Y-70542860D01*
X215007621Y-70590480D01*
X214960002Y-70638099D01*
X214864764Y-70780956D01*
X214817145Y-70971432D01*
X214817145Y-71352384D01*
X214864764Y-71447622D01*
X214912383Y-71495241D01*
X215007621Y-71542860D01*
X215198098Y-71542860D01*
X215293336Y-71495241D01*
X215340955Y-71447622D01*
X215388574Y-71352384D01*
X215388574Y-71114289D01*
X215340955Y-71019051D01*
X215293336Y-70971432D01*
X215198098Y-70923813D01*
X215007621Y-70923813D01*
X214912383Y-70971432D01*
X214864764Y-71019051D01*
X214817145Y-71114289D01*
X137188574Y-79162860D02*
X137188574Y-78162860D01*
X137760002Y-79162860D02*
X137331431Y-78591432D01*
X137760002Y-78162860D02*
X137188574Y-78734289D01*
X138712383Y-79162860D02*
X138140955Y-79162860D01*
X138426669Y-79162860D02*
X138426669Y-78162860D01*
X138331431Y-78305718D01*
X138236193Y-78400956D01*
X138140955Y-78448575D01*
X139093336Y-78258099D02*
X139140955Y-78210480D01*
X139236193Y-78162860D01*
X139474288Y-78162860D01*
X139569526Y-78210480D01*
X139617145Y-78258099D01*
X139664764Y-78353337D01*
X139664764Y-78448575D01*
X139617145Y-78591432D01*
X139045717Y-79162860D01*
X139664764Y-79162860D01*
X156238574Y-76622860D02*
X156238574Y-75622860D01*
X156810002Y-76622860D02*
X156381431Y-76051432D01*
X156810002Y-75622860D02*
X156238574Y-76194289D01*
X157762383Y-76622860D02*
X157190955Y-76622860D01*
X157476669Y-76622860D02*
X157476669Y-75622860D01*
X157381431Y-75765718D01*
X157286193Y-75860956D01*
X157190955Y-75908575D01*
X158095717Y-75622860D02*
X158714764Y-75622860D01*
X158381431Y-76003813D01*
X158524288Y-76003813D01*
X158619526Y-76051432D01*
X158667145Y-76099051D01*
X158714764Y-76194289D01*
X158714764Y-76432384D01*
X158667145Y-76527622D01*
X158619526Y-76575241D01*
X158524288Y-76622860D01*
X158238574Y-76622860D01*
X158143336Y-76575241D01*
X158095717Y-76527622D01*
X175288574Y-79162860D02*
X175288574Y-78162860D01*
X175860002Y-79162860D02*
X175431431Y-78591432D01*
X175860002Y-78162860D02*
X175288574Y-78734289D01*
X176812383Y-79162860D02*
X176240955Y-79162860D01*
X176526669Y-79162860D02*
X176526669Y-78162860D01*
X176431431Y-78305718D01*
X176336193Y-78400956D01*
X176240955Y-78448575D01*
X177669526Y-78496194D02*
X177669526Y-79162860D01*
X177431431Y-78115241D02*
X177193336Y-78829527D01*
X177812383Y-78829527D01*
X194338574Y-81067860D02*
X194338574Y-80067860D01*
X194910002Y-81067860D02*
X194481431Y-80496432D01*
X194910002Y-80067860D02*
X194338574Y-80639289D01*
X195862383Y-81067860D02*
X195290955Y-81067860D01*
X195576669Y-81067860D02*
X195576669Y-80067860D01*
X195481431Y-80210718D01*
X195386193Y-80305956D01*
X195290955Y-80353575D01*
X196767145Y-80067860D02*
X196290955Y-80067860D01*
X196243336Y-80544051D01*
X196290955Y-80496432D01*
X196386193Y-80448813D01*
X196624288Y-80448813D01*
X196719526Y-80496432D01*
X196767145Y-80544051D01*
X196814764Y-80639289D01*
X196814764Y-80877384D01*
X196767145Y-80972622D01*
X196719526Y-81020241D01*
X196624288Y-81067860D01*
X196386193Y-81067860D01*
X196290955Y-81020241D01*
X196243336Y-80972622D01*
X213388574Y-95672860D02*
X213388574Y-94672860D01*
X213960002Y-95672860D02*
X213531431Y-95101432D01*
X213960002Y-94672860D02*
X213388574Y-95244289D01*
X214912383Y-95672860D02*
X214340955Y-95672860D01*
X214626669Y-95672860D02*
X214626669Y-94672860D01*
X214531431Y-94815718D01*
X214436193Y-94910956D01*
X214340955Y-94958575D01*
X215769526Y-94672860D02*
X215579050Y-94672860D01*
X215483812Y-94720480D01*
X215436193Y-94768099D01*
X215340955Y-94910956D01*
X215293336Y-95101432D01*
X215293336Y-95482384D01*
X215340955Y-95577622D01*
X215388574Y-95625241D01*
X215483812Y-95672860D01*
X215674288Y-95672860D01*
X215769526Y-95625241D01*
X215817145Y-95577622D01*
X215864764Y-95482384D01*
X215864764Y-95244289D01*
X215817145Y-95149051D01*
X215769526Y-95101432D01*
X215674288Y-95053813D01*
X215483812Y-95053813D01*
X215388574Y-95101432D01*
X215340955Y-95149051D01*
X215293336Y-95244289D01*
X96548574Y-102657860D02*
X96548574Y-101657860D01*
X97120002Y-102657860D02*
X96691431Y-102086432D01*
X97120002Y-101657860D02*
X96548574Y-102229289D01*
X97500955Y-101753099D02*
X97548574Y-101705480D01*
X97643812Y-101657860D01*
X97881907Y-101657860D01*
X97977145Y-101705480D01*
X98024764Y-101753099D01*
X98072383Y-101848337D01*
X98072383Y-101943575D01*
X98024764Y-102086432D01*
X97453336Y-102657860D01*
X98072383Y-102657860D01*
X98691431Y-101657860D02*
X98786669Y-101657860D01*
X98881907Y-101705480D01*
X98929526Y-101753099D01*
X98977145Y-101848337D01*
X99024764Y-102038813D01*
X99024764Y-102276908D01*
X98977145Y-102467384D01*
X98929526Y-102562622D01*
X98881907Y-102610241D01*
X98786669Y-102657860D01*
X98691431Y-102657860D01*
X98596193Y-102610241D01*
X98548574Y-102562622D01*
X98500955Y-102467384D01*
X98453336Y-102276908D01*
X98453336Y-102038813D01*
X98500955Y-101848337D01*
X98548574Y-101753099D01*
X98596193Y-101705480D01*
X98691431Y-101657860D01*
X118138574Y-102657860D02*
X118138574Y-101657860D01*
X118710002Y-102657860D02*
X118281431Y-102086432D01*
X118710002Y-101657860D02*
X118138574Y-102229289D01*
X119090955Y-101753099D02*
X119138574Y-101705480D01*
X119233812Y-101657860D01*
X119471907Y-101657860D01*
X119567145Y-101705480D01*
X119614764Y-101753099D01*
X119662383Y-101848337D01*
X119662383Y-101943575D01*
X119614764Y-102086432D01*
X119043336Y-102657860D01*
X119662383Y-102657860D01*
X120614764Y-102657860D02*
X120043336Y-102657860D01*
X120329050Y-102657860D02*
X120329050Y-101657860D01*
X120233812Y-101800718D01*
X120138574Y-101895956D01*
X120043336Y-101943575D01*
X137188574Y-98212860D02*
X137188574Y-97212860D01*
X137760002Y-98212860D02*
X137331431Y-97641432D01*
X137760002Y-97212860D02*
X137188574Y-97784289D01*
X138140955Y-97308099D02*
X138188574Y-97260480D01*
X138283812Y-97212860D01*
X138521907Y-97212860D01*
X138617145Y-97260480D01*
X138664764Y-97308099D01*
X138712383Y-97403337D01*
X138712383Y-97498575D01*
X138664764Y-97641432D01*
X138093336Y-98212860D01*
X138712383Y-98212860D01*
X139093336Y-97308099D02*
X139140955Y-97260480D01*
X139236193Y-97212860D01*
X139474288Y-97212860D01*
X139569526Y-97260480D01*
X139617145Y-97308099D01*
X139664764Y-97403337D01*
X139664764Y-97498575D01*
X139617145Y-97641432D01*
X139045717Y-98212860D01*
X139664764Y-98212860D01*
X156238574Y-95672860D02*
X156238574Y-94672860D01*
X156810002Y-95672860D02*
X156381431Y-95101432D01*
X156810002Y-94672860D02*
X156238574Y-95244289D01*
X157190955Y-94768099D02*
X157238574Y-94720480D01*
X157333812Y-94672860D01*
X157571907Y-94672860D01*
X157667145Y-94720480D01*
X157714764Y-94768099D01*
X157762383Y-94863337D01*
X157762383Y-94958575D01*
X157714764Y-95101432D01*
X157143336Y-95672860D01*
X157762383Y-95672860D01*
X158095717Y-94672860D02*
X158714764Y-94672860D01*
X158381431Y-95053813D01*
X158524288Y-95053813D01*
X158619526Y-95101432D01*
X158667145Y-95149051D01*
X158714764Y-95244289D01*
X158714764Y-95482384D01*
X158667145Y-95577622D01*
X158619526Y-95625241D01*
X158524288Y-95672860D01*
X158238574Y-95672860D01*
X158143336Y-95625241D01*
X158095717Y-95577622D01*
X175288574Y-98212860D02*
X175288574Y-97212860D01*
X175860002Y-98212860D02*
X175431431Y-97641432D01*
X175860002Y-97212860D02*
X175288574Y-97784289D01*
X176240955Y-97308099D02*
X176288574Y-97260480D01*
X176383812Y-97212860D01*
X176621907Y-97212860D01*
X176717145Y-97260480D01*
X176764764Y-97308099D01*
X176812383Y-97403337D01*
X176812383Y-97498575D01*
X176764764Y-97641432D01*
X176193336Y-98212860D01*
X176812383Y-98212860D01*
X177669526Y-97546194D02*
X177669526Y-98212860D01*
X177431431Y-97165241D02*
X177193336Y-97879527D01*
X177812383Y-97879527D01*
X194338574Y-100117860D02*
X194338574Y-99117860D01*
X194910002Y-100117860D02*
X194481431Y-99546432D01*
X194910002Y-99117860D02*
X194338574Y-99689289D01*
X195290955Y-99213099D02*
X195338574Y-99165480D01*
X195433812Y-99117860D01*
X195671907Y-99117860D01*
X195767145Y-99165480D01*
X195814764Y-99213099D01*
X195862383Y-99308337D01*
X195862383Y-99403575D01*
X195814764Y-99546432D01*
X195243336Y-100117860D01*
X195862383Y-100117860D01*
X196767145Y-99117860D02*
X196290955Y-99117860D01*
X196243336Y-99594051D01*
X196290955Y-99546432D01*
X196386193Y-99498813D01*
X196624288Y-99498813D01*
X196719526Y-99546432D01*
X196767145Y-99594051D01*
X196814764Y-99689289D01*
X196814764Y-99927384D01*
X196767145Y-100022622D01*
X196719526Y-100070241D01*
X196624288Y-100117860D01*
X196386193Y-100117860D01*
X196290955Y-100070241D01*
X196243336Y-100022622D01*
X220146612Y-128779183D02*
X219646612Y-129645208D01*
X219651741Y-128493469D02*
X219737180Y-129202626D01*
X219151741Y-129359494D02*
X219932327Y-129150337D01*
X218869445Y-129086539D02*
X218804396Y-129103969D01*
X218698108Y-129097589D01*
X218491912Y-128978542D01*
X218433243Y-128889683D01*
X218415813Y-128824635D01*
X218422193Y-128718346D01*
X218469812Y-128635868D01*
X218582480Y-128535959D01*
X219363065Y-128326802D01*
X218826954Y-128017278D01*
X217584647Y-128454732D02*
X217749604Y-128549970D01*
X217855892Y-128556350D01*
X217920941Y-128538920D01*
X218074848Y-128462821D01*
X218211326Y-128321674D01*
X218401802Y-127991759D01*
X218408182Y-127885471D01*
X218390752Y-127820422D01*
X218332083Y-127731564D01*
X218167126Y-127636326D01*
X218060837Y-127629946D01*
X217995789Y-127647376D01*
X217906930Y-127706045D01*
X217787883Y-127912241D01*
X217781503Y-128018530D01*
X217798933Y-128083578D01*
X217857602Y-128172437D01*
X218022559Y-128267675D01*
X218128847Y-128274055D01*
X218193896Y-128256625D01*
X218282754Y-128197956D01*
X94685714Y-121512380D02*
X94685714Y-120512380D01*
X95257142Y-121512380D02*
X94828571Y-120940952D01*
X95257142Y-120512380D02*
X94685714Y-121083809D01*
X95590476Y-120512380D02*
X96209523Y-120512380D01*
X95876190Y-120893333D01*
X96019047Y-120893333D01*
X96114285Y-120940952D01*
X96161904Y-120988571D01*
X96209523Y-121083809D01*
X96209523Y-121321904D01*
X96161904Y-121417142D01*
X96114285Y-121464761D01*
X96019047Y-121512380D01*
X95733333Y-121512380D01*
X95638095Y-121464761D01*
X95590476Y-121417142D01*
X96828571Y-120512380D02*
X96923809Y-120512380D01*
X97019047Y-120560000D01*
X97066666Y-120607619D01*
X97114285Y-120702857D01*
X97161904Y-120893333D01*
X97161904Y-121131428D01*
X97114285Y-121321904D01*
X97066666Y-121417142D01*
X97019047Y-121464761D01*
X96923809Y-121512380D01*
X96828571Y-121512380D01*
X96733333Y-121464761D01*
X96685714Y-121417142D01*
X96638095Y-121321904D01*
X96590476Y-121131428D01*
X96590476Y-120893333D01*
X96638095Y-120702857D01*
X96685714Y-120607619D01*
X96733333Y-120560000D01*
X96828571Y-120512380D01*
X118138574Y-121707860D02*
X118138574Y-120707860D01*
X118710002Y-121707860D02*
X118281431Y-121136432D01*
X118710002Y-120707860D02*
X118138574Y-121279289D01*
X119043336Y-120707860D02*
X119662383Y-120707860D01*
X119329050Y-121088813D01*
X119471907Y-121088813D01*
X119567145Y-121136432D01*
X119614764Y-121184051D01*
X119662383Y-121279289D01*
X119662383Y-121517384D01*
X119614764Y-121612622D01*
X119567145Y-121660241D01*
X119471907Y-121707860D01*
X119186193Y-121707860D01*
X119090955Y-121660241D01*
X119043336Y-121612622D01*
X120614764Y-121707860D02*
X120043336Y-121707860D01*
X120329050Y-121707860D02*
X120329050Y-120707860D01*
X120233812Y-120850718D01*
X120138574Y-120945956D01*
X120043336Y-120993575D01*
X137188574Y-117262860D02*
X137188574Y-116262860D01*
X137760002Y-117262860D02*
X137331431Y-116691432D01*
X137760002Y-116262860D02*
X137188574Y-116834289D01*
X138093336Y-116262860D02*
X138712383Y-116262860D01*
X138379050Y-116643813D01*
X138521907Y-116643813D01*
X138617145Y-116691432D01*
X138664764Y-116739051D01*
X138712383Y-116834289D01*
X138712383Y-117072384D01*
X138664764Y-117167622D01*
X138617145Y-117215241D01*
X138521907Y-117262860D01*
X138236193Y-117262860D01*
X138140955Y-117215241D01*
X138093336Y-117167622D01*
X139093336Y-116358099D02*
X139140955Y-116310480D01*
X139236193Y-116262860D01*
X139474288Y-116262860D01*
X139569526Y-116310480D01*
X139617145Y-116358099D01*
X139664764Y-116453337D01*
X139664764Y-116548575D01*
X139617145Y-116691432D01*
X139045717Y-117262860D01*
X139664764Y-117262860D01*
X156238574Y-114722860D02*
X156238574Y-113722860D01*
X156810002Y-114722860D02*
X156381431Y-114151432D01*
X156810002Y-113722860D02*
X156238574Y-114294289D01*
X157143336Y-113722860D02*
X157762383Y-113722860D01*
X157429050Y-114103813D01*
X157571907Y-114103813D01*
X157667145Y-114151432D01*
X157714764Y-114199051D01*
X157762383Y-114294289D01*
X157762383Y-114532384D01*
X157714764Y-114627622D01*
X157667145Y-114675241D01*
X157571907Y-114722860D01*
X157286193Y-114722860D01*
X157190955Y-114675241D01*
X157143336Y-114627622D01*
X158095717Y-113722860D02*
X158714764Y-113722860D01*
X158381431Y-114103813D01*
X158524288Y-114103813D01*
X158619526Y-114151432D01*
X158667145Y-114199051D01*
X158714764Y-114294289D01*
X158714764Y-114532384D01*
X158667145Y-114627622D01*
X158619526Y-114675241D01*
X158524288Y-114722860D01*
X158238574Y-114722860D01*
X158143336Y-114675241D01*
X158095717Y-114627622D01*
X175288574Y-117262860D02*
X175288574Y-116262860D01*
X175860002Y-117262860D02*
X175431431Y-116691432D01*
X175860002Y-116262860D02*
X175288574Y-116834289D01*
X176193336Y-116262860D02*
X176812383Y-116262860D01*
X176479050Y-116643813D01*
X176621907Y-116643813D01*
X176717145Y-116691432D01*
X176764764Y-116739051D01*
X176812383Y-116834289D01*
X176812383Y-117072384D01*
X176764764Y-117167622D01*
X176717145Y-117215241D01*
X176621907Y-117262860D01*
X176336193Y-117262860D01*
X176240955Y-117215241D01*
X176193336Y-117167622D01*
X177669526Y-116596194D02*
X177669526Y-117262860D01*
X177431431Y-116215241D02*
X177193336Y-116929527D01*
X177812383Y-116929527D01*
X194338574Y-119167860D02*
X194338574Y-118167860D01*
X194910002Y-119167860D02*
X194481431Y-118596432D01*
X194910002Y-118167860D02*
X194338574Y-118739289D01*
X195243336Y-118167860D02*
X195862383Y-118167860D01*
X195529050Y-118548813D01*
X195671907Y-118548813D01*
X195767145Y-118596432D01*
X195814764Y-118644051D01*
X195862383Y-118739289D01*
X195862383Y-118977384D01*
X195814764Y-119072622D01*
X195767145Y-119120241D01*
X195671907Y-119167860D01*
X195386193Y-119167860D01*
X195290955Y-119120241D01*
X195243336Y-119072622D01*
X196767145Y-118167860D02*
X196290955Y-118167860D01*
X196243336Y-118644051D01*
X196290955Y-118596432D01*
X196386193Y-118548813D01*
X196624288Y-118548813D01*
X196719526Y-118596432D01*
X196767145Y-118644051D01*
X196814764Y-118739289D01*
X196814764Y-118977384D01*
X196767145Y-119072622D01*
X196719526Y-119120241D01*
X196624288Y-119167860D01*
X196386193Y-119167860D01*
X196290955Y-119120241D01*
X196243336Y-119072622D01*
X236656612Y-138304183D02*
X236156612Y-139170208D01*
X236161741Y-138018469D02*
X236247180Y-138727626D01*
X235661741Y-138884494D02*
X236442327Y-138675337D01*
X235373065Y-138717827D02*
X234836954Y-138408304D01*
X235316106Y-138245056D01*
X235192388Y-138173627D01*
X235133719Y-138084769D01*
X235116289Y-138019720D01*
X235122669Y-137913432D01*
X235241716Y-137707235D01*
X235330575Y-137648566D01*
X235395624Y-137631137D01*
X235501912Y-137637516D01*
X235749348Y-137780373D01*
X235808017Y-137869232D01*
X235825446Y-137934281D01*
X234094647Y-137979732D02*
X234259604Y-138074970D01*
X234365892Y-138081350D01*
X234430941Y-138063920D01*
X234584848Y-137987821D01*
X234721326Y-137846674D01*
X234911802Y-137516759D01*
X234918182Y-137410471D01*
X234900752Y-137345422D01*
X234842083Y-137256564D01*
X234677126Y-137161326D01*
X234570837Y-137154946D01*
X234505789Y-137172376D01*
X234416930Y-137231045D01*
X234297883Y-137437241D01*
X234291503Y-137543530D01*
X234308933Y-137608578D01*
X234367602Y-137697437D01*
X234532559Y-137792675D01*
X234638847Y-137799055D01*
X234703896Y-137781625D01*
X234792754Y-137722956D01*
X99088574Y-140757860D02*
X99088574Y-139757860D01*
X99660002Y-140757860D02*
X99231431Y-140186432D01*
X99660002Y-139757860D02*
X99088574Y-140329289D01*
X100517145Y-140091194D02*
X100517145Y-140757860D01*
X100279050Y-139710241D02*
X100040955Y-140424527D01*
X100660002Y-140424527D01*
X101231431Y-139757860D02*
X101326669Y-139757860D01*
X101421907Y-139805480D01*
X101469526Y-139853099D01*
X101517145Y-139948337D01*
X101564764Y-140138813D01*
X101564764Y-140376908D01*
X101517145Y-140567384D01*
X101469526Y-140662622D01*
X101421907Y-140710241D01*
X101326669Y-140757860D01*
X101231431Y-140757860D01*
X101136193Y-140710241D01*
X101088574Y-140662622D01*
X101040955Y-140567384D01*
X100993336Y-140376908D01*
X100993336Y-140138813D01*
X101040955Y-139948337D01*
X101088574Y-139853099D01*
X101136193Y-139805480D01*
X101231431Y-139757860D01*
X118138574Y-140757860D02*
X118138574Y-139757860D01*
X118710002Y-140757860D02*
X118281431Y-140186432D01*
X118710002Y-139757860D02*
X118138574Y-140329289D01*
X119567145Y-140091194D02*
X119567145Y-140757860D01*
X119329050Y-139710241D02*
X119090955Y-140424527D01*
X119710002Y-140424527D01*
X120614764Y-140757860D02*
X120043336Y-140757860D01*
X120329050Y-140757860D02*
X120329050Y-139757860D01*
X120233812Y-139900718D01*
X120138574Y-139995956D01*
X120043336Y-140043575D01*
X137188574Y-136312860D02*
X137188574Y-135312860D01*
X137760002Y-136312860D02*
X137331431Y-135741432D01*
X137760002Y-135312860D02*
X137188574Y-135884289D01*
X138617145Y-135646194D02*
X138617145Y-136312860D01*
X138379050Y-135265241D02*
X138140955Y-135979527D01*
X138760002Y-135979527D01*
X139093336Y-135408099D02*
X139140955Y-135360480D01*
X139236193Y-135312860D01*
X139474288Y-135312860D01*
X139569526Y-135360480D01*
X139617145Y-135408099D01*
X139664764Y-135503337D01*
X139664764Y-135598575D01*
X139617145Y-135741432D01*
X139045717Y-136312860D01*
X139664764Y-136312860D01*
X156238574Y-133772860D02*
X156238574Y-132772860D01*
X156810002Y-133772860D02*
X156381431Y-133201432D01*
X156810002Y-132772860D02*
X156238574Y-133344289D01*
X157667145Y-133106194D02*
X157667145Y-133772860D01*
X157429050Y-132725241D02*
X157190955Y-133439527D01*
X157810002Y-133439527D01*
X158095717Y-132772860D02*
X158714764Y-132772860D01*
X158381431Y-133153813D01*
X158524288Y-133153813D01*
X158619526Y-133201432D01*
X158667145Y-133249051D01*
X158714764Y-133344289D01*
X158714764Y-133582384D01*
X158667145Y-133677622D01*
X158619526Y-133725241D01*
X158524288Y-133772860D01*
X158238574Y-133772860D01*
X158143336Y-133725241D01*
X158095717Y-133677622D01*
X184601116Y-140631946D02*
X184342297Y-141597872D01*
X184049159Y-140484050D02*
X184315230Y-141146930D01*
X183790340Y-141449976D02*
X184490194Y-141045915D01*
X183048676Y-140906155D02*
X183221222Y-140262205D01*
X183180061Y-141335751D02*
X183594914Y-140707427D01*
X182996960Y-140547206D01*
X182128747Y-140659661D02*
X182301293Y-140015711D01*
X182260131Y-141089256D02*
X182674985Y-140460933D01*
X182077030Y-140300712D01*
X208081612Y-149734183D02*
X207581612Y-150600208D01*
X207586741Y-149448469D02*
X207672180Y-150157626D01*
X207086741Y-150314494D02*
X207867327Y-150105337D01*
X206511100Y-149597248D02*
X206844433Y-149019897D01*
X206526820Y-150046210D02*
X207090159Y-149546668D01*
X206554049Y-149237144D01*
X205478408Y-149385923D02*
X205890801Y-149624018D01*
X206170135Y-149235434D01*
X206105086Y-149252864D01*
X205998798Y-149246484D01*
X205792602Y-149127437D01*
X205733933Y-149038578D01*
X205716503Y-148973530D01*
X205722883Y-148867241D01*
X205841930Y-148661045D01*
X205930789Y-148602376D01*
X205995837Y-148584946D01*
X206102126Y-148591326D01*
X206308322Y-148710373D01*
X206366991Y-148799232D01*
X206384421Y-148864281D01*
X224591612Y-159259183D02*
X224091612Y-160125208D01*
X224096741Y-158973469D02*
X224182180Y-159682626D01*
X223596741Y-159839494D02*
X224377327Y-159630337D01*
X223021100Y-159122248D02*
X223354433Y-158544897D01*
X223036820Y-159571210D02*
X223600159Y-159071668D01*
X223064049Y-158762144D01*
X222029647Y-158934732D02*
X222194604Y-159029970D01*
X222300892Y-159036350D01*
X222365941Y-159018920D01*
X222519848Y-158942821D01*
X222656326Y-158801674D01*
X222846802Y-158471759D01*
X222853182Y-158365471D01*
X222835752Y-158300422D01*
X222777083Y-158211564D01*
X222612126Y-158116326D01*
X222505837Y-158109946D01*
X222440789Y-158127376D01*
X222351930Y-158186045D01*
X222232883Y-158392241D01*
X222226503Y-158498530D01*
X222243933Y-158563578D01*
X222302602Y-158652437D01*
X222467559Y-158747675D01*
X222573847Y-158754055D01*
X222638896Y-158736625D01*
X222727754Y-158677956D01*
X94735714Y-83412380D02*
X94735714Y-82412380D01*
X95307142Y-83412380D02*
X94878571Y-82840952D01*
X95307142Y-82412380D02*
X94735714Y-82983809D01*
X96259523Y-83412380D02*
X95688095Y-83412380D01*
X95973809Y-83412380D02*
X95973809Y-82412380D01*
X95878571Y-82555238D01*
X95783333Y-82650476D01*
X95688095Y-82698095D01*
X96878571Y-82412380D02*
X96973809Y-82412380D01*
X97069047Y-82460000D01*
X97116666Y-82507619D01*
X97164285Y-82602857D01*
X97211904Y-82793333D01*
X97211904Y-83031428D01*
X97164285Y-83221904D01*
X97116666Y-83317142D01*
X97069047Y-83364761D01*
X96973809Y-83412380D01*
X96878571Y-83412380D01*
X96783333Y-83364761D01*
X96735714Y-83317142D01*
X96688095Y-83221904D01*
X96640476Y-83031428D01*
X96640476Y-82793333D01*
X96688095Y-82602857D01*
X96735714Y-82507619D01*
X96783333Y-82460000D01*
X96878571Y-82412380D01*
X118138574Y-83607860D02*
X118138574Y-82607860D01*
X118710002Y-83607860D02*
X118281431Y-83036432D01*
X118710002Y-82607860D02*
X118138574Y-83179289D01*
X119662383Y-83607860D02*
X119090955Y-83607860D01*
X119376669Y-83607860D02*
X119376669Y-82607860D01*
X119281431Y-82750718D01*
X119186193Y-82845956D01*
X119090955Y-82893575D01*
X120614764Y-83607860D02*
X120043336Y-83607860D01*
X120329050Y-83607860D02*
X120329050Y-82607860D01*
X120233812Y-82750718D01*
X120138574Y-82845956D01*
X120043336Y-82893575D01*
X206712233Y-138062295D02*
X206312233Y-138755115D01*
X206147275Y-138659877D01*
X206067349Y-138569743D01*
X206039461Y-138465665D01*
X206044565Y-138380634D01*
X206087764Y-138229621D01*
X206144907Y-138130647D01*
X206254089Y-138017728D01*
X206325175Y-137970793D01*
X206429254Y-137942906D01*
X206547275Y-137967057D01*
X206712233Y-138062295D01*
X205455823Y-137952747D02*
X205722489Y-137490866D01*
X205468399Y-138311916D02*
X205919070Y-137912283D01*
X205490182Y-137664664D01*
X204629669Y-137783687D02*
X204959583Y-137974163D01*
X205183051Y-137663296D01*
X205131012Y-137677240D01*
X205045982Y-137672136D01*
X204881024Y-137576898D01*
X204834089Y-137505811D01*
X204820145Y-137453772D01*
X204825249Y-137368742D01*
X204920487Y-137203785D01*
X204991574Y-137156849D01*
X205043613Y-137142906D01*
X205128643Y-137148009D01*
X205293601Y-137243247D01*
X205340536Y-137314334D01*
X205354480Y-137366373D01*
X180749398Y-131909339D02*
X180542343Y-132682079D01*
X180358357Y-132632780D01*
X180257825Y-132566404D01*
X180203951Y-132473090D01*
X180186873Y-132389636D01*
X180189515Y-132232587D01*
X180219094Y-132122196D01*
X180295331Y-131984867D01*
X180351847Y-131921132D01*
X180445161Y-131867258D01*
X180565412Y-131860040D01*
X180749398Y-131909339D01*
X179507446Y-132128706D02*
X179645483Y-131613545D01*
X179612554Y-132472382D02*
X179944436Y-131969723D01*
X179466073Y-131841546D01*
X178771503Y-131931510D02*
X178909540Y-131416350D01*
X178876610Y-132275187D02*
X179208493Y-131772528D01*
X178730130Y-131644351D01*
X150128571Y-129401904D02*
X150128571Y-128601904D01*
X150319047Y-128601904D01*
X150433333Y-128640000D01*
X150509523Y-128716190D01*
X150547619Y-128792380D01*
X150585714Y-128944761D01*
X150585714Y-129059047D01*
X150547619Y-129211428D01*
X150509523Y-129287619D01*
X150433333Y-129363809D01*
X150319047Y-129401904D01*
X150128571Y-129401904D01*
X151271428Y-128868571D02*
X151271428Y-129401904D01*
X151080952Y-128563809D02*
X150890476Y-129135238D01*
X151385714Y-129135238D01*
X151614285Y-128601904D02*
X152109523Y-128601904D01*
X151842857Y-128906666D01*
X151957142Y-128906666D01*
X152033333Y-128944761D01*
X152071428Y-128982857D01*
X152109523Y-129059047D01*
X152109523Y-129249523D01*
X152071428Y-129325714D01*
X152033333Y-129363809D01*
X151957142Y-129401904D01*
X151728571Y-129401904D01*
X151652380Y-129363809D01*
X151614285Y-129325714D01*
X131158571Y-132031904D02*
X131158571Y-131231904D01*
X131349047Y-131231904D01*
X131463333Y-131270000D01*
X131539523Y-131346190D01*
X131577619Y-131422380D01*
X131615714Y-131574761D01*
X131615714Y-131689047D01*
X131577619Y-131841428D01*
X131539523Y-131917619D01*
X131463333Y-131993809D01*
X131349047Y-132031904D01*
X131158571Y-132031904D01*
X132301428Y-131498571D02*
X132301428Y-132031904D01*
X132110952Y-131193809D02*
X131920476Y-131765238D01*
X132415714Y-131765238D01*
X132682380Y-131308095D02*
X132720476Y-131270000D01*
X132796666Y-131231904D01*
X132987142Y-131231904D01*
X133063333Y-131270000D01*
X133101428Y-131308095D01*
X133139523Y-131384285D01*
X133139523Y-131460476D01*
X133101428Y-131574761D01*
X132644285Y-132031904D01*
X133139523Y-132031904D01*
X112188571Y-136241904D02*
X112188571Y-135441904D01*
X112379047Y-135441904D01*
X112493333Y-135480000D01*
X112569523Y-135556190D01*
X112607619Y-135632380D01*
X112645714Y-135784761D01*
X112645714Y-135899047D01*
X112607619Y-136051428D01*
X112569523Y-136127619D01*
X112493333Y-136203809D01*
X112379047Y-136241904D01*
X112188571Y-136241904D01*
X113331428Y-135708571D02*
X113331428Y-136241904D01*
X113140952Y-135403809D02*
X112950476Y-135975238D01*
X113445714Y-135975238D01*
X114169523Y-136241904D02*
X113712380Y-136241904D01*
X113940952Y-136241904D02*
X113940952Y-135441904D01*
X113864761Y-135556190D01*
X113788571Y-135632380D01*
X113712380Y-135670476D01*
X169238571Y-107556904D02*
X169238571Y-106756904D01*
X169429047Y-106756904D01*
X169543333Y-106795000D01*
X169619523Y-106871190D01*
X169657619Y-106947380D01*
X169695714Y-107099761D01*
X169695714Y-107214047D01*
X169657619Y-107366428D01*
X169619523Y-107442619D01*
X169543333Y-107518809D01*
X169429047Y-107556904D01*
X169238571Y-107556904D01*
X170000476Y-106833095D02*
X170038571Y-106795000D01*
X170114761Y-106756904D01*
X170305238Y-106756904D01*
X170381428Y-106795000D01*
X170419523Y-106833095D01*
X170457619Y-106909285D01*
X170457619Y-106985476D01*
X170419523Y-107099761D01*
X169962380Y-107556904D01*
X170457619Y-107556904D01*
X171143333Y-107023571D02*
X171143333Y-107556904D01*
X170952857Y-106718809D02*
X170762380Y-107290238D01*
X171257619Y-107290238D01*
X90879523Y-73901904D02*
X90879523Y-73101904D01*
X91070000Y-73101904D01*
X91184285Y-73140000D01*
X91260476Y-73216190D01*
X91298571Y-73292380D01*
X91336666Y-73444761D01*
X91336666Y-73559047D01*
X91298571Y-73711428D01*
X91260476Y-73787619D01*
X91184285Y-73863809D01*
X91070000Y-73901904D01*
X90879523Y-73901904D01*
X91831904Y-73101904D02*
X91908095Y-73101904D01*
X91984285Y-73140000D01*
X92022380Y-73178095D01*
X92060476Y-73254285D01*
X92098571Y-73406666D01*
X92098571Y-73597142D01*
X92060476Y-73749523D01*
X92022380Y-73825714D01*
X91984285Y-73863809D01*
X91908095Y-73901904D01*
X91831904Y-73901904D01*
X91755714Y-73863809D01*
X91717619Y-73825714D01*
X91679523Y-73749523D01*
X91641428Y-73597142D01*
X91641428Y-73406666D01*
X91679523Y-73254285D01*
X91717619Y-73178095D01*
X91755714Y-73140000D01*
X91831904Y-73101904D01*
X169619523Y-69456904D02*
X169619523Y-68656904D01*
X169810000Y-68656904D01*
X169924285Y-68695000D01*
X170000476Y-68771190D01*
X170038571Y-68847380D01*
X170076666Y-68999761D01*
X170076666Y-69114047D01*
X170038571Y-69266428D01*
X170000476Y-69342619D01*
X169924285Y-69418809D01*
X169810000Y-69456904D01*
X169619523Y-69456904D01*
X170762380Y-68923571D02*
X170762380Y-69456904D01*
X170571904Y-68618809D02*
X170381428Y-69190238D01*
X170876666Y-69190238D01*
X112088571Y-92951904D02*
X112088571Y-92151904D01*
X112279047Y-92151904D01*
X112393333Y-92190000D01*
X112469523Y-92266190D01*
X112507619Y-92342380D01*
X112545714Y-92494761D01*
X112545714Y-92609047D01*
X112507619Y-92761428D01*
X112469523Y-92837619D01*
X112393333Y-92913809D01*
X112279047Y-92951904D01*
X112088571Y-92951904D01*
X113307619Y-92951904D02*
X112850476Y-92951904D01*
X113079047Y-92951904D02*
X113079047Y-92151904D01*
X113002857Y-92266190D01*
X112926666Y-92342380D01*
X112850476Y-92380476D01*
X114069523Y-92951904D02*
X113612380Y-92951904D01*
X113840952Y-92951904D02*
X113840952Y-92151904D01*
X113764761Y-92266190D01*
X113688571Y-92342380D01*
X113612380Y-92380476D01*
X131519523Y-69456904D02*
X131519523Y-68656904D01*
X131710000Y-68656904D01*
X131824285Y-68695000D01*
X131900476Y-68771190D01*
X131938571Y-68847380D01*
X131976666Y-68999761D01*
X131976666Y-69114047D01*
X131938571Y-69266428D01*
X131900476Y-69342619D01*
X131824285Y-69418809D01*
X131710000Y-69456904D01*
X131519523Y-69456904D01*
X132281428Y-68733095D02*
X132319523Y-68695000D01*
X132395714Y-68656904D01*
X132586190Y-68656904D01*
X132662380Y-68695000D01*
X132700476Y-68733095D01*
X132738571Y-68809285D01*
X132738571Y-68885476D01*
X132700476Y-68999761D01*
X132243333Y-69456904D01*
X132738571Y-69456904D01*
X207338571Y-105651904D02*
X207338571Y-104851904D01*
X207529047Y-104851904D01*
X207643333Y-104890000D01*
X207719523Y-104966190D01*
X207757619Y-105042380D01*
X207795714Y-105194761D01*
X207795714Y-105309047D01*
X207757619Y-105461428D01*
X207719523Y-105537619D01*
X207643333Y-105613809D01*
X207529047Y-105651904D01*
X207338571Y-105651904D01*
X208557619Y-105651904D02*
X208100476Y-105651904D01*
X208329047Y-105651904D02*
X208329047Y-104851904D01*
X208252857Y-104966190D01*
X208176666Y-105042380D01*
X208100476Y-105080476D01*
X209243333Y-104851904D02*
X209090952Y-104851904D01*
X209014761Y-104890000D01*
X208976666Y-104928095D01*
X208900476Y-105042380D01*
X208862380Y-105194761D01*
X208862380Y-105499523D01*
X208900476Y-105575714D01*
X208938571Y-105613809D01*
X209014761Y-105651904D01*
X209167142Y-105651904D01*
X209243333Y-105613809D01*
X209281428Y-105575714D01*
X209319523Y-105499523D01*
X209319523Y-105309047D01*
X209281428Y-105232857D01*
X209243333Y-105194761D01*
X209167142Y-105156666D01*
X209014761Y-105156666D01*
X208938571Y-105194761D01*
X208900476Y-105232857D01*
X208862380Y-105309047D01*
X169238571Y-88506904D02*
X169238571Y-87706904D01*
X169429047Y-87706904D01*
X169543333Y-87745000D01*
X169619523Y-87821190D01*
X169657619Y-87897380D01*
X169695714Y-88049761D01*
X169695714Y-88164047D01*
X169657619Y-88316428D01*
X169619523Y-88392619D01*
X169543333Y-88468809D01*
X169429047Y-88506904D01*
X169238571Y-88506904D01*
X170457619Y-88506904D02*
X170000476Y-88506904D01*
X170229047Y-88506904D02*
X170229047Y-87706904D01*
X170152857Y-87821190D01*
X170076666Y-87897380D01*
X170000476Y-87935476D01*
X171143333Y-87973571D02*
X171143333Y-88506904D01*
X170952857Y-87668809D02*
X170762380Y-88240238D01*
X171257619Y-88240238D01*
X90498571Y-112001904D02*
X90498571Y-111201904D01*
X90689047Y-111201904D01*
X90803333Y-111240000D01*
X90879523Y-111316190D01*
X90917619Y-111392380D01*
X90955714Y-111544761D01*
X90955714Y-111659047D01*
X90917619Y-111811428D01*
X90879523Y-111887619D01*
X90803333Y-111963809D01*
X90689047Y-112001904D01*
X90498571Y-112001904D01*
X91260476Y-111278095D02*
X91298571Y-111240000D01*
X91374761Y-111201904D01*
X91565238Y-111201904D01*
X91641428Y-111240000D01*
X91679523Y-111278095D01*
X91717619Y-111354285D01*
X91717619Y-111430476D01*
X91679523Y-111544761D01*
X91222380Y-112001904D01*
X91717619Y-112001904D01*
X92212857Y-111201904D02*
X92289047Y-111201904D01*
X92365238Y-111240000D01*
X92403333Y-111278095D01*
X92441428Y-111354285D01*
X92479523Y-111506666D01*
X92479523Y-111697142D01*
X92441428Y-111849523D01*
X92403333Y-111925714D01*
X92365238Y-111963809D01*
X92289047Y-112001904D01*
X92212857Y-112001904D01*
X92136666Y-111963809D01*
X92098571Y-111925714D01*
X92060476Y-111849523D01*
X92022380Y-111697142D01*
X92022380Y-111506666D01*
X92060476Y-111354285D01*
X92098571Y-111278095D01*
X92136666Y-111240000D01*
X92212857Y-111201904D01*
X112469523Y-73901904D02*
X112469523Y-73101904D01*
X112660000Y-73101904D01*
X112774285Y-73140000D01*
X112850476Y-73216190D01*
X112888571Y-73292380D01*
X112926666Y-73444761D01*
X112926666Y-73559047D01*
X112888571Y-73711428D01*
X112850476Y-73787619D01*
X112774285Y-73863809D01*
X112660000Y-73901904D01*
X112469523Y-73901904D01*
X113688571Y-73901904D02*
X113231428Y-73901904D01*
X113460000Y-73901904D02*
X113460000Y-73101904D01*
X113383809Y-73216190D01*
X113307619Y-73292380D01*
X113231428Y-73330476D01*
X150188571Y-85966904D02*
X150188571Y-85166904D01*
X150379047Y-85166904D01*
X150493333Y-85205000D01*
X150569523Y-85281190D01*
X150607619Y-85357380D01*
X150645714Y-85509761D01*
X150645714Y-85624047D01*
X150607619Y-85776428D01*
X150569523Y-85852619D01*
X150493333Y-85928809D01*
X150379047Y-85966904D01*
X150188571Y-85966904D01*
X151407619Y-85966904D02*
X150950476Y-85966904D01*
X151179047Y-85966904D02*
X151179047Y-85166904D01*
X151102857Y-85281190D01*
X151026666Y-85357380D01*
X150950476Y-85395476D01*
X151674285Y-85166904D02*
X152169523Y-85166904D01*
X151902857Y-85471666D01*
X152017142Y-85471666D01*
X152093333Y-85509761D01*
X152131428Y-85547857D01*
X152169523Y-85624047D01*
X152169523Y-85814523D01*
X152131428Y-85890714D01*
X152093333Y-85928809D01*
X152017142Y-85966904D01*
X151788571Y-85966904D01*
X151712380Y-85928809D01*
X151674285Y-85890714D01*
X179761904Y-62770476D02*
X178961904Y-62770476D01*
X178961904Y-62580000D01*
X179000000Y-62465714D01*
X179076190Y-62389523D01*
X179152380Y-62351428D01*
X179304761Y-62313333D01*
X179419047Y-62313333D01*
X179571428Y-62351428D01*
X179647619Y-62389523D01*
X179723809Y-62465714D01*
X179761904Y-62580000D01*
X179761904Y-62770476D01*
X178961904Y-61589523D02*
X178961904Y-61970476D01*
X179342857Y-62008571D01*
X179304761Y-61970476D01*
X179266666Y-61894285D01*
X179266666Y-61703809D01*
X179304761Y-61627619D01*
X179342857Y-61589523D01*
X179419047Y-61551428D01*
X179609523Y-61551428D01*
X179685714Y-61589523D01*
X179723809Y-61627619D01*
X179761904Y-61703809D01*
X179761904Y-61894285D01*
X179723809Y-61970476D01*
X179685714Y-62008571D01*
X150188571Y-105016904D02*
X150188571Y-104216904D01*
X150379047Y-104216904D01*
X150493333Y-104255000D01*
X150569523Y-104331190D01*
X150607619Y-104407380D01*
X150645714Y-104559761D01*
X150645714Y-104674047D01*
X150607619Y-104826428D01*
X150569523Y-104902619D01*
X150493333Y-104978809D01*
X150379047Y-105016904D01*
X150188571Y-105016904D01*
X150950476Y-104293095D02*
X150988571Y-104255000D01*
X151064761Y-104216904D01*
X151255238Y-104216904D01*
X151331428Y-104255000D01*
X151369523Y-104293095D01*
X151407619Y-104369285D01*
X151407619Y-104445476D01*
X151369523Y-104559761D01*
X150912380Y-105016904D01*
X151407619Y-105016904D01*
X151674285Y-104216904D02*
X152169523Y-104216904D01*
X151902857Y-104521666D01*
X152017142Y-104521666D01*
X152093333Y-104559761D01*
X152131428Y-104597857D01*
X152169523Y-104674047D01*
X152169523Y-104864523D01*
X152131428Y-104940714D01*
X152093333Y-104978809D01*
X152017142Y-105016904D01*
X151788571Y-105016904D01*
X151712380Y-104978809D01*
X151674285Y-104940714D01*
X150188571Y-124066904D02*
X150188571Y-123266904D01*
X150379047Y-123266904D01*
X150493333Y-123305000D01*
X150569523Y-123381190D01*
X150607619Y-123457380D01*
X150645714Y-123609761D01*
X150645714Y-123724047D01*
X150607619Y-123876428D01*
X150569523Y-123952619D01*
X150493333Y-124028809D01*
X150379047Y-124066904D01*
X150188571Y-124066904D01*
X150912380Y-123266904D02*
X151407619Y-123266904D01*
X151140952Y-123571666D01*
X151255238Y-123571666D01*
X151331428Y-123609761D01*
X151369523Y-123647857D01*
X151407619Y-123724047D01*
X151407619Y-123914523D01*
X151369523Y-123990714D01*
X151331428Y-124028809D01*
X151255238Y-124066904D01*
X151026666Y-124066904D01*
X150950476Y-124028809D01*
X150912380Y-123990714D01*
X151674285Y-123266904D02*
X152169523Y-123266904D01*
X151902857Y-123571666D01*
X152017142Y-123571666D01*
X152093333Y-123609761D01*
X152131428Y-123647857D01*
X152169523Y-123724047D01*
X152169523Y-123914523D01*
X152131428Y-123990714D01*
X152093333Y-124028809D01*
X152017142Y-124066904D01*
X151788571Y-124066904D01*
X151712380Y-124028809D01*
X151674285Y-123990714D01*
X188288571Y-109461904D02*
X188288571Y-108661904D01*
X188479047Y-108661904D01*
X188593333Y-108700000D01*
X188669523Y-108776190D01*
X188707619Y-108852380D01*
X188745714Y-109004761D01*
X188745714Y-109119047D01*
X188707619Y-109271428D01*
X188669523Y-109347619D01*
X188593333Y-109423809D01*
X188479047Y-109461904D01*
X188288571Y-109461904D01*
X189050476Y-108738095D02*
X189088571Y-108700000D01*
X189164761Y-108661904D01*
X189355238Y-108661904D01*
X189431428Y-108700000D01*
X189469523Y-108738095D01*
X189507619Y-108814285D01*
X189507619Y-108890476D01*
X189469523Y-109004761D01*
X189012380Y-109461904D01*
X189507619Y-109461904D01*
X190231428Y-108661904D02*
X189850476Y-108661904D01*
X189812380Y-109042857D01*
X189850476Y-109004761D01*
X189926666Y-108966666D01*
X190117142Y-108966666D01*
X190193333Y-109004761D01*
X190231428Y-109042857D01*
X190269523Y-109119047D01*
X190269523Y-109309523D01*
X190231428Y-109385714D01*
X190193333Y-109423809D01*
X190117142Y-109461904D01*
X189926666Y-109461904D01*
X189850476Y-109423809D01*
X189812380Y-109385714D01*
X90498571Y-131051904D02*
X90498571Y-130251904D01*
X90689047Y-130251904D01*
X90803333Y-130290000D01*
X90879523Y-130366190D01*
X90917619Y-130442380D01*
X90955714Y-130594761D01*
X90955714Y-130709047D01*
X90917619Y-130861428D01*
X90879523Y-130937619D01*
X90803333Y-131013809D01*
X90689047Y-131051904D01*
X90498571Y-131051904D01*
X91222380Y-130251904D02*
X91717619Y-130251904D01*
X91450952Y-130556666D01*
X91565238Y-130556666D01*
X91641428Y-130594761D01*
X91679523Y-130632857D01*
X91717619Y-130709047D01*
X91717619Y-130899523D01*
X91679523Y-130975714D01*
X91641428Y-131013809D01*
X91565238Y-131051904D01*
X91336666Y-131051904D01*
X91260476Y-131013809D01*
X91222380Y-130975714D01*
X92212857Y-130251904D02*
X92289047Y-130251904D01*
X92365238Y-130290000D01*
X92403333Y-130328095D01*
X92441428Y-130404285D01*
X92479523Y-130556666D01*
X92479523Y-130747142D01*
X92441428Y-130899523D01*
X92403333Y-130975714D01*
X92365238Y-131013809D01*
X92289047Y-131051904D01*
X92212857Y-131051904D01*
X92136666Y-131013809D01*
X92098571Y-130975714D01*
X92060476Y-130899523D01*
X92022380Y-130747142D01*
X92022380Y-130556666D01*
X92060476Y-130404285D01*
X92098571Y-130328095D01*
X92136666Y-130290000D01*
X92212857Y-130251904D01*
X150569523Y-66916904D02*
X150569523Y-66116904D01*
X150760000Y-66116904D01*
X150874285Y-66155000D01*
X150950476Y-66231190D01*
X150988571Y-66307380D01*
X151026666Y-66459761D01*
X151026666Y-66574047D01*
X150988571Y-66726428D01*
X150950476Y-66802619D01*
X150874285Y-66878809D01*
X150760000Y-66916904D01*
X150569523Y-66916904D01*
X151293333Y-66116904D02*
X151788571Y-66116904D01*
X151521904Y-66421666D01*
X151636190Y-66421666D01*
X151712380Y-66459761D01*
X151750476Y-66497857D01*
X151788571Y-66574047D01*
X151788571Y-66764523D01*
X151750476Y-66840714D01*
X151712380Y-66878809D01*
X151636190Y-66916904D01*
X151407619Y-66916904D01*
X151331428Y-66878809D01*
X151293333Y-66840714D01*
X209388215Y-133603520D02*
X208988215Y-134296340D01*
X208823257Y-134201102D01*
X208743331Y-134110968D01*
X208715443Y-134006890D01*
X208720547Y-133921859D01*
X208763746Y-133770846D01*
X208820889Y-133671872D01*
X208930071Y-133558953D01*
X209001157Y-133512018D01*
X209105236Y-133484131D01*
X209223257Y-133508282D01*
X209388215Y-133603520D01*
X208366481Y-133849405D02*
X208314442Y-133863349D01*
X208229411Y-133858245D01*
X208064454Y-133763007D01*
X208017519Y-133691920D01*
X208003575Y-133639881D01*
X208008679Y-133554851D01*
X208046774Y-133488868D01*
X208136909Y-133408941D01*
X208761377Y-133241615D01*
X208332488Y-132993996D01*
X207338643Y-133343959D02*
X207470608Y-133420150D01*
X207555639Y-133425254D01*
X207607678Y-133411310D01*
X207730804Y-133350431D01*
X207839986Y-133237513D01*
X207992366Y-132973581D01*
X207997470Y-132888551D01*
X207983526Y-132836512D01*
X207936591Y-132765425D01*
X207804625Y-132689234D01*
X207719595Y-132684131D01*
X207667556Y-132698074D01*
X207596469Y-132745010D01*
X207501231Y-132909967D01*
X207496127Y-132994997D01*
X207510071Y-133047036D01*
X207557006Y-133118123D01*
X207688972Y-133194314D01*
X207774003Y-133199417D01*
X207826042Y-133185474D01*
X207897128Y-133138538D01*
X131138571Y-88506904D02*
X131138571Y-87706904D01*
X131329047Y-87706904D01*
X131443333Y-87745000D01*
X131519523Y-87821190D01*
X131557619Y-87897380D01*
X131595714Y-88049761D01*
X131595714Y-88164047D01*
X131557619Y-88316428D01*
X131519523Y-88392619D01*
X131443333Y-88468809D01*
X131329047Y-88506904D01*
X131138571Y-88506904D01*
X132357619Y-88506904D02*
X131900476Y-88506904D01*
X132129047Y-88506904D02*
X132129047Y-87706904D01*
X132052857Y-87821190D01*
X131976666Y-87897380D01*
X131900476Y-87935476D01*
X132662380Y-87783095D02*
X132700476Y-87745000D01*
X132776666Y-87706904D01*
X132967142Y-87706904D01*
X133043333Y-87745000D01*
X133081428Y-87783095D01*
X133119523Y-87859285D01*
X133119523Y-87935476D01*
X133081428Y-88049761D01*
X132624285Y-88506904D01*
X133119523Y-88506904D01*
X169238571Y-126606904D02*
X169238571Y-125806904D01*
X169429047Y-125806904D01*
X169543333Y-125845000D01*
X169619523Y-125921190D01*
X169657619Y-125997380D01*
X169695714Y-126149761D01*
X169695714Y-126264047D01*
X169657619Y-126416428D01*
X169619523Y-126492619D01*
X169543333Y-126568809D01*
X169429047Y-126606904D01*
X169238571Y-126606904D01*
X169962380Y-125806904D02*
X170457619Y-125806904D01*
X170190952Y-126111666D01*
X170305238Y-126111666D01*
X170381428Y-126149761D01*
X170419523Y-126187857D01*
X170457619Y-126264047D01*
X170457619Y-126454523D01*
X170419523Y-126530714D01*
X170381428Y-126568809D01*
X170305238Y-126606904D01*
X170076666Y-126606904D01*
X170000476Y-126568809D01*
X169962380Y-126530714D01*
X171143333Y-126073571D02*
X171143333Y-126606904D01*
X170952857Y-125768809D02*
X170762380Y-126340238D01*
X171257619Y-126340238D01*
X90498571Y-92951904D02*
X90498571Y-92151904D01*
X90689047Y-92151904D01*
X90803333Y-92190000D01*
X90879523Y-92266190D01*
X90917619Y-92342380D01*
X90955714Y-92494761D01*
X90955714Y-92609047D01*
X90917619Y-92761428D01*
X90879523Y-92837619D01*
X90803333Y-92913809D01*
X90689047Y-92951904D01*
X90498571Y-92951904D01*
X91717619Y-92951904D02*
X91260476Y-92951904D01*
X91489047Y-92951904D02*
X91489047Y-92151904D01*
X91412857Y-92266190D01*
X91336666Y-92342380D01*
X91260476Y-92380476D01*
X92212857Y-92151904D02*
X92289047Y-92151904D01*
X92365238Y-92190000D01*
X92403333Y-92228095D01*
X92441428Y-92304285D01*
X92479523Y-92456666D01*
X92479523Y-92647142D01*
X92441428Y-92799523D01*
X92403333Y-92875714D01*
X92365238Y-92913809D01*
X92289047Y-92951904D01*
X92212857Y-92951904D01*
X92136666Y-92913809D01*
X92098571Y-92875714D01*
X92060476Y-92799523D01*
X92022380Y-92647142D01*
X92022380Y-92456666D01*
X92060476Y-92304285D01*
X92098571Y-92228095D01*
X92136666Y-92190000D01*
X92212857Y-92151904D01*
X207719523Y-80886904D02*
X207719523Y-80086904D01*
X207910000Y-80086904D01*
X208024285Y-80125000D01*
X208100476Y-80201190D01*
X208138571Y-80277380D01*
X208176666Y-80429761D01*
X208176666Y-80544047D01*
X208138571Y-80696428D01*
X208100476Y-80772619D01*
X208024285Y-80848809D01*
X207910000Y-80886904D01*
X207719523Y-80886904D01*
X208862380Y-80086904D02*
X208710000Y-80086904D01*
X208633809Y-80125000D01*
X208595714Y-80163095D01*
X208519523Y-80277380D01*
X208481428Y-80429761D01*
X208481428Y-80734523D01*
X208519523Y-80810714D01*
X208557619Y-80848809D01*
X208633809Y-80886904D01*
X208786190Y-80886904D01*
X208862380Y-80848809D01*
X208900476Y-80810714D01*
X208938571Y-80734523D01*
X208938571Y-80544047D01*
X208900476Y-80467857D01*
X208862380Y-80429761D01*
X208786190Y-80391666D01*
X208633809Y-80391666D01*
X208557619Y-80429761D01*
X208519523Y-80467857D01*
X208481428Y-80544047D01*
X188288571Y-90411904D02*
X188288571Y-89611904D01*
X188479047Y-89611904D01*
X188593333Y-89650000D01*
X188669523Y-89726190D01*
X188707619Y-89802380D01*
X188745714Y-89954761D01*
X188745714Y-90069047D01*
X188707619Y-90221428D01*
X188669523Y-90297619D01*
X188593333Y-90373809D01*
X188479047Y-90411904D01*
X188288571Y-90411904D01*
X189507619Y-90411904D02*
X189050476Y-90411904D01*
X189279047Y-90411904D02*
X189279047Y-89611904D01*
X189202857Y-89726190D01*
X189126666Y-89802380D01*
X189050476Y-89840476D01*
X190231428Y-89611904D02*
X189850476Y-89611904D01*
X189812380Y-89992857D01*
X189850476Y-89954761D01*
X189926666Y-89916666D01*
X190117142Y-89916666D01*
X190193333Y-89954761D01*
X190231428Y-89992857D01*
X190269523Y-90069047D01*
X190269523Y-90259523D01*
X190231428Y-90335714D01*
X190193333Y-90373809D01*
X190117142Y-90411904D01*
X189926666Y-90411904D01*
X189850476Y-90373809D01*
X189812380Y-90335714D01*
X112088571Y-112001904D02*
X112088571Y-111201904D01*
X112279047Y-111201904D01*
X112393333Y-111240000D01*
X112469523Y-111316190D01*
X112507619Y-111392380D01*
X112545714Y-111544761D01*
X112545714Y-111659047D01*
X112507619Y-111811428D01*
X112469523Y-111887619D01*
X112393333Y-111963809D01*
X112279047Y-112001904D01*
X112088571Y-112001904D01*
X112850476Y-111278095D02*
X112888571Y-111240000D01*
X112964761Y-111201904D01*
X113155238Y-111201904D01*
X113231428Y-111240000D01*
X113269523Y-111278095D01*
X113307619Y-111354285D01*
X113307619Y-111430476D01*
X113269523Y-111544761D01*
X112812380Y-112001904D01*
X113307619Y-112001904D01*
X114069523Y-112001904D02*
X113612380Y-112001904D01*
X113840952Y-112001904D02*
X113840952Y-111201904D01*
X113764761Y-111316190D01*
X113688571Y-111392380D01*
X113612380Y-111430476D01*
X112088571Y-131051904D02*
X112088571Y-130251904D01*
X112279047Y-130251904D01*
X112393333Y-130290000D01*
X112469523Y-130366190D01*
X112507619Y-130442380D01*
X112545714Y-130594761D01*
X112545714Y-130709047D01*
X112507619Y-130861428D01*
X112469523Y-130937619D01*
X112393333Y-131013809D01*
X112279047Y-131051904D01*
X112088571Y-131051904D01*
X112812380Y-130251904D02*
X113307619Y-130251904D01*
X113040952Y-130556666D01*
X113155238Y-130556666D01*
X113231428Y-130594761D01*
X113269523Y-130632857D01*
X113307619Y-130709047D01*
X113307619Y-130899523D01*
X113269523Y-130975714D01*
X113231428Y-131013809D01*
X113155238Y-131051904D01*
X112926666Y-131051904D01*
X112850476Y-131013809D01*
X112812380Y-130975714D01*
X114069523Y-131051904D02*
X113612380Y-131051904D01*
X113840952Y-131051904D02*
X113840952Y-130251904D01*
X113764761Y-130366190D01*
X113688571Y-130442380D01*
X113612380Y-130480476D01*
X131138571Y-107556904D02*
X131138571Y-106756904D01*
X131329047Y-106756904D01*
X131443333Y-106795000D01*
X131519523Y-106871190D01*
X131557619Y-106947380D01*
X131595714Y-107099761D01*
X131595714Y-107214047D01*
X131557619Y-107366428D01*
X131519523Y-107442619D01*
X131443333Y-107518809D01*
X131329047Y-107556904D01*
X131138571Y-107556904D01*
X131900476Y-106833095D02*
X131938571Y-106795000D01*
X132014761Y-106756904D01*
X132205238Y-106756904D01*
X132281428Y-106795000D01*
X132319523Y-106833095D01*
X132357619Y-106909285D01*
X132357619Y-106985476D01*
X132319523Y-107099761D01*
X131862380Y-107556904D01*
X132357619Y-107556904D01*
X132662380Y-106833095D02*
X132700476Y-106795000D01*
X132776666Y-106756904D01*
X132967142Y-106756904D01*
X133043333Y-106795000D01*
X133081428Y-106833095D01*
X133119523Y-106909285D01*
X133119523Y-106985476D01*
X133081428Y-107099761D01*
X132624285Y-107556904D01*
X133119523Y-107556904D01*
X223282234Y-147612295D02*
X222882234Y-148305115D01*
X222717276Y-148209877D01*
X222637350Y-148119743D01*
X222609462Y-148015665D01*
X222614566Y-147930634D01*
X222657765Y-147779621D01*
X222714908Y-147680647D01*
X222824090Y-147567728D01*
X222895176Y-147520793D01*
X222999255Y-147492906D01*
X223117276Y-147517057D01*
X223282234Y-147612295D01*
X222025824Y-147502747D02*
X222292490Y-147040866D01*
X222038400Y-147861916D02*
X222489071Y-147462283D01*
X222060183Y-147214664D01*
X221232662Y-147352734D02*
X221364627Y-147428925D01*
X221449658Y-147434029D01*
X221501697Y-147420085D01*
X221624823Y-147359206D01*
X221734005Y-147246288D01*
X221886385Y-146982356D01*
X221891489Y-146897326D01*
X221877545Y-146845287D01*
X221830610Y-146774200D01*
X221698644Y-146698009D01*
X221613614Y-146692906D01*
X221561575Y-146706849D01*
X221490488Y-146753785D01*
X221395250Y-146918742D01*
X221390146Y-147003772D01*
X221404090Y-147055811D01*
X221451025Y-147126898D01*
X221582991Y-147203089D01*
X221668022Y-147208192D01*
X221720061Y-147194249D01*
X221791147Y-147147313D01*
X131138571Y-126606904D02*
X131138571Y-125806904D01*
X131329047Y-125806904D01*
X131443333Y-125845000D01*
X131519523Y-125921190D01*
X131557619Y-125997380D01*
X131595714Y-126149761D01*
X131595714Y-126264047D01*
X131557619Y-126416428D01*
X131519523Y-126492619D01*
X131443333Y-126568809D01*
X131329047Y-126606904D01*
X131138571Y-126606904D01*
X131862380Y-125806904D02*
X132357619Y-125806904D01*
X132090952Y-126111666D01*
X132205238Y-126111666D01*
X132281428Y-126149761D01*
X132319523Y-126187857D01*
X132357619Y-126264047D01*
X132357619Y-126454523D01*
X132319523Y-126530714D01*
X132281428Y-126568809D01*
X132205238Y-126606904D01*
X131976666Y-126606904D01*
X131900476Y-126568809D01*
X131862380Y-126530714D01*
X132662380Y-125883095D02*
X132700476Y-125845000D01*
X132776666Y-125806904D01*
X132967142Y-125806904D01*
X133043333Y-125845000D01*
X133081428Y-125883095D01*
X133119523Y-125959285D01*
X133119523Y-126035476D01*
X133081428Y-126149761D01*
X132624285Y-126606904D01*
X133119523Y-126606904D01*
X225898215Y-143128520D02*
X225498215Y-143821340D01*
X225333257Y-143726102D01*
X225253331Y-143635968D01*
X225225443Y-143531890D01*
X225230547Y-143446859D01*
X225273746Y-143295846D01*
X225330889Y-143196872D01*
X225440071Y-143083953D01*
X225511157Y-143037018D01*
X225615236Y-143009131D01*
X225733257Y-143033282D01*
X225898215Y-143128520D01*
X224871377Y-143459436D02*
X224442488Y-143211817D01*
X224825810Y-143081218D01*
X224726835Y-143024076D01*
X224679900Y-142952989D01*
X224665956Y-142900950D01*
X224671060Y-142815919D01*
X224766298Y-142650962D01*
X224837385Y-142604027D01*
X224889424Y-142590083D01*
X224974454Y-142595187D01*
X225172403Y-142709472D01*
X225219338Y-142780559D01*
X225233282Y-142832598D01*
X223848643Y-142868959D02*
X223980608Y-142945150D01*
X224065639Y-142950254D01*
X224117678Y-142936310D01*
X224240804Y-142875431D01*
X224349986Y-142762513D01*
X224502366Y-142498581D01*
X224507470Y-142413551D01*
X224493526Y-142361512D01*
X224446591Y-142290425D01*
X224314625Y-142214234D01*
X224229595Y-142209131D01*
X224177556Y-142223074D01*
X224106469Y-142270010D01*
X224011231Y-142434967D01*
X224006127Y-142519997D01*
X224020071Y-142572036D01*
X224067006Y-142643123D01*
X224198972Y-142719314D01*
X224284003Y-142724417D01*
X224336042Y-142710474D01*
X224407128Y-142663538D01*
X188288571Y-128511904D02*
X188288571Y-127711904D01*
X188479047Y-127711904D01*
X188593333Y-127750000D01*
X188669523Y-127826190D01*
X188707619Y-127902380D01*
X188745714Y-128054761D01*
X188745714Y-128169047D01*
X188707619Y-128321428D01*
X188669523Y-128397619D01*
X188593333Y-128473809D01*
X188479047Y-128511904D01*
X188288571Y-128511904D01*
X189012380Y-127711904D02*
X189507619Y-127711904D01*
X189240952Y-128016666D01*
X189355238Y-128016666D01*
X189431428Y-128054761D01*
X189469523Y-128092857D01*
X189507619Y-128169047D01*
X189507619Y-128359523D01*
X189469523Y-128435714D01*
X189431428Y-128473809D01*
X189355238Y-128511904D01*
X189126666Y-128511904D01*
X189050476Y-128473809D01*
X189012380Y-128435714D01*
X190231428Y-127711904D02*
X189850476Y-127711904D01*
X189812380Y-128092857D01*
X189850476Y-128054761D01*
X189926666Y-128016666D01*
X190117142Y-128016666D01*
X190193333Y-128054761D01*
X190231428Y-128092857D01*
X190269523Y-128169047D01*
X190269523Y-128359523D01*
X190231428Y-128435714D01*
X190193333Y-128473809D01*
X190117142Y-128511904D01*
X189926666Y-128511904D01*
X189850476Y-128473809D01*
X189812380Y-128435714D01*
X93078571Y-136201904D02*
X93078571Y-135401904D01*
X93269047Y-135401904D01*
X93383333Y-135440000D01*
X93459523Y-135516190D01*
X93497619Y-135592380D01*
X93535714Y-135744761D01*
X93535714Y-135859047D01*
X93497619Y-136011428D01*
X93459523Y-136087619D01*
X93383333Y-136163809D01*
X93269047Y-136201904D01*
X93078571Y-136201904D01*
X94221428Y-135668571D02*
X94221428Y-136201904D01*
X94030952Y-135363809D02*
X93840476Y-135935238D01*
X94335714Y-135935238D01*
X94792857Y-135401904D02*
X94869047Y-135401904D01*
X94945238Y-135440000D01*
X94983333Y-135478095D01*
X95021428Y-135554285D01*
X95059523Y-135706666D01*
X95059523Y-135897142D01*
X95021428Y-136049523D01*
X94983333Y-136125714D01*
X94945238Y-136163809D01*
X94869047Y-136201904D01*
X94792857Y-136201904D01*
X94716666Y-136163809D01*
X94678571Y-136125714D01*
X94640476Y-136049523D01*
X94602380Y-135897142D01*
X94602380Y-135706666D01*
X94640476Y-135554285D01*
X94678571Y-135478095D01*
X94716666Y-135440000D01*
X94792857Y-135401904D01*
X147868095Y-135016380D02*
X147868095Y-134016380D01*
X148106190Y-134016380D01*
X148249047Y-134064000D01*
X148344285Y-134159238D01*
X148391904Y-134254476D01*
X148439523Y-134444952D01*
X148439523Y-134587809D01*
X148391904Y-134778285D01*
X148344285Y-134873523D01*
X148249047Y-134968761D01*
X148106190Y-135016380D01*
X147868095Y-135016380D01*
X148630000Y-135111619D02*
X149391904Y-135111619D01*
X150201428Y-135016380D02*
X149868095Y-134540190D01*
X149630000Y-135016380D02*
X149630000Y-134016380D01*
X150010952Y-134016380D01*
X150106190Y-134064000D01*
X150153809Y-134111619D01*
X150201428Y-134206857D01*
X150201428Y-134349714D01*
X150153809Y-134444952D01*
X150106190Y-134492571D01*
X150010952Y-134540190D01*
X149630000Y-134540190D01*
X150630000Y-135016380D02*
X150630000Y-134016380D01*
X151630000Y-134064000D02*
X151534761Y-134016380D01*
X151391904Y-134016380D01*
X151249047Y-134064000D01*
X151153809Y-134159238D01*
X151106190Y-134254476D01*
X151058571Y-134444952D01*
X151058571Y-134587809D01*
X151106190Y-134778285D01*
X151153809Y-134873523D01*
X151249047Y-134968761D01*
X151391904Y-135016380D01*
X151487142Y-135016380D01*
X151630000Y-134968761D01*
X151677619Y-134921142D01*
X151677619Y-134587809D01*
X151487142Y-134587809D01*
X152106190Y-135016380D02*
X152106190Y-134016380D01*
X152106190Y-134492571D02*
X152677619Y-134492571D01*
X152677619Y-135016380D02*
X152677619Y-134016380D01*
X153010952Y-134016380D02*
X153582380Y-134016380D01*
X153296666Y-135016380D02*
X153296666Y-134016380D01*
X154391904Y-134016380D02*
X153915714Y-134016380D01*
X153868095Y-134492571D01*
X153915714Y-134444952D01*
X154010952Y-134397333D01*
X154249047Y-134397333D01*
X154344285Y-134444952D01*
X154391904Y-134492571D01*
X154439523Y-134587809D01*
X154439523Y-134825904D01*
X154391904Y-134921142D01*
X154344285Y-134968761D01*
X154249047Y-135016380D01*
X154010952Y-135016380D01*
X153915714Y-134968761D01*
X153868095Y-134921142D01*
X155565714Y-133116380D02*
X154994285Y-133116380D01*
X155280000Y-133116380D02*
X155280000Y-132116380D01*
X155184761Y-132259238D01*
X155089523Y-132354476D01*
X154994285Y-132402095D01*
X188214095Y-79430380D02*
X188214095Y-80239904D01*
X188261714Y-80335142D01*
X188309333Y-80382761D01*
X188404571Y-80430380D01*
X188595047Y-80430380D01*
X188690285Y-80382761D01*
X188737904Y-80335142D01*
X188785523Y-80239904D01*
X188785523Y-79430380D01*
X189214095Y-79525619D02*
X189261714Y-79478000D01*
X189356952Y-79430380D01*
X189595047Y-79430380D01*
X189690285Y-79478000D01*
X189737904Y-79525619D01*
X189785523Y-79620857D01*
X189785523Y-79716095D01*
X189737904Y-79858952D01*
X189166476Y-80430380D01*
X189785523Y-80430380D01*
X202171904Y-89562333D02*
X201790952Y-89829000D01*
X202171904Y-90019476D02*
X201371904Y-90019476D01*
X201371904Y-89714714D01*
X201410000Y-89638523D01*
X201448095Y-89600428D01*
X201524285Y-89562333D01*
X201638571Y-89562333D01*
X201714761Y-89600428D01*
X201752857Y-89638523D01*
X201790952Y-89714714D01*
X201790952Y-90019476D01*
X201448095Y-89257571D02*
X201410000Y-89219476D01*
X201371904Y-89143285D01*
X201371904Y-88952809D01*
X201410000Y-88876619D01*
X201448095Y-88838523D01*
X201524285Y-88800428D01*
X201600476Y-88800428D01*
X201714761Y-88838523D01*
X202171904Y-89295666D01*
X202171904Y-88800428D01*
X98995955Y-142890380D02*
X98995955Y-141890380D01*
X99234050Y-141890380D01*
X99376907Y-141938000D01*
X99472145Y-142033238D01*
X99519764Y-142128476D01*
X99567383Y-142318952D01*
X99567383Y-142461809D01*
X99519764Y-142652285D01*
X99472145Y-142747523D01*
X99376907Y-142842761D01*
X99234050Y-142890380D01*
X98995955Y-142890380D01*
X99757860Y-142985619D02*
X100519764Y-142985619D01*
X101329288Y-142890380D02*
X100995955Y-142414190D01*
X100757860Y-142890380D02*
X100757860Y-141890380D01*
X101138812Y-141890380D01*
X101234050Y-141938000D01*
X101281669Y-141985619D01*
X101329288Y-142080857D01*
X101329288Y-142223714D01*
X101281669Y-142318952D01*
X101234050Y-142366571D01*
X101138812Y-142414190D01*
X100757860Y-142414190D01*
X101757860Y-142890380D02*
X101757860Y-141890380D01*
X102757860Y-141938000D02*
X102662621Y-141890380D01*
X102519764Y-141890380D01*
X102376907Y-141938000D01*
X102281669Y-142033238D01*
X102234050Y-142128476D01*
X102186431Y-142318952D01*
X102186431Y-142461809D01*
X102234050Y-142652285D01*
X102281669Y-142747523D01*
X102376907Y-142842761D01*
X102519764Y-142890380D01*
X102615002Y-142890380D01*
X102757860Y-142842761D01*
X102805479Y-142795142D01*
X102805479Y-142461809D01*
X102615002Y-142461809D01*
X103234050Y-142890380D02*
X103234050Y-141890380D01*
X103234050Y-142366571D02*
X103805479Y-142366571D01*
X103805479Y-142890380D02*
X103805479Y-141890380D01*
X104138812Y-141890380D02*
X104710240Y-141890380D01*
X104424526Y-142890380D02*
X104424526Y-141890380D01*
X105472145Y-142223714D02*
X105472145Y-142890380D01*
X105234050Y-141842761D02*
X104995955Y-142557047D01*
X105615002Y-142557047D01*
X106693574Y-140990380D02*
X106122145Y-140990380D01*
X106407860Y-140990380D02*
X106407860Y-139990380D01*
X106312621Y-140133238D01*
X106217383Y-140228476D01*
X106122145Y-140276095D01*
X191774380Y-51387333D02*
X192488666Y-51387333D01*
X192631523Y-51434952D01*
X192726761Y-51530190D01*
X192774380Y-51673047D01*
X192774380Y-51768285D01*
X192774380Y-50387333D02*
X192774380Y-50958761D01*
X192774380Y-50673047D02*
X191774380Y-50673047D01*
X191917238Y-50768285D01*
X192012476Y-50863523D01*
X192060095Y-50958761D01*
X201623523Y-54343904D02*
X201623523Y-53543904D01*
X201814000Y-53543904D01*
X201928285Y-53582000D01*
X202004476Y-53658190D01*
X202042571Y-53734380D01*
X202080666Y-53886761D01*
X202080666Y-54001047D01*
X202042571Y-54153428D01*
X202004476Y-54229619D01*
X201928285Y-54305809D01*
X201814000Y-54343904D01*
X201623523Y-54343904D01*
X202347333Y-53543904D02*
X202880666Y-53543904D01*
X202537809Y-54343904D01*
X147868095Y-70612380D02*
X147868095Y-69612380D01*
X148106190Y-69612380D01*
X148249047Y-69660000D01*
X148344285Y-69755238D01*
X148391904Y-69850476D01*
X148439523Y-70040952D01*
X148439523Y-70183809D01*
X148391904Y-70374285D01*
X148344285Y-70469523D01*
X148249047Y-70564761D01*
X148106190Y-70612380D01*
X147868095Y-70612380D01*
X148630000Y-70707619D02*
X149391904Y-70707619D01*
X150201428Y-70612380D02*
X149868095Y-70136190D01*
X149630000Y-70612380D02*
X149630000Y-69612380D01*
X150010952Y-69612380D01*
X150106190Y-69660000D01*
X150153809Y-69707619D01*
X150201428Y-69802857D01*
X150201428Y-69945714D01*
X150153809Y-70040952D01*
X150106190Y-70088571D01*
X150010952Y-70136190D01*
X149630000Y-70136190D01*
X150630000Y-70612380D02*
X150630000Y-69612380D01*
X151630000Y-69660000D02*
X151534761Y-69612380D01*
X151391904Y-69612380D01*
X151249047Y-69660000D01*
X151153809Y-69755238D01*
X151106190Y-69850476D01*
X151058571Y-70040952D01*
X151058571Y-70183809D01*
X151106190Y-70374285D01*
X151153809Y-70469523D01*
X151249047Y-70564761D01*
X151391904Y-70612380D01*
X151487142Y-70612380D01*
X151630000Y-70564761D01*
X151677619Y-70517142D01*
X151677619Y-70183809D01*
X151487142Y-70183809D01*
X152106190Y-70612380D02*
X152106190Y-69612380D01*
X152106190Y-70088571D02*
X152677619Y-70088571D01*
X152677619Y-70612380D02*
X152677619Y-69612380D01*
X153010952Y-69612380D02*
X153582380Y-69612380D01*
X153296666Y-70612380D02*
X153296666Y-69612380D01*
X153868095Y-69707619D02*
X153915714Y-69660000D01*
X154010952Y-69612380D01*
X154249047Y-69612380D01*
X154344285Y-69660000D01*
X154391904Y-69707619D01*
X154439523Y-69802857D01*
X154439523Y-69898095D01*
X154391904Y-70040952D01*
X153820476Y-70612380D01*
X154439523Y-70612380D01*
X147265714Y-72512380D02*
X146694285Y-72512380D01*
X146980000Y-72512380D02*
X146980000Y-71512380D01*
X146884761Y-71655238D01*
X146789523Y-71750476D01*
X146694285Y-71798095D01*
X199885904Y-89511333D02*
X199504952Y-89778000D01*
X199885904Y-89968476D02*
X199085904Y-89968476D01*
X199085904Y-89663714D01*
X199124000Y-89587523D01*
X199162095Y-89549428D01*
X199238285Y-89511333D01*
X199352571Y-89511333D01*
X199428761Y-89549428D01*
X199466857Y-89587523D01*
X199504952Y-89663714D01*
X199504952Y-89968476D01*
X199885904Y-88749428D02*
X199885904Y-89206571D01*
X199885904Y-88978000D02*
X199085904Y-88978000D01*
X199200190Y-89054190D01*
X199276380Y-89130380D01*
X199314476Y-89206571D01*
X176465955Y-73914380D02*
X176465955Y-72914380D01*
X176704050Y-72914380D01*
X176846907Y-72962000D01*
X176942145Y-73057238D01*
X176989764Y-73152476D01*
X177037383Y-73342952D01*
X177037383Y-73485809D01*
X176989764Y-73676285D01*
X176942145Y-73771523D01*
X176846907Y-73866761D01*
X176704050Y-73914380D01*
X176465955Y-73914380D01*
X177227860Y-74009619D02*
X177989764Y-74009619D01*
X178799288Y-73914380D02*
X178465955Y-73438190D01*
X178227860Y-73914380D02*
X178227860Y-72914380D01*
X178608812Y-72914380D01*
X178704050Y-72962000D01*
X178751669Y-73009619D01*
X178799288Y-73104857D01*
X178799288Y-73247714D01*
X178751669Y-73342952D01*
X178704050Y-73390571D01*
X178608812Y-73438190D01*
X178227860Y-73438190D01*
X179227860Y-73914380D02*
X179227860Y-72914380D01*
X180227860Y-72962000D02*
X180132621Y-72914380D01*
X179989764Y-72914380D01*
X179846907Y-72962000D01*
X179751669Y-73057238D01*
X179704050Y-73152476D01*
X179656431Y-73342952D01*
X179656431Y-73485809D01*
X179704050Y-73676285D01*
X179751669Y-73771523D01*
X179846907Y-73866761D01*
X179989764Y-73914380D01*
X180085002Y-73914380D01*
X180227860Y-73866761D01*
X180275479Y-73819142D01*
X180275479Y-73485809D01*
X180085002Y-73485809D01*
X180704050Y-73914380D02*
X180704050Y-72914380D01*
X180704050Y-73390571D02*
X181275479Y-73390571D01*
X181275479Y-73914380D02*
X181275479Y-72914380D01*
X181608812Y-72914380D02*
X182180240Y-72914380D01*
X181894526Y-73914380D02*
X181894526Y-72914380D01*
X183037383Y-73914380D02*
X182465955Y-73914380D01*
X182751669Y-73914380D02*
X182751669Y-72914380D01*
X182656431Y-73057238D01*
X182561193Y-73152476D01*
X182465955Y-73200095D01*
X175863574Y-75814380D02*
X175292145Y-75814380D01*
X175577860Y-75814380D02*
X175577860Y-74814380D01*
X175482621Y-74957238D01*
X175387383Y-75052476D01*
X175292145Y-75100095D01*
X98995955Y-77708380D02*
X98995955Y-76708380D01*
X99234050Y-76708380D01*
X99376907Y-76756000D01*
X99472145Y-76851238D01*
X99519764Y-76946476D01*
X99567383Y-77136952D01*
X99567383Y-77279809D01*
X99519764Y-77470285D01*
X99472145Y-77565523D01*
X99376907Y-77660761D01*
X99234050Y-77708380D01*
X98995955Y-77708380D01*
X99757860Y-77803619D02*
X100519764Y-77803619D01*
X101329288Y-77708380D02*
X100995955Y-77232190D01*
X100757860Y-77708380D02*
X100757860Y-76708380D01*
X101138812Y-76708380D01*
X101234050Y-76756000D01*
X101281669Y-76803619D01*
X101329288Y-76898857D01*
X101329288Y-77041714D01*
X101281669Y-77136952D01*
X101234050Y-77184571D01*
X101138812Y-77232190D01*
X100757860Y-77232190D01*
X101757860Y-77708380D02*
X101757860Y-76708380D01*
X102757860Y-76756000D02*
X102662621Y-76708380D01*
X102519764Y-76708380D01*
X102376907Y-76756000D01*
X102281669Y-76851238D01*
X102234050Y-76946476D01*
X102186431Y-77136952D01*
X102186431Y-77279809D01*
X102234050Y-77470285D01*
X102281669Y-77565523D01*
X102376907Y-77660761D01*
X102519764Y-77708380D01*
X102615002Y-77708380D01*
X102757860Y-77660761D01*
X102805479Y-77613142D01*
X102805479Y-77279809D01*
X102615002Y-77279809D01*
X103234050Y-77708380D02*
X103234050Y-76708380D01*
X103234050Y-77184571D02*
X103805479Y-77184571D01*
X103805479Y-77708380D02*
X103805479Y-76708380D01*
X104138812Y-76708380D02*
X104710240Y-76708380D01*
X104424526Y-77708380D02*
X104424526Y-76708380D01*
X104948336Y-76708380D02*
X105567383Y-76708380D01*
X105234050Y-77089333D01*
X105376907Y-77089333D01*
X105472145Y-77136952D01*
X105519764Y-77184571D01*
X105567383Y-77279809D01*
X105567383Y-77517904D01*
X105519764Y-77613142D01*
X105472145Y-77660761D01*
X105376907Y-77708380D01*
X105091193Y-77708380D01*
X104995955Y-77660761D01*
X104948336Y-77613142D01*
X98393574Y-79608380D02*
X97822145Y-79608380D01*
X98107860Y-79608380D02*
X98107860Y-78608380D01*
X98012621Y-78751238D01*
X97917383Y-78846476D01*
X97822145Y-78894095D01*
X190785082Y-143208267D02*
X190285082Y-144074293D01*
X190078886Y-143955245D01*
X189978977Y-143842577D01*
X189944118Y-143712480D01*
X189950498Y-143606192D01*
X190004496Y-143417425D01*
X190075925Y-143293707D01*
X190212402Y-143152559D01*
X190301261Y-143093890D01*
X190431358Y-143059031D01*
X190578886Y-143089220D01*
X190785082Y-143208267D01*
X190172873Y-142744836D02*
X189513044Y-142363884D01*
X188764356Y-142041601D02*
X188814936Y-142620661D01*
X189259228Y-142327315D02*
X188759228Y-143193341D01*
X188429314Y-143002864D01*
X188370645Y-142914006D01*
X188353215Y-142848957D01*
X188359595Y-142742669D01*
X188431023Y-142618951D01*
X188519881Y-142560282D01*
X188584930Y-142542852D01*
X188691218Y-142549232D01*
X189021133Y-142739708D01*
X188393203Y-141827315D02*
X187893203Y-142693341D01*
X187050987Y-142152101D02*
X187109656Y-142240960D01*
X187233374Y-142312388D01*
X187380901Y-142342577D01*
X187510999Y-142307718D01*
X187599857Y-142249049D01*
X187736335Y-142107901D01*
X187807763Y-141984183D01*
X187861762Y-141795416D01*
X187868142Y-141689128D01*
X187833282Y-141559031D01*
X187733374Y-141446363D01*
X187650895Y-141398744D01*
X187503368Y-141368554D01*
X187438319Y-141385984D01*
X187271652Y-141674659D01*
X187436609Y-141769897D01*
X187114784Y-141089220D02*
X186614784Y-141955245D01*
X186852879Y-141542852D02*
X186358008Y-141257138D01*
X186619913Y-140803506D02*
X186119913Y-141669531D01*
X185831237Y-141502864D02*
X185336366Y-141217150D01*
X186083802Y-140493982D02*
X185583802Y-141360007D01*
X184676537Y-140836198D02*
X184841494Y-140931436D01*
X184947782Y-140937815D01*
X185012831Y-140920386D01*
X185166738Y-140844287D01*
X185303216Y-140703139D01*
X185493692Y-140373225D01*
X185500072Y-140266937D01*
X185482642Y-140201888D01*
X185423973Y-140113029D01*
X185259016Y-140017791D01*
X185152727Y-140011412D01*
X185087679Y-140028841D01*
X184998820Y-140087510D01*
X184879773Y-140293707D01*
X184873393Y-140399995D01*
X184890823Y-140465044D01*
X184949492Y-140553902D01*
X185114449Y-140649140D01*
X185220737Y-140655520D01*
X185285786Y-140638090D01*
X185374644Y-140579421D01*
X192256759Y-141864010D02*
X192751631Y-142149724D01*
X192504195Y-142006867D02*
X192004195Y-142872893D01*
X192158102Y-142796794D01*
X192288200Y-142761934D01*
X192394488Y-142768314D01*
D12*
X217135000Y-86146000D02*
X219135000Y-86146000D01*
X206160000Y-91746000D02*
X206160000Y-93146000D01*
X217135000Y-91146000D02*
X219135000Y-91146000D01*
X207710000Y-91746000D02*
X207710000Y-93146000D01*
X217135000Y-86146000D02*
X217135000Y-85546000D01*
X205035000Y-85546000D02*
X205035000Y-91746000D01*
X219135000Y-91146000D02*
X219135000Y-86146000D01*
X206610000Y-85546000D02*
X217135000Y-85546000D01*
X213110000Y-91746000D02*
X211760000Y-91746000D01*
X210110000Y-91746000D02*
X207710000Y-91746000D01*
X217135000Y-91746000D02*
X217135000Y-91146000D01*
X217135000Y-91746000D02*
X214760000Y-91746000D01*
X206160000Y-91746000D02*
X205035000Y-91746000D01*
G36*
X106312121Y-87941027D02*
G01*
X106346523Y-87964819D01*
X106397330Y-88071724D01*
X106431985Y-88264768D01*
X106448163Y-88497122D01*
X106443539Y-88721959D01*
X106415789Y-88892450D01*
X106394898Y-88939319D01*
X106326372Y-88992465D01*
X106159000Y-89104259D01*
X105908626Y-89264659D01*
X105591093Y-89463627D01*
X105222243Y-89691121D01*
X104875264Y-89902412D01*
X104475016Y-90145260D01*
X104112104Y-90366430D01*
X103802378Y-90556186D01*
X103561687Y-90704788D01*
X103405882Y-90802497D01*
X103351775Y-90838476D01*
X103387129Y-90886310D01*
X103520993Y-90987851D01*
X103734900Y-91132092D01*
X104010383Y-91308029D01*
X104328975Y-91504655D01*
X104672209Y-91710964D01*
X105021619Y-91915950D01*
X105358736Y-92108606D01*
X105665095Y-92277927D01*
X105922227Y-92412907D01*
X106111667Y-92502538D01*
X106193917Y-92532357D01*
X106347650Y-92634541D01*
X106453748Y-92831170D01*
X106504581Y-93089128D01*
X106492515Y-93375302D01*
X106437450Y-93588927D01*
X106329675Y-93742052D01*
X106176147Y-93847367D01*
X106118734Y-93866748D01*
X106055402Y-93872124D01*
X105973533Y-93857238D01*
X105860512Y-93815832D01*
X105703721Y-93741648D01*
X105490545Y-93628427D01*
X105208366Y-93469913D01*
X104844568Y-93259846D01*
X104386535Y-92991969D01*
X104033563Y-92784625D01*
X103570784Y-92513363D01*
X103144592Y-92265068D01*
X102768666Y-92047590D01*
X102456683Y-91868781D01*
X102222322Y-91736490D01*
X102079261Y-91658569D01*
X102040229Y-91640526D01*
X101973228Y-91673753D01*
X101806361Y-91767779D01*
X101554095Y-91914126D01*
X101230896Y-92104312D01*
X100851229Y-92329859D01*
X100429561Y-92582285D01*
X100272800Y-92676579D01*
X99835906Y-92937365D01*
X99431880Y-93174079D01*
X99075943Y-93378151D01*
X98783318Y-93541014D01*
X98569227Y-93654098D01*
X98448894Y-93708834D01*
X98432283Y-93712632D01*
X98300522Y-93665802D01*
X98184702Y-93571930D01*
X98100575Y-93402597D01*
X98058900Y-93162904D01*
X98061362Y-92907927D01*
X98109644Y-92692740D01*
X98155369Y-92612464D01*
X98239142Y-92545787D01*
X98420897Y-92422909D01*
X98683111Y-92254938D01*
X99008263Y-92052982D01*
X99378831Y-91828149D01*
X99610477Y-91689974D01*
X99989822Y-91462556D01*
X100324989Y-91256685D01*
X100600637Y-91082194D01*
X100801422Y-90948920D01*
X100912002Y-90866696D01*
X100928238Y-90845284D01*
X100862899Y-90799886D01*
X100700204Y-90693729D01*
X100456093Y-90537009D01*
X100146508Y-90339926D01*
X99787391Y-90112678D01*
X99506551Y-89935758D01*
X99073770Y-89662684D01*
X98740820Y-89449179D01*
X98493829Y-89284506D01*
X98318922Y-89157927D01*
X98202229Y-89058705D01*
X98129875Y-88976104D01*
X98087988Y-88899386D01*
X98062833Y-88818374D01*
X98036138Y-88523364D01*
X98094914Y-88255966D01*
X98227047Y-88051530D01*
X98355162Y-87965452D01*
X98414074Y-87945260D01*
X98477618Y-87939669D01*
X98558764Y-87955448D01*
X98670483Y-87999370D01*
X98825744Y-88078207D01*
X99037521Y-88198729D01*
X99318782Y-88367708D01*
X99682499Y-88591915D01*
X100141643Y-88878123D01*
X100335141Y-88999107D01*
X100801714Y-89287901D01*
X101223798Y-89543239D01*
X101588622Y-89757792D01*
X101883418Y-89924235D01*
X102095415Y-90035239D01*
X102211842Y-90083477D01*
X102226716Y-90084492D01*
X102309522Y-90043458D01*
X102491451Y-89941752D01*
X102757419Y-89788188D01*
X103092344Y-89591580D01*
X103481141Y-89360741D01*
X103908727Y-89104486D01*
X104063619Y-89011109D01*
X104617231Y-88679393D01*
X105069958Y-88414784D01*
X105433305Y-88212008D01*
X105718780Y-88065790D01*
X105937892Y-87970857D01*
X106102148Y-87921935D01*
X106223055Y-87913750D01*
X106312121Y-87941027D01*
G37*
D13*
X106312121Y-87941027D02*
X106346523Y-87964819D01*
X106397330Y-88071724D01*
X106431985Y-88264768D01*
X106448163Y-88497122D01*
X106443539Y-88721959D01*
X106415789Y-88892450D01*
X106394898Y-88939319D01*
X106326372Y-88992465D01*
X106159000Y-89104259D01*
X105908626Y-89264659D01*
X105591093Y-89463627D01*
X105222243Y-89691121D01*
X104875264Y-89902412D01*
X104475016Y-90145260D01*
X104112104Y-90366430D01*
X103802378Y-90556186D01*
X103561687Y-90704788D01*
X103405882Y-90802497D01*
X103351775Y-90838476D01*
X103387129Y-90886310D01*
X103520993Y-90987851D01*
X103734900Y-91132092D01*
X104010383Y-91308029D01*
X104328975Y-91504655D01*
X104672209Y-91710964D01*
X105021619Y-91915950D01*
X105358736Y-92108606D01*
X105665095Y-92277927D01*
X105922227Y-92412907D01*
X106111667Y-92502538D01*
X106193917Y-92532357D01*
X106347650Y-92634541D01*
X106453748Y-92831170D01*
X106504581Y-93089128D01*
X106492515Y-93375302D01*
X106437450Y-93588927D01*
X106329675Y-93742052D01*
X106176147Y-93847367D01*
X106118734Y-93866748D01*
X106055402Y-93872124D01*
X105973533Y-93857238D01*
X105860512Y-93815832D01*
X105703721Y-93741648D01*
X105490545Y-93628427D01*
X105208366Y-93469913D01*
X104844568Y-93259846D01*
X104386535Y-92991969D01*
X104033563Y-92784625D01*
X103570784Y-92513363D01*
X103144592Y-92265068D01*
X102768666Y-92047590D01*
X102456683Y-91868781D01*
X102222322Y-91736490D01*
X102079261Y-91658569D01*
X102040229Y-91640526D01*
X101973228Y-91673753D01*
X101806361Y-91767779D01*
X101554095Y-91914126D01*
X101230896Y-92104312D01*
X100851229Y-92329859D01*
X100429561Y-92582285D01*
X100272800Y-92676579D01*
X99835906Y-92937365D01*
X99431880Y-93174079D01*
X99075943Y-93378151D01*
X98783318Y-93541014D01*
X98569227Y-93654098D01*
X98448894Y-93708834D01*
X98432283Y-93712632D01*
X98300522Y-93665802D01*
X98184702Y-93571930D01*
X98100575Y-93402597D01*
X98058900Y-93162904D01*
X98061362Y-92907927D01*
X98109644Y-92692740D01*
X98155369Y-92612464D01*
X98239142Y-92545787D01*
X98420897Y-92422909D01*
X98683111Y-92254938D01*
X99008263Y-92052982D01*
X99378831Y-91828149D01*
X99610477Y-91689974D01*
X99989822Y-91462556D01*
X100324989Y-91256685D01*
X100600637Y-91082194D01*
X100801422Y-90948920D01*
X100912002Y-90866696D01*
X100928238Y-90845284D01*
X100862899Y-90799886D01*
X100700204Y-90693729D01*
X100456093Y-90537009D01*
X100146508Y-90339926D01*
X99787391Y-90112678D01*
X99506551Y-89935758D01*
X99073770Y-89662684D01*
X98740820Y-89449179D01*
X98493829Y-89284506D01*
X98318922Y-89157927D01*
X98202229Y-89058705D01*
X98129875Y-88976104D01*
X98087988Y-88899386D01*
X98062833Y-88818374D01*
X98036138Y-88523364D01*
X98094914Y-88255966D01*
X98227047Y-88051530D01*
X98355162Y-87965452D01*
X98414074Y-87945260D01*
X98477618Y-87939669D01*
X98558764Y-87955448D01*
X98670483Y-87999370D01*
X98825744Y-88078207D01*
X99037521Y-88198729D01*
X99318782Y-88367708D01*
X99682499Y-88591915D01*
X100141643Y-88878123D01*
X100335141Y-88999107D01*
X100801714Y-89287901D01*
X101223798Y-89543239D01*
X101588622Y-89757792D01*
X101883418Y-89924235D01*
X102095415Y-90035239D01*
X102211842Y-90083477D01*
X102226716Y-90084492D01*
X102309522Y-90043458D01*
X102491451Y-89941752D01*
X102757419Y-89788188D01*
X103092344Y-89591580D01*
X103481141Y-89360741D01*
X103908727Y-89104486D01*
X104063619Y-89011109D01*
X104617231Y-88679393D01*
X105069958Y-88414784D01*
X105433305Y-88212008D01*
X105718780Y-88065790D01*
X105937892Y-87970857D01*
X106102148Y-87921935D01*
X106223055Y-87913750D01*
X106312121Y-87941027D01*
G36*
X103571843Y-81614211D02*
G01*
X100363421Y-81614211D01*
X100363421Y-81079474D01*
X103571843Y-81079474D01*
X103571843Y-81614211D01*
G37*
X103571843Y-81614211D02*
X100363421Y-81614211D01*
X100363421Y-81079474D01*
X103571843Y-81079474D01*
X103571843Y-81614211D01*
G36*
X104662155Y-83268557D02*
G01*
X104803971Y-83365628D01*
X104882283Y-83446176D01*
X104885144Y-83452981D01*
X104859100Y-83527853D01*
X104774667Y-83700294D01*
X104641264Y-83952659D01*
X104468306Y-84267306D01*
X104265211Y-84626589D01*
X104175818Y-84782008D01*
X103958823Y-85155378D01*
X103761661Y-85490778D01*
X103594958Y-85770446D01*
X103469334Y-85976621D01*
X103395415Y-86091542D01*
X103382857Y-86107827D01*
X103292412Y-86118596D01*
X103146639Y-86077722D01*
X103001102Y-86008217D01*
X102911366Y-85933090D01*
X102903421Y-85909281D01*
X102935328Y-85840589D01*
X103024856Y-85672900D01*
X103162719Y-85422951D01*
X103339631Y-85107480D01*
X103546305Y-84743224D01*
X103681600Y-84506705D01*
X104459778Y-83150363D01*
X104662155Y-83268557D01*
G37*
X104662155Y-83268557D02*
X104803971Y-83365628D01*
X104882283Y-83446176D01*
X104885144Y-83452981D01*
X104859100Y-83527853D01*
X104774667Y-83700294D01*
X104641264Y-83952659D01*
X104468306Y-84267306D01*
X104265211Y-84626589D01*
X104175818Y-84782008D01*
X103958823Y-85155378D01*
X103761661Y-85490778D01*
X103594958Y-85770446D01*
X103469334Y-85976621D01*
X103395415Y-86091542D01*
X103382857Y-86107827D01*
X103292412Y-86118596D01*
X103146639Y-86077722D01*
X103001102Y-86008217D01*
X102911366Y-85933090D01*
X102903421Y-85909281D01*
X102935328Y-85840589D01*
X103024856Y-85672900D01*
X103162719Y-85422951D01*
X103339631Y-85107480D01*
X103546305Y-84743224D01*
X103681600Y-84506705D01*
X104459778Y-83150363D01*
X104662155Y-83268557D01*
G36*
X102658637Y-97508875D02*
G01*
X102909026Y-97630605D01*
X102944542Y-97660515D01*
X103175828Y-97956935D01*
X103286274Y-98296896D01*
X103272847Y-98660755D01*
X103150554Y-98995830D01*
X102939936Y-99271833D01*
X102661131Y-99464813D01*
X102344414Y-99566415D01*
X102020062Y-99568280D01*
X101718352Y-99462050D01*
X101642496Y-99412125D01*
X101366393Y-99136961D01*
X101206711Y-98822266D01*
X101162285Y-98490650D01*
X101231948Y-98164726D01*
X101414537Y-97867102D01*
X101708885Y-97620390D01*
X101735661Y-97604437D01*
X102026808Y-97493697D01*
X102349515Y-97462541D01*
X102658637Y-97508875D01*
G37*
X102658637Y-97508875D02*
X102909026Y-97630605D01*
X102944542Y-97660515D01*
X103175828Y-97956935D01*
X103286274Y-98296896D01*
X103272847Y-98660755D01*
X103150554Y-98995830D01*
X102939936Y-99271833D01*
X102661131Y-99464813D01*
X102344414Y-99566415D01*
X102020062Y-99568280D01*
X101718352Y-99462050D01*
X101642496Y-99412125D01*
X101366393Y-99136961D01*
X101206711Y-98822266D01*
X101162285Y-98490650D01*
X101231948Y-98164726D01*
X101414537Y-97867102D01*
X101708885Y-97620390D01*
X101735661Y-97604437D01*
X102026808Y-97493697D01*
X102349515Y-97462541D01*
X102658637Y-97508875D01*
G36*
X100297180Y-84499423D02*
G01*
X100517082Y-84882182D01*
X100714022Y-85226500D01*
X100878361Y-85515400D01*
X101000461Y-85731905D01*
X101070682Y-85859037D01*
X101083722Y-85884780D01*
X101042829Y-85945383D01*
X100918247Y-86033668D01*
X100869124Y-86061523D01*
X100715982Y-86133843D01*
X100620146Y-86160147D01*
X100609169Y-86156542D01*
X100569056Y-86091759D01*
X100473092Y-85929149D01*
X100331866Y-85686889D01*
X100155970Y-85383158D01*
X99955995Y-85036132D01*
X99929328Y-84989737D01*
X99718376Y-84623091D01*
X99522059Y-84282758D01*
X99353232Y-83990959D01*
X99224753Y-83769913D01*
X99149479Y-83641840D01*
X99147976Y-83639332D01*
X99019566Y-83425242D01*
X99529096Y-83165300D01*
X100297180Y-84499423D01*
G37*
X100297180Y-84499423D02*
X100517082Y-84882182D01*
X100714022Y-85226500D01*
X100878361Y-85515400D01*
X101000461Y-85731905D01*
X101070682Y-85859037D01*
X101083722Y-85884780D01*
X101042829Y-85945383D01*
X100918247Y-86033668D01*
X100869124Y-86061523D01*
X100715982Y-86133843D01*
X100620146Y-86160147D01*
X100609169Y-86156542D01*
X100569056Y-86091759D01*
X100473092Y-85929149D01*
X100331866Y-85686889D01*
X100155970Y-85383158D01*
X99955995Y-85036132D01*
X99929328Y-84989737D01*
X99718376Y-84623091D01*
X99522059Y-84282758D01*
X99353232Y-83990959D01*
X99224753Y-83769913D01*
X99149479Y-83641840D01*
X99147976Y-83639332D01*
X99019566Y-83425242D01*
X99529096Y-83165300D01*
X100297180Y-84499423D01*
G36*
X98873364Y-125913262D02*
G01*
X98629255Y-125904903D01*
X98448144Y-125894202D01*
X98319933Y-125880887D01*
X98234526Y-125864686D01*
X98181825Y-125845326D01*
X98151730Y-125822535D01*
X98149106Y-125819493D01*
X98112956Y-125707583D01*
X98085381Y-125485146D01*
X98066185Y-125175054D01*
X98055169Y-124800176D01*
X98054639Y-124727369D01*
X99293948Y-124727369D01*
X101633421Y-124727369D01*
X101633421Y-122555000D01*
X101633017Y-121957825D01*
X101631323Y-121480916D01*
X101627615Y-121110853D01*
X101621173Y-120834219D01*
X101611272Y-120637597D01*
X101597192Y-120507568D01*
X101578208Y-120430714D01*
X101553599Y-120393617D01*
X101522642Y-120382859D01*
X101516448Y-120382684D01*
X101341160Y-120421453D01*
X101096785Y-120524783D01*
X100818356Y-120673389D01*
X100540904Y-120847983D01*
X100299461Y-121029279D01*
X100229378Y-121091278D01*
X99906067Y-121434171D01*
X99660230Y-121795650D01*
X99484004Y-122198230D01*
X99369530Y-122664422D01*
X99308945Y-123216741D01*
X99293948Y-123770290D01*
X99293948Y-124727369D01*
X98054639Y-124727369D01*
X98052135Y-124383383D01*
X98056886Y-123947544D01*
X98069223Y-123515530D01*
X98088949Y-123110210D01*
X98115865Y-122754455D01*
X98149774Y-122471134D01*
X98179383Y-122321053D01*
X98435178Y-121588095D01*
X98795416Y-120933864D01*
X99251746Y-120365331D01*
X99795816Y-119889467D01*
X100419275Y-119513244D01*
X101113770Y-119243632D01*
X101870951Y-119087602D01*
X102078461Y-119066385D01*
X102331820Y-119049404D01*
X102492387Y-119054970D01*
X102600287Y-119091351D01*
X102695647Y-119166816D01*
X102730171Y-119200673D01*
X102903421Y-119373924D01*
X102903421Y-122322073D01*
X104463198Y-121151826D01*
X104865860Y-120852999D01*
X105238955Y-120582339D01*
X105567851Y-120349971D01*
X105837921Y-120166019D01*
X106034533Y-120040606D01*
X106143057Y-119983857D01*
X106154303Y-119981579D01*
X106294387Y-120009910D01*
X106383598Y-120108288D01*
X106431084Y-120296790D01*
X106445993Y-120595495D01*
X106446053Y-120621896D01*
X106446053Y-121101791D01*
X106161974Y-121330006D01*
X106032539Y-121430430D01*
X105812801Y-121596928D01*
X105520211Y-121816450D01*
X105172217Y-122075947D01*
X104786271Y-122362369D01*
X104390658Y-122654677D01*
X102903421Y-123751132D01*
X102903421Y-124727369D01*
X106184761Y-124727369D01*
X106348828Y-124891436D01*
X106480394Y-125113055D01*
X106505668Y-125392300D01*
X106438487Y-125661271D01*
X106359720Y-125805382D01*
X106292329Y-125877484D01*
X106212684Y-125886685D01*
X106011257Y-125895385D01*
X105699951Y-125903434D01*
X105290667Y-125910679D01*
X104795306Y-125916967D01*
X104225772Y-125922146D01*
X103593966Y-125926065D01*
X102911789Y-125928570D01*
X102226474Y-125929503D01*
X101392318Y-125929471D01*
X100681747Y-125928733D01*
X100084664Y-125927015D01*
X99590971Y-125924046D01*
X99293948Y-125920713D01*
X99190571Y-125919552D01*
X98873364Y-125913262D01*
G37*
X98873364Y-125913262D02*
X98629255Y-125904903D01*
X98448144Y-125894202D01*
X98319933Y-125880887D01*
X98234526Y-125864686D01*
X98181825Y-125845326D01*
X98151730Y-125822535D01*
X98149106Y-125819493D01*
X98112956Y-125707583D01*
X98085381Y-125485146D01*
X98066185Y-125175054D01*
X98055169Y-124800176D01*
X98054639Y-124727369D01*
X99293948Y-124727369D01*
X101633421Y-124727369D01*
X101633421Y-122555000D01*
X101633017Y-121957825D01*
X101631323Y-121480916D01*
X101627615Y-121110853D01*
X101621173Y-120834219D01*
X101611272Y-120637597D01*
X101597192Y-120507568D01*
X101578208Y-120430714D01*
X101553599Y-120393617D01*
X101522642Y-120382859D01*
X101516448Y-120382684D01*
X101341160Y-120421453D01*
X101096785Y-120524783D01*
X100818356Y-120673389D01*
X100540904Y-120847983D01*
X100299461Y-121029279D01*
X100229378Y-121091278D01*
X99906067Y-121434171D01*
X99660230Y-121795650D01*
X99484004Y-122198230D01*
X99369530Y-122664422D01*
X99308945Y-123216741D01*
X99293948Y-123770290D01*
X99293948Y-124727369D01*
X98054639Y-124727369D01*
X98052135Y-124383383D01*
X98056886Y-123947544D01*
X98069223Y-123515530D01*
X98088949Y-123110210D01*
X98115865Y-122754455D01*
X98149774Y-122471134D01*
X98179383Y-122321053D01*
X98435178Y-121588095D01*
X98795416Y-120933864D01*
X99251746Y-120365331D01*
X99795816Y-119889467D01*
X100419275Y-119513244D01*
X101113770Y-119243632D01*
X101870951Y-119087602D01*
X102078461Y-119066385D01*
X102331820Y-119049404D01*
X102492387Y-119054970D01*
X102600287Y-119091351D01*
X102695647Y-119166816D01*
X102730171Y-119200673D01*
X102903421Y-119373924D01*
X102903421Y-122322073D01*
X104463198Y-121151826D01*
X104865860Y-120852999D01*
X105238955Y-120582339D01*
X105567851Y-120349971D01*
X105837921Y-120166019D01*
X106034533Y-120040606D01*
X106143057Y-119983857D01*
X106154303Y-119981579D01*
X106294387Y-120009910D01*
X106383598Y-120108288D01*
X106431084Y-120296790D01*
X106445993Y-120595495D01*
X106446053Y-120621896D01*
X106446053Y-121101791D01*
X106161974Y-121330006D01*
X106032539Y-121430430D01*
X105812801Y-121596928D01*
X105520211Y-121816450D01*
X105172217Y-122075947D01*
X104786271Y-122362369D01*
X104390658Y-122654677D01*
X102903421Y-123751132D01*
X102903421Y-124727369D01*
X106184761Y-124727369D01*
X106348828Y-124891436D01*
X106480394Y-125113055D01*
X106505668Y-125392300D01*
X106438487Y-125661271D01*
X106359720Y-125805382D01*
X106292329Y-125877484D01*
X106212684Y-125886685D01*
X106011257Y-125895385D01*
X105699951Y-125903434D01*
X105290667Y-125910679D01*
X104795306Y-125916967D01*
X104225772Y-125922146D01*
X103593966Y-125926065D01*
X102911789Y-125928570D01*
X102226474Y-125929503D01*
X101392318Y-125929471D01*
X100681747Y-125928733D01*
X100084664Y-125927015D01*
X99590971Y-125924046D01*
X99293948Y-125920713D01*
X99190571Y-125919552D01*
X98873364Y-125913262D01*
G36*
X99820540Y-87262369D02*
G01*
X97686632Y-83562091D01*
X97690576Y-83555243D01*
X98385474Y-83555243D01*
X98412771Y-83620382D01*
X98498784Y-83785574D01*
X98634972Y-84035344D01*
X98812789Y-84354213D01*
X99023692Y-84726705D01*
X99252615Y-85126032D01*
X100137533Y-86660790D01*
X103825941Y-86696302D01*
X104724447Y-85141177D01*
X105622953Y-83586053D01*
X105449634Y-83280400D01*
X105364657Y-83131256D01*
X105225801Y-82888376D01*
X105045769Y-82573947D01*
X104837269Y-82210157D01*
X104613006Y-81819190D01*
X104541053Y-81693821D01*
X103805790Y-80412895D01*
X100188460Y-80411053D01*
X99295856Y-81965132D01*
X99058689Y-82378237D01*
X98843903Y-82752705D01*
X98660345Y-83073088D01*
X98516859Y-83323935D01*
X98422289Y-83489798D01*
X98385481Y-83555229D01*
X98385474Y-83555243D01*
X97690576Y-83555243D01*
X98767139Y-81685783D01*
X99847646Y-79809474D01*
X104140035Y-79809474D01*
X104975544Y-81259561D01*
X105221231Y-81686729D01*
X105458954Y-82101449D01*
X105675951Y-82481348D01*
X105859458Y-82804057D01*
X105996715Y-83047203D01*
X106052803Y-83147851D01*
X106294553Y-83586053D01*
X104147295Y-87297583D01*
X103825941Y-87294968D01*
X101983917Y-87279976D01*
X99820540Y-87262369D01*
G37*
X99820540Y-87262369D02*
X97686632Y-83562091D01*
X97690576Y-83555243D01*
X98385474Y-83555243D01*
X98412771Y-83620382D01*
X98498784Y-83785574D01*
X98634972Y-84035344D01*
X98812789Y-84354213D01*
X99023692Y-84726705D01*
X99252615Y-85126032D01*
X100137533Y-86660790D01*
X103825941Y-86696302D01*
X104724447Y-85141177D01*
X105622953Y-83586053D01*
X105449634Y-83280400D01*
X105364657Y-83131256D01*
X105225801Y-82888376D01*
X105045769Y-82573947D01*
X104837269Y-82210157D01*
X104613006Y-81819190D01*
X104541053Y-81693821D01*
X103805790Y-80412895D01*
X100188460Y-80411053D01*
X99295856Y-81965132D01*
X99058689Y-82378237D01*
X98843903Y-82752705D01*
X98660345Y-83073088D01*
X98516859Y-83323935D01*
X98422289Y-83489798D01*
X98385481Y-83555229D01*
X98385474Y-83555243D01*
X97690576Y-83555243D01*
X98767139Y-81685783D01*
X99847646Y-79809474D01*
X104140035Y-79809474D01*
X104975544Y-81259561D01*
X105221231Y-81686729D01*
X105458954Y-82101449D01*
X105675951Y-82481348D01*
X105859458Y-82804057D01*
X105996715Y-83047203D01*
X106052803Y-83147851D01*
X106294553Y-83586053D01*
X104147295Y-87297583D01*
X103825941Y-87294968D01*
X101983917Y-87279976D01*
X99820540Y-87262369D01*
G36*
X98343783Y-109946964D02*
G01*
X98183865Y-109787047D01*
X98125998Y-109724576D01*
X98084141Y-109656466D01*
X98055752Y-109561508D01*
X98038284Y-109418495D01*
X98029196Y-109206219D01*
X98025942Y-108903470D01*
X98025962Y-108685263D01*
X99293948Y-108685263D01*
X105242895Y-108685263D01*
X105242895Y-107756515D01*
X105238295Y-107328521D01*
X105222356Y-107000881D01*
X105191869Y-106740511D01*
X105143625Y-106514326D01*
X105111609Y-106402962D01*
X104864715Y-105816684D01*
X104511423Y-105311340D01*
X104051727Y-104886923D01*
X103508467Y-104554695D01*
X103288853Y-104448114D01*
X103115640Y-104377565D01*
X102950724Y-104335619D01*
X102756000Y-104314848D01*
X102493362Y-104307823D01*
X102238467Y-104307105D01*
X101897643Y-104309381D01*
X101652681Y-104320612D01*
X101465780Y-104347410D01*
X101299139Y-104396383D01*
X101114956Y-104474141D01*
X101014562Y-104521097D01*
X100501320Y-104830399D01*
X100059326Y-105229757D01*
X99705748Y-105698192D01*
X99457757Y-106214724D01*
X99368056Y-106532895D01*
X99339745Y-106736790D01*
X99316423Y-107035329D01*
X99300399Y-107389500D01*
X99293978Y-107760292D01*
X99293948Y-107786185D01*
X99293948Y-108685263D01*
X98025962Y-108685263D01*
X98025980Y-108489042D01*
X98026012Y-108471065D01*
X98036653Y-107753772D01*
X98068454Y-107148320D01*
X98125411Y-106633972D01*
X98211517Y-106189991D01*
X98330769Y-105795639D01*
X98487161Y-105430180D01*
X98678811Y-105082547D01*
X99120376Y-104481241D01*
X99658259Y-103967449D01*
X100279645Y-103551473D01*
X100962048Y-103246976D01*
X101603732Y-103086013D01*
X102279399Y-103029985D01*
X102948190Y-103079791D01*
X103438158Y-103192492D01*
X104134291Y-103474646D01*
X104763446Y-103863913D01*
X105313471Y-104348435D01*
X105772214Y-104916352D01*
X106127524Y-105555807D01*
X106287308Y-105972917D01*
X106345161Y-106160785D01*
X106389212Y-106333335D01*
X106421789Y-106513932D01*
X106445219Y-106725942D01*
X106461831Y-106992732D01*
X106473950Y-107337668D01*
X106483906Y-107784116D01*
X106487573Y-107983421D01*
X106492922Y-108450712D01*
X106491846Y-108863640D01*
X106484778Y-109203340D01*
X106472155Y-109450947D01*
X106454411Y-109587596D01*
X106450277Y-109599973D01*
X106349341Y-109743427D01*
X106266008Y-109808235D01*
X106177717Y-109820581D01*
X105967174Y-109833354D01*
X105645805Y-109846269D01*
X105225042Y-109859039D01*
X104716311Y-109871380D01*
X104131043Y-109883005D01*
X103480666Y-109893630D01*
X102776610Y-109902968D01*
X102244523Y-109908718D01*
X99293948Y-109937647D01*
X98343783Y-109946964D01*
G37*
X98343783Y-109946964D02*
X98183865Y-109787047D01*
X98125998Y-109724576D01*
X98084141Y-109656466D01*
X98055752Y-109561508D01*
X98038284Y-109418495D01*
X98029196Y-109206219D01*
X98025942Y-108903470D01*
X98025962Y-108685263D01*
X99293948Y-108685263D01*
X105242895Y-108685263D01*
X105242895Y-107756515D01*
X105238295Y-107328521D01*
X105222356Y-107000881D01*
X105191869Y-106740511D01*
X105143625Y-106514326D01*
X105111609Y-106402962D01*
X104864715Y-105816684D01*
X104511423Y-105311340D01*
X104051727Y-104886923D01*
X103508467Y-104554695D01*
X103288853Y-104448114D01*
X103115640Y-104377565D01*
X102950724Y-104335619D01*
X102756000Y-104314848D01*
X102493362Y-104307823D01*
X102238467Y-104307105D01*
X101897643Y-104309381D01*
X101652681Y-104320612D01*
X101465780Y-104347410D01*
X101299139Y-104396383D01*
X101114956Y-104474141D01*
X101014562Y-104521097D01*
X100501320Y-104830399D01*
X100059326Y-105229757D01*
X99705748Y-105698192D01*
X99457757Y-106214724D01*
X99368056Y-106532895D01*
X99339745Y-106736790D01*
X99316423Y-107035329D01*
X99300399Y-107389500D01*
X99293978Y-107760292D01*
X99293948Y-107786185D01*
X99293948Y-108685263D01*
X98025962Y-108685263D01*
X98025980Y-108489042D01*
X98026012Y-108471065D01*
X98036653Y-107753772D01*
X98068454Y-107148320D01*
X98125411Y-106633972D01*
X98211517Y-106189991D01*
X98330769Y-105795639D01*
X98487161Y-105430180D01*
X98678811Y-105082547D01*
X99120376Y-104481241D01*
X99658259Y-103967449D01*
X100279645Y-103551473D01*
X100962048Y-103246976D01*
X101603732Y-103086013D01*
X102279399Y-103029985D01*
X102948190Y-103079791D01*
X103438158Y-103192492D01*
X104134291Y-103474646D01*
X104763446Y-103863913D01*
X105313471Y-104348435D01*
X105772214Y-104916352D01*
X106127524Y-105555807D01*
X106287308Y-105972917D01*
X106345161Y-106160785D01*
X106389212Y-106333335D01*
X106421789Y-106513932D01*
X106445219Y-106725942D01*
X106461831Y-106992732D01*
X106473950Y-107337668D01*
X106483906Y-107784116D01*
X106487573Y-107983421D01*
X106492922Y-108450712D01*
X106491846Y-108863640D01*
X106484778Y-109203340D01*
X106472155Y-109450947D01*
X106454411Y-109587596D01*
X106450277Y-109599973D01*
X106349341Y-109743427D01*
X106266008Y-109808235D01*
X106177717Y-109820581D01*
X105967174Y-109833354D01*
X105645805Y-109846269D01*
X105225042Y-109859039D01*
X104716311Y-109871380D01*
X104131043Y-109883005D01*
X103480666Y-109893630D01*
X102776610Y-109902968D01*
X102244523Y-109908718D01*
X99293948Y-109937647D01*
X98343783Y-109946964D01*
G36*
X106161628Y-110323645D02*
G01*
X106356817Y-110433268D01*
X106367559Y-110444177D01*
X106407445Y-110489870D01*
X106439231Y-110542486D01*
X106463795Y-110616562D01*
X106482012Y-110726635D01*
X106494759Y-110887242D01*
X106502912Y-111112920D01*
X106507348Y-111418206D01*
X106508942Y-111817638D01*
X106508572Y-112325751D01*
X106507581Y-112766940D01*
X106503955Y-113456011D01*
X106496468Y-114023524D01*
X106484661Y-114481560D01*
X106468077Y-114842203D01*
X106446258Y-115117534D01*
X106418746Y-115319635D01*
X106408953Y-115369474D01*
X106202308Y-116026038D01*
X105879358Y-116651299D01*
X105457147Y-117223438D01*
X104952719Y-117720633D01*
X104383117Y-118121064D01*
X104171159Y-118234491D01*
X103453034Y-118519935D01*
X102731657Y-118673746D01*
X102015858Y-118697429D01*
X101314467Y-118592487D01*
X100636313Y-118360424D01*
X99990224Y-118002746D01*
X99385030Y-117520957D01*
X99257042Y-117397247D01*
X98988044Y-117103331D01*
X98773454Y-116802570D01*
X98574573Y-116439134D01*
X98531870Y-116351066D01*
X98396195Y-116050653D01*
X98276360Y-115756423D01*
X98190168Y-115513374D01*
X98164854Y-115423427D01*
X98142686Y-115256899D01*
X98124119Y-114965441D01*
X98109402Y-114557766D01*
X98098784Y-114042585D01*
X98092514Y-113428612D01*
X98090790Y-112833296D01*
X98090578Y-112183133D01*
X98092120Y-111654171D01*
X98098681Y-111233938D01*
X98113528Y-110909958D01*
X98139928Y-110669758D01*
X98181145Y-110500864D01*
X98240447Y-110390802D01*
X98321100Y-110327097D01*
X98426369Y-110297277D01*
X98559521Y-110288867D01*
X98723822Y-110289393D01*
X98756859Y-110289474D01*
X98993206Y-110297660D01*
X99132047Y-110328764D01*
X99208916Y-110392604D01*
X99224754Y-110418764D01*
X99245663Y-110526385D01*
X99263143Y-110759728D01*
X99276947Y-111110868D01*
X99286829Y-111571882D01*
X99292543Y-112134843D01*
X99293948Y-112643931D01*
X99295293Y-113299634D01*
X99300768Y-113838725D01*
X99312528Y-114278262D01*
X99332731Y-114635302D01*
X99363531Y-114926904D01*
X99407087Y-115170124D01*
X99465553Y-115382021D01*
X99541088Y-115579651D01*
X99635846Y-115780074D01*
X99707895Y-115918284D01*
X100006708Y-116355035D01*
X100404259Y-116753907D01*
X100865973Y-117086973D01*
X101357273Y-117326311D01*
X101516448Y-117378937D01*
X101700264Y-117432247D01*
X101700264Y-110497581D01*
X101848821Y-110393527D01*
X102033803Y-110321246D01*
X102280376Y-110293046D01*
X102529089Y-110309541D01*
X102720494Y-110371346D01*
X102740251Y-110384317D01*
X102769086Y-110409917D01*
X102793476Y-110448398D01*
X102813923Y-110510751D01*
X102830930Y-110607970D01*
X102845000Y-110751048D01*
X102856637Y-110950977D01*
X102866343Y-111218752D01*
X102874620Y-111565365D01*
X102881973Y-112001808D01*
X102888904Y-112539075D01*
X102895916Y-113188159D01*
X102903421Y-113950686D01*
X102936843Y-117422212D01*
X103248960Y-117331179D01*
X103716385Y-117131813D01*
X104162971Y-116823953D01*
X104561944Y-116432657D01*
X104886530Y-115982983D01*
X105059262Y-115636842D01*
X105099040Y-115533608D01*
X105131396Y-115429180D01*
X105157349Y-115308432D01*
X105177913Y-115156236D01*
X105194105Y-114957465D01*
X105206941Y-114696991D01*
X105217436Y-114359688D01*
X105226607Y-113930427D01*
X105235469Y-113394082D01*
X105242602Y-112907025D01*
X105276316Y-110544839D01*
X105434116Y-110417157D01*
X105647677Y-110314067D01*
X105907715Y-110283404D01*
X106161628Y-110323645D01*
G37*
X106161628Y-110323645D02*
X106356817Y-110433268D01*
X106367559Y-110444177D01*
X106407445Y-110489870D01*
X106439231Y-110542486D01*
X106463795Y-110616562D01*
X106482012Y-110726635D01*
X106494759Y-110887242D01*
X106502912Y-111112920D01*
X106507348Y-111418206D01*
X106508942Y-111817638D01*
X106508572Y-112325751D01*
X106507581Y-112766940D01*
X106503955Y-113456011D01*
X106496468Y-114023524D01*
X106484661Y-114481560D01*
X106468077Y-114842203D01*
X106446258Y-115117534D01*
X106418746Y-115319635D01*
X106408953Y-115369474D01*
X106202308Y-116026038D01*
X105879358Y-116651299D01*
X105457147Y-117223438D01*
X104952719Y-117720633D01*
X104383117Y-118121064D01*
X104171159Y-118234491D01*
X103453034Y-118519935D01*
X102731657Y-118673746D01*
X102015858Y-118697429D01*
X101314467Y-118592487D01*
X100636313Y-118360424D01*
X99990224Y-118002746D01*
X99385030Y-117520957D01*
X99257042Y-117397247D01*
X98988044Y-117103331D01*
X98773454Y-116802570D01*
X98574573Y-116439134D01*
X98531870Y-116351066D01*
X98396195Y-116050653D01*
X98276360Y-115756423D01*
X98190168Y-115513374D01*
X98164854Y-115423427D01*
X98142686Y-115256899D01*
X98124119Y-114965441D01*
X98109402Y-114557766D01*
X98098784Y-114042585D01*
X98092514Y-113428612D01*
X98090790Y-112833296D01*
X98090578Y-112183133D01*
X98092120Y-111654171D01*
X98098681Y-111233938D01*
X98113528Y-110909958D01*
X98139928Y-110669758D01*
X98181145Y-110500864D01*
X98240447Y-110390802D01*
X98321100Y-110327097D01*
X98426369Y-110297277D01*
X98559521Y-110288867D01*
X98723822Y-110289393D01*
X98756859Y-110289474D01*
X98993206Y-110297660D01*
X99132047Y-110328764D01*
X99208916Y-110392604D01*
X99224754Y-110418764D01*
X99245663Y-110526385D01*
X99263143Y-110759728D01*
X99276947Y-111110868D01*
X99286829Y-111571882D01*
X99292543Y-112134843D01*
X99293948Y-112643931D01*
X99295293Y-113299634D01*
X99300768Y-113838725D01*
X99312528Y-114278262D01*
X99332731Y-114635302D01*
X99363531Y-114926904D01*
X99407087Y-115170124D01*
X99465553Y-115382021D01*
X99541088Y-115579651D01*
X99635846Y-115780074D01*
X99707895Y-115918284D01*
X100006708Y-116355035D01*
X100404259Y-116753907D01*
X100865973Y-117086973D01*
X101357273Y-117326311D01*
X101516448Y-117378937D01*
X101700264Y-117432247D01*
X101700264Y-110497581D01*
X101848821Y-110393527D01*
X102033803Y-110321246D01*
X102280376Y-110293046D01*
X102529089Y-110309541D01*
X102720494Y-110371346D01*
X102740251Y-110384317D01*
X102769086Y-110409917D01*
X102793476Y-110448398D01*
X102813923Y-110510751D01*
X102830930Y-110607970D01*
X102845000Y-110751048D01*
X102856637Y-110950977D01*
X102866343Y-111218752D01*
X102874620Y-111565365D01*
X102881973Y-112001808D01*
X102888904Y-112539075D01*
X102895916Y-113188159D01*
X102903421Y-113950686D01*
X102936843Y-117422212D01*
X103248960Y-117331179D01*
X103716385Y-117131813D01*
X104162971Y-116823953D01*
X104561944Y-116432657D01*
X104886530Y-115982983D01*
X105059262Y-115636842D01*
X105099040Y-115533608D01*
X105131396Y-115429180D01*
X105157349Y-115308432D01*
X105177913Y-115156236D01*
X105194105Y-114957465D01*
X105206941Y-114696991D01*
X105217436Y-114359688D01*
X105226607Y-113930427D01*
X105235469Y-113394082D01*
X105242602Y-112907025D01*
X105276316Y-110544839D01*
X105434116Y-110417157D01*
X105647677Y-110314067D01*
X105907715Y-110283404D01*
X106161628Y-110323645D01*
G36*
X101879917Y-102658221D02*
G01*
X101329965Y-102568546D01*
X100909914Y-102430589D01*
X100456087Y-102229428D01*
X100016794Y-101989960D01*
X99640345Y-101737079D01*
X99510329Y-101630861D01*
X98987555Y-101084928D01*
X98580217Y-100473584D01*
X98291771Y-99804443D01*
X98125673Y-99085116D01*
X98083242Y-98488056D01*
X98105291Y-98216862D01*
X99309539Y-98216862D01*
X99312769Y-98713672D01*
X99423559Y-99306095D01*
X99643488Y-99851297D01*
X99957935Y-100338507D01*
X100352278Y-100756953D01*
X100811893Y-101095864D01*
X101322159Y-101344469D01*
X101868454Y-101491996D01*
X102436154Y-101527674D01*
X103010638Y-101440731D01*
X103013698Y-101439918D01*
X103573836Y-101223439D01*
X104077906Y-100893987D01*
X104512423Y-100465310D01*
X104863904Y-99951154D01*
X105118864Y-99365267D01*
X105151345Y-99260526D01*
X105198438Y-98999468D01*
X105219730Y-98645897D01*
X105216943Y-98339522D01*
X105200015Y-98021876D01*
X105168208Y-97785929D01*
X105109158Y-97579717D01*
X105010499Y-97351278D01*
X104954485Y-97236627D01*
X104719294Y-96810330D01*
X104477869Y-96480615D01*
X104201054Y-96212360D01*
X103953662Y-96031028D01*
X103472746Y-95761398D01*
X102986277Y-95597625D01*
X102454752Y-95529054D01*
X102093818Y-95529330D01*
X101772957Y-95546875D01*
X101535274Y-95577532D01*
X101330270Y-95633399D01*
X101107440Y-95726573D01*
X100946938Y-95804054D01*
X100413172Y-96138247D01*
X99975261Y-96559601D01*
X99640493Y-97055139D01*
X99416157Y-97611885D01*
X99309539Y-98216862D01*
X98105291Y-98216862D01*
X98143368Y-97748523D01*
X98324606Y-97049993D01*
X98617710Y-96403820D01*
X99013437Y-95821358D01*
X99502543Y-95313960D01*
X100075783Y-94892979D01*
X100723915Y-94569769D01*
X101437693Y-94355684D01*
X101449848Y-94353156D01*
X101957436Y-94271255D01*
X102410970Y-94254828D01*
X102872806Y-94303623D01*
X103098534Y-94346493D01*
X103807457Y-94560297D01*
X104451723Y-94882933D01*
X105022547Y-95302170D01*
X105511140Y-95805778D01*
X105908717Y-96381525D01*
X106206490Y-97017180D01*
X106395672Y-97700512D01*
X106467476Y-98419291D01*
X106436775Y-98993158D01*
X106297358Y-99635879D01*
X106044017Y-100272911D01*
X105693881Y-100872178D01*
X105264080Y-101401602D01*
X105032022Y-101623675D01*
X104487532Y-102020318D01*
X103874050Y-102328737D01*
X103217603Y-102542289D01*
X102544216Y-102654332D01*
X102436154Y-102654964D01*
X101879917Y-102658221D01*
G37*
X101879917Y-102658221D02*
X101329965Y-102568546D01*
X100909914Y-102430589D01*
X100456087Y-102229428D01*
X100016794Y-101989960D01*
X99640345Y-101737079D01*
X99510329Y-101630861D01*
X98987555Y-101084928D01*
X98580217Y-100473584D01*
X98291771Y-99804443D01*
X98125673Y-99085116D01*
X98083242Y-98488056D01*
X98105291Y-98216862D01*
X99309539Y-98216862D01*
X99312769Y-98713672D01*
X99423559Y-99306095D01*
X99643488Y-99851297D01*
X99957935Y-100338507D01*
X100352278Y-100756953D01*
X100811893Y-101095864D01*
X101322159Y-101344469D01*
X101868454Y-101491996D01*
X102436154Y-101527674D01*
X103010638Y-101440731D01*
X103013698Y-101439918D01*
X103573836Y-101223439D01*
X104077906Y-100893987D01*
X104512423Y-100465310D01*
X104863904Y-99951154D01*
X105118864Y-99365267D01*
X105151345Y-99260526D01*
X105198438Y-98999468D01*
X105219730Y-98645897D01*
X105216943Y-98339522D01*
X105200015Y-98021876D01*
X105168208Y-97785929D01*
X105109158Y-97579717D01*
X105010499Y-97351278D01*
X104954485Y-97236627D01*
X104719294Y-96810330D01*
X104477869Y-96480615D01*
X104201054Y-96212360D01*
X103953662Y-96031028D01*
X103472746Y-95761398D01*
X102986277Y-95597625D01*
X102454752Y-95529054D01*
X102093818Y-95529330D01*
X101772957Y-95546875D01*
X101535274Y-95577532D01*
X101330270Y-95633399D01*
X101107440Y-95726573D01*
X100946938Y-95804054D01*
X100413172Y-96138247D01*
X99975261Y-96559601D01*
X99640493Y-97055139D01*
X99416157Y-97611885D01*
X99309539Y-98216862D01*
X98105291Y-98216862D01*
X98143368Y-97748523D01*
X98324606Y-97049993D01*
X98617710Y-96403820D01*
X99013437Y-95821358D01*
X99502543Y-95313960D01*
X100075783Y-94892979D01*
X100723915Y-94569769D01*
X101437693Y-94355684D01*
X101449848Y-94353156D01*
X101957436Y-94271255D01*
X102410970Y-94254828D01*
X102872806Y-94303623D01*
X103098534Y-94346493D01*
X103807457Y-94560297D01*
X104451723Y-94882933D01*
X105022547Y-95302170D01*
X105511140Y-95805778D01*
X105908717Y-96381525D01*
X106206490Y-97017180D01*
X106395672Y-97700512D01*
X106467476Y-98419291D01*
X106436775Y-98993158D01*
X106297358Y-99635879D01*
X106044017Y-100272911D01*
X105693881Y-100872178D01*
X105264080Y-101401602D01*
X105032022Y-101623675D01*
X104487532Y-102020318D01*
X103874050Y-102328737D01*
X103217603Y-102542289D01*
X102544216Y-102654332D01*
X102436154Y-102654964D01*
X101879917Y-102658221D01*
D11*
X99262860Y-71785480D02*
X99262860Y-74505480D01*
X99262860Y-61625480D02*
X99262860Y-58905480D01*
X83662860Y-71785480D02*
X83662860Y-74505480D01*
X83662860Y-74505480D02*
X86382860Y-74505480D01*
X83662860Y-58905480D02*
X83662860Y-61625480D01*
X86382860Y-58905480D02*
X83662860Y-58905480D01*
X99262860Y-74505480D02*
X96542860Y-74505480D01*
X99262860Y-58905480D02*
X96542860Y-58905480D01*
X107972860Y-58905480D02*
X105252860Y-58905480D01*
X105252860Y-58905480D02*
X105252860Y-61625480D01*
X120852860Y-71785480D02*
X120852860Y-74505480D01*
X105252860Y-71785480D02*
X105252860Y-74505480D01*
X105252860Y-74505480D02*
X107972860Y-74505480D01*
X120852860Y-58905480D02*
X118132860Y-58905480D01*
X120852860Y-61625480D02*
X120852860Y-58905480D01*
X120852860Y-74505480D02*
X118132860Y-74505480D01*
X124302860Y-70060480D02*
X127022860Y-70060480D01*
X139902860Y-54460480D02*
X137182860Y-54460480D01*
X127022860Y-54460480D02*
X124302860Y-54460480D01*
X139902860Y-57180480D02*
X139902860Y-54460480D01*
X139902860Y-67340480D02*
X139902860Y-70060480D01*
X124302860Y-67340480D02*
X124302860Y-70060480D01*
X124302860Y-54460480D02*
X124302860Y-57180480D01*
X139902860Y-70060480D02*
X137182860Y-70060480D01*
X158952860Y-54640480D02*
X158952860Y-51920480D01*
X158952860Y-51920480D02*
X156232860Y-51920480D01*
X158952860Y-67520480D02*
X156232860Y-67520480D01*
X143352860Y-64800480D02*
X143352860Y-67520480D01*
X146072860Y-51920480D02*
X143352860Y-51920480D01*
X143352860Y-51920480D02*
X143352860Y-54640480D01*
X158952860Y-64800480D02*
X158952860Y-67520480D01*
X143352860Y-67520480D02*
X146072860Y-67520480D01*
X162402860Y-54460480D02*
X162402860Y-57180480D01*
X165122860Y-54460480D02*
X162402860Y-54460480D01*
X162402860Y-70060480D02*
X165122860Y-70060480D01*
X178002860Y-70060480D02*
X175282860Y-70060480D01*
X178002860Y-54460480D02*
X175282860Y-54460480D01*
X178002860Y-67340480D02*
X178002860Y-70060480D01*
X162402860Y-67340480D02*
X162402860Y-70060480D01*
X178002860Y-57180480D02*
X178002860Y-54460480D01*
X181452860Y-56365480D02*
X181452860Y-59085480D01*
X197052860Y-59085480D02*
X197052860Y-56365480D01*
X197052860Y-56365480D02*
X194332860Y-56365480D01*
X197052860Y-71965480D02*
X197052860Y-69245480D01*
X181452860Y-71965480D02*
X181452860Y-69245480D01*
X184172860Y-71965480D02*
X181452860Y-71965480D01*
X184172860Y-56365480D02*
X181452860Y-56365480D01*
X194332860Y-71965480D02*
X197052860Y-71965480D01*
X216102860Y-65890480D02*
X213382860Y-65890480D01*
X216102860Y-78770480D02*
X216102860Y-81490480D01*
X200502860Y-65890480D02*
X200502860Y-68610480D01*
X216102860Y-68610480D02*
X216102860Y-65890480D01*
X200502860Y-81490480D02*
X203222860Y-81490480D01*
X200502860Y-78770480D02*
X200502860Y-81490480D01*
X216102860Y-81490480D02*
X213382860Y-81490480D01*
X203222860Y-65890480D02*
X200502860Y-65890480D01*
X139902860Y-89110480D02*
X137182860Y-89110480D01*
X124302860Y-73510480D02*
X124302860Y-76230480D01*
X127022860Y-73510480D02*
X124302860Y-73510480D01*
X139902860Y-76230480D02*
X139902860Y-73510480D01*
X139902860Y-73510480D02*
X137182860Y-73510480D01*
X124302860Y-89110480D02*
X127022860Y-89110480D01*
X124302860Y-86390480D02*
X124302860Y-89110480D01*
X139902860Y-86390480D02*
X139902860Y-89110480D01*
X158952860Y-83850480D02*
X158952860Y-86570480D01*
X158952860Y-70970480D02*
X156232860Y-70970480D01*
X143352860Y-83850480D02*
X143352860Y-86570480D01*
X143352860Y-86570480D02*
X146072860Y-86570480D01*
X158952860Y-73690480D02*
X158952860Y-70970480D01*
X146072860Y-70970480D02*
X143352860Y-70970480D01*
X158952860Y-86570480D02*
X156232860Y-86570480D01*
X143352860Y-70970480D02*
X143352860Y-73690480D01*
X178002860Y-76230480D02*
X178002860Y-73510480D01*
X165122860Y-73510480D02*
X162402860Y-73510480D01*
X162402860Y-89110480D02*
X165122860Y-89110480D01*
X178002860Y-86390480D02*
X178002860Y-89110480D01*
X162402860Y-86390480D02*
X162402860Y-89110480D01*
X178002860Y-89110480D02*
X175282860Y-89110480D01*
X178002860Y-73510480D02*
X175282860Y-73510480D01*
X162402860Y-73510480D02*
X162402860Y-76230480D01*
X197052860Y-91015480D02*
X194332860Y-91015480D01*
X181452860Y-91015480D02*
X184172860Y-91015480D01*
X197052860Y-75415480D02*
X194332860Y-75415480D01*
X197052860Y-78135480D02*
X197052860Y-75415480D01*
X181452860Y-75415480D02*
X181452860Y-78135480D01*
X184172860Y-75415480D02*
X181452860Y-75415480D01*
X197052860Y-88295480D02*
X197052860Y-91015480D01*
X181452860Y-88295480D02*
X181452860Y-91015480D01*
X200502860Y-90020480D02*
X200502860Y-92740480D01*
X216102860Y-102900480D02*
X216102860Y-105620480D01*
X200502860Y-105620480D02*
X203222860Y-105620480D01*
X200502860Y-102900480D02*
X200502860Y-105620480D01*
X216102860Y-105620480D02*
X213382860Y-105620480D01*
X203222860Y-90020480D02*
X200502860Y-90020480D01*
X216102860Y-90020480D02*
X213382860Y-90020480D01*
X216102860Y-92740480D02*
X216102860Y-90020480D01*
X83662860Y-97005480D02*
X83662860Y-99725480D01*
X99262860Y-97005480D02*
X96542860Y-97005480D01*
X86382860Y-97005480D02*
X83662860Y-97005480D01*
X83662860Y-112605480D02*
X86382860Y-112605480D01*
X99262860Y-112605480D02*
X96542860Y-112605480D01*
X83662860Y-109885480D02*
X83662860Y-112605480D01*
X99262860Y-109885480D02*
X99262860Y-112605480D01*
X99262860Y-99725480D02*
X99262860Y-97005480D01*
X105252860Y-109885480D02*
X105252860Y-112605480D01*
X120852860Y-109885480D02*
X120852860Y-112605480D01*
X107972860Y-97005480D02*
X105252860Y-97005480D01*
X120852860Y-97005480D02*
X118132860Y-97005480D01*
X105252860Y-112605480D02*
X107972860Y-112605480D01*
X105252860Y-97005480D02*
X105252860Y-99725480D01*
X120852860Y-99725480D02*
X120852860Y-97005480D01*
X120852860Y-112605480D02*
X118132860Y-112605480D01*
X139902860Y-105440480D02*
X139902860Y-108160480D01*
X139902860Y-95280480D02*
X139902860Y-92560480D01*
X139902860Y-92560480D02*
X137182860Y-92560480D01*
X124302860Y-108160480D02*
X127022860Y-108160480D01*
X124302860Y-92560480D02*
X124302860Y-95280480D01*
X127022860Y-92560480D02*
X124302860Y-92560480D01*
X139902860Y-108160480D02*
X137182860Y-108160480D01*
X124302860Y-105440480D02*
X124302860Y-108160480D01*
X158952860Y-92740480D02*
X158952860Y-90020480D01*
X143352860Y-105620480D02*
X146072860Y-105620480D01*
X143352860Y-90020480D02*
X143352860Y-92740480D01*
X146072860Y-90020480D02*
X143352860Y-90020480D01*
X158952860Y-102900480D02*
X158952860Y-105620480D01*
X158952860Y-90020480D02*
X156232860Y-90020480D01*
X143352860Y-102900480D02*
X143352860Y-105620480D01*
X158952860Y-105620480D02*
X156232860Y-105620480D01*
X162402860Y-105440480D02*
X162402860Y-108160480D01*
X165122860Y-92560480D02*
X162402860Y-92560480D01*
X162402860Y-108160480D02*
X165122860Y-108160480D01*
X178002860Y-92560480D02*
X175282860Y-92560480D01*
X162402860Y-92560480D02*
X162402860Y-95280480D01*
X178002860Y-108160480D02*
X175282860Y-108160480D01*
X178002860Y-95280480D02*
X178002860Y-92560480D01*
X178002860Y-105440480D02*
X178002860Y-108160480D01*
X197052860Y-97185480D02*
X197052860Y-94465480D01*
X197052860Y-94465480D02*
X194332860Y-94465480D01*
X184172860Y-94465480D02*
X181452860Y-94465480D01*
X197052860Y-110065480D02*
X194332860Y-110065480D01*
X197052860Y-107345480D02*
X197052860Y-110065480D01*
X181452860Y-94465480D02*
X181452860Y-97185480D01*
X181452860Y-107345480D02*
X181452860Y-110065480D01*
X181452860Y-110065480D02*
X184172860Y-110065480D01*
X221407858Y-127166071D02*
X222767858Y-124810482D01*
X211613451Y-118370482D02*
X209257862Y-117010482D01*
X201457862Y-130520478D02*
X203813451Y-131880478D01*
X222767858Y-124810482D02*
X220412269Y-123450482D01*
X209257862Y-117010482D02*
X207897862Y-119366071D01*
X216327858Y-135964889D02*
X214967858Y-138320478D01*
X214967858Y-138320478D02*
X212612269Y-136960478D01*
X202817862Y-128164889D02*
X201457862Y-130520478D01*
X83662860Y-116055480D02*
X83662860Y-118775480D01*
X99262860Y-128935480D02*
X99262860Y-131655480D01*
X86382860Y-116055480D02*
X83662860Y-116055480D01*
X99262860Y-131655480D02*
X96542860Y-131655480D01*
X83662860Y-128935480D02*
X83662860Y-131655480D01*
X99262860Y-116055480D02*
X96542860Y-116055480D01*
X83662860Y-131655480D02*
X86382860Y-131655480D01*
X99262860Y-118775480D02*
X99262860Y-116055480D01*
X120852860Y-131655480D02*
X118132860Y-131655480D01*
X105252860Y-116055480D02*
X105252860Y-118775480D01*
X120852860Y-116055480D02*
X118132860Y-116055480D01*
X120852860Y-118775480D02*
X120852860Y-116055480D01*
X120852860Y-128935480D02*
X120852860Y-131655480D01*
X105252860Y-131655480D02*
X107972860Y-131655480D01*
X105252860Y-128935480D02*
X105252860Y-131655480D01*
X107972860Y-116055480D02*
X105252860Y-116055480D01*
X139902860Y-124490480D02*
X139902860Y-127210480D01*
X127022860Y-111610480D02*
X124302860Y-111610480D01*
X139902860Y-127210480D02*
X137182860Y-127210480D01*
X124302860Y-111610480D02*
X124302860Y-114330480D01*
X139902860Y-111610480D02*
X137182860Y-111610480D01*
X139902860Y-114330480D02*
X139902860Y-111610480D01*
X124302860Y-127210480D02*
X127022860Y-127210480D01*
X124302860Y-124490480D02*
X124302860Y-127210480D01*
X158952860Y-121950480D02*
X158952860Y-124670480D01*
X143352860Y-121950480D02*
X143352860Y-124670480D01*
X143352860Y-109070480D02*
X143352860Y-111790480D01*
X158952860Y-109070480D02*
X156232860Y-109070480D01*
X146072860Y-109070480D02*
X143352860Y-109070480D01*
X158952860Y-111790480D02*
X158952860Y-109070480D01*
X143352860Y-124670480D02*
X146072860Y-124670480D01*
X158952860Y-124670480D02*
X156232860Y-124670480D01*
X178002860Y-114330480D02*
X178002860Y-111610480D01*
X178002860Y-111610480D02*
X175282860Y-111610480D01*
X162402860Y-124490480D02*
X162402860Y-127210480D01*
X162402860Y-127210480D02*
X165122860Y-127210480D01*
X178002860Y-124490480D02*
X178002860Y-127210480D01*
X178002860Y-127210480D02*
X175282860Y-127210480D01*
X165122860Y-111610480D02*
X162402860Y-111610480D01*
X162402860Y-111610480D02*
X162402860Y-114330480D01*
X197052860Y-126395480D02*
X197052860Y-129115480D01*
X197052860Y-113515480D02*
X194332860Y-113515480D01*
X181452860Y-113515480D02*
X181452860Y-116235480D01*
X197052860Y-129115480D02*
X194332860Y-129115480D01*
X181452860Y-126395480D02*
X181452860Y-129115480D01*
X184172860Y-113515480D02*
X181452860Y-113515480D01*
X181452860Y-129115480D02*
X184172860Y-129115480D01*
X197052860Y-116235480D02*
X197052860Y-113515480D01*
X219327862Y-137689889D02*
X217967862Y-140045478D01*
X231477858Y-147845478D02*
X229122269Y-146485478D01*
X217967862Y-140045478D02*
X220323451Y-141405478D01*
X232837858Y-145489889D02*
X231477858Y-147845478D01*
X225767862Y-126535482D02*
X224407862Y-128891071D01*
X237917858Y-136691071D02*
X239277858Y-134335482D01*
X239277858Y-134335482D02*
X236922269Y-132975482D01*
X228123451Y-127895482D02*
X225767862Y-126535482D01*
X86202860Y-147985480D02*
X86202860Y-150705480D01*
X86202860Y-135105480D02*
X86202860Y-137825480D01*
X86202860Y-150705480D02*
X88922860Y-150705480D01*
X88922860Y-135105480D02*
X86202860Y-135105480D01*
X101802860Y-150705480D02*
X99082860Y-150705480D01*
X101802860Y-147985480D02*
X101802860Y-150705480D01*
X101802860Y-137825480D02*
X101802860Y-135105480D01*
X101802860Y-135105480D02*
X99082860Y-135105480D01*
X105252860Y-150705480D02*
X107972860Y-150705480D01*
X107972860Y-135105480D02*
X105252860Y-135105480D01*
X105252860Y-135105480D02*
X105252860Y-137825480D01*
X120852860Y-150705480D02*
X118132860Y-150705480D01*
X120852860Y-147985480D02*
X120852860Y-150705480D01*
X120852860Y-137825480D02*
X120852860Y-135105480D01*
X105252860Y-147985480D02*
X105252860Y-150705480D01*
X120852860Y-135105480D02*
X118132860Y-135105480D01*
X124302860Y-146260480D02*
X127022860Y-146260480D01*
X139902860Y-146260480D02*
X137182860Y-146260480D01*
X139902860Y-133380480D02*
X139902860Y-130660480D01*
X124302860Y-143540480D02*
X124302860Y-146260480D01*
X139902860Y-130660480D02*
X137182860Y-130660480D01*
X124302860Y-130660480D02*
X124302860Y-133380480D01*
X127022860Y-130660480D02*
X124302860Y-130660480D01*
X139902860Y-143540480D02*
X139902860Y-146260480D01*
X146072860Y-128120480D02*
X143352860Y-128120480D01*
X158952860Y-141000480D02*
X158952860Y-143720480D01*
X158952860Y-128120480D02*
X156232860Y-128120480D01*
X143352860Y-141000480D02*
X143352860Y-143720480D01*
X158952860Y-130840480D02*
X158952860Y-128120480D01*
X143352860Y-143720480D02*
X146072860Y-143720480D01*
X158952860Y-143720480D02*
X156232860Y-143720480D01*
X143352860Y-128120480D02*
X143352860Y-130840480D01*
X171037427Y-132082470D02*
X170333439Y-134709788D01*
X182772281Y-148561172D02*
X182068293Y-151188490D01*
X173664745Y-132786458D02*
X171037427Y-132082470D01*
X166999850Y-147150913D02*
X169627168Y-147854901D01*
X186105870Y-136120047D02*
X183478552Y-135416059D01*
X185401882Y-138747365D02*
X186105870Y-136120047D01*
X167703838Y-144523595D02*
X166999850Y-147150913D01*
X182068293Y-151188490D02*
X179440975Y-150484502D01*
X204262858Y-156919889D02*
X202902858Y-159275478D01*
X190752862Y-149119889D02*
X189392862Y-151475478D01*
X197192862Y-137965482D02*
X195832862Y-140321071D01*
X202902858Y-159275478D02*
X200547269Y-157915478D01*
X189392862Y-151475478D02*
X191748451Y-152835478D01*
X199548451Y-139325482D02*
X197192862Y-137965482D01*
X210702858Y-145765482D02*
X208347269Y-144405482D01*
X209342858Y-148121071D02*
X210702858Y-145765482D01*
X219412858Y-168800478D02*
X217057269Y-167440478D01*
X205902862Y-161000478D02*
X208258451Y-162360478D01*
X220772858Y-166444889D02*
X219412858Y-168800478D01*
X213702862Y-147490482D02*
X212342862Y-149846071D01*
X227212858Y-155290482D02*
X224857269Y-153930482D01*
X207262862Y-158644889D02*
X205902862Y-161000478D01*
X216058451Y-148850482D02*
X213702862Y-147490482D01*
X225852858Y-157646071D02*
X227212858Y-155290482D01*
X99262860Y-90835480D02*
X99262860Y-93555480D01*
X83662860Y-93555480D02*
X86382860Y-93555480D01*
X83662860Y-77955480D02*
X83662860Y-80675480D01*
X86382860Y-77955480D02*
X83662860Y-77955480D01*
X83662860Y-90835480D02*
X83662860Y-93555480D01*
X99262860Y-93555480D02*
X96542860Y-93555480D01*
X99262860Y-80675480D02*
X99262860Y-77955480D01*
X99262860Y-77955480D02*
X96542860Y-77955480D01*
X105252860Y-93555480D02*
X107972860Y-93555480D01*
X120852860Y-93555480D02*
X118132860Y-93555480D01*
X120852860Y-77955480D02*
X118132860Y-77955480D01*
X105252860Y-77955480D02*
X105252860Y-80675480D01*
X120852860Y-80675480D02*
X120852860Y-77955480D01*
X105252860Y-90835480D02*
X105252860Y-93555480D01*
X107972860Y-77955480D02*
X105252860Y-77955480D01*
X120852860Y-90835480D02*
X120852860Y-93555480D01*
X209080705Y-137260089D02*
X208640764Y-137006089D01*
X204791281Y-134783589D02*
X204029281Y-136103411D01*
X204139266Y-136166911D02*
X204901266Y-134847089D01*
X208318705Y-138579911D02*
X209080705Y-137260089D01*
X205231222Y-135037589D02*
X204469222Y-136357411D01*
X209080705Y-137260089D02*
X204681295Y-134720089D01*
X204359236Y-136293911D02*
X205121236Y-134974089D01*
X205011251Y-134910589D02*
X204249251Y-136230411D01*
X205341207Y-135101089D02*
X204579207Y-136420911D01*
X203919295Y-136039911D02*
X208318705Y-138579911D01*
X204681295Y-134720089D02*
X203919295Y-136039911D01*
X176677995Y-133420995D02*
X181584898Y-134735796D01*
X181979339Y-133263725D02*
X181488648Y-133132245D01*
X177072436Y-131948924D02*
X176677995Y-133420995D01*
X181584898Y-134735796D02*
X181979339Y-133263725D01*
X181979339Y-133263725D02*
X177072436Y-131948924D01*
X177168686Y-133552475D02*
X177563126Y-132080404D01*
X177195108Y-131981794D02*
X176800668Y-133453865D01*
X177808471Y-132146144D02*
X177414031Y-133618215D01*
X176923340Y-133486735D02*
X177317781Y-132014664D01*
X177685798Y-132113274D02*
X177291358Y-133585345D01*
X177440453Y-132047534D02*
X177046013Y-133519605D01*
X148839000Y-128262000D02*
X148839000Y-126738000D01*
X148585000Y-126738000D02*
X148585000Y-128262000D01*
X148712000Y-126738000D02*
X148712000Y-128262000D01*
X148585000Y-128262000D02*
X153665000Y-128262000D01*
X149093000Y-128262000D02*
X149093000Y-126738000D01*
X149220000Y-126738000D02*
X149220000Y-128262000D01*
X149347000Y-126738000D02*
X149347000Y-128262000D01*
X153665000Y-126738000D02*
X153157000Y-126738000D01*
X153665000Y-128262000D02*
X153665000Y-126738000D01*
X153665000Y-126738000D02*
X148585000Y-126738000D01*
X148966000Y-126738000D02*
X148966000Y-128262000D01*
X129560000Y-129288000D02*
X129560000Y-130812000D01*
X129814000Y-130812000D02*
X129814000Y-129288000D01*
X130068000Y-130812000D02*
X130068000Y-129288000D01*
X129687000Y-129288000D02*
X129687000Y-130812000D01*
X134640000Y-129288000D02*
X134132000Y-129288000D01*
X130195000Y-129288000D02*
X130195000Y-130812000D01*
X134640000Y-130812000D02*
X134640000Y-129288000D01*
X129560000Y-130812000D02*
X134640000Y-130812000D01*
X130322000Y-129288000D02*
X130322000Y-130812000D01*
X129941000Y-129288000D02*
X129941000Y-130812000D01*
X134640000Y-129288000D02*
X129560000Y-129288000D01*
X111018000Y-135162000D02*
X111018000Y-133638000D01*
X111145000Y-133638000D02*
X111145000Y-135162000D01*
X111272000Y-133638000D02*
X111272000Y-135162000D01*
X115590000Y-135162000D02*
X115590000Y-133638000D01*
X110637000Y-133638000D02*
X110637000Y-135162000D01*
X115590000Y-133638000D02*
X110510000Y-133638000D01*
X110891000Y-133638000D02*
X110891000Y-135162000D01*
X110510000Y-135162000D02*
X115590000Y-135162000D01*
X110764000Y-135162000D02*
X110764000Y-133638000D01*
X110510000Y-133638000D02*
X110510000Y-135162000D01*
X115590000Y-133638000D02*
X115082000Y-133638000D01*
X172720000Y-107823000D02*
X167640000Y-107823000D01*
X167894000Y-109347000D02*
X167894000Y-107823000D01*
X172720000Y-107823000D02*
X172212000Y-107823000D01*
X168402000Y-107823000D02*
X168402000Y-109347000D01*
X167767000Y-107823000D02*
X167767000Y-109347000D01*
X172720000Y-109347000D02*
X172720000Y-107823000D01*
X168275000Y-107823000D02*
X168275000Y-109347000D01*
X168021000Y-107823000D02*
X168021000Y-109347000D01*
X168148000Y-109347000D02*
X168148000Y-107823000D01*
X167640000Y-107823000D02*
X167640000Y-109347000D01*
X167640000Y-109347000D02*
X172720000Y-109347000D01*
X89281000Y-74168000D02*
X89281000Y-75692000D01*
X89027000Y-74168000D02*
X89027000Y-75692000D01*
X89662000Y-74168000D02*
X89662000Y-75692000D01*
X93980000Y-74168000D02*
X93472000Y-74168000D01*
X93980000Y-74168000D02*
X88900000Y-74168000D01*
X88900000Y-74168000D02*
X88900000Y-75692000D01*
X93980000Y-75692000D02*
X93980000Y-74168000D01*
X89154000Y-75692000D02*
X89154000Y-74168000D01*
X88900000Y-75692000D02*
X93980000Y-75692000D01*
X89408000Y-75692000D02*
X89408000Y-74168000D01*
X89535000Y-74168000D02*
X89535000Y-75692000D01*
X167767000Y-69723000D02*
X167767000Y-71247000D01*
X172720000Y-71247000D02*
X172720000Y-69723000D01*
X168275000Y-69723000D02*
X168275000Y-71247000D01*
X167640000Y-69723000D02*
X167640000Y-71247000D01*
X167640000Y-71247000D02*
X172720000Y-71247000D01*
X172720000Y-69723000D02*
X172212000Y-69723000D01*
X167894000Y-71247000D02*
X167894000Y-69723000D01*
X172720000Y-69723000D02*
X167640000Y-69723000D01*
X168402000Y-69723000D02*
X168402000Y-71247000D01*
X168148000Y-71247000D02*
X168148000Y-69723000D01*
X168021000Y-69723000D02*
X168021000Y-71247000D01*
X115570000Y-93218000D02*
X110490000Y-93218000D01*
X110617000Y-93218000D02*
X110617000Y-94742000D01*
X110744000Y-94742000D02*
X110744000Y-93218000D01*
X110871000Y-93218000D02*
X110871000Y-94742000D01*
X111252000Y-93218000D02*
X111252000Y-94742000D01*
X115570000Y-94742000D02*
X115570000Y-93218000D01*
X110998000Y-94742000D02*
X110998000Y-93218000D01*
X111125000Y-93218000D02*
X111125000Y-94742000D01*
X110490000Y-94742000D02*
X115570000Y-94742000D01*
X110490000Y-93218000D02*
X110490000Y-94742000D01*
X115570000Y-93218000D02*
X115062000Y-93218000D01*
X134620000Y-69723000D02*
X134112000Y-69723000D01*
X129921000Y-69723000D02*
X129921000Y-71247000D01*
X134620000Y-71247000D02*
X134620000Y-69723000D01*
X129667000Y-69723000D02*
X129667000Y-71247000D01*
X130175000Y-69723000D02*
X130175000Y-71247000D01*
X129794000Y-71247000D02*
X129794000Y-69723000D01*
X134620000Y-69723000D02*
X129540000Y-69723000D01*
X129540000Y-71247000D02*
X134620000Y-71247000D01*
X130048000Y-71247000D02*
X130048000Y-69723000D01*
X129540000Y-69723000D02*
X129540000Y-71247000D01*
X130302000Y-69723000D02*
X130302000Y-71247000D01*
X206248000Y-107442000D02*
X206248000Y-105918000D01*
X206121000Y-105918000D02*
X206121000Y-107442000D01*
X205867000Y-105918000D02*
X205867000Y-107442000D01*
X205740000Y-107442000D02*
X210820000Y-107442000D01*
X210820000Y-105918000D02*
X205740000Y-105918000D01*
X206375000Y-105918000D02*
X206375000Y-107442000D01*
X205994000Y-107442000D02*
X205994000Y-105918000D01*
X210820000Y-107442000D02*
X210820000Y-105918000D01*
X205740000Y-105918000D02*
X205740000Y-107442000D01*
X206502000Y-105918000D02*
X206502000Y-107442000D01*
X210820000Y-105918000D02*
X210312000Y-105918000D01*
X172720000Y-88773000D02*
X172212000Y-88773000D01*
X168148000Y-90297000D02*
X168148000Y-88773000D01*
X168402000Y-88773000D02*
X168402000Y-90297000D01*
X167894000Y-90297000D02*
X167894000Y-88773000D01*
X172720000Y-90297000D02*
X172720000Y-88773000D01*
X167767000Y-88773000D02*
X167767000Y-90297000D01*
X167640000Y-88773000D02*
X167640000Y-90297000D01*
X167640000Y-90297000D02*
X172720000Y-90297000D01*
X168021000Y-88773000D02*
X168021000Y-90297000D01*
X168275000Y-88773000D02*
X168275000Y-90297000D01*
X172720000Y-88773000D02*
X167640000Y-88773000D01*
X93980000Y-112268000D02*
X93472000Y-112268000D01*
X88900000Y-113792000D02*
X93980000Y-113792000D01*
X93980000Y-112268000D02*
X88900000Y-112268000D01*
X89535000Y-112268000D02*
X89535000Y-113792000D01*
X89662000Y-112268000D02*
X89662000Y-113792000D01*
X89154000Y-113792000D02*
X89154000Y-112268000D01*
X89408000Y-113792000D02*
X89408000Y-112268000D01*
X88900000Y-112268000D02*
X88900000Y-113792000D01*
X89281000Y-112268000D02*
X89281000Y-113792000D01*
X89027000Y-112268000D02*
X89027000Y-113792000D01*
X93980000Y-113792000D02*
X93980000Y-112268000D01*
X111125000Y-74168000D02*
X111125000Y-75692000D01*
X110617000Y-74168000D02*
X110617000Y-75692000D01*
X110998000Y-75692000D02*
X110998000Y-74168000D01*
X110744000Y-75692000D02*
X110744000Y-74168000D01*
X110871000Y-74168000D02*
X110871000Y-75692000D01*
X115570000Y-75692000D02*
X115570000Y-74168000D01*
X110490000Y-74168000D02*
X110490000Y-75692000D01*
X110490000Y-75692000D02*
X115570000Y-75692000D01*
X115570000Y-74168000D02*
X115062000Y-74168000D01*
X111252000Y-74168000D02*
X111252000Y-75692000D01*
X115570000Y-74168000D02*
X110490000Y-74168000D01*
X148844000Y-87757000D02*
X148844000Y-86233000D01*
X153670000Y-86233000D02*
X148590000Y-86233000D01*
X153670000Y-87757000D02*
X153670000Y-86233000D01*
X149352000Y-86233000D02*
X149352000Y-87757000D01*
X148971000Y-86233000D02*
X148971000Y-87757000D01*
X153670000Y-86233000D02*
X153162000Y-86233000D01*
X148717000Y-86233000D02*
X148717000Y-87757000D01*
X149098000Y-87757000D02*
X149098000Y-86233000D01*
X148590000Y-87757000D02*
X153670000Y-87757000D01*
X148590000Y-86233000D02*
X148590000Y-87757000D01*
X149225000Y-86233000D02*
X149225000Y-87757000D01*
X181612000Y-66057000D02*
X180088000Y-66057000D01*
X181612000Y-66311000D02*
X180088000Y-66311000D01*
X180088000Y-66565000D02*
X181612000Y-66565000D01*
X180088000Y-65930000D02*
X181612000Y-65930000D01*
X181612000Y-61485000D02*
X180088000Y-61485000D01*
X180088000Y-61485000D02*
X180088000Y-61993000D01*
X180088000Y-61485000D02*
X180088000Y-66565000D01*
X181612000Y-66565000D02*
X181612000Y-61485000D01*
X180088000Y-66184000D02*
X181612000Y-66184000D01*
X180088000Y-65803000D02*
X181612000Y-65803000D01*
X180088000Y-66438000D02*
X181612000Y-66438000D01*
X149225000Y-105283000D02*
X149225000Y-106807000D01*
X148971000Y-105283000D02*
X148971000Y-106807000D01*
X153670000Y-105283000D02*
X148590000Y-105283000D01*
X148590000Y-105283000D02*
X148590000Y-106807000D01*
X153670000Y-105283000D02*
X153162000Y-105283000D01*
X148717000Y-105283000D02*
X148717000Y-106807000D01*
X149098000Y-106807000D02*
X149098000Y-105283000D01*
X148590000Y-106807000D02*
X153670000Y-106807000D01*
X153670000Y-106807000D02*
X153670000Y-105283000D01*
X148844000Y-106807000D02*
X148844000Y-105283000D01*
X149352000Y-105283000D02*
X149352000Y-106807000D01*
X148971000Y-124333000D02*
X148971000Y-125857000D01*
X149352000Y-124333000D02*
X149352000Y-125857000D01*
X148844000Y-125857000D02*
X148844000Y-124333000D01*
X149225000Y-124333000D02*
X149225000Y-125857000D01*
X153670000Y-124333000D02*
X153162000Y-124333000D01*
X148590000Y-124333000D02*
X148590000Y-125857000D01*
X149098000Y-125857000D02*
X149098000Y-124333000D01*
X148717000Y-124333000D02*
X148717000Y-125857000D01*
X148590000Y-125857000D02*
X153670000Y-125857000D01*
X153670000Y-124333000D02*
X148590000Y-124333000D01*
X153670000Y-125857000D02*
X153670000Y-124333000D01*
X186944000Y-111252000D02*
X186944000Y-109728000D01*
X191770000Y-111252000D02*
X191770000Y-109728000D01*
X186690000Y-109728000D02*
X186690000Y-111252000D01*
X191770000Y-109728000D02*
X191262000Y-109728000D01*
X187452000Y-109728000D02*
X187452000Y-111252000D01*
X187071000Y-109728000D02*
X187071000Y-111252000D01*
X187198000Y-111252000D02*
X187198000Y-109728000D01*
X187325000Y-109728000D02*
X187325000Y-111252000D01*
X186817000Y-109728000D02*
X186817000Y-111252000D01*
X186690000Y-111252000D02*
X191770000Y-111252000D01*
X191770000Y-109728000D02*
X186690000Y-109728000D01*
X89535000Y-131318000D02*
X89535000Y-132842000D01*
X89154000Y-132842000D02*
X89154000Y-131318000D01*
X93980000Y-132842000D02*
X93980000Y-131318000D01*
X89408000Y-132842000D02*
X89408000Y-131318000D01*
X93980000Y-131318000D02*
X88900000Y-131318000D01*
X93980000Y-131318000D02*
X93472000Y-131318000D01*
X89027000Y-131318000D02*
X89027000Y-132842000D01*
X88900000Y-132842000D02*
X93980000Y-132842000D01*
X88900000Y-131318000D02*
X88900000Y-132842000D01*
X89281000Y-131318000D02*
X89281000Y-132842000D01*
X89662000Y-131318000D02*
X89662000Y-132842000D01*
X148971000Y-67183000D02*
X148971000Y-68707000D01*
X148590000Y-68707000D02*
X153670000Y-68707000D01*
X149352000Y-67183000D02*
X149352000Y-68707000D01*
X148590000Y-67183000D02*
X148590000Y-68707000D01*
X153670000Y-68707000D02*
X153670000Y-67183000D01*
X149225000Y-67183000D02*
X149225000Y-68707000D01*
X149098000Y-68707000D02*
X149098000Y-67183000D01*
X148844000Y-68707000D02*
X148844000Y-67183000D01*
X153670000Y-67183000D02*
X148590000Y-67183000D01*
X148717000Y-67183000D02*
X148717000Y-68707000D01*
X153670000Y-67183000D02*
X153162000Y-67183000D01*
X205284266Y-134136911D02*
X206046266Y-132817089D01*
X206156251Y-132880589D02*
X205394251Y-134200411D01*
X210225705Y-135230089D02*
X209785764Y-134976089D01*
X205936281Y-132753589D02*
X205174281Y-134073411D01*
X206376222Y-133007589D02*
X205614222Y-134327411D01*
X209463705Y-136549911D02*
X210225705Y-135230089D01*
X210225705Y-135230089D02*
X205826295Y-132690089D01*
X206486207Y-133071089D02*
X205724207Y-134390911D01*
X205826295Y-132690089D02*
X205064295Y-134009911D01*
X205504236Y-134263911D02*
X206266236Y-132944089D01*
X205064295Y-134009911D02*
X209463705Y-136549911D01*
X130302000Y-88773000D02*
X130302000Y-90297000D01*
X134620000Y-88773000D02*
X129540000Y-88773000D01*
X134620000Y-90297000D02*
X134620000Y-88773000D01*
X134620000Y-88773000D02*
X134112000Y-88773000D01*
X129540000Y-88773000D02*
X129540000Y-90297000D01*
X129667000Y-88773000D02*
X129667000Y-90297000D01*
X129794000Y-90297000D02*
X129794000Y-88773000D01*
X129540000Y-90297000D02*
X134620000Y-90297000D01*
X130175000Y-88773000D02*
X130175000Y-90297000D01*
X129921000Y-88773000D02*
X129921000Y-90297000D01*
X130048000Y-90297000D02*
X130048000Y-88773000D01*
X168275000Y-126873000D02*
X168275000Y-128397000D01*
X167767000Y-126873000D02*
X167767000Y-128397000D01*
X168021000Y-126873000D02*
X168021000Y-128397000D01*
X172720000Y-126873000D02*
X167640000Y-126873000D01*
X167640000Y-128397000D02*
X172720000Y-128397000D01*
X172720000Y-126873000D02*
X172212000Y-126873000D01*
X168402000Y-126873000D02*
X168402000Y-128397000D01*
X172720000Y-128397000D02*
X172720000Y-126873000D01*
X167894000Y-128397000D02*
X167894000Y-126873000D01*
X168148000Y-128397000D02*
X168148000Y-126873000D01*
X167640000Y-126873000D02*
X167640000Y-128397000D01*
X93980000Y-93218000D02*
X93472000Y-93218000D01*
X88900000Y-94742000D02*
X93980000Y-94742000D01*
X89281000Y-93218000D02*
X89281000Y-94742000D01*
X89408000Y-94742000D02*
X89408000Y-93218000D01*
X89027000Y-93218000D02*
X89027000Y-94742000D01*
X93980000Y-94742000D02*
X93980000Y-93218000D01*
X89535000Y-93218000D02*
X89535000Y-94742000D01*
X88900000Y-93218000D02*
X88900000Y-94742000D01*
X93980000Y-93218000D02*
X88900000Y-93218000D01*
X89154000Y-94742000D02*
X89154000Y-93218000D01*
X89662000Y-93218000D02*
X89662000Y-94742000D01*
X205994000Y-82677000D02*
X205994000Y-81153000D01*
X205740000Y-81153000D02*
X205740000Y-82677000D01*
X206121000Y-81153000D02*
X206121000Y-82677000D01*
X210820000Y-81153000D02*
X205740000Y-81153000D01*
X210820000Y-81153000D02*
X210312000Y-81153000D01*
X206502000Y-81153000D02*
X206502000Y-82677000D01*
X206248000Y-82677000D02*
X206248000Y-81153000D01*
X210820000Y-82677000D02*
X210820000Y-81153000D01*
X205740000Y-82677000D02*
X210820000Y-82677000D01*
X205867000Y-81153000D02*
X205867000Y-82677000D01*
X206375000Y-81153000D02*
X206375000Y-82677000D01*
X187325000Y-90678000D02*
X187325000Y-92202000D01*
X191770000Y-90678000D02*
X186690000Y-90678000D01*
X186690000Y-92202000D02*
X191770000Y-92202000D01*
X191770000Y-90678000D02*
X191262000Y-90678000D01*
X186817000Y-90678000D02*
X186817000Y-92202000D01*
X187452000Y-90678000D02*
X187452000Y-92202000D01*
X191770000Y-92202000D02*
X191770000Y-90678000D01*
X187071000Y-90678000D02*
X187071000Y-92202000D01*
X187198000Y-92202000D02*
X187198000Y-90678000D01*
X186944000Y-92202000D02*
X186944000Y-90678000D01*
X186690000Y-90678000D02*
X186690000Y-92202000D01*
X110998000Y-113792000D02*
X110998000Y-112268000D01*
X110744000Y-113792000D02*
X110744000Y-112268000D01*
X110490000Y-113792000D02*
X115570000Y-113792000D01*
X115570000Y-112268000D02*
X110490000Y-112268000D01*
X110617000Y-112268000D02*
X110617000Y-113792000D01*
X115570000Y-113792000D02*
X115570000Y-112268000D01*
X110490000Y-112268000D02*
X110490000Y-113792000D01*
X115570000Y-112268000D02*
X115062000Y-112268000D01*
X111125000Y-112268000D02*
X111125000Y-113792000D01*
X111252000Y-112268000D02*
X111252000Y-113792000D01*
X110871000Y-112268000D02*
X110871000Y-113792000D01*
X110490000Y-131318000D02*
X110490000Y-132842000D01*
X115570000Y-131318000D02*
X110490000Y-131318000D01*
X111252000Y-131318000D02*
X111252000Y-132842000D01*
X110490000Y-132842000D02*
X115570000Y-132842000D01*
X110871000Y-131318000D02*
X110871000Y-132842000D01*
X115570000Y-131318000D02*
X115062000Y-131318000D01*
X110744000Y-132842000D02*
X110744000Y-131318000D01*
X110617000Y-131318000D02*
X110617000Y-132842000D01*
X115570000Y-132842000D02*
X115570000Y-131318000D01*
X110998000Y-132842000D02*
X110998000Y-131318000D01*
X111125000Y-131318000D02*
X111125000Y-132842000D01*
X134620000Y-109347000D02*
X134620000Y-107823000D01*
X129540000Y-109347000D02*
X134620000Y-109347000D01*
X134620000Y-107823000D02*
X134112000Y-107823000D01*
X129921000Y-107823000D02*
X129921000Y-109347000D01*
X129540000Y-107823000D02*
X129540000Y-109347000D01*
X130048000Y-109347000D02*
X130048000Y-107823000D01*
X134620000Y-107823000D02*
X129540000Y-107823000D01*
X129667000Y-107823000D02*
X129667000Y-109347000D01*
X130302000Y-107823000D02*
X130302000Y-109347000D01*
X130175000Y-107823000D02*
X130175000Y-109347000D01*
X129794000Y-109347000D02*
X129794000Y-107823000D01*
X220639266Y-145616911D02*
X221401266Y-144297089D01*
X220859236Y-145743911D02*
X221621236Y-144424089D01*
X221731222Y-144487589D02*
X220969222Y-145807411D01*
X221841207Y-144551089D02*
X221079207Y-145870911D01*
X221181295Y-144170089D02*
X220419295Y-145489911D01*
X221511251Y-144360589D02*
X220749251Y-145680411D01*
X220419295Y-145489911D02*
X224818705Y-148029911D01*
X225580705Y-146710089D02*
X221181295Y-144170089D01*
X224818705Y-148029911D02*
X225580705Y-146710089D01*
X221291281Y-144233589D02*
X220529281Y-145553411D01*
X225580705Y-146710089D02*
X225140764Y-146456089D01*
X130302000Y-126873000D02*
X130302000Y-128397000D01*
X129794000Y-128397000D02*
X129794000Y-126873000D01*
X130048000Y-128397000D02*
X130048000Y-126873000D01*
X129667000Y-126873000D02*
X129667000Y-128397000D01*
X129540000Y-126873000D02*
X129540000Y-128397000D01*
X134620000Y-128397000D02*
X134620000Y-126873000D01*
X130175000Y-126873000D02*
X130175000Y-128397000D01*
X134620000Y-126873000D02*
X129540000Y-126873000D01*
X129921000Y-126873000D02*
X129921000Y-128397000D01*
X129540000Y-128397000D02*
X134620000Y-128397000D01*
X134620000Y-126873000D02*
X134112000Y-126873000D01*
X221794266Y-143661911D02*
X222556266Y-142342089D01*
X226735705Y-144755089D02*
X226295764Y-144501089D01*
X225973705Y-146074911D02*
X226735705Y-144755089D01*
X226735705Y-144755089D02*
X222336295Y-142215089D01*
X222446281Y-142278589D02*
X221684281Y-143598411D01*
X222336295Y-142215089D02*
X221574295Y-143534911D01*
X222014236Y-143788911D02*
X222776236Y-142469089D01*
X222666251Y-142405589D02*
X221904251Y-143725411D01*
X222886222Y-142532589D02*
X222124222Y-143852411D01*
X221574295Y-143534911D02*
X225973705Y-146074911D01*
X222996207Y-142596089D02*
X222234207Y-143915911D01*
X191770000Y-130302000D02*
X191770000Y-128778000D01*
X186690000Y-130302000D02*
X191770000Y-130302000D01*
X186690000Y-128778000D02*
X186690000Y-130302000D01*
X187325000Y-128778000D02*
X187325000Y-130302000D01*
X186944000Y-130302000D02*
X186944000Y-128778000D01*
X187071000Y-128778000D02*
X187071000Y-130302000D01*
X187452000Y-128778000D02*
X187452000Y-130302000D01*
X191770000Y-128778000D02*
X191262000Y-128778000D01*
X186817000Y-128778000D02*
X186817000Y-130302000D01*
X191770000Y-128778000D02*
X186690000Y-128778000D01*
X187198000Y-130302000D02*
X187198000Y-128778000D01*
X91968000Y-135128000D02*
X91968000Y-133604000D01*
X91841000Y-133604000D02*
X91841000Y-135128000D01*
X92095000Y-133604000D02*
X92095000Y-135128000D01*
X96540000Y-135128000D02*
X96540000Y-133604000D01*
X91714000Y-135128000D02*
X91714000Y-133604000D01*
X92222000Y-133604000D02*
X92222000Y-135128000D01*
X91460000Y-133604000D02*
X91460000Y-135128000D01*
X91460000Y-135128000D02*
X96540000Y-135128000D01*
X96540000Y-133604000D02*
X91460000Y-133604000D01*
X91587000Y-133604000D02*
X91587000Y-135128000D01*
X96540000Y-133604000D02*
X96032000Y-133604000D01*
D12*
X154780000Y-128314000D02*
X147480000Y-128314000D01*
X147480000Y-128314000D02*
X147480000Y-129464000D01*
X154780000Y-133814000D02*
X147480000Y-133814000D01*
X188276000Y-79138000D02*
X190176000Y-79138000D01*
X189676000Y-76818000D02*
X188276000Y-76818000D01*
D11*
X202438000Y-91999000D02*
X203962000Y-91999000D01*
X202438000Y-91364000D02*
X203962000Y-91364000D01*
X203962000Y-86919000D02*
X202438000Y-86919000D01*
X203962000Y-91745000D02*
X202438000Y-91745000D01*
X202438000Y-91618000D02*
X203962000Y-91618000D01*
X203962000Y-91491000D02*
X202438000Y-91491000D01*
X202438000Y-91872000D02*
X203962000Y-91872000D01*
X202438000Y-91237000D02*
X203962000Y-91237000D01*
X202438000Y-86919000D02*
X202438000Y-91999000D01*
X203962000Y-91999000D02*
X203962000Y-86919000D01*
X202438000Y-86919000D02*
X202438000Y-87427000D01*
D12*
X98607860Y-136188000D02*
X98607860Y-137338000D01*
X105907860Y-136188000D02*
X98607860Y-136188000D01*
X105907860Y-141688000D02*
X98607860Y-141688000D01*
X186122000Y-49724000D02*
X186122000Y-52384000D01*
X188722000Y-49724000D02*
X188722000Y-52384000D01*
X189992000Y-49724000D02*
X191322000Y-49724000D01*
X188722000Y-49724000D02*
X186122000Y-49724000D01*
X191322000Y-49724000D02*
X191322000Y-51054000D01*
X188722000Y-52384000D02*
X186122000Y-52384000D01*
D11*
X200279000Y-54610000D02*
X200279000Y-56134000D01*
X200025000Y-54610000D02*
X200025000Y-56134000D01*
X204724000Y-56134000D02*
X204724000Y-54610000D01*
X204724000Y-54610000D02*
X204216000Y-54610000D01*
X199898000Y-56134000D02*
X199898000Y-54610000D01*
X204724000Y-54610000D02*
X199644000Y-54610000D01*
X200406000Y-54610000D02*
X200406000Y-56134000D01*
X200152000Y-56134000D02*
X200152000Y-54610000D01*
X199771000Y-54610000D02*
X199771000Y-56134000D01*
X199644000Y-54610000D02*
X199644000Y-56134000D01*
X199644000Y-56134000D02*
X204724000Y-56134000D01*
D12*
X147480000Y-76410000D02*
X154780000Y-76410000D01*
X154780000Y-76410000D02*
X154780000Y-75260000D01*
X147480000Y-70910000D02*
X154780000Y-70910000D01*
D11*
X201676000Y-91948000D02*
X201676000Y-86868000D01*
X200152000Y-86868000D02*
X200152000Y-91948000D01*
X201676000Y-91694000D02*
X200152000Y-91694000D01*
X200152000Y-91567000D02*
X201676000Y-91567000D01*
X200152000Y-91948000D02*
X201676000Y-91948000D01*
X200152000Y-86868000D02*
X200152000Y-87376000D01*
X200152000Y-91186000D02*
X201676000Y-91186000D01*
X200152000Y-91313000D02*
X201676000Y-91313000D01*
X200152000Y-91821000D02*
X201676000Y-91821000D01*
X201676000Y-86868000D02*
X200152000Y-86868000D01*
X201676000Y-91440000D02*
X200152000Y-91440000D01*
D12*
X176077860Y-79712000D02*
X183377860Y-79712000D01*
X176077860Y-74212000D02*
X183377860Y-74212000D01*
X183377860Y-79712000D02*
X183377860Y-78562000D01*
X105907860Y-83506000D02*
X105907860Y-82356000D01*
X98607860Y-83506000D02*
X105907860Y-83506000D01*
X98607860Y-78006000D02*
X105907860Y-78006000D01*
X187698007Y-134731430D02*
X187123007Y-135727359D01*
X194019993Y-138381430D02*
X187698007Y-134731430D01*
X191269993Y-143144570D02*
X184948007Y-139494570D01*
D14*
X203122501Y-134700000D03*
D15*
X209877499Y-138600000D03*
D16*
X175561556Y-132332966D03*
D15*
X183095778Y-134351754D03*
D17*
X147225000Y-127500000D03*
D15*
X155025000Y-127500000D03*
D17*
X128200000Y-130050000D03*
D15*
X136000000Y-130050000D03*
D17*
X109150000Y-134400000D03*
D15*
X116950000Y-134400000D03*
D17*
X166280000Y-108585000D03*
D15*
X174080000Y-108585000D03*
D17*
X87540000Y-74930000D03*
D15*
X95340000Y-74930000D03*
D17*
X166280000Y-70485000D03*
D15*
X174080000Y-70485000D03*
D17*
X109130000Y-93980000D03*
D15*
X116930000Y-93980000D03*
D17*
X128180000Y-70485000D03*
D15*
X135980000Y-70485000D03*
D17*
X204380000Y-106680000D03*
D15*
X212180000Y-106680000D03*
D17*
X166280000Y-89535000D03*
D15*
X174080000Y-89535000D03*
D17*
X87540000Y-113030000D03*
D15*
X95340000Y-113030000D03*
D17*
X109130000Y-74930000D03*
D15*
X116930000Y-74930000D03*
D17*
X147230000Y-86995000D03*
D15*
X155030000Y-86995000D03*
D17*
X180850000Y-67925000D03*
D15*
X180850000Y-60125000D03*
D17*
X147230000Y-106045000D03*
D15*
X155030000Y-106045000D03*
D17*
X147230000Y-125095000D03*
D15*
X155030000Y-125095000D03*
D17*
X185330000Y-110490000D03*
D15*
X193130000Y-110490000D03*
D17*
X87540000Y-132080000D03*
D15*
X95340000Y-132080000D03*
D17*
X147230000Y-67945000D03*
D15*
X155030000Y-67945000D03*
D14*
X204267501Y-132670000D03*
D15*
X211022499Y-136570000D03*
D17*
X128180000Y-89535000D03*
D15*
X135980000Y-89535000D03*
D17*
X166280000Y-127635000D03*
D15*
X174080000Y-127635000D03*
D17*
X87540000Y-93980000D03*
D15*
X95340000Y-93980000D03*
D18*
X85344000Y-53848000D03*
D17*
X204380000Y-81915000D03*
D15*
X212180000Y-81915000D03*
D17*
X185330000Y-91440000D03*
D15*
X193130000Y-91440000D03*
D17*
X109130000Y-113030000D03*
D15*
X116930000Y-113030000D03*
D17*
X109130000Y-132080000D03*
D15*
X116930000Y-132080000D03*
D17*
X128180000Y-108585000D03*
D15*
X135980000Y-108585000D03*
D18*
X103375000Y-133625000D03*
D14*
X219622501Y-144150000D03*
D15*
X226377499Y-148050000D03*
D17*
X128180000Y-127635000D03*
D15*
X135980000Y-127635000D03*
D14*
X220777501Y-142195000D03*
D15*
X227532499Y-146095000D03*
D17*
X185330000Y-129540000D03*
D15*
X193130000Y-129540000D03*
D17*
X90100000Y-134366000D03*
D15*
X97900000Y-134366000D03*
D18*
X163576000Y-144526000D03*
X227330000Y-151638000D03*
X214630000Y-55626000D03*
D15*
X203200000Y-85559000D03*
D17*
X203200000Y-93359000D03*
X198284000Y-55372000D03*
D15*
X206084000Y-55372000D03*
X200914000Y-85508000D03*
D17*
X200914000Y-93308000D03*
M02*
